<svg width="213" height="85" viewBox="0 0 213 85" fill="none" xmlns="http://www.w3.org/2000/svg">
<path d="M8.56369 81.9923H0V79.4205L7.60246 71.0513H11.928V79.5513H14.4185V81.9487H11.928V84.5641H8.60738V81.9923H8.56369ZM8.56369 73.841L3.49538 79.5949H8.56369V73.841Z" fill="white"/>
<path d="M16.5157 70.7025H29.536V73.3615H20.2733V76.2384H29.0554V78.7666H20.2733V81.9487H29.5797V84.6077H16.472V70.7025H16.5157Z" fill="white"/>
<path d="M32.1139 70.7025H35.9151V73.1871C35.9151 75.6717 34.648 77.241 32.1139 77.5897V76.2384C33.381 75.8897 33.7742 75.323 33.8616 74.0153H32.1139V70.7025Z" fill="white"/>
<path d="M40.896 81.382C41.0707 82.2974 41.6824 82.864 43.4738 82.864C45.0467 82.864 45.9643 82.4717 45.9643 81.7307C45.9643 81.164 45.6584 80.9025 43.9981 80.6846L40.8523 80.2487C38.6677 79.9435 37.4006 79.2897 37.4006 77.2846C37.4006 74.4512 40.2843 73.7538 43.1243 73.7538C47.9741 73.7538 49.0664 75.323 49.3286 77.2846H45.5273C45.3526 76.1948 44.2166 75.8897 43.2117 75.8897C42.2941 75.8897 40.9834 75.9769 40.9834 76.9794C40.9834 77.4589 41.2455 77.8076 42.731 77.9384L45.1341 78.1999C48.6295 78.5922 49.7655 79.5948 49.7655 81.4256C49.7655 84.5205 46.2701 84.9563 43.299 84.9563C39.323 84.9563 37.3132 83.823 37.1384 81.3384H40.896V81.382Z" fill="white"/>
<path d="M70.6504 75.9333C70.3009 73.9281 68.6406 72.9256 66.6744 72.9256C63.0917 72.9256 62.3052 75.7153 62.3052 77.6333C62.3052 79.5076 63.048 82.341 66.6744 82.341C68.5095 82.341 70.3009 81.4692 70.6504 79.2461H74.7575C74.2769 83.2999 70.9563 84.9999 66.4997 84.9999C61.4314 84.9999 58.2418 82.8205 58.2418 77.6333C58.2418 72.4461 61.3877 70.2666 66.4997 70.2666C69.864 70.2666 74.1458 71.1384 74.7138 75.9333H70.6504Z" fill="white"/>
<path d="M84.4572 70.3102C91.9723 70.3102 93.152 74.7563 93.152 77.6768C93.152 80.5974 91.9723 85.0435 84.4572 85.0435C76.9421 85.0435 75.7625 80.5974 75.7625 77.6768C75.7625 74.7563 76.9858 70.3102 84.4572 70.3102ZM84.4572 82.3409C87.9089 82.3409 89.0886 79.8127 89.0886 77.6333C89.0886 75.4538 87.8652 72.9256 84.4572 72.9256C81.0055 72.9256 79.8258 75.4538 79.8258 77.6333C79.8258 79.8127 81.0492 82.3409 84.4572 82.3409Z" fill="white"/>
<path d="M106.784 70.7025H110.454V84.6077H106.347L98.7446 74.8871H98.7009V84.6077H95.0308V70.7025H99.4437L106.784 80.423H106.828V70.7025H106.784Z" fill="white"/>
<path d="M122.557 74.7128C122.339 72.882 120.591 72.7076 119.062 72.7076C117.489 72.7076 116.484 73.4051 116.484 74.364C116.484 75.1051 117.095 75.4974 118.1 75.6717L122.863 76.4128C125.397 76.8051 127.319 77.764 127.319 80.2923C127.319 82.9076 125.572 84.9564 120.067 84.9564C116.659 84.9564 112.246 84.5205 112.202 80.1615H116.484C116.527 82.0794 118.45 82.3846 120.067 82.3846C121.858 82.3846 123.038 81.8615 123.038 80.641C123.038 79.5512 122.164 79.2897 120.678 79.0282L117.227 78.5051C114.823 78.1128 112.464 77.4153 112.464 74.582C112.464 71.4871 114.998 70.223 119.367 70.223C122.251 70.223 126.489 70.7025 126.751 74.6692H122.557V74.7128Z" fill="white"/>
<path d="M128.892 70.7025H132.694V78.6794C132.694 80.0307 132.737 82.341 136.233 82.341C139.728 82.341 139.772 80.0307 139.772 78.6794V70.7025H143.573V79.6384C143.573 81.2076 143.398 85 136.233 85C129.111 85 128.892 81.1641 128.892 79.6384V70.7025Z" fill="white"/>
<path d="M146.063 70.7025H149.865V81.8615H158.385V84.6512H146.107V70.7025H146.063Z" fill="white"/>
<path d="M162.186 73.3179H156.986V70.6589H171.143V73.3179H165.943V84.6077H162.142V73.3179H162.186Z" fill="white"/>
<path d="M172.497 70.7025H176.298V84.6077H172.497V70.7025Z" fill="white"/>
<path d="M190.717 70.7025H194.387V84.6077H190.28L182.634 74.8871V84.6077H178.964V70.7025H183.377L190.717 80.423H190.761V70.7025H190.717Z" fill="white"/>
<path d="M205.878 76.8487H213V84.6076H211.078L210.553 82.9948C209.243 84.4333 207.102 84.9999 204.699 84.9999C199.63 84.9999 196.441 82.8205 196.441 77.6333C196.441 73.3179 199.412 70.2666 204.699 70.2666C208.587 70.2666 212.214 71.3999 212.913 75.2358H208.675C208.107 73.4487 206.49 72.9256 205.135 72.9256C201.684 72.9256 200.504 75.4538 200.504 77.6333C200.504 79.8128 201.727 82.341 205.135 82.341C207.189 82.341 208.806 81.5564 209.243 79.2461H205.878V76.8487Z" fill="white"/>
<path d="M208.587 65.9512H207.757V65.6897H209.767V65.9512H208.937V68.2615H208.631V65.9512H208.587ZM212.388 65.6897H212.913V68.2615H212.607V65.9512L211.689 68.2615H211.471L210.553 65.9512V68.2615H210.247V65.6897H210.772L211.602 67.782L212.388 65.6897Z" fill="white"/>
<path d="M150.083 33.0846L128.368 54.7487L121.858 48.2538L143.573 26.6333L139.247 22.2744L117.532 43.9385L111.022 37.4436L132.737 15.8231L128.412 11.4641L106.697 33.1282H106.653L84.9815 11.5077L80.656 15.8231L102.327 37.4872L95.8609 43.9821L74.1458 22.318L69.8203 26.6333L91.4917 48.2974L85.0252 54.7923L63.3102 33.1282L58.9846 37.4436L80.656 59.1077L85.0252 63.4231L106.697 41.8026L128.368 63.4231L132.694 59.1077V59.0641L154.409 37.4436L150.083 33.0846Z" fill="white"/>
<path d="M63.3102 30.8615L85.0252 52.482L89.3508 48.1667L67.6357 26.5026L74.1458 20.0513L95.8609 41.6718L100.186 37.3564L78.4714 15.6923L84.9815 9.24102L106.697 30.8615L111.022 26.5461L128.412 9.19743L134.878 15.6923L113.207 37.3128L117.532 41.6718L139.247 20.0077L145.714 26.5026L124.042 48.1231L128.368 52.482L150.083 30.8179L154.409 26.5026L128.368 0.523071L124.042 4.88205L106.653 22.1872L89.3071 4.88205L84.9815 0.566661L58.9846 26.5026L63.3102 30.8615Z" fill="white"/>
<path d="M133.13 0.261538H132.3V0H134.31V0.261538H133.48V2.57179H133.174V0.261538H133.13ZM136.888 0H137.412V2.57179H137.106V0.261538L136.189 2.57179H136.014L135.097 0.261538V2.57179H134.791V0H135.315L136.145 2.09231L136.888 0Z" fill="white"/>
</svg>
