<svg width="23" height="23" viewBox="0 0 23 23" fill="none" xmlns="http://www.w3.org/2000/svg">
<g clip-path="url(#clip0_343_5469)">
<path d="M4.30078 0.665633V3.66098C4.30078 4.02946 4.5937 4.32662 4.95692 4.32662C5.32014 4.32662 5.61306 4.02946 5.61306 3.66098V0.665633C5.61306 0.297158 5.31428 0 4.95692 0C4.5937 0 4.30078 0.297158 4.30078 0.665633Z" fill="#008BAD"/>
<path d="M17.4219 0.665633V3.66098C17.4219 4.02946 17.7148 4.32662 18.078 4.32662C18.4412 4.32662 18.7342 4.02946 18.7342 3.66098V0.665633C18.7342 0.297158 18.4412 0 18.078 0C17.7148 0 17.4219 0.297158 17.4219 0.665633Z" fill="#008BAD"/>
<path d="M21.5881 2.32983H19.3912V3.99392C19.3912 4.72492 18.7995 5.32518 18.079 5.32518C17.3584 5.32518 16.7667 4.72492 16.7667 3.99392V2.32983H6.26847V3.99392C6.26847 4.72492 5.67677 5.32518 4.95619 5.32518C4.23561 5.32518 3.64391 4.72492 3.64391 3.99392V2.32983H1.41187C0.620988 2.32983 0 2.95981 0 3.76213V21.5678C0 22.3642 0.620988 23.0001 1.41187 23.0001H21.5881C22.3732 23.0001 23 22.3701 23 21.5678V3.76213C23 2.95981 22.3732 2.32983 21.5881 2.32983ZM6.9246 18.2396C6.9246 18.6378 6.59654 18.9707 6.20402 18.9707H3.05222C2.6597 18.9707 2.33164 18.6378 2.33164 18.2396V15.375C2.33164 14.9769 2.6597 14.644 3.05222 14.644H6.20402C6.59654 14.644 6.9246 14.9769 6.9246 15.375V18.2396ZM6.9246 11.2505C6.9246 11.6487 6.59654 11.9815 6.20402 11.9815H3.05222C2.6597 11.9815 2.33164 11.6487 2.33164 11.2505V8.3859C2.33164 7.98771 2.6597 7.6549 3.05222 7.6549H6.20402C6.59654 7.6549 6.9246 7.98771 6.9246 8.3859V11.2505ZM13.8141 18.2396C13.8141 18.6378 13.486 18.9707 13.0935 18.9707H9.94167C9.54916 18.9707 9.22109 18.6378 9.22109 18.2396V15.375C9.22109 14.9769 9.54916 14.644 9.94167 14.644H13.0935C13.486 14.644 13.8141 14.9769 13.8141 15.375V18.2396ZM13.8141 11.2505C13.8141 11.6487 13.486 11.9815 13.0935 11.9815H9.94167C9.54916 11.9815 9.22109 11.6487 9.22109 11.2505V8.3859C9.22109 7.98771 9.54916 7.6549 9.94167 7.6549H13.0935C13.486 7.6549 13.8141 7.98771 13.8141 8.3859V11.2505ZM20.7035 18.2396C20.7035 18.6378 20.3754 18.9707 19.9829 18.9707H16.8311C16.4386 18.9707 16.1105 18.6378 16.1105 18.2396V15.375C16.1105 14.9769 16.4386 14.644 16.8311 14.644H19.9771C20.3696 14.644 20.6977 14.9769 20.6977 15.375V18.2396H20.7035ZM20.7035 11.2505C20.7035 11.6487 20.3754 11.9815 19.9829 11.9815H16.8311C16.4386 11.9815 16.1105 11.6487 16.1105 11.2505V8.3859C16.1105 7.98771 16.4386 7.6549 16.8311 7.6549H19.9771C20.3696 7.6549 20.6977 7.98771 20.6977 8.3859V11.2505H20.7035Z" fill="#008BAD"/>
</g>
<defs>
<clipPath id="clip0_343_5469">
<rect width="23" height="23" fill="white"/>
</clipPath>
</defs>
</svg>
