<svg width="476" height="364" viewBox="0 0 476 364" fill="none" xmlns="http://www.w3.org/2000/svg">
<g filter="url(#filter0_d_395_2951)">
<path d="M336.981 33.367L20.6835 33.367C16.2588 33.367 12.0152 31.6093 8.88649 28.4805C5.75772 25.3518 4 21.1082 4 16.6835C4 12.2588 5.75772 8.01525 8.88649 4.88648C12.0152 1.75772 16.2588 2.36158e-09 20.6835 3.21398e-09L336.981 6.41468e-08C341.405 6.49992e-08 345.649 1.75772 348.778 4.88648C351.906 8.01525 353.664 12.2588 353.664 16.6835C353.664 21.1082 351.906 25.3518 348.778 28.4805C345.649 31.6093 341.405 33.367 336.981 33.367ZM20.6835 3.28335C17.1296 3.28335 13.7212 4.69514 11.2082 7.20816C8.69514 9.72118 7.28335 13.1296 7.28335 16.6835C7.28335 20.2374 8.69514 23.6458 11.2082 26.1588C13.7212 28.6719 17.1296 30.0837 20.6835 30.0837L336.981 30.0837C340.534 30.0837 343.943 28.6719 346.456 26.1588C348.969 23.6458 350.381 20.2374 350.381 16.6835C350.381 13.1296 348.969 9.72118 346.456 7.20816C343.943 4.69514 340.534 3.28335 336.981 3.28335L20.6835 3.28335Z" fill="white"/>
<path d="M327.028 232.26L30.6525 232.26C30.2171 232.26 29.7996 232.087 29.4917 231.779C29.1838 231.471 29.0109 231.054 29.0109 230.618L29.0109 31.7254C29.0109 31.29 29.1838 30.8724 29.4917 30.5646C29.7996 30.2567 30.2171 30.0837 30.6525 30.0837C31.0879 30.0837 31.5055 30.2567 31.8134 30.5646C32.1212 30.8724 32.2942 31.29 32.2942 31.7254L32.2942 228.977L325.386 228.977L325.386 31.7254C325.386 31.29 325.559 30.8724 325.867 30.5646C326.175 30.2567 326.592 30.0837 327.028 30.0837C327.463 30.0837 327.881 30.2567 328.189 30.5646C328.497 30.8724 328.67 31.29 328.67 31.7254L328.67 230.618C328.67 231.054 328.497 231.471 328.189 231.779C327.881 232.087 327.463 232.26 327.028 232.26Z" fill="white"/>
<path d="M178.838 283.698C178.403 283.698 177.985 283.525 177.677 283.217C177.369 282.909 177.197 282.491 177.197 282.056L177.197 241.897C177.197 241.461 177.369 241.044 177.677 240.736C177.985 240.428 178.403 240.255 178.838 240.255C179.274 240.255 179.691 240.428 179.999 240.736C180.307 241.044 180.48 241.461 180.48 241.897L180.48 282.056C180.48 282.491 180.307 282.909 179.999 283.217C179.691 283.525 179.274 283.698 178.838 283.698Z" fill="white"/>
<path d="M178.838 310.49C175.864 310.49 172.956 309.609 170.482 307.957C168.009 306.305 166.081 303.957 164.942 301.209C163.803 298.462 163.505 295.438 164.085 292.521C164.664 289.603 166.096 286.923 168.199 284.82C170.302 282.717 172.982 281.284 175.899 280.703C178.816 280.123 181.84 280.42 184.588 281.558C187.336 282.696 189.685 284.624 191.337 287.097C192.99 289.57 193.872 292.477 193.872 295.452C193.867 299.438 192.282 303.26 189.464 306.079C186.646 308.898 182.824 310.484 178.838 310.49ZM178.838 283.697C176.513 283.697 174.24 284.385 172.307 285.676C170.373 286.967 168.866 288.803 167.976 290.951C167.085 293.099 166.852 295.462 167.305 297.742C167.758 300.023 168.877 302.118 170.521 303.762C172.165 305.406 174.259 306.526 176.539 306.98C178.82 307.434 181.183 307.201 183.331 306.312C185.479 305.422 187.315 303.916 188.607 301.983C189.899 300.05 190.588 297.777 190.588 295.452C190.584 292.336 189.345 289.35 187.142 287.146C184.94 284.943 181.954 283.703 178.838 283.697Z" fill="white"/>
<path d="M258.496 53.6334L106.453 53.6334C106.017 53.6334 105.6 53.4605 105.292 53.1526C104.984 52.8447 104.811 52.4272 104.811 51.9918C104.811 51.5564 104.984 51.1388 105.292 50.8309C105.6 50.5231 106.017 50.3501 106.453 50.3501L258.496 50.3501C258.932 50.3501 259.349 50.5231 259.657 50.8309C259.965 51.1388 260.138 51.5564 260.138 51.9918C260.138 52.4272 259.965 52.8447 259.657 53.1526C259.349 53.4605 258.932 53.6334 258.496 53.6334Z" fill="white"/>
<path d="M203.976 243.538L153.688 243.538C153.252 243.538 152.835 243.365 152.527 243.057C152.219 242.749 152.046 242.332 152.046 241.896L152.046 230.618C152.046 230.183 152.219 229.765 152.527 229.457C152.835 229.149 153.252 228.976 153.688 228.976C154.123 228.976 154.541 229.149 154.849 229.457C155.156 229.765 155.329 230.183 155.329 230.618L155.329 240.255L202.335 240.255L202.335 230.618C202.335 230.183 202.508 229.765 202.815 229.457C203.123 229.149 203.541 228.976 203.976 228.976C204.412 228.976 204.829 229.149 205.137 229.457C205.445 229.765 205.618 230.183 205.618 230.618L205.618 241.896C205.618 242.332 205.445 242.749 205.137 243.057C204.829 243.365 204.412 243.538 203.976 243.538Z" fill="white"/>
<path d="M192.247 185.714L172.702 185.714C170.138 185.711 167.68 184.691 165.867 182.877C164.055 181.064 163.035 178.605 163.033 176.041L163.033 171.054C163.074 164.748 160.752 158.656 156.524 153.977C150.399 147.269 147.112 138.449 147.352 129.37C147.592 120.29 151.341 111.656 157.812 105.282C164.283 98.9077 172.972 95.2888 182.055 95.1853C191.137 95.0817 199.906 98.5015 206.521 104.726C213.209 111.008 217.173 119.659 217.562 128.826C217.952 137.993 214.737 146.949 208.606 153.776C204.318 158.511 201.935 164.666 201.916 171.054L201.916 176.041C201.914 178.605 200.895 181.064 199.082 182.877C197.269 184.691 194.811 185.711 192.247 185.714ZM182.495 98.5004C181.814 98.5004 181.13 98.521 180.443 98.562C174.456 98.9443 168.7 101.01 163.837 104.522C158.973 108.034 155.201 112.848 152.955 118.411C150.709 123.973 150.081 130.057 151.142 135.961C152.203 141.865 154.911 147.349 158.953 151.781C163.735 157.063 166.363 163.946 166.32 171.071L166.32 176.057C166.322 177.751 166.995 179.375 168.192 180.573C169.389 181.771 171.013 182.445 172.707 182.447L192.251 182.447C193.944 182.445 195.568 181.771 196.765 180.573C197.963 179.375 198.636 177.751 198.637 176.057L198.637 171.054C198.655 163.855 201.338 156.918 206.168 151.58C210.272 147.004 212.963 141.339 213.917 135.267C214.87 129.195 214.046 122.977 211.542 117.364C209.039 111.751 204.964 106.983 199.809 103.635C194.655 100.288 188.641 98.5045 182.495 98.5004Z" fill="white"/>
<path d="M182.474 185.714C182.039 185.714 181.621 185.541 181.314 185.233C181.006 184.926 180.833 184.508 180.833 184.073L180.833 162.115C180.833 161.68 181.006 161.262 181.314 160.954C181.621 160.646 182.039 160.474 182.474 160.474C182.91 160.474 183.327 160.646 183.635 160.954C183.943 161.262 184.116 161.68 184.116 162.115L184.116 184.073C184.116 184.508 183.943 184.926 183.635 185.233C183.327 185.541 182.91 185.714 182.474 185.714Z" fill="white"/>
<path d="M188.799 163.757L176.15 163.757C175.773 163.756 175.408 163.626 175.116 163.389C174.824 163.151 174.622 162.82 174.545 162.452L168.389 133.148C168.299 132.722 168.382 132.277 168.62 131.912C168.858 131.548 169.231 131.292 169.657 131.202C170.083 131.113 170.528 131.196 170.892 131.434C171.257 131.671 171.513 132.044 171.603 132.471L177.484 160.473L187.457 160.473L193.346 132.471C193.436 132.044 193.692 131.671 194.057 131.434C194.421 131.196 194.866 131.113 195.292 131.202C195.718 131.292 196.091 131.548 196.329 131.912C196.567 132.277 196.65 132.722 196.56 133.148L190.404 162.452C190.327 162.82 190.125 163.151 189.833 163.389C189.541 163.626 189.176 163.756 188.799 163.757Z" fill="white"/>
<path d="M192.727 145.116L172.206 145.116C171.77 145.116 171.353 144.943 171.045 144.635C170.737 144.327 170.564 143.909 170.564 143.474C170.564 143.039 170.737 142.621 171.045 142.313C171.353 142.005 171.77 141.832 172.206 141.832L192.727 141.832C193.162 141.832 193.58 142.005 193.888 142.313C194.195 142.621 194.368 143.039 194.368 143.474C194.368 143.909 194.195 144.327 193.888 144.635C193.58 144.943 193.162 145.116 192.727 145.116Z" fill="white"/>
<path d="M186.484 204.011L178.465 204.011C175.365 204.008 172.393 202.774 170.202 200.582C168.01 198.39 166.778 195.418 166.776 192.318L166.776 182.825C166.776 182.39 166.949 181.972 167.257 181.664C167.565 181.356 167.982 181.183 168.418 181.183C168.853 181.183 169.271 181.356 169.579 181.664C169.886 181.972 170.059 182.39 170.059 182.825L170.059 192.318C170.06 194.547 170.946 196.685 172.522 198.262C174.098 199.838 176.235 200.725 178.465 200.727L186.484 200.727C188.714 200.725 190.852 199.839 192.428 198.262C194.005 196.685 194.892 194.548 194.894 192.318L194.894 182.825C194.894 182.39 195.067 181.972 195.375 181.664C195.682 181.356 196.1 181.183 196.535 181.183C196.971 181.183 197.388 181.356 197.696 181.664C198.004 181.972 198.177 182.39 198.177 182.825L198.177 192.318C198.174 195.418 196.941 198.39 194.749 200.582C192.557 202.775 189.584 204.008 186.484 204.011Z" fill="white"/>
<path d="M182.474 210.791C180.459 210.789 178.527 209.987 177.102 208.562C175.677 207.137 174.876 205.205 174.874 203.19C174.874 202.754 175.046 202.337 175.354 202.029C175.662 201.721 176.08 201.548 176.515 201.548C176.951 201.548 177.368 201.721 177.676 202.029C177.984 202.337 178.157 202.754 178.157 203.19C178.225 204.287 178.708 205.317 179.509 206.069C180.31 206.822 181.367 207.241 182.466 207.241C183.565 207.241 184.623 206.822 185.424 206.069C186.224 205.317 186.708 204.287 186.776 203.19C186.776 202.754 186.949 202.337 187.256 202.029C187.564 201.721 187.982 201.548 188.417 201.548C188.853 201.548 189.27 201.721 189.578 202.029C189.886 202.337 190.059 202.754 190.059 203.19C190.057 205.202 189.258 207.132 187.836 208.556C186.415 209.981 184.487 210.784 182.474 210.791Z" fill="white"/>
<path d="M196.535 194.325L176.515 194.325C176.08 194.325 175.662 194.152 175.354 193.844C175.046 193.536 174.874 193.119 174.874 192.683C174.874 192.248 175.046 191.83 175.354 191.522C175.662 191.214 176.08 191.042 176.515 191.042L196.535 191.042C196.971 191.042 197.388 191.214 197.696 191.522C198.004 191.83 198.177 192.248 198.177 192.683C198.177 193.119 198.004 193.536 197.696 193.844C197.388 194.152 196.971 194.325 196.535 194.325Z" fill="white"/>
<path d="M182.474 88.6094C182.039 88.6094 181.621 88.4364 181.314 88.1285C181.006 87.8206 180.833 87.4031 180.833 86.9677L180.833 78.312C180.833 77.8766 181.006 77.459 181.314 77.1511C181.621 76.8432 182.039 76.6703 182.474 76.6703C182.91 76.6703 183.327 76.8432 183.635 77.1511C183.943 77.459 184.116 77.8766 184.116 78.312L184.116 86.9677C184.116 87.4031 183.943 87.8206 183.635 88.1285C183.327 88.4364 182.91 88.6094 182.474 88.6094Z" fill="white"/>
<path d="M160.542 94.4865C160.253 94.4869 159.97 94.4112 159.72 94.2671C159.469 94.123 159.262 93.9155 159.118 93.6656L154.792 86.1878C154.673 86.0009 154.593 85.792 154.557 85.5735C154.521 85.355 154.53 85.1316 154.583 84.9165C154.635 84.7015 154.731 84.4993 154.864 84.3221C154.997 84.145 155.164 83.9966 155.356 83.8858C155.547 83.775 155.759 83.7041 155.979 83.6774C156.199 83.6507 156.422 83.6687 156.635 83.7304C156.847 83.7921 157.045 83.8962 157.217 84.0363C157.388 84.1765 157.529 84.3499 157.632 84.5461L161.962 92.0404C162.106 92.2898 162.182 92.5727 162.182 92.8608C162.182 93.1488 162.106 93.4318 161.962 93.6813C161.818 93.9308 161.611 94.1381 161.362 94.2823C161.113 94.4265 160.83 94.5026 160.542 94.5029L160.542 94.4865Z" fill="white"/>
<path d="M144.482 110.546C144.194 110.546 143.911 110.469 143.661 110.325L136.155 105.995C135.797 105.767 135.542 105.411 135.441 105C135.34 104.589 135.402 104.154 135.614 103.788C135.826 103.421 136.171 103.151 136.578 103.033C136.985 102.915 137.421 102.958 137.796 103.155L145.295 107.48C145.609 107.661 145.855 107.939 145.994 108.274C146.133 108.608 146.158 108.979 146.064 109.329C145.97 109.679 145.763 109.988 145.476 110.208C145.188 110.428 144.836 110.547 144.474 110.546L144.482 110.546Z" fill="white"/>
<path d="M138.617 132.479L129.949 132.479C129.514 132.479 129.096 132.306 128.788 131.998C128.48 131.69 128.307 131.273 128.307 130.837C128.307 130.402 128.48 129.984 128.788 129.677C129.096 129.369 129.514 129.196 129.949 129.196L138.617 129.196C139.053 129.196 139.47 129.369 139.778 129.677C140.086 129.984 140.259 130.402 140.259 130.837C140.259 131.273 140.086 131.69 139.778 131.998C139.47 132.306 139.053 132.479 138.617 132.479Z" fill="white"/>
<path d="M136.976 158.742C136.615 158.741 136.264 158.621 135.978 158.401C135.692 158.182 135.486 157.874 135.393 157.525C135.299 157.176 135.323 156.807 135.461 156.473C135.599 156.14 135.843 155.861 136.155 155.68L143.653 151.35C144.03 151.132 144.478 151.073 144.899 151.186C145.32 151.299 145.678 151.574 145.896 151.951C146.114 152.328 146.173 152.777 146.06 153.197C145.947 153.618 145.672 153.976 145.295 154.194L137.796 158.524C137.547 158.667 137.264 158.742 136.976 158.742Z" fill="white"/>
<path d="M204.407 94.4865C204.119 94.4862 203.836 94.4101 203.587 94.2659C203.338 94.1217 203.131 93.9144 202.987 93.6649C202.843 93.4154 202.767 93.1324 202.767 92.8444C202.767 92.5563 202.843 92.2734 202.987 92.024L207.317 84.5461C207.425 84.3594 207.568 84.1957 207.739 84.0644C207.91 83.9331 208.106 83.8368 208.314 83.781C208.522 83.7251 208.74 83.7109 208.953 83.739C209.167 83.7671 209.373 83.8371 209.56 83.9449C209.747 84.0527 209.91 84.1962 210.042 84.3672C210.173 84.5383 210.269 84.7335 210.325 84.9418C210.381 85.1501 210.395 85.3673 210.367 85.5811C210.339 85.7949 210.269 86.0011 210.161 86.1878L205.831 93.682C205.685 93.9289 205.476 94.1331 205.227 94.2742C204.977 94.4154 204.694 94.4886 204.407 94.4865Z" fill="white"/>
<path d="M220.467 110.546C220.105 110.547 219.752 110.428 219.465 110.208C219.177 109.988 218.971 109.679 218.877 109.329C218.783 108.979 218.808 108.608 218.947 108.274C219.086 107.939 219.332 107.661 219.646 107.48L227.144 103.155C227.52 102.958 227.956 102.915 228.363 103.033C228.769 103.151 229.115 103.421 229.327 103.788C229.539 104.154 229.601 104.589 229.5 105C229.399 105.411 229.143 105.767 228.786 105.995L221.288 110.325C221.038 110.469 220.755 110.546 220.467 110.546Z" fill="white"/>
<path d="M235 132.479L226.344 132.479C225.909 132.479 225.491 132.306 225.183 131.998C224.875 131.69 224.702 131.273 224.702 130.837C224.702 130.402 224.875 129.984 225.183 129.677C225.491 129.369 225.909 129.196 226.344 129.196L235 129.196C235.435 129.196 235.853 129.369 236.161 129.677C236.469 129.984 236.641 130.402 236.641 130.837C236.641 131.273 236.469 131.69 236.161 131.998C235.853 132.306 235.435 132.479 235 132.479Z" fill="white"/>
<path d="M227.961 158.742C227.673 158.742 227.39 158.667 227.14 158.524L219.646 154.194C219.269 153.976 218.994 153.618 218.881 153.197C218.768 152.777 218.827 152.328 219.045 151.951C219.262 151.574 219.621 151.299 220.042 151.186C220.462 151.073 220.91 151.132 221.288 151.35L228.786 155.68C229.098 155.861 229.342 156.14 229.48 156.473C229.617 156.807 229.641 157.176 229.548 157.525C229.454 157.874 229.249 158.182 228.963 158.401C228.677 158.621 228.326 158.741 227.965 158.742L227.961 158.742Z" fill="white"/>
<path d="M409.066 303.299C408.296 303.297 407.526 303.241 406.764 303.131C401.679 302.429 396.503 298.407 391.373 291.175C387.339 285.487 383.415 277.853 380.329 269.645C377.111 261.104 377.353 255.97 377.546 251.845C377.677 248.972 377.784 246.719 376.832 243.858C376.11 241.703 373.081 238.822 369.567 235.486C361.77 228.073 351.099 217.924 349.638 202.004C348.406 188.575 352.309 177.276 355.441 168.198C357.698 161.631 359.652 155.971 358.921 151.6C358.297 147.845 356.984 145.173 355.716 142.571C353.299 137.646 351.021 133.016 353.861 122.83C354.468 120.663 351.226 111.437 339.964 95.89C329.761 81.8004 318.791 70.7437 310.623 66.3071C310.253 66.1074 309.974 65.7734 309.843 65.3738C309.712 64.9742 309.739 64.5395 309.919 64.1595C310.099 63.7794 310.418 63.483 310.81 63.3312C311.202 63.1794 311.638 63.184 312.027 63.3439C321.201 67.336 329.878 72.384 337.883 78.3857C349.006 86.7254 360.095 99.2021 363.387 103.011C364.881 101.78 367.314 98.9477 366.128 93.9816C366.034 93.5767 366.097 93.1512 366.305 92.7909C366.512 92.4307 366.849 92.1626 367.246 92.0407C367.643 91.9188 368.072 91.9522 368.446 92.1342C368.82 92.3162 369.111 92.6332 369.26 93.0212C369.28 93.0787 371.46 98.8204 373.077 101.574C373.897 102.97 373.934 102.966 375.789 102.613C377.724 102.189 379.713 102.077 381.683 102.28C395.695 103.741 400.349 112.816 401.794 120.17C403.324 128.018 401.026 132.996 399.179 136.998C397.16 141.373 395.826 144.262 399.241 149.487C403.345 155.795 410.01 158.356 418.432 161.598C424.178 163.818 430.744 166.33 437.442 170.549C444.924 175.257 456.465 186.01 464.354 200.834C470.469 212.326 476.063 229.719 467.957 247.256C459.338 265.943 451.13 267.059 443.915 268.044C439.133 268.693 435.005 269.275 430.982 275.292C427.568 280.41 425.306 285.142 423.308 289.324C419.47 297.327 416.626 303.299 409.066 303.299ZM325.989 74.3185C332.057 80.4138 337.62 86.9911 342.624 93.9857C345.361 97.7657 358.917 116.969 357.025 123.737C354.517 132.717 356.348 136.435 358.667 141.151C359.976 143.815 361.462 146.835 362.168 151.067C363.03 156.263 360.936 162.292 358.548 169.273C351.755 188.973 352.391 196.044 352.909 201.716C354.247 216.401 364.4 226.062 371.833 233.113C375.822 236.902 378.97 239.894 379.951 242.828C381.096 246.271 380.965 249.058 380.829 252.009C380.641 256.027 380.419 260.587 383.407 268.496C388.553 282.175 397.882 298.604 407.211 299.897C413.88 300.816 416.056 296.896 420.344 287.933C422.29 283.87 424.707 278.809 428.249 273.494C433.096 266.226 438.37 265.508 443.471 264.814C450.17 263.899 457.097 262.955 464.977 245.906C472.517 229.592 467.222 213.245 461.456 202.402C454.356 189.059 443.398 178.187 435.694 173.357C429.255 169.306 422.877 166.851 417.25 164.684C408.631 161.368 401.19 158.503 396.491 151.309C392.083 144.562 394.082 140.228 396.195 135.647C398.018 131.707 399.889 127.632 398.572 120.827C396.77 111.584 391.139 106.594 381.355 105.576C379.708 105.409 378.045 105.507 376.43 105.867C374.291 106.278 372.268 106.655 370.273 103.269C369.863 102.559 369.412 101.689 368.981 100.778C368.022 103.287 366.208 105.377 363.859 106.68C363.528 106.848 363.149 106.899 362.785 106.825C362.422 106.75 362.094 106.554 361.856 106.27C361.724 106.114 348.612 90.5423 335.938 81.037C332.507 78.4637 329.121 76.2269 325.989 74.3185Z" fill="white"/>
<path d="M422.438 303.147C416.815 303.147 414.23 298.308 413.663 295.76C413.608 295.547 413.596 295.325 413.629 295.108C413.661 294.89 413.737 294.681 413.851 294.494C413.966 294.306 414.117 294.143 414.295 294.015C414.474 293.887 414.677 293.796 414.891 293.747C415.106 293.699 415.328 293.694 415.544 293.733C415.761 293.772 415.967 293.854 416.151 293.975C416.335 294.095 416.493 294.251 416.616 294.434C416.738 294.616 416.823 294.822 416.864 295.037C416.91 295.23 418.055 299.876 422.438 299.876C426.173 299.876 428.799 290.067 430.535 283.579C430.876 282.306 431.196 281.116 431.52 279.975C433.938 271.512 440.702 265.282 440.989 265.024C441.147 264.874 441.334 264.757 441.538 264.68C441.742 264.604 441.959 264.568 442.177 264.576C442.395 264.584 442.609 264.636 442.807 264.728C443.005 264.819 443.182 264.95 443.329 265.111C443.476 265.272 443.589 265.46 443.663 265.666C443.736 265.871 443.767 266.089 443.755 266.307C443.743 266.524 443.688 266.738 443.593 266.934C443.498 267.13 443.365 267.305 443.201 267.449C443.09 267.552 436.823 273.359 434.677 280.878C434.361 281.982 434.045 283.168 433.708 284.428C431.356 293.195 428.693 303.147 422.438 303.147Z" fill="white"/>
<path d="M375.17 355.061C374.815 355.061 374.471 354.947 374.187 354.734C373.903 354.522 373.696 354.224 373.595 353.884C373.495 353.544 373.508 353.181 373.631 352.848C373.754 352.516 373.982 352.233 374.279 352.041C374.443 351.934 375.831 351.051 378.047 349.857C379.927 348.716 382.328 347.193 384.753 345.462C391.299 340.783 395.219 336.584 395.785 333.641C397.328 325.597 395.785 300.123 395.756 299.864C395.743 299.648 395.773 299.432 395.843 299.228C395.913 299.024 396.023 298.836 396.166 298.674C396.309 298.512 396.483 298.38 396.677 298.285C396.871 298.191 397.082 298.135 397.298 298.122C397.513 298.109 397.729 298.138 397.933 298.208C398.138 298.279 398.326 298.388 398.488 298.532C398.65 298.675 398.782 298.848 398.876 299.042C398.971 299.237 399.027 299.447 399.04 299.663C399.105 300.726 400.636 325.811 399.011 334.261C398.395 337.483 395.465 340.926 391.882 344.066C394.298 343.347 396.769 342.829 399.27 342.519C402.922 342.108 406.132 342.149 408.857 342.699L403.595 336.133C403.368 335.849 403.241 335.499 403.234 335.135L402.647 302.224C402.64 301.789 402.805 301.369 403.106 301.056C403.408 300.743 403.821 300.562 404.256 300.554L404.289 300.554C404.719 300.554 405.133 300.723 405.44 301.024C405.747 301.326 405.923 301.736 405.931 302.167L406.513 334.52L415.793 346.094C416.165 346.458 416.484 346.872 416.741 347.325C416.929 347.686 416.976 348.104 416.873 348.498C416.77 348.892 416.525 349.233 416.184 349.456C415.843 349.679 415.432 349.768 415.03 349.705C414.628 349.641 414.264 349.431 414.008 349.114L413.343 348.293C412.149 347.148 408.512 344.735 399.66 345.786C392.046 346.689 384.269 350.3 379.824 352.66C377.907 353.814 376.479 354.597 375.97 354.868C375.725 355.001 375.449 355.068 375.17 355.061Z" fill="white"/>
<path d="M398.383 349.734C398.028 349.734 397.682 349.62 397.398 349.407C397.113 349.194 396.906 348.895 396.806 348.554C396.706 348.213 396.719 347.849 396.844 347.516C396.968 347.184 397.198 346.9 397.497 346.709C397.645 346.615 398.884 345.823 400.866 344.755C402.541 343.742 404.683 342.383 406.842 340.836C414.681 335.238 416.335 331.893 416.622 330.395C417.997 323.233 416.622 300.504 416.594 300.274C416.58 300.059 416.61 299.843 416.68 299.638C416.75 299.434 416.86 299.246 417.003 299.084C417.146 298.922 417.32 298.79 417.514 298.696C417.708 298.601 417.919 298.545 418.135 298.532C418.35 298.519 418.566 298.548 418.771 298.619C418.975 298.689 419.163 298.799 419.325 298.942C419.487 299.085 419.619 299.259 419.713 299.453C419.808 299.647 419.864 299.858 419.877 300.073C419.934 301.025 421.301 323.467 419.848 331.015C419.323 333.756 416.955 336.67 413.987 339.363C415.917 338.822 417.884 338.427 419.873 338.181C422.575 337.812 425.316 337.835 428.011 338.25L423.62 332.767C423.391 332.485 423.264 332.133 423.259 331.77L422.729 302.376C422.726 302.16 422.764 301.946 422.843 301.745C422.922 301.545 423.04 301.361 423.19 301.206C423.34 301.051 423.518 300.927 423.716 300.841C423.914 300.755 424.127 300.709 424.342 300.705L424.371 300.705C424.801 300.705 425.215 300.874 425.522 301.176C425.829 301.478 426.005 301.888 426.013 302.318L426.53 331.15L434.697 341.337C435.072 341.699 435.391 342.113 435.645 342.568C435.833 342.929 435.88 343.347 435.777 343.741C435.674 344.135 435.429 344.476 435.088 344.699C434.748 344.922 434.336 345.011 433.934 344.948C433.532 344.884 433.168 344.674 432.912 344.357L432.214 343.487C430.786 342.178 427.121 340.614 420.259 341.435C413.483 342.236 406.563 345.445 402.611 347.555C400.903 348.585 399.627 349.282 399.175 349.529C398.932 349.661 398.66 349.732 398.383 349.734Z" fill="white"/>
<path d="M370.249 125.403C372.595 125.403 374.497 123.502 374.497 121.156C374.497 118.81 372.595 116.908 370.249 116.908C367.903 116.908 366.001 118.81 366.001 121.156C366.001 123.502 367.903 125.403 370.249 125.403Z" fill="white"/>
<path d="M400.16 229.682C398.212 229.623 396.299 229.152 394.546 228.299C390.167 226.342 386.793 219.68 384.515 208.46C383.488 203.253 382.784 197.989 382.406 192.695C382.392 192.48 382.422 192.264 382.492 192.06C382.562 191.855 382.672 191.667 382.815 191.505C382.959 191.343 383.132 191.211 383.326 191.117C383.52 191.022 383.731 190.966 383.947 190.953C384.162 190.94 384.378 190.969 384.583 191.04C384.787 191.11 384.975 191.22 385.137 191.363C385.299 191.506 385.431 191.68 385.526 191.874C385.62 192.068 385.676 192.279 385.689 192.494C386.065 197.646 386.75 202.77 387.741 207.84C389.736 217.645 392.629 223.846 395.884 225.303C402.11 228.086 404.092 225.467 408.5 219.734C409.616 218.277 410.876 216.627 412.337 214.948C412.472 214.766 412.644 214.613 412.84 214.5C413.037 214.387 413.256 214.316 413.481 214.291C413.707 214.267 413.935 214.29 414.152 214.358C414.368 214.426 414.568 214.539 414.739 214.688C414.91 214.838 415.048 215.021 415.144 215.226C415.241 215.432 415.294 215.655 415.299 215.882C415.305 216.109 415.264 216.335 415.178 216.545C415.092 216.755 414.963 216.945 414.8 217.103C413.405 218.704 412.231 220.243 411.106 221.728C407.905 225.919 405.024 229.682 400.16 229.682Z" fill="white"/>
</g>
<defs>
<filter id="filter0_d_395_2951" x="0" y="0" width="476" height="363.062" filterUnits="userSpaceOnUse" color-interpolation-filters="sRGB">
<feFlood flood-opacity="0" result="BackgroundImageFix"/>
<feColorMatrix in="SourceAlpha" type="matrix" values="0 0 0 0 0 0 0 0 0 0 0 0 0 0 0 0 0 0 127 0" result="hardAlpha"/>
<feOffset dy="4"/>
<feGaussianBlur stdDeviation="2"/>
<feComposite in2="hardAlpha" operator="out"/>
<feColorMatrix type="matrix" values="0 0 0 0 0 0 0 0 0 0 0 0 0 0 0 0 0 0 0.25 0"/>
<feBlend mode="normal" in2="BackgroundImageFix" result="effect1_dropShadow_395_2951"/>
<feBlend mode="normal" in="SourceGraphic" in2="effect1_dropShadow_395_2951" result="shape"/>
</filter>
</defs>
</svg>
