<svg width="509" height="326" viewBox="0 0 509 326" fill="none" xmlns="http://www.w3.org/2000/svg">
<path d="M380.726 30.6359L90.318 30.6359C86.2554 30.6359 82.3592 29.0221 79.4865 26.1494C76.6139 23.2767 75 19.3805 75 15.318C75 11.2554 76.6139 7.3592 79.4865 4.48653C82.3592 1.61385 86.2554 2.16829e-09 90.318 2.95092e-09L380.726 5.88964e-08C384.789 5.96791e-08 388.685 1.61385 391.558 4.48653C394.43 7.3592 396.044 11.2554 396.044 15.318C396.044 19.3805 394.43 23.2767 391.558 26.1494C388.685 29.0221 384.789 30.6359 380.726 30.6359Z" fill="#4A7473"/>
<path d="M371.589 213.25L99.4721 213.25C99.0724 213.25 98.689 213.091 98.4063 212.808C98.1236 212.525 97.9648 212.142 97.9648 211.742L97.9648 29.1289C97.9648 28.7291 98.1236 28.3457 98.4063 28.0631C98.689 27.7804 99.0724 27.6216 99.4721 27.6216C99.8719 27.6216 100.255 27.7804 100.538 28.0631C100.821 28.3457 100.979 28.7291 100.979 29.1289L100.979 210.235L370.082 210.235L370.082 29.1289C370.082 28.7291 370.241 28.3457 370.523 28.0631C370.806 27.7804 371.189 27.6216 371.589 27.6216C371.989 27.6216 372.372 27.7804 372.655 28.0631C372.938 28.3457 373.097 28.7291 373.097 29.1289L373.097 211.742C373.097 212.142 372.938 212.525 372.655 212.808C372.372 213.091 371.989 213.25 371.589 213.25Z" fill="#4A7473"/>
<path d="M235.529 260.477C235.129 260.477 234.746 260.319 234.463 260.036C234.18 259.753 234.021 259.37 234.021 258.97L234.021 222.098C234.021 221.698 234.18 221.314 234.463 221.032C234.746 220.749 235.129 220.59 235.529 220.59C235.929 220.59 236.312 220.749 236.595 221.032C236.877 221.314 237.036 221.698 237.036 222.098L237.036 258.97C237.036 259.37 236.877 259.753 236.595 260.036C236.312 260.319 235.929 260.477 235.529 260.477Z" fill="#4A7473"/>
<path d="M235.527 285.076C232.797 285.077 230.127 284.268 227.856 282.751C225.585 281.234 223.814 279.078 222.769 276.556C221.723 274.033 221.449 271.257 221.982 268.578C222.514 265.9 223.829 263.439 225.759 261.508C227.69 259.576 230.15 258.261 232.829 257.728C235.507 257.195 238.283 257.468 240.806 258.513C243.33 259.558 245.486 261.328 247.003 263.598C248.521 265.869 249.331 268.538 249.331 271.269C249.327 274.929 247.871 278.438 245.284 281.027C242.696 283.615 239.187 285.071 235.527 285.076Z" fill="#4A7473"/>
<path d="M308.665 49.2436L169.066 49.2436C168.666 49.2436 168.283 49.0848 168 48.8021C167.717 48.5195 167.559 48.1361 167.559 47.7363C167.559 47.3365 167.717 46.9532 168 46.6705C168.283 46.3878 168.666 46.229 169.066 46.229L308.665 46.229C309.064 46.229 309.448 46.3878 309.731 46.6705C310.013 46.9532 310.172 47.3365 310.172 47.7363C310.172 48.1361 310.013 48.5195 309.731 48.8021C309.448 49.0848 309.064 49.2436 308.665 49.2436Z" fill="#4A7473"/>
<path d="M258.609 223.605L212.437 223.605C212.037 223.605 211.654 223.446 211.371 223.163C211.088 222.88 210.93 222.497 210.93 222.097L210.93 211.742C210.93 211.342 211.088 210.959 211.371 210.676C211.654 210.394 212.037 210.235 212.437 210.235C212.837 210.235 213.22 210.394 213.503 210.676C213.785 210.959 213.944 211.342 213.944 211.742L213.944 220.59L257.102 220.59L257.102 211.742C257.102 211.342 257.261 210.959 257.544 210.676C257.826 210.394 258.21 210.235 258.609 210.235C259.009 210.235 259.393 210.394 259.675 210.676C259.958 210.959 260.117 211.342 260.117 211.742L260.117 222.097C260.117 222.497 259.958 222.88 259.675 223.163C259.393 223.446 259.009 223.605 258.609 223.605Z" fill="#4A7473"/>
<path d="M247.839 170.514L229.894 170.514C227.54 170.511 225.283 169.574 223.619 167.909C221.954 166.244 221.018 163.986 221.016 161.632L221.016 157.054C221.054 151.264 218.922 145.67 215.04 141.374C209.416 135.216 206.398 127.118 206.619 118.781C206.839 110.444 210.282 102.517 216.223 96.6649C222.164 90.8124 230.142 87.4898 238.481 87.3947C246.82 87.2996 254.872 90.4395 260.945 96.155C267.086 101.922 270.725 109.865 271.082 118.282C271.44 126.699 268.488 134.922 262.859 141.189C258.922 145.537 256.734 151.188 256.717 157.054L256.717 161.632C256.715 163.986 255.779 166.244 254.115 167.909C252.45 169.574 250.193 170.511 247.839 170.514ZM238.885 90.4385C238.26 90.4385 237.632 90.4573 237.001 90.495C231.505 90.846 226.219 92.743 221.754 95.9673C217.289 99.1917 213.826 103.612 211.763 108.719C209.701 113.826 209.124 119.412 210.098 124.833C211.073 130.254 213.559 135.289 217.271 139.358C221.661 144.208 224.074 150.527 224.035 157.069L224.035 161.647C224.036 163.202 224.654 164.694 225.753 165.794C226.852 166.894 228.343 167.512 229.898 167.514L247.843 167.514C249.398 167.512 250.888 166.894 251.988 165.794C253.087 164.694 253.705 163.202 253.706 161.647L253.706 157.054C253.723 150.444 256.186 144.075 260.621 139.173C264.389 134.972 266.86 129.771 267.735 124.196C268.611 118.621 267.854 112.912 265.555 107.758C263.257 102.605 259.515 98.2266 254.782 95.1531C250.05 92.0797 244.528 90.4422 238.885 90.4385Z" fill="#4A7473"/>
<path d="M238.867 170.514C238.467 170.514 238.084 170.355 237.801 170.072C237.518 169.789 237.359 169.406 237.359 169.006L237.359 148.846C237.359 148.446 237.518 148.063 237.801 147.78C238.084 147.498 238.467 147.339 238.867 147.339C239.266 147.339 239.65 147.498 239.933 147.78C240.215 148.063 240.374 148.446 240.374 148.846L240.374 169.006C240.374 169.406 240.215 169.789 239.933 170.072C239.65 170.355 239.266 170.514 238.867 170.514Z" fill="#4A7473"/>
<path d="M244.672 150.353L233.059 150.353C232.713 150.353 232.378 150.234 232.109 150.015C231.841 149.797 231.656 149.494 231.585 149.155L225.933 122.25C225.85 121.858 225.927 121.45 226.145 121.115C226.363 120.781 226.706 120.546 227.097 120.464C227.488 120.381 227.896 120.457 228.231 120.676C228.566 120.894 228.801 121.237 228.883 121.628L234.283 147.339L243.44 147.339L248.848 121.628C248.93 121.237 249.165 120.894 249.499 120.676C249.834 120.457 250.242 120.381 250.634 120.464C251.025 120.546 251.367 120.781 251.586 121.115C251.804 121.45 251.881 121.858 251.798 122.25L246.146 149.155C246.075 149.494 245.89 149.797 245.621 150.015C245.353 150.234 245.018 150.353 244.672 150.353Z" fill="#4A7473"/>
<path d="M248.278 133.238L229.437 133.238C229.037 133.238 228.654 133.079 228.371 132.797C228.088 132.514 227.93 132.131 227.93 131.731C227.93 131.331 228.088 130.948 228.371 130.665C228.654 130.382 229.037 130.224 229.437 130.224L248.278 130.224C248.678 130.224 249.061 130.382 249.344 130.665C249.627 130.948 249.786 131.331 249.786 131.731C249.786 132.131 249.627 132.514 249.344 132.797C249.061 133.079 248.678 133.238 248.278 133.238Z" fill="#4A7473"/>
<path d="M242.548 187.313L235.185 187.313C232.339 187.31 229.611 186.178 227.598 184.165C225.586 182.152 224.455 179.423 224.453 176.577L224.453 167.861C224.453 167.462 224.612 167.078 224.895 166.795C225.177 166.513 225.561 166.354 225.96 166.354C226.36 166.354 226.744 166.513 227.026 166.795C227.309 167.078 227.468 167.462 227.468 167.861L227.468 176.577C227.469 178.624 228.282 180.587 229.729 182.035C231.176 183.482 233.138 184.296 235.185 184.298L242.548 184.298C244.595 184.296 246.558 183.482 248.006 182.035C249.453 180.587 250.267 178.624 250.269 176.577L250.269 167.861C250.269 167.462 250.428 167.078 250.711 166.795C250.994 166.513 251.377 166.354 251.777 166.354C252.177 166.354 252.56 166.513 252.843 166.795C253.125 167.078 253.284 167.462 253.284 167.861L253.284 176.577C253.281 179.424 252.149 182.153 250.136 184.165C248.124 186.178 245.395 187.31 242.548 187.313Z" fill="#4A7473"/>
<path d="M238.866 193.538C237.015 193.536 235.241 192.8 233.933 191.492C232.625 190.184 231.889 188.41 231.887 186.559C231.887 186.16 232.046 185.776 232.328 185.493C232.611 185.211 232.994 185.052 233.394 185.052C233.794 185.052 234.177 185.211 234.46 185.493C234.743 185.776 234.901 186.16 234.901 186.559C234.964 187.566 235.407 188.512 236.143 189.203C236.878 189.894 237.849 190.279 238.858 190.279C239.867 190.279 240.838 189.894 241.573 189.203C242.309 188.512 242.752 187.566 242.815 186.559C242.815 186.16 242.973 185.776 243.256 185.493C243.539 185.211 243.922 185.052 244.322 185.052C244.722 185.052 245.105 185.211 245.388 185.493C245.67 185.776 245.829 186.16 245.829 186.559C245.827 188.407 245.093 190.179 243.788 191.487C242.483 192.794 240.713 193.532 238.866 193.538Z" fill="#4A7473"/>
<path d="M251.776 178.42L233.394 178.42C232.994 178.42 232.611 178.261 232.328 177.978C232.046 177.695 231.887 177.312 231.887 176.912C231.887 176.513 232.046 176.129 232.328 175.847C232.611 175.564 232.994 175.405 233.394 175.405L251.776 175.405C252.175 175.405 252.559 175.564 252.841 175.847C253.124 176.129 253.283 176.513 253.283 176.912C253.283 177.312 253.124 177.695 252.841 177.978C252.559 178.261 252.175 178.42 251.776 178.42Z" fill="#4A7473"/>
<path d="M238.867 81.3569C238.467 81.3569 238.084 81.1981 237.801 80.9154C237.518 80.6327 237.359 80.2493 237.359 79.8496L237.359 71.9023C237.359 71.5026 237.518 71.1192 237.801 70.8365C238.084 70.5538 238.467 70.395 238.867 70.395C239.266 70.395 239.65 70.5538 239.933 70.8365C240.215 71.1192 240.374 71.5026 240.374 71.9023L240.374 79.8496C240.374 80.2493 240.215 80.6327 239.933 80.9154C239.65 81.1981 239.266 81.3569 238.867 81.3569Z" fill="#4A7473"/>
<path d="M218.727 86.753C218.463 86.7534 218.202 86.6839 217.973 86.5516C217.743 86.4193 217.552 86.2288 217.42 85.9993L213.448 79.1336C213.339 78.962 213.266 78.7702 213.233 78.5696C213.2 78.369 213.208 78.1638 213.256 77.9663C213.305 77.7689 213.392 77.5832 213.514 77.4206C213.636 77.258 213.79 77.1217 213.966 77.02C214.142 76.9182 214.337 76.8531 214.538 76.8286C214.74 76.8041 214.945 76.8207 215.14 76.8773C215.335 76.934 215.517 77.0295 215.675 77.1582C215.832 77.2869 215.962 77.4461 216.056 77.6263L220.031 84.5071C220.164 84.7361 220.233 84.9959 220.233 85.2604C220.233 85.5248 220.164 85.7846 220.032 86.0137C219.9 86.2428 219.71 86.4331 219.481 86.5655C219.252 86.6979 218.992 86.7678 218.727 86.768L218.727 86.753Z" fill="#4A7473"/>
<path d="M203.983 101.498C203.718 101.497 203.458 101.427 203.229 101.294L196.337 97.3189C196.009 97.1103 195.774 96.7831 195.682 96.4055C195.589 96.0279 195.646 95.6291 195.841 95.2925C196.036 94.956 196.353 94.7076 196.726 94.5992C197.099 94.4909 197.5 94.5311 197.845 94.7113L204.729 98.683C205.018 98.8484 205.243 99.1046 205.371 99.4116C205.499 99.7186 205.522 100.059 205.436 100.38C205.35 100.702 205.16 100.985 204.896 101.188C204.632 101.39 204.308 101.499 203.976 101.498L203.983 101.498Z" fill="#4A7473"/>
<path d="M198.599 121.636L190.64 121.636C190.24 121.636 189.857 121.477 189.574 121.194C189.292 120.912 189.133 120.528 189.133 120.128C189.133 119.729 189.292 119.345 189.574 119.063C189.857 118.78 190.24 118.621 190.64 118.621L198.599 118.621C198.998 118.621 199.382 118.78 199.664 119.063C199.947 119.345 200.106 119.729 200.106 120.128C200.106 120.528 199.947 120.912 199.664 121.194C199.382 121.477 198.998 121.636 198.599 121.636Z" fill="#4A7473"/>
<path d="M197.093 145.749C196.761 145.748 196.439 145.638 196.177 145.437C195.914 145.235 195.725 144.952 195.639 144.632C195.554 144.312 195.576 143.972 195.702 143.666C195.828 143.36 196.052 143.104 196.339 142.938L203.223 138.962C203.57 138.762 203.981 138.708 204.367 138.812C204.754 138.915 205.083 139.168 205.283 139.514C205.483 139.86 205.537 140.272 205.433 140.658C205.33 141.044 205.077 141.374 204.731 141.574L197.846 145.549C197.617 145.681 197.357 145.749 197.093 145.749Z" fill="#4A7473"/>
<path d="M259.004 86.753C258.739 86.7527 258.48 86.6829 258.251 86.5505C258.022 86.4181 257.832 86.2278 257.7 85.9987C257.567 85.7696 257.498 85.5097 257.498 85.2453C257.498 84.9808 257.568 84.721 257.7 84.492L261.676 77.6263C261.774 77.4548 261.906 77.3045 262.063 77.184C262.22 77.0634 262.4 76.975 262.591 76.9237C262.782 76.8725 262.982 76.8594 263.178 76.8852C263.374 76.911 263.563 76.9752 263.735 77.0742C263.906 77.1732 264.057 77.305 264.177 77.462C264.298 77.6191 264.386 77.7983 264.437 77.9896C264.489 78.1808 264.502 78.3802 264.476 78.5765C264.45 78.7728 264.386 78.9621 264.287 79.1336L260.311 86.0144C260.177 86.2411 259.986 86.4285 259.756 86.5581C259.527 86.6877 259.267 86.7549 259.004 86.753Z" fill="#4A7473"/>
<path d="M273.749 101.498C273.417 101.499 273.093 101.39 272.829 101.188C272.565 100.985 272.376 100.702 272.29 100.38C272.204 100.059 272.226 99.7186 272.354 99.4116C272.482 99.1046 272.707 98.8484 272.996 98.683L279.88 94.7113C280.225 94.5311 280.626 94.4909 280.999 94.5992C281.372 94.7076 281.689 94.956 281.884 95.2925C282.079 95.6291 282.136 96.0279 282.043 96.4055C281.951 96.7831 281.716 97.1103 281.388 97.3189L274.503 101.294C274.274 101.427 274.014 101.497 273.749 101.498Z" fill="#4A7473"/>
<path d="M287.093 121.636L279.146 121.636C278.746 121.636 278.363 121.477 278.08 121.194C277.797 120.912 277.639 120.528 277.639 120.128C277.639 119.729 277.797 119.345 278.08 119.063C278.363 118.78 278.746 118.621 279.146 118.621L287.093 118.621C287.493 118.621 287.876 118.78 288.159 119.063C288.442 119.345 288.601 119.729 288.601 120.128C288.601 120.528 288.442 120.912 288.159 121.194C287.876 121.477 287.493 121.636 287.093 121.636Z" fill="#4A7473"/>
<path d="M280.631 145.749C280.366 145.749 280.106 145.681 279.877 145.549L272.996 141.574C272.65 141.374 272.397 141.044 272.294 140.658C272.19 140.272 272.244 139.86 272.444 139.514C272.644 139.168 272.973 138.915 273.359 138.812C273.746 138.708 274.157 138.762 274.503 138.962L281.388 142.938C281.675 143.104 281.898 143.36 282.025 143.666C282.151 143.972 282.173 144.312 282.088 144.632C282.002 144.952 281.813 145.235 281.55 145.437C281.288 145.638 280.966 145.748 280.634 145.749L280.631 145.749Z" fill="#4A7473"/>
<path d="M446.911 278.474C446.204 278.473 445.498 278.421 444.797 278.32C440.129 277.676 435.377 273.983 430.666 267.343C426.962 262.12 423.36 255.111 420.526 247.575C417.572 239.733 417.794 235.019 417.971 231.232C418.092 228.594 418.19 226.525 417.316 223.899C416.652 221.92 413.871 219.275 410.646 216.212C403.486 209.406 393.689 200.087 392.347 185.47C391.217 173.14 394.8 162.766 397.675 154.431C399.748 148.402 401.542 143.205 400.871 139.192C400.298 135.744 399.092 133.291 397.928 130.902C395.708 126.38 393.617 122.13 396.225 112.777C396.782 110.787 393.805 102.316 383.465 88.0419C374.097 75.1054 364.025 64.9538 356.526 60.8803C356.186 60.6969 355.93 60.3902 355.809 60.0233C355.689 59.6564 355.714 59.2574 355.879 58.9084C356.045 58.5595 356.338 58.2873 356.698 58.148C357.058 58.0086 357.458 58.0128 357.815 58.1596C366.238 61.8249 374.205 66.4598 381.555 71.9703C391.767 79.6273 401.949 91.0828 404.971 94.5798C406.342 93.4493 408.577 90.8492 407.488 86.2896C407.402 85.9178 407.46 85.5271 407.65 85.1964C407.84 84.8657 408.149 84.6195 408.514 84.5076C408.879 84.3957 409.273 84.4263 409.616 84.5934C409.959 84.7605 410.226 85.0516 410.363 85.4078C410.382 85.4606 412.383 90.7324 413.868 93.2609C414.621 94.5421 414.655 94.5383 416.358 94.2143C418.134 93.825 419.961 93.722 421.77 93.909C434.634 95.2505 438.908 103.582 440.234 110.335C441.64 117.54 439.529 122.111 437.834 125.785C435.98 129.802 434.755 132.455 437.89 137.252C441.659 143.043 447.778 145.395 455.511 148.372C460.786 150.41 466.815 152.716 472.965 156.59C479.835 160.912 490.431 170.785 497.674 184.396C503.288 194.947 508.424 210.917 500.982 227.019C493.069 244.176 485.532 245.201 478.908 246.105C474.518 246.701 470.727 247.236 467.034 252.76C463.899 257.459 461.822 261.804 459.987 265.644C456.464 272.992 453.853 278.474 446.911 278.474ZM370.634 68.2359C376.205 73.8323 381.313 79.8713 385.907 86.2934C388.421 89.764 400.867 107.396 399.13 113.609C396.828 121.854 398.508 125.268 400.637 129.598C401.839 132.044 403.203 134.817 403.852 138.702C404.643 143.473 402.721 149.008 400.528 155.418C394.292 173.506 394.876 179.999 395.35 185.206C396.579 198.689 405.902 207.56 412.726 214.034C416.389 217.512 419.279 220.259 420.179 222.953C421.231 226.115 421.11 228.673 420.986 231.383C420.812 235.072 420.609 239.258 423.352 246.52C428.078 259.079 436.643 274.164 445.208 275.351C451.332 276.195 453.329 272.596 457.267 264.366C459.053 260.636 461.272 255.989 464.524 251.109C468.975 244.436 473.817 243.776 478.501 243.14C484.651 242.299 491.011 241.433 498.246 225.779C505.169 210.8 500.308 195.791 495.013 185.836C488.494 173.585 478.433 163.603 471.36 159.168C465.448 155.448 459.592 153.195 454.425 151.205C446.512 148.161 439.68 145.53 435.366 138.925C431.318 132.73 433.154 128.75 435.094 124.545C436.767 120.927 438.486 117.186 437.276 110.938C435.622 102.452 430.452 97.8695 421.468 96.9349C419.956 96.7814 418.43 96.8717 416.946 97.2025C414.983 97.5793 413.125 97.926 411.294 94.8172C410.917 94.1653 410.503 93.3664 410.107 92.5299C409.227 94.8337 407.561 96.7527 405.404 97.9486C405.1 98.103 404.753 98.1498 404.419 98.0814C404.085 98.013 403.784 97.8333 403.565 97.5718C403.445 97.4286 391.405 83.1318 379.769 74.4045C376.618 72.0418 373.51 69.9881 370.634 68.2359Z" fill="#4A7473"/>
<path d="M462.189 279.335C457.026 279.335 454.652 274.892 454.132 272.552C454.081 272.357 454.071 272.153 454.1 271.953C454.13 271.754 454.199 271.562 454.305 271.389C454.41 271.217 454.548 271.068 454.713 270.95C454.877 270.832 455.063 270.749 455.26 270.704C455.456 270.66 455.66 270.655 455.859 270.691C456.058 270.727 456.247 270.802 456.416 270.913C456.585 271.023 456.73 271.167 456.843 271.334C456.955 271.502 457.033 271.691 457.071 271.889C457.113 272.066 458.164 276.332 462.189 276.332C465.618 276.332 468.029 267.325 469.623 261.368C469.936 260.2 470.23 259.107 470.528 258.059C472.747 250.289 478.957 244.569 479.221 244.332C479.367 244.194 479.538 244.087 479.725 244.017C479.913 243.946 480.112 243.914 480.312 243.921C480.512 243.928 480.709 243.976 480.89 244.06C481.072 244.144 481.235 244.264 481.37 244.412C481.505 244.559 481.609 244.733 481.676 244.921C481.743 245.11 481.772 245.31 481.761 245.51C481.75 245.71 481.7 245.905 481.612 246.085C481.525 246.265 481.402 246.426 481.252 246.559C481.15 246.653 475.396 251.985 473.425 258.888C473.135 259.902 472.845 260.991 472.536 262.148C470.377 270.197 467.931 279.335 462.189 279.335Z" fill="#4A7473"/>
<path d="M417.79 326C417.465 326 417.148 325.894 416.888 325.7C416.627 325.505 416.437 325.231 416.345 324.919C416.253 324.607 416.264 324.273 416.377 323.968C416.491 323.663 416.699 323.403 416.973 323.226C417.123 323.128 418.397 322.318 420.432 321.222C422.158 320.174 424.362 318.776 426.589 317.186C432.6 312.89 436.198 309.035 436.718 306.333C438.135 298.947 436.718 275.558 436.692 275.32C436.68 275.123 436.707 274.924 436.771 274.737C436.836 274.549 436.937 274.376 437.068 274.228C437.2 274.079 437.359 273.958 437.537 273.871C437.715 273.784 437.909 273.733 438.107 273.721C438.305 273.709 438.503 273.736 438.691 273.8C438.878 273.865 439.051 273.966 439.2 274.097C439.348 274.228 439.47 274.388 439.556 274.566C439.643 274.744 439.694 274.938 439.707 275.136C439.767 276.112 441.172 299.143 439.68 306.902C439.115 309.86 436.424 313.022 433.135 315.905C435.353 315.244 437.621 314.769 439.918 314.484C443.271 314.107 446.218 314.145 448.72 314.65L443.889 308.621C443.681 308.36 443.564 308.038 443.558 307.705L443.019 277.487C443.012 277.088 443.163 276.702 443.44 276.415C443.717 276.127 444.097 275.961 444.496 275.954L444.526 275.954C444.921 275.953 445.301 276.109 445.583 276.386C445.865 276.663 446.027 277.039 446.033 277.434L446.569 307.14L455.089 317.766C455.43 318.1 455.723 318.481 455.959 318.897C456.132 319.228 456.175 319.612 456.08 319.974C455.986 320.335 455.76 320.649 455.448 320.854C455.135 321.058 454.757 321.14 454.388 321.081C454.019 321.023 453.684 320.83 453.449 320.54L452.839 319.786C451.742 318.735 448.404 316.519 440.276 317.483C433.285 318.313 426.145 321.629 422.064 323.795C420.304 324.854 418.992 325.574 418.525 325.823C418.3 325.945 418.047 326.006 417.79 326Z" fill="#4A7473"/>
<path d="M440.103 322.108C439.777 322.109 439.459 322.003 439.198 321.808C438.937 321.613 438.746 321.338 438.655 321.025C438.563 320.712 438.575 320.378 438.69 320.072C438.804 319.767 439.014 319.507 439.289 319.331C439.425 319.245 440.563 318.517 442.383 317.538C443.92 316.607 445.887 315.359 447.869 313.939C455.067 308.799 456.585 305.728 456.849 304.352C458.112 297.777 456.849 276.908 456.823 276.697C456.811 276.499 456.838 276.301 456.902 276.113C456.967 275.926 457.068 275.753 457.199 275.604C457.33 275.456 457.49 275.335 457.668 275.248C457.846 275.161 458.04 275.11 458.238 275.098C458.436 275.085 458.634 275.112 458.822 275.177C459.009 275.241 459.182 275.342 459.331 275.474C459.479 275.605 459.6 275.765 459.687 275.943C459.774 276.121 459.825 276.315 459.837 276.513C459.89 277.387 461.145 297.992 459.811 304.921C459.329 307.439 457.154 310.114 454.43 312.586C456.202 312.09 458.008 311.727 459.834 311.501C462.315 311.162 464.831 311.184 467.306 311.565L463.274 306.53C463.064 306.271 462.947 305.949 462.942 305.615L462.456 278.627C462.453 278.429 462.488 278.232 462.561 278.048C462.633 277.863 462.742 277.695 462.879 277.553C463.017 277.41 463.181 277.297 463.362 277.218C463.544 277.139 463.739 277.096 463.937 277.093L463.964 277.093C464.359 277.093 464.738 277.248 465.02 277.525C465.302 277.802 465.464 278.179 465.471 278.574L465.946 305.046L473.445 314.399C473.788 314.731 474.082 315.112 474.315 315.529C474.488 315.861 474.531 316.244 474.436 316.606C474.342 316.968 474.116 317.281 473.804 317.486C473.491 317.691 473.113 317.772 472.744 317.714C472.375 317.656 472.04 317.463 471.805 317.172L471.165 316.373C469.853 315.171 466.488 313.735 460.188 314.489C453.966 315.224 447.613 318.171 443.984 320.107C442.417 321.053 441.245 321.694 440.83 321.92C440.607 322.042 440.357 322.107 440.103 322.108Z" fill="#4A7473"/>
<path d="M411.273 115.139C413.427 115.139 415.173 113.393 415.173 111.239C415.173 109.085 413.427 107.339 411.273 107.339C409.119 107.339 407.373 109.085 407.373 111.239C407.373 113.393 409.119 115.139 411.273 115.139Z" fill="#4A7473"/>
<path d="M438.734 210.883C436.945 210.829 435.188 210.396 433.579 209.613C429.558 207.816 426.461 201.7 424.369 191.397C423.426 186.617 422.78 181.783 422.433 176.923C422.42 176.726 422.447 176.527 422.512 176.34C422.576 176.152 422.677 175.979 422.809 175.831C422.94 175.682 423.099 175.561 423.278 175.474C423.456 175.387 423.65 175.336 423.847 175.324C424.045 175.312 424.244 175.339 424.431 175.403C424.619 175.468 424.792 175.569 424.94 175.7C425.089 175.831 425.21 175.991 425.297 176.169C425.384 176.347 425.435 176.541 425.447 176.739C425.792 181.469 426.422 186.174 427.331 190.828C429.163 199.831 431.819 205.525 434.807 206.862C440.524 209.417 442.344 207.013 446.391 201.749C447.416 200.411 448.573 198.896 449.914 197.355C450.038 197.187 450.195 197.047 450.376 196.943C450.557 196.839 450.757 196.774 450.965 196.752C451.172 196.729 451.381 196.75 451.58 196.813C451.779 196.876 451.963 196.979 452.12 197.116C452.276 197.253 452.403 197.422 452.492 197.61C452.58 197.799 452.629 198.004 452.634 198.212C452.639 198.421 452.601 198.628 452.522 198.821C452.443 199.014 452.325 199.188 452.175 199.333C450.894 200.803 449.816 202.216 448.784 203.58C445.845 207.428 443.199 210.883 438.734 210.883Z" fill="#4A7473"/>
<line x1="438" y1="306" y2="306" stroke="#4A7473" stroke-width="4"/>
<line x1="509" y1="306" x2="466" y2="306" stroke="#4A7473" stroke-width="4"/>
</svg>
