<svg width="1920" height="1098" viewBox="0 0 1920 1098" fill="none" xmlns="http://www.w3.org/2000/svg">
<path d="M-163.936 370.605L-163.959 370.222L-161.042 373.07L-161.449 374.878L-161.213 378.843L-161.62 380.651L-162.34 377.215L-164.096 379.453L-161.895 381.813L-162.028 382.458L-161.46 383.336L-161.674 385.522L-161.091 386.655L-161.247 386.917L-160.387 389.835L-161.3 391.788L-160.432 394.835L-160.927 398.055L-159.202 401.072L-160.561 404.194L-161.057 407.414L-159.682 410.315L-159.815 410.96L-159.8 411.216L-160.691 413.553L-160.672 416.756L-161.688 419.866L-160.82 422.912L-160.466 425.976L-160.618 429.184L-158.962 431.05L-158.211 434.998L-158.059 437.555L-158.177 438.456L-158.169 438.584L-158.093 439.863L-158.074 443.066L-159.354 444.647L-159.678 447.862L-157.781 450.873L-158.455 453.972L-158.443 457.047L-155.854 460.163L-157.213 463.284L-156.063 465.296L-156.596 467.877L-157.868 469.586L-156.219 471.324L-155.747 473.486L-154.62 475.114L-154.589 475.626L-156.798 478.904L-156.958 481.985L-154.719 484.985L-156.764 488.13L-154.688 491.263L-153.828 494.181L-155.172 497.559L-154.619 498.181L-155.674 500.651L-152.75 503.628L-153.766 506.738L-153.412 509.801L-155.964 513.091L-155.267 516.143L-154.399 519.189L-153.702 522.241L-154.368 525.467L-152.814 528.49L-153.145 531.577L-154.162 534.687L-152.258 537.826L-152.932 540.925L-153.606 544.023L-150.502 547.121L-150.319 550.191L-152.193 553.33L-151.496 556.382L-150.791 559.562L-153.179 562.718L-151.111 565.723L-151.785 568.822L-149.024 571.932L-149.87 575.036L-149.687 578.105L-149.675 581.181L-148.971 584.36L-148.788 587.43L-150.49 590.563L-149.965 593.621L-148.061 596.76L-151.134 599.94L-149.923 602.974L-148.281 604.584L-147.623 606.997L-149.892 609.252L-147.356 611.473L-147.272 612.88L-147.257 613.135L-149.184 615.379L-148.993 618.577L-147.611 621.605L-149.142 624.733L-145.695 627.819L-148.769 630.999L-146.701 634.005L-148.909 637.283L-145.985 640.26L-144.945 643.3L-146.305 646.421L-148.17 649.688L-146.103 652.694L-146.776 655.792L-143.68 658.763L-146.403 662.059L-147.077 665.157L-146.894 668.227L-144.655 671.226L-141.41 673.807L-139.872 676.574L-136.86 678.138L-131.665 678.859L-126.943 677.418L-121.467 677.104L-116.117 677.563L-110.805 677.383L-105.446 677.97L-100.739 676.273L-94.8443 677.226L-90.031 677.319L-84.7717 676.244L-80.202 678.011L-75.0304 678.349L-69.5696 677.779L-64.3755 678.5L-59.2953 677.303L-54.3562 676.623L-49.0134 676.954L-43.9104 676.14L-39.2034 674.443L-34.2642 673.763L-28.8986 674.478L-23.7652 674.176L-18.7802 674.263L-13.7231 672.682L-8.41069 672.502L-3.52113 673.874L1.33809 674.734L6.04112 675.856L10.1122 677.897L14.9638 678.63L20.6035 678.182L24.9945 679.827L30.1507 679.909L35.0328 681.153L40.1281 680.211L45.3148 680.804L50.4711 680.886L55.3683 682.386L60.7683 680.793L65.9246 680.874L70.9095 680.962L75.9399 681.816L80.6811 683.578L86.1115 682.497L91.1193 682.968L96.1499 683.822L101.447 683.386L106.558 682.701L111.729 683.038L116.752 683.765L121.996 682.434L127.16 682.643L132.339 683.108L137.518 683.573L142.823 683.265L148.032 684.242L153.059 682.149L158.619 683.242L163.729 682.556L168.825 681.615L174.114 681.051L179.038 680.115L183.566 678.296L188.684 677.738L193.383 675.913L198.734 676.372L203.666 675.564L208.231 674.384L214.126 675.338L219.035 674.146L223.772 672.96L227.763 670.775L233.068 670.467L236.126 667.031L241.415 666.467L246.16 665.409L251.823 665.346L255.791 662.776L260.708 661.713L265.616 660.521L271.161 661.358L276.085 660.422L281.15 658.969L286.283 658.667L291.603 658.615L296.79 659.208L301.931 659.034L307.125 659.754L312.133 660.225L317.045 661.981L322.202 662.063L327.373 662.4L332.804 661.319L337.827 662.045L342.998 662.383L348.078 661.185L353.421 661.517L358.794 662.36L364.069 661.54L368.753 659.459L374.648 660.413L378.787 657.838L384.076 657.274L389.553 656.96L394.088 655.268L399.385 654.833L403.509 652.002L409.584 653.077L414.29 651.38L419.61 651.328L424.279 648.991L429.374 648.049L434.919 648.887L439.79 647.055L445.171 648.026L450.289 647.468L455.175 645.893L460.578 647.248L465.712 646.946L470.628 645.882L475.491 643.923L480.887 645.15L485.826 644.47L490.96 644.167L496.101 643.993L500.979 642.29L506.09 641.604L511.246 641.686L516.177 640.878L521.086 639.686L526.855 641.413L531.368 639.337L537.084 640.169L541.799 638.599L546.326 636.78L551.654 636.856L557.153 636.926L561.845 634.972L566.746 633.653L572.252 633.851L577.736 633.665L582.382 630.944L587.896 631.27L593.308 632.752L598.441 632.45L603.894 631.753L609.504 630.794L614.557 632.032L619.854 631.596L625.056 632.445L630.296 633.933L635.666 631.829L641.085 633.439L646.397 633.259L651.725 633.335L657.178 632.638L662.483 632.33L667.395 634.085L672.738 634.417L677.925 635.01L682.502 636.905L687.548 638.015L693.367 637.69L697.796 639.975L703.756 639.132L708.021 641.55L713.535 641.876L718.41 642.992L723.916 643.19L729.712 642.481L735.055 642.812L740.249 643.533L745.28 644.388L750.63 644.847L755.684 646.085L760.87 646.678L766.346 646.365L771.088 648.126L775.97 649.37L781.29 649.318L786.187 650.818L791.343 650.899L796.819 650.586L802.021 651.434L807.482 650.865L812.208 652.37L817.692 652.185L822.863 652.522L827.456 654.673L832.502 655.783L837.689 656.376L843.024 656.58L848.188 656.789L853.508 656.737L858.679 657.074L864.296 656.243L869.43 655.941L874.357 657.952L879.639 657.261L884.678 658.243L889.929 657.04L895.055 656.61L900.234 657.075L905.337 656.261L910.695 656.849L915.843 656.802L920.969 656.372L925.794 653.774L930.92 653.344L936.316 654.57L941.465 654.524L946.537 653.199L951.769 654.559L956.952 652.205L962.215 654.077L967.288 652.751L972.57 652.06L977.733 652.269L982.936 653.118L988.031 652.176L993.263 653.537L998.545 652.845L1003.65 652.031L1008.88 653.392L1013.97 652.322L1019.27 652.014L1024.64 652.729L1029.51 650.898L1034.83 650.846L1039.95 650.288L1045.3 650.748L1050.42 650.19L1055.82 651.544L1061.25 650.463L1066.73 650.149L1072.08 650.736L1077.58 650.806L1082.89 650.498L1088.07 648.144L1093.68 650.132L1099.05 647.9L1104.43 648.999L1109.95 649.325L1115.22 648.505L1120.65 647.424L1126.21 648.389L1131.28 647.064L1136.31 647.918L1141.46 647.872L1146.47 648.343L1151.69 646.756L1156.7 647.227L1161.66 646.803L1166.85 647.524L1172 647.477L1176.86 645.518L1182 645.216L1187.17 645.681L1192.54 646.397L1197.69 646.35L1202.76 645.025L1208.03 644.077L1213.09 645.444L1218.28 646.037L1223.56 645.345L1228.59 646.2L1233.45 647.188L1238.77 647.008L1243.35 649.031L1248.55 649.752L1254 649.054L1259.3 648.619L1264.57 647.799L1269.73 647.88L1275.05 647.828L1280.5 649.95L1285.76 648.875L1291.03 648.055L1296.4 648.898L1301.72 648.846L1306.92 646.748L1312.29 647.463L1317.53 646.132L1322.92 647.23L1328.05 646.8L1333.38 647.004L1338.64 645.929L1343.91 644.981L1349.26 645.568L1354.58 645.388L1359.88 645.08L1365.16 644.389L1370.39 645.621L1375.43 643.784L1380.86 645.65L1385.96 644.709L1391.06 643.767L1396.37 643.587L1401.49 643.029L1406.73 644.517L1411.93 642.547L1417.08 642.501L1422.28 643.349L1427.61 643.425L1432.76 643.379L1437.88 642.949L1443.2 642.768L1448.72 643.222L1453.91 640.996L1459.3 642.094L1464.52 640.38L1470.1 641.856L1475.36 640.781L1480.81 639.956L1486.24 641.822L1491.45 639.851L1496.95 640.049L1502.25 639.613L1507.56 639.433L1512.97 640.915L1518.35 638.939L1523.67 638.887L1528.99 638.835L1534.27 638.143L1539.83 639.236L1544.94 638.55L1550.31 639.265L1555.64 639.469L1560.76 638.911L1566.07 638.731L1570.97 637.283L1576.06 636.214L1580.96 634.894L1586.7 636.11L1591.6 634.79L1596.47 633.087L1602.07 634.819L1606.91 632.349L1612.5 634.081L1617.75 632.878L1623.02 631.931L1628.5 631.617L1633.84 631.948L1639.3 631.379L1644.67 632.222L1650.25 630.623L1655.52 632.623L1660.98 632.181L1666.32 632.385L1671.8 632.071L1677.23 631.118L1682.49 629.915L1688.22 631.13L1693.34 630.572L1698.48 630.27L1703.56 629.072L1708.89 629.276L1713.94 630.514L1719.23 629.95L1724.27 630.933L1729.55 630.241L1734.98 629.16L1739.94 631.555L1744.95 629.207L1750.28 629.41L1754.47 627.603L1760.32 627.917L1765.21 626.341L1770.55 626.673L1775.92 627.388L1780.49 629.155L1785.85 629.742L1790.56 631.12L1795.45 632.364L1800.32 633.481L1804.94 636.143L1810.18 634.684L1814.71 632.865L1820.59 633.562L1825.51 632.627L1830.02 630.551L1835.14 629.865L1839.67 628.174L1844.77 627.232L1849.88 626.546L1854.42 624.983L1859.7 624.291L1865.09 625.39L1870.23 625.216L1875.47 623.757L1880.68 624.733L1885.82 624.559L1891 622.205L1896.15 622.159L1901.34 622.752L1906.71 623.595L1911.74 621.502L1916.97 622.862L1922.22 621.659L1927.35 621.357L1932.53 621.822L1937.91 622.665L1942.93 620.445L1948.12 621.166L1953.39 620.346L1958.66 622.218L1963.77 621.532L1969.03 620.457L1974.17 620.41L1979.4 621.643L1984.49 620.701L1989.84 621.033L1994.87 619.068L2000.04 619.277L2004.48 618.998L2007.77 616.452L2006.54 613.162L2004.64 610.151L2004.8 607.07L2005.64 603.838L2003.06 600.85L2001.85 597.815L2002 594.606L2002.85 591.502L2004.55 588.369L2001.62 585.265L2002.46 582.161L2003.14 579.062L2003.63 575.842L2003.28 572.778L2003.61 569.691L2000.33 566.599L2002.89 563.436L1999.8 560.466L2002 557.187L2000.11 554.176L2001.81 551.043L1999.39 547.921L2000.75 544.799L2000.39 544.427L2000.73 544.416L2002.52 539.87L2000.64 537.242L2001.57 535.417L2001.73 532.336L2001.2 529.278L1999.99 526.244L1998.63 523.599L1999.3 520.501L1997.84 516.193L1998.08 514.391L1998.37 513.484L2000.43 510.595L1998.53 507.584L1999.04 504.491L2000.05 501.253L1997.81 498.382L1998.2 496.19L1998.94 491.295L1997.76 488.9L1998.44 485.802L1998.08 482.738L1997.46 480.838L1998.93 476.687L1997.61 471.862L1998 466.979L1996.7 465.229L1996.46 464.084L1997.47 460.974L1995.82 459.108L1996.4 457.294L1995.25 452.464L1995.17 451.185L1996.56 448.575L1995.52 445.406L1995.27 444.133L1995.36 442.849L1995.76 437.966L1993.41 433.176L1994.5 428.269L1993.52 423.433L1992.78 419.613L1995.23 417.48L1994.36 414.434L1993.39 412.545L1994.54 408.789L1993.4 404.087L1992.6 399.244L1992.14 397.338L1993.76 395.745L1991.56 393.385L1991.67 389.536L1991.9 384.659L1991.3 383.27L1992.15 380.293L1989.57 377.305L1989.26 374.881L1992.06 370.045L1991.44 368.272L1991.76 367.877L1990.82 366.499L1990.4 365.232L1991.65 360.319L1988.96 355.541L1989.7 350.646L1991.64 345.711L1989.7 341.933L1989.93 340.003L1988.71 336.968L1990.07 333.719L1989.16 332.98L1989.75 331.294L1987.49 327.911L1987.64 327.65L1986.66 325.505L1987.15 322.284L1987.28 321.511L1989.49 318.232L1988.96 315.175L1987.35 314.076L1986.36 311.931L1988.99 306.972L1988.87 302.107L1987.9 297.27L1986.76 295.515L1987.16 293.579L1986.18 280.028L1986.74 277.959L1985.99 276.831L1985.3 268.14L1986.22 263.368L1985.93 258.508L1984.78 253.677L1984.15 248.829L1982.19 244.667L1982.33 244.15L1983.86 241.022L1982.02 239.034L1981.06 234.453L1981.21 234.064L1984.13 231.146L1984.08 224.612L1983.45 222.711L1983.6 222.321L1983.42 222.199L1982.32 218.136L1981.91 216.996L1982.21 216.218L1981.85 213.154L1981.9 210.974L1982.02 210.201L1982.76 205.306L1981.96 200.464L1982.01 195.593L1979.41 192.221L1979.19 191.459L1978.61 190.326L1979.41 186.454L1980.53 185.135L1979.09 184.03L1978.65 182.379L1978.74 181.094L1981.37 176.136L1980.06 174.386L1980.65 172.828L1980.96 166.411L1979.29 164.417L1979.82 161.708L1977.47 156.918L1977.6 156.145L1978.81 153.412L1978.39 149.198L1978.45 147.274L1977.13 142.449L1978.04 137.548L1976.72 132.723L1976.6 127.858L1978.03 122.94L1977.92 118.202L1976.43 113.383L1976.65 108.506L1974.65 103.704L1975.73 98.7979L1975.95 93.9207L1973.44 89.1364L1974.87 84.3464L1974.92 79.4751L1973.6 74.6501L1971.94 69.8368L1971.32 65.1165L1973.09 60.187L1974.17 55.2807L1972.51 50.4674L1971.7 45.6251L1967.2 42.0615L1964.51 40.2303L1959.48 36.4285L1952.74 35.7598L1947.25 32.8706L1940.52 32.3298L1933.98 32.039L1928.1 34.2886L1922.21 36.2824L1915.92 37.3926L1910.24 40.02L1903.78 41.136L1897.31 42.1241L1892.38 45.7514L1885.91 46.7395L1879.45 47.7276L1873.76 50.2271L1866.51 49.7038L1861.39 53.0811L1854.55 53.5692L1849.62 57.1965L1842.2 56.679L1836.31 58.6728L1831.18 61.7944L1824.88 62.7766L1819.56 65.7761L1813.01 65.2295L1806.94 67.1012L1800.4 66.9384L1794.74 64.1828L1788.09 64.9209L1781.76 65.2638L1775.58 62.5256L1768.73 62.758L1761.9 63.502L1755.08 64.246L1748.23 64.6062L1741.46 66.1175L1734.62 66.6057L1727.53 65.8207L1721.07 66.9367L1714.22 64.3497L1707.85 67.0004L1701.36 67.6048L1694.63 67.0641L1688.01 65.3665L1681.66 68.2729L1674.86 66.5812L1668.36 67.0577L1661.51 67.2901L1654.82 67.5166L1648.11 67.2317L1641.43 67.4582L1634.61 68.3301L1628.26 65.4699L1621.39 65.4465L1614.59 66.702L1607.91 66.9286L1601.2 66.6436L1594.5 66.6144L1587.61 66.3352L1580.88 65.6666L1574.32 68.0673L1567.35 66.2534L1561.02 69.6714L1554.33 69.7701L1547.57 68.5899L1540.88 68.8165L1534.35 68.6536L1527.8 68.2349L1521.03 69.8741L1514.86 67.2639L1508.3 66.5894L1501.57 66.0486L1494.73 66.5368L1488.3 68.1644L1481.84 69.2803L1475.58 70.9021L1469.58 73.7969L1462.49 73.012L1455.85 74.0059L1449.32 73.843L1442.61 73.6859L1436.18 72.3661L1429.19 73.2438L1422.74 71.5404L1415.88 71.7728L1409.25 69.9474L1402.48 71.5865L1395.8 71.941L1388.94 69.2261L1382.4 71.8826L1375.45 70.4524L1368.67 71.9637L1361.58 71.1788L1355.04 73.7073L1348.18 73.9397L1341.13 73.7943L1334.23 73.2593L1327.66 75.4042L1320.62 75.3866L1313.78 75.8748L1306.8 76.8804L1300.01 75.1886L1293.11 74.7815L1286.35 73.7292L1279.35 74.3511L1272.5 74.7113L1265.66 75.0716L1259.04 76.4492L1251.7 74.2633L1245.92 78.1754L1238.68 77.6521L1232.25 79.2796L1225.5 78.3552L1218.7 79.4828L1212.07 77.7853L1205.03 77.7677L1198.66 77.4711L1192.67 74.9829L1186.41 73.6574L1179.86 73.1109L1173.14 75.6452L1166.85 73.8081L1160.26 75.6973L1153.91 75.6564L1147.3 74.3426L1140.75 73.796L1134.5 75.5456L1128.01 76.2779L1121.94 78.0218L1115.19 77.2252L1108.67 77.3181L1102.05 78.5677L1095.65 80.579L1088.51 78.8989L1082.17 82.0611L1075.27 81.5261L1068.46 82.5258L1061.54 81.7351L1054.74 82.8627L1048.04 82.7056L1041.08 81.2755L1034.34 83.4261L1027.57 82.1181L1020.72 82.4783L1013.87 82.7107L1007.14 82.2979L1000.23 84.4544L993.568 82.1174L986.736 82.7334L979.897 83.2216L973.16 82.553L966.884 80.9717L960.734 78.6172L954.02 78.3322L947.901 76.4893L941.468 75.1696L935.2 73.7162L927.877 74.7334L922.492 70.8152L915.318 71.4428L909.198 69.6L902.321 69.4487L895.919 68.6405L889.339 67.7103L883.626 64.0596L876.661 65.3209L869.947 65.0359L863.352 63.8499L856.912 62.4023L850.297 63.7798L843.74 63.2332L837.22 63.3261L830.529 63.4248L824.265 64.9187L817.467 63.2269L811.271 65.8718L804.31 64.3137L797.813 64.7902L791.347 65.7784L784.942 67.7895L778.437 68.1382L771.834 66.8243L765.261 66.022L758.631 67.1438L752.207 65.952L745.539 66.4343L739.233 64.3415L732.846 63.789L726.494 66.6955L720.161 67.0384L713.17 64.9687L707.332 67.8577L700.572 66.8054L694.525 69.0608L688.291 71.0662L681.695 69.8802L675.259 71.3798L668.789 69.4207L662.285 69.7693L655.75 69.6064L649.341 68.6704L642.688 69.4085L636.249 67.9609L629.737 68.1817L623.232 68.5303L616.637 67.3443L610.132 67.693L603.59 67.4022L597.169 69.1576L590.604 68.4832L583.944 69.0934L577.755 71.8662L571.167 70.808L564.77 72.9471L558.281 73.5516L551.776 73.9002L545.017 72.8479L538.451 72.1734L532.069 74.5683L525.519 74.1497L518.931 73.0915L512.316 74.4691L505.743 73.6667L499.193 73.2481L492.651 72.9572L486.139 73.178L479.753 72.6257L472.921 73.2417L466.378 72.9509L460.704 69.9396L453.975 69.3989L447.417 68.8522L441.618 66.6141L434.786 67.2301L428.384 66.422L421.907 64.335L415.387 64.4278L408.65 63.7592L402.005 64.6252L395.345 65.2355L388.818 65.2004L382.214 63.8865L375.592 65.1362L368.832 64.0839L362.29 63.7931L355.69 65.4265L349.007 65.653L342.548 66.769L336.105 68.1408L328.988 66.8443L322.845 70.3844L315.804 70.3668L308.747 70.0934L301.862 69.8143L294.969 69.4072L288.092 69.256L281.188 71.5403L274.375 69.5928L267.349 69.831L260.502 70.1913L253.7 71.3189L246.671 68.6098L240.155 71.65L232.531 70.4988L226.445 72.1148L219.861 74.0038L213.014 74.3642L206.255 73.3118L199.541 73.0269L192.892 70.9456L186.03 71.0501L179.476 73.4508L172.629 73.8111L165.66 72.1251L158.858 73.2528L152.67 76.0255L145.995 76.3799L139.357 77.3739L132.487 77.3505L125.846 75.3971L118.873 76.5305L112.479 75.8503L105.742 75.1816L99.2609 75.9139L92.1889 75.3848L85.5592 76.5065L79.1766 78.9015L72.2687 78.2386L65.3112 79.6278L58.4907 77.5524L51.7541 76.8838L44.9299 77.6277L38.1132 78.4995L31.2585 78.7319L24.461 77.0401L17.8616 78.6735L11.0145 79.0337L4.96709 81.2891L-1.8075 79.9811L-8.25856 81.2249L-14.8163 80.6784L-21.252 82.178L-27.8402 81.1199L-34.2568 80.0559L-40.8563 81.6893L-47.2083 78.8291L-53.5795 78.5326L-60.2475 79.0149L-66.5082 77.6894L-72.7612 76.4918L-79.3035 76.201L-86.1201 77.0728L-92.3961 75.4915L-98.7976 74.6833L-103.466 71.2535L-110.843 71.3754L-117.45 72.8809L-124.065 74.2584L-131.224 75.1419L-136.517 78.525L-142.736 80.7862L-148.962 82.9195L-154.435 86.1805L-159.736 89.4358L-165.596 91.9412L-171.807 94.3302L-176.415 97.6901L-175.962 102.416L-175.158 107.259L-177.782 112.217L-175.787 116.891L-176.525 121.786L-177.264 126.68L-175.432 131.488L-176.521 136.266L-174.689 141.074L-172.344 145.864L-173.254 150.764L-175.028 155.566L-171.483 160.315L-170.85 165.163L-171.761 170.064L-171.65 174.801L-170.161 179.621L-173.813 184.614L-173.36 189.34L-169.643 194.084L-169.757 197.932L-173.127 201.891L-172.225 208.396L-169.829 211.134L-170.378 213.459L-170.774 218.342L-169.635 223.045L-170.716 227.951L-167.179 232.572L-167.917 237.467L-167.799 242.333L-167.582 243.094L-168.382 246.966L-167.449 248.216L-169.627 252.006L-168.603 254.79L-170.51 254.47L-171.146 258.208L-168.774 260.563L-169.048 261.725L-168.667 262.353L-169.09 263.905L-170.659 266.393L-169.726 267.643L-170.236 270.608L-169.36 273.782L-169.177 276.851L-166.431 279.705L-166.409 280.089L-167.947 283.089L-168.107 286.17L-167.06 289.338L-169.105 292.483L-167.208 295.494L-166.168 298.534L-168.537 304.894L-167.722 307.044L-168.518 308.097L-166.72 309.445L-166.1 311.218L-166.031 312.369L-167.631 314.346L-165.78 316.59L-165.883 317.746L-166.016 318.392L-167.265 320.484L-166.682 321.618L-167.215 324.199L-164.873 326.042L-164.664 326.675L-167.052 329.832L-165.326 332.849L-163.422 335.988L-164.096 339.087L-166.313 342.237L-166.293 345.44L-163.399 347.905L-163.712 348.428L-163.087 353.149L-162.512 354.154L-162.653 354.672L-162.584 355.823L-162.561 356.206L-162.539 356.59L-162.47 357.741L-162.013 365.414L-164.408 368.443L-164.671 366.914L-164.401 368.571L-164.876 369.228L-163.936 370.605Z" fill="#F7F7F7"/>
<g clip-path="url(#clip0_834_4880)">
<path d="M-167.75 766.359L-167.773 765.976L-164.856 768.824L-165.264 770.632L-165.028 774.597L-165.435 776.405L-166.155 772.969L-167.91 775.207L-165.709 777.567L-165.842 778.213L-165.275 779.09L-165.488 781.276L-164.905 782.41L-165.061 782.671L-164.201 785.589L-165.115 787.543L-164.247 790.589L-164.742 793.809L-163.016 796.826L-164.376 799.948L-164.871 803.168L-163.496 806.069L-163.629 806.714L-163.614 806.97L-164.505 809.307L-164.486 812.51L-165.503 815.62L-164.635 818.666L-164.28 821.73L-164.433 824.939L-162.776 826.805L-162.026 830.752L-161.873 833.309L-161.991 834.21L-161.984 834.338L-161.908 835.617L-161.889 838.82L-163.168 840.401L-163.492 843.616L-161.595 846.627L-162.269 849.726L-162.258 852.801L-159.668 855.917L-161.028 859.038L-159.878 861.05L-160.411 863.631L-161.683 865.34L-160.034 867.078L-159.562 869.24L-158.434 870.868L-158.404 871.38L-160.613 874.658L-160.772 877.739L-158.533 880.739L-160.578 883.884L-158.503 887.017L-157.642 889.935L-158.986 893.313L-158.434 893.935L-159.489 896.405L-156.564 899.382L-157.581 902.492L-157.227 905.555L-159.778 908.845L-159.081 911.897L-158.213 914.943L-157.516 917.995L-158.182 921.222L-156.628 924.244L-156.96 927.331L-157.977 930.441L-156.072 933.58L-156.746 936.679L-157.42 939.777L-154.317 942.876L-154.134 945.945L-156.007 949.084L-155.31 952.136L-154.606 955.316L-156.994 958.472L-154.926 961.478L-155.6 964.576L-152.839 967.686L-153.684 970.79L-153.501 973.86L-153.49 976.935L-152.785 980.115L-152.603 983.184L-154.305 986.317L-153.779 989.375L-151.875 992.514L-154.948 995.694L-153.737 998.728L-152.096 1000.34L-151.437 1002.75L-153.707 1005.01L-151.17 1007.23L-151.087 1008.63L-151.071 1008.89L-152.998 1011.13L-152.808 1014.33L-151.425 1017.36L-152.956 1020.49L-149.51 1023.57L-152.583 1026.75L-150.515 1029.76L-152.724 1033.04L-149.799 1036.01L-148.759 1039.05L-150.119 1042.18L-151.985 1045.44L-149.917 1048.45L-150.591 1051.55L-147.495 1054.52L-150.218 1057.81L-150.892 1060.91L-150.709 1063.98L-148.47 1066.98L-145.225 1069.56L-143.687 1072.33L-140.674 1073.89L-135.48 1074.61L-130.758 1073.17L-125.282 1072.86L-119.931 1073.32L-114.619 1073.14L-109.261 1073.72L-104.554 1072.03L-98.6587 1072.98L-93.8455 1073.07L-88.5862 1072L-84.0165 1073.77L-78.8449 1074.1L-73.3841 1073.53L-68.1899 1074.25L-63.1098 1073.06L-58.1707 1072.38L-52.8278 1072.71L-47.7248 1071.89L-43.0179 1070.2L-38.0787 1069.52L-32.7131 1070.23L-27.5796 1069.93L-22.5947 1070.02L-17.5375 1068.44L-12.2251 1068.26L-7.33558 1069.63L-2.47637 1070.49L2.22667 1071.61L6.29776 1073.65L11.1494 1074.38L16.7891 1073.94L21.18 1075.58L26.3362 1075.66L31.2184 1076.91L36.3137 1075.97L41.5003 1076.56L46.6567 1076.64L51.5538 1078.14L56.9538 1076.55L62.1102 1076.63L67.0951 1076.72L72.1254 1077.57L76.8667 1079.33L82.297 1078.25L87.3048 1078.72L92.3354 1079.58L97.6326 1079.14L102.743 1078.45L107.915 1078.79L112.938 1079.52L118.181 1078.19L123.345 1078.4L128.524 1078.86L133.703 1079.33L139.008 1079.02L144.218 1080L149.244 1077.9L154.804 1079L159.915 1078.31L165.01 1077.37L170.3 1076.81L175.224 1075.87L179.752 1074.05L184.87 1073.49L189.569 1071.67L194.919 1072.13L199.851 1071.32L204.417 1070.14L210.312 1071.09L215.221 1069.9L219.958 1068.71L223.949 1066.53L229.254 1066.22L232.312 1062.79L237.601 1062.22L242.346 1061.16L248.009 1061.1L251.977 1058.53L256.893 1057.47L261.802 1056.28L267.346 1057.11L272.27 1056.18L277.335 1054.72L282.469 1054.42L287.789 1054.37L292.975 1054.96L298.116 1054.79L303.311 1055.51L308.318 1055.98L313.231 1057.74L318.387 1057.82L323.559 1058.15L328.989 1057.07L334.012 1057.8L339.184 1058.14L344.264 1056.94L349.606 1057.27L354.98 1058.11L360.254 1057.29L364.938 1055.21L370.833 1056.17L374.973 1053.59L380.262 1053.03L385.738 1052.71L390.274 1051.02L395.571 1050.59L399.695 1047.76L405.769 1048.83L410.476 1047.13L415.796 1047.08L420.465 1044.75L425.56 1043.8L431.105 1044.64L435.975 1042.81L441.356 1043.78L446.474 1043.22L451.36 1041.65L456.764 1043L461.897 1042.7L466.814 1041.64L471.677 1039.68L477.073 1040.9L482.012 1040.22L487.145 1039.92L492.286 1039.75L497.165 1038.04L502.275 1037.36L507.431 1037.44L512.363 1036.63L517.272 1035.44L523.041 1037.17L527.554 1035.09L533.27 1035.92L537.984 1034.35L542.512 1032.53L547.84 1032.61L553.339 1032.68L558.03 1030.73L562.931 1029.41L568.438 1029.6L573.922 1029.42L578.568 1026.7L584.082 1027.02L589.493 1028.51L594.627 1028.2L600.08 1027.51L605.689 1026.55L610.743 1027.79L616.04 1027.35L621.242 1028.2L626.482 1029.69L631.851 1027.58L637.27 1029.19L642.583 1029.01L647.91 1029.09L653.364 1028.39L658.668 1028.08L663.581 1029.84L668.924 1030.17L674.11 1030.76L678.688 1032.66L683.734 1033.77L689.552 1033.44L693.981 1035.73L699.941 1034.89L704.206 1037.3L709.721 1037.63L714.595 1038.75L720.102 1038.94L725.898 1038.23L731.24 1038.57L736.435 1039.29L741.465 1040.14L746.816 1040.6L751.869 1041.84L757.056 1042.43L762.532 1042.12L767.273 1043.88L772.155 1045.12L777.475 1045.07L782.373 1046.57L787.529 1046.65L793.005 1046.34L798.207 1047.19L803.668 1046.62L808.394 1048.12L813.878 1047.94L819.049 1048.28L823.642 1050.43L828.688 1051.54L833.874 1052.13L839.209 1052.33L844.373 1052.54L849.693 1052.49L854.865 1052.83L860.482 1052L865.615 1051.7L870.543 1053.71L875.825 1053.01L880.863 1054L886.114 1052.79L891.24 1052.36L896.419 1052.83L901.522 1052.02L906.88 1052.6L912.029 1052.56L917.155 1052.13L921.98 1049.53L927.105 1049.1L932.502 1050.32L937.65 1050.28L942.723 1048.95L947.955 1050.31L953.138 1047.96L958.401 1049.83L963.473 1048.51L968.755 1047.81L973.919 1048.02L979.121 1048.87L984.216 1047.93L989.449 1049.29L994.731 1048.6L999.834 1047.79L1005.07 1049.15L1010.15 1048.08L1015.46 1047.77L1020.82 1048.48L1025.69 1046.65L1031.01 1046.6L1036.13 1046.04L1041.48 1046.5L1046.6 1045.94L1052.01 1047.3L1057.44 1046.22L1062.91 1045.9L1068.27 1046.49L1073.77 1046.56L1079.07 1046.25L1084.26 1043.9L1089.87 1045.89L1095.23 1043.65L1100.62 1044.75L1106.13 1045.08L1111.41 1044.26L1116.84 1043.18L1122.39 1044.14L1127.46 1042.82L1132.49 1043.67L1137.64 1043.63L1142.65 1044.1L1147.88 1042.51L1152.89 1042.98L1157.84 1042.56L1163.04 1043.28L1168.18 1043.23L1173.05 1041.27L1178.18 1040.97L1183.36 1041.44L1188.73 1042.15L1193.87 1042.1L1198.95 1040.78L1204.21 1039.83L1209.27 1041.2L1214.46 1041.79L1219.74 1041.1L1224.77 1041.95L1229.64 1042.94L1234.95 1042.76L1239.54 1044.79L1244.73 1045.51L1250.19 1044.81L1255.48 1044.37L1260.76 1043.55L1265.91 1043.63L1271.23 1043.58L1276.68 1045.7L1281.94 1044.63L1287.22 1043.81L1292.59 1044.65L1297.91 1044.6L1303.11 1042.5L1308.47 1043.22L1313.72 1041.89L1319.11 1042.98L1324.23 1042.55L1329.57 1042.76L1334.83 1041.68L1340.09 1040.74L1345.45 1041.32L1350.76 1041.14L1356.07 1040.83L1361.35 1040.14L1366.57 1041.38L1371.62 1039.54L1377.05 1041.4L1382.15 1040.46L1387.24 1039.52L1392.55 1039.34L1397.67 1038.78L1402.91 1040.27L1408.12 1038.3L1413.27 1038.25L1418.47 1039.1L1423.8 1039.18L1428.94 1039.13L1434.07 1038.7L1439.38 1038.52L1444.9 1038.98L1450.09 1036.75L1455.48 1037.85L1460.7 1036.13L1466.29 1037.61L1471.55 1036.54L1476.99 1035.71L1482.43 1037.58L1487.63 1035.61L1493.14 1035.8L1498.44 1035.37L1503.75 1035.19L1509.16 1036.67L1514.54 1034.69L1519.86 1034.64L1525.18 1034.59L1530.46 1033.9L1536.02 1034.99L1541.13 1034.3L1546.49 1035.02L1551.83 1035.22L1556.95 1034.67L1562.26 1034.48L1567.15 1033.04L1572.24 1031.97L1577.14 1030.65L1582.88 1031.86L1587.78 1030.54L1592.66 1028.84L1598.26 1030.57L1603.09 1028.1L1608.69 1029.84L1613.94 1028.63L1619.21 1027.68L1624.68 1027.37L1630.03 1027.7L1635.49 1027.13L1640.86 1027.98L1646.43 1026.38L1651.7 1028.38L1657.17 1027.94L1662.51 1028.14L1667.98 1027.83L1673.42 1026.87L1678.67 1025.67L1684.41 1026.88L1689.53 1026.33L1694.66 1026.02L1699.74 1024.83L1705.08 1025.03L1710.13 1026.27L1715.42 1025.7L1720.46 1026.69L1725.74 1026L1731.17 1024.91L1736.12 1027.31L1741.13 1024.96L1746.47 1025.16L1750.65 1023.36L1756.51 1023.67L1761.4 1022.1L1766.74 1022.43L1772.1 1023.14L1776.67 1024.91L1782.03 1025.5L1786.75 1026.87L1791.63 1028.12L1796.51 1029.23L1801.13 1031.9L1806.37 1030.44L1810.89 1028.62L1816.77 1029.32L1821.7 1028.38L1826.21 1026.31L1831.32 1025.62L1835.86 1023.93L1840.95 1022.99L1846.06 1022.3L1850.61 1020.74L1855.89 1020.05L1861.28 1021.14L1866.42 1020.97L1871.65 1019.51L1876.86 1020.49L1882 1020.31L1887.19 1017.96L1892.34 1017.91L1897.52 1018.51L1902.9 1019.35L1907.92 1017.26L1913.15 1018.62L1918.41 1017.41L1923.54 1017.11L1928.72 1017.58L1934.09 1018.42L1939.11 1016.2L1944.31 1016.92L1949.58 1016.1L1954.84 1017.97L1959.95 1017.29L1965.21 1016.21L1970.36 1016.16L1975.59 1017.4L1980.68 1016.46L1986.02 1016.79L1991.06 1014.82L1996.22 1015.03L2000.67 1014.75L2003.95 1012.21L2002.73 1008.92L2000.83 1005.9L2000.99 1002.82L2001.83 999.592L1999.24 996.604L1998.03 993.569L1998.19 990.361L1999.03 987.256L2000.73 984.123L1997.8 981.019L1998.65 977.915L1999.32 974.816L1999.82 971.596L1999.46 968.532L1999.79 965.446L1996.52 962.353L1999.08 959.191L1995.98 956.22L1998.19 952.941L1996.29 949.93L1998 946.797L1995.58 943.675L1996.94 940.554L1996.57 940.182L1996.91 940.17L1998.7 935.624L1996.83 932.997L1997.75 931.171L1997.91 928.09L1997.39 925.033L1996.17 921.998L1994.82 919.353L1995.49 916.255L1994.03 911.947L1994.27 910.145L1994.56 909.238L1996.62 906.349L1994.72 903.338L1995.22 900.245L1996.23 897.007L1994 894.136L1994.38 891.944L1995.12 887.049L1993.95 884.654L1994.62 881.556L1994.27 878.493L1993.64 876.592L1995.11 872.441L1993.79 867.616L1994.19 862.733L1992.88 860.983L1992.64 859.838L1993.66 856.728L1992 854.862L1992.58 853.048L1991.44 848.218L1991.36 846.939L1992.75 844.329L1991.7 841.161L1991.46 839.887L1991.55 838.603L1991.95 833.72L1989.6 828.93L1990.68 824.023L1989.71 819.187L1988.96 815.368L1991.41 813.234L1990.54 810.188L1989.57 808.299L1990.72 804.544L1989.58 799.841L1988.78 794.998L1988.32 793.092L1989.95 791.499L1987.75 789.139L1987.86 785.29L1988.08 780.413L1987.49 779.024L1988.34 776.048L1985.76 773.06L1985.44 770.635L1988.24 765.799L1987.62 764.026L1987.94 763.631L1987 762.253L1986.58 760.986L1987.84 756.074L1985.15 751.295L1985.89 746.401L1987.82 741.465L1985.88 737.687L1986.11 735.757L1984.9 732.722L1986.25 729.473L1985.35 728.734L1985.94 727.049L1983.67 723.665L1983.83 723.404L1982.84 721.259L1983.34 718.038L1983.46 717.265L1985.67 713.986L1985.15 710.929L1983.54 709.83L1982.55 707.685L1985.17 702.726L1985.06 697.861L1984.08 693.024L1982.95 691.269L1983.35 689.333L1982.37 675.782L1982.93 673.713L1982.18 672.585L1981.49 663.895L1982.4 659.122L1982.12 654.262L1980.97 649.431L1980.34 644.583L1978.37 640.421L1978.51 639.904L1980.04 636.776L1978.21 634.788L1977.25 630.207L1977.4 629.818L1980.31 626.9L1980.27 620.366L1979.64 618.465L1979.79 618.075L1979.61 617.953L1978.51 613.89L1978.1 612.751L1978.39 611.972L1978.04 608.908L1978.08 606.728L1978.21 605.955L1978.95 601.06L1978.14 596.218L1978.2 591.347L1975.59 587.975L1975.37 587.213L1974.79 586.08L1975.59 582.208L1976.71 580.889L1975.27 579.784L1974.83 578.133L1974.93 576.849L1977.55 571.89L1976.25 570.14L1976.84 568.582L1977.14 562.165L1975.48 560.171L1976.01 557.462L1973.66 552.672L1973.79 551.899L1975 549.166L1974.57 544.952L1974.63 543.028L1973.31 538.203L1974.22 533.302L1972.91 528.477L1972.79 523.612L1974.21 518.694L1974.1 513.956L1972.61 509.137L1972.84 504.26L1970.83 499.458L1971.91 494.552L1972.14 489.675L1969.62 484.891L1971.05 480.101L1971.11 475.229L1969.79 470.404L1968.13 465.591L1967.5 460.871L1969.27 455.941L1970.35 451.035L1968.69 446.222L1967.89 441.379L1963.38 437.816L1960.7 435.984L1955.66 432.183L1948.93 431.514L1943.43 428.625L1936.7 428.084L1930.16 427.793L1924.29 430.043L1918.39 432.036L1912.11 433.147L1906.43 435.774L1899.97 436.89L1893.5 437.878L1888.57 441.505L1882.1 442.494L1875.63 443.482L1869.94 445.981L1862.7 445.458L1857.58 448.835L1850.74 449.323L1845.8 452.951L1838.39 452.433L1832.5 454.427L1827.36 457.548L1821.07 458.531L1815.75 461.53L1809.19 460.984L1803.12 462.855L1796.59 462.692L1790.93 459.937L1784.28 460.675L1777.94 461.018L1771.77 458.28L1764.91 458.512L1758.09 459.256L1751.27 460L1744.42 460.36L1737.64 461.872L1730.8 462.36L1723.71 461.575L1717.26 462.691L1710.4 460.104L1704.04 462.754L1697.55 463.359L1690.82 462.818L1684.19 461.121L1677.84 464.027L1671.04 462.335L1664.55 462.812L1657.69 463.044L1651.01 463.271L1644.3 462.986L1637.61 463.212L1630.8 464.084L1624.44 461.224L1617.57 461.201L1610.78 462.456L1604.1 462.683L1597.38 462.398L1590.68 462.369L1583.8 462.089L1577.06 461.421L1570.51 463.821L1563.53 462.008L1557.21 465.426L1550.52 465.524L1543.75 464.344L1537.07 464.571L1530.53 464.408L1523.98 463.989L1517.21 465.628L1511.05 463.018L1504.48 462.344L1497.75 461.803L1490.91 462.291L1484.49 463.918L1478.03 465.034L1471.77 466.656L1465.76 469.551L1458.67 468.766L1452.04 469.76L1445.5 469.597L1438.8 469.44L1432.36 468.12L1425.38 468.998L1418.92 467.295L1412.07 467.527L1405.43 465.701L1398.66 467.341L1391.99 467.695L1385.13 464.98L1378.59 467.637L1371.64 466.207L1364.86 467.718L1357.77 466.933L1351.22 469.461L1344.37 469.694L1337.32 469.548L1330.42 469.013L1323.85 471.158L1316.81 471.141L1309.97 471.629L1302.99 472.634L1296.19 470.943L1289.3 470.536L1282.54 469.483L1275.54 470.105L1268.69 470.465L1261.84 470.826L1255.23 472.203L1247.89 470.017L1242.11 473.929L1234.87 473.406L1228.44 475.034L1221.69 474.109L1214.88 475.237L1208.26 473.539L1201.22 473.522L1194.85 473.225L1188.86 470.737L1182.6 469.411L1176.04 468.865L1169.32 471.399L1163.03 469.562L1156.45 471.451L1150.09 471.411L1143.49 470.097L1136.93 469.55L1130.68 471.3L1124.2 472.032L1118.12 473.776L1111.38 472.979L1104.86 473.072L1098.24 474.322L1091.83 476.333L1084.69 474.653L1078.35 477.815L1071.45 477.28L1064.64 478.28L1057.73 477.489L1050.93 478.617L1044.22 478.46L1037.27 477.03L1030.53 479.18L1023.75 477.872L1016.91 478.232L1010.05 478.465L1003.33 478.052L996.418 480.209L989.754 477.871L982.922 478.488L976.082 478.976L969.346 478.307L963.07 476.726L956.92 474.371L950.206 474.086L944.086 472.243L937.654 470.924L931.386 469.47L924.063 470.487L918.678 466.569L911.503 467.197L905.384 465.354L898.506 465.203L892.105 464.395L885.524 463.464L879.812 459.814L872.847 461.075L866.133 460.79L859.537 459.604L853.098 458.156L846.483 459.534L839.925 458.987L833.406 459.08L826.715 459.179L820.45 460.673L813.653 458.981L807.457 461.626L800.496 460.068L793.999 460.544L787.533 461.532L781.127 463.544L774.623 463.892L768.02 462.578L761.447 461.776L754.817 462.898L748.392 461.706L741.724 462.188L735.418 460.096L729.032 459.543L722.68 462.45L716.347 462.792L709.355 460.723L703.517 463.612L696.758 462.56L690.71 464.815L684.476 466.82L677.881 465.634L671.445 467.134L664.975 465.175L658.471 465.523L651.936 465.361L645.527 464.424L638.874 465.163L632.434 463.715L625.922 463.936L619.418 464.284L612.822 463.098L606.318 463.447L599.775 463.156L593.355 464.912L586.79 464.237L580.129 464.848L573.941 467.62L567.353 466.562L560.955 468.701L554.466 469.306L547.962 469.654L541.202 468.602L534.637 467.928L528.255 470.322L521.705 469.904L515.116 468.846L508.502 470.223L501.929 469.421L495.379 469.002L488.836 468.711L482.324 468.932L475.938 468.38L469.106 468.996L462.564 468.705L456.89 465.694L450.161 465.153L443.603 464.606L437.803 462.368L430.971 462.984L424.57 462.176L418.092 460.089L411.573 460.182L404.836 459.513L398.191 460.379L391.53 460.99L385.003 460.955L378.4 459.641L371.777 460.89L365.018 459.838L358.475 459.547L351.876 461.181L345.193 461.407L338.734 462.523L332.291 463.895L325.173 462.598L319.031 466.138L311.989 466.121L304.933 465.848L298.048 465.568L291.155 465.161L284.277 465.01L277.373 467.294L270.56 465.347L263.534 465.585L256.687 465.945L249.886 467.073L242.856 464.364L236.34 467.404L228.716 466.253L222.631 467.869L216.047 469.758L209.2 470.118L202.44 469.066L195.727 468.781L189.077 466.7L182.215 466.804L175.661 469.205L168.814 469.565L161.845 467.879L155.044 469.007L148.856 471.78L142.18 472.134L135.542 473.128L128.672 473.105L122.031 471.151L115.058 472.285L108.664 471.604L101.928 470.936L95.4464 471.668L88.3745 471.139L81.7447 472.261L75.3621 474.656L68.4542 473.993L61.4968 475.382L54.6762 473.307L47.9396 472.638L41.1154 473.382L34.2988 474.254L27.4441 474.486L20.6465 472.794L14.0471 474.428L7.20005 474.788L1.15263 477.043L-5.62196 475.735L-12.073 476.979L-18.6307 476.432L-25.0664 477.932L-31.6546 476.874L-38.0713 475.81L-44.6708 477.443L-51.0228 474.583L-57.394 474.287L-64.0619 474.769L-70.3226 473.443L-76.5756 472.246L-83.118 471.955L-89.9346 472.827L-96.2105 471.246L-102.612 470.437L-107.281 467.008L-114.657 467.129L-121.265 468.635L-127.879 470.013L-135.039 470.896L-140.332 474.279L-146.55 476.54L-152.777 478.674L-158.249 481.935L-163.55 485.19L-169.411 487.695L-175.621 490.084L-180.23 493.444L-179.776 498.17L-178.973 503.013L-181.596 507.971L-179.601 512.645L-180.34 517.54L-181.078 522.434L-179.247 527.242L-180.336 532.02L-178.504 536.828L-176.158 541.618L-177.068 546.518L-178.842 551.32L-175.297 556.069L-174.665 560.917L-175.575 565.818L-175.465 570.556L-173.975 575.375L-177.627 580.368L-177.174 585.094L-173.457 589.838L-173.571 593.686L-176.942 597.645L-176.039 604.15L-173.644 606.888L-174.192 609.213L-174.588 614.096L-173.449 618.799L-174.531 623.705L-170.993 628.327L-171.732 633.221L-171.614 638.087L-171.397 638.848L-172.196 642.72L-171.263 643.97L-173.441 647.76L-172.417 650.544L-174.325 650.225L-174.961 653.962L-172.588 656.317L-172.862 657.479L-172.481 658.107L-172.904 659.659L-174.473 662.147L-173.54 663.397L-174.051 666.362L-173.174 669.536L-172.992 672.605L-170.246 675.459L-170.223 675.843L-171.762 678.843L-171.921 681.924L-170.874 685.092L-172.919 688.237L-171.023 691.248L-169.983 694.288L-172.351 700.648L-171.537 702.799L-172.332 703.851L-170.535 705.199L-169.914 706.972L-169.846 708.123L-171.445 710.1L-169.594 712.344L-169.697 713.501L-169.83 714.146L-171.08 716.239L-170.497 717.372L-171.03 719.953L-168.688 721.796L-168.478 722.43L-170.866 725.586L-169.141 728.603L-167.237 731.742L-167.911 734.841L-170.127 737.991L-170.108 741.194L-167.214 743.659L-167.526 744.182L-166.901 748.903L-166.327 749.908L-166.467 750.426L-166.399 751.577L-166.376 751.96L-166.353 752.344L-166.285 753.495L-165.827 761.168L-168.223 764.197L-168.485 762.668L-168.215 764.325L-168.691 764.982L-167.75 766.359Z" fill="#F7F7F7"/>
</g>
<defs>
<clipPath id="clip0_834_4880">
<rect width="2154.8" height="629.561" fill="white" transform="matrix(-0.999426 0.0338822 -0.0594617 -0.998231 2005 1024.99)"/>
</clipPath>
</defs>
</svg>
