<svg width="1920" height="82" viewBox="0 0 1920 82" fill="none" xmlns="http://www.w3.org/2000/svg">
<g clip-path="url(#clip0_541_3459)">
<path d="M1912.99 32.9871L1908.36 32.607L1903.73 34.2567L1899.1 33.755L1894.46 34.4544L1889.82 33.1316L1885.18 33.0784L1880.55 33.8918L1875.91 34.348L1871.28 32.531L1866.63 33.0251L1861.99 32.2573L1857.35 34.0743L1852.7 33.1772L1848.06 32.6374L1843.41 32.7742L1838.77 33.6105L1834.12 32.2801L1829.47 34.0134L1824.84 33.0175L1820.18 32.3789L1815.55 32.2193L1810.9 34.2035L1806.25 34.1731L1801.6 33.162L1796.93 34.3251L1792.27 34.3708L1787.58 33.1392L1782.92 33.6713L1778.73 34.9789L1774.07 35.3439L1769.58 36.0661L1765.41 37.4725L1760.77 37.8983L1756.71 39.624L1752.21 40.4223L1747.06 39.5176L1742.87 41.0685L1738.19 42.2317L1734.18 39.6392L1729.92 38.4913L1725.63 37.2445L1721.44 35.8608L1716.63 35.1918L1712.71 33.4052L1708.02 32.645L1703.26 32.1432L1698.72 33.4128L1693.64 32.9719L1689.76 34.4772L1685.04 34.0819L1680.49 36.1041L1676.1 33.8006L1671.29 34.576L1666.48 35.0626L1662.04 33.9906L1657.33 34.3175L1652.85 33.0555L1648.19 32.7666L1643.53 33.7017L1638.9 33.7473L1634.3 34.1123L1629.29 32.8731L1624.53 33.7854L1619.69 34.4696L1614.83 34.6368L1609.96 34.2491L1605.07 34.4924L1600.46 32.4929L1595.48 33.7853L1590.76 32.8274L1585.91 33.2L1581.08 32.7438L1576.24 32.8198L1571.46 33.5649L1566.74 34.4696L1561.8 32.7438L1557.43 34.7737L1552.46 33.0707L1548.01 34.5076L1543.51 35.5339L1538.52 34.1731L1534.04 35.2374L1529.51 36.0661L1525 37.1988L1520.3 37.2444L1515.64 37.6398L1510.93 37.2216L1506.23 36.4082L1501.57 36.948L1496.81 35.7468L1492.01 36.2333L1487.24 36.1041L1482.45 35.952L1477.66 37.5942L1472.88 36.1041L1468.09 36.1193L1463.29 36.3017L1458.5 35.9292L1453.71 37.5485L1448.91 35.7924L1444.1 36.2941L1439.3 37.0924L1434.5 35.5795L1429.71 37.0544L1424.9 35.8304L1420.14 37.7158L1415.35 37.1304L1410.58 37.1L1405.94 37.3509L1401.29 37.2596L1396.66 37.0696L1392.01 36.0509L1387.38 35.914L1382.73 37.5409L1378.09 36.0965L1373.45 36.4082L1368.81 36.4006L1364.17 37.1684L1359.5 37.8602L1354.89 35.9672L1350.2 37.5181L1345.58 36.2333L1340.85 36.6134L1336.12 36.8339L1331.4 36.7503L1326.65 36.0889L1321.95 36.7579L1317.25 37.5561L1312.5 37.2368L1307.8 37.4269L1303.01 36.3473L1298.32 37.3281L1293.53 36.5602L1288.84 38.3088L1284.1 38.1719L1279.33 37.1988L1274.61 37.8146L1269.88 38.5977L1265.15 36.5526L1260.43 36.4614L1255.73 36.2257L1250.99 36.7427L1246.24 37.0164L1241.36 37.5029L1236.83 36.6818L1232.9 34.6748L1228.07 34.7128L1223.79 33.6105L1219.35 32.7742L1214.54 33.1923L1210.06 32.4929L1205.53 31.056L1200.86 31.8315L1196.23 32.8274L1191.62 32.759L1186.93 31.9607L1182.31 31.2917L1177.76 31.4894L1173.31 33.0859L1168.73 32.9186L1164.16 32.1812L1159.66 32.3332L1155.16 31.7935L1150.5 33.0555L1146 32.4549L1141.46 32.4169L1136.93 31.4438L1132.33 32.5233L1127.52 31.4286L1122.67 32.2496L1117.84 32.8882L1113 32.356L1108.16 31.1853L1103.37 33.0175L1098.48 31.1092L1093.71 33.0859L1088.89 33.1695L1084.05 32.9718L1079.24 32.3104L1074.4 32.3332L1069.56 33.1391L1064.75 31.7783L1060.09 32.1888L1055.42 31.5958L1050.77 31.9683L1046.09 31.8239L1041.6 33.2987L1036.84 32.5461L1032.21 32.5993L1027.56 33.3824L1022.96 32.0595L1018.29 32.6069L1013.61 33.1011L1009.08 31.649L1004.36 32.3332L999.786 31.4437L995.181 31.1016L990.505 31.5958L985.839 32.5765L981.254 30.6987L976.628 32.7133L971.972 31.2765L967.407 32.4245L962.791 32.2952L958.045 30.9952L953.409 31.1701L949.055 33.466L944.449 33.6485L939.783 33.4812L935.087 32.8426L930.522 33.3748L925.886 32.8046L921.291 33.1163L916.625 33.9677L912.069 32.9946L907.374 33.4356L903.099 31.4285L898.423 31.5806L893.517 32.1888L888.911 31.6186L884.155 31.5654L879.459 31.2689L874.773 30.866L870.188 30.1437L865.793 28.9577L861.769 26.9659L857.164 26.4413L852.337 26.4261L848.113 24.9741L843.176 25.263L838.701 24.3963L833.825 24.5255L829.099 24.2594L824.915 22.7009L820.118 22.6249L815.804 21.3249L811.66 19.6372L806.773 19.7284L802.188 19.067L797.803 17.7137L793.087 17.1892L788.562 16.2237L783.976 15.4178L779.25 14.9236L774.032 15.471L769.206 15.1365L764.811 13.8973L760.025 13.4564L756.242 11.1224L750.874 11.7078L747.081 9.4727L741.874 9.68557L737.509 8.50719L733.545 6.64459L728.89 5.95277L724.184 5.45861L719.909 3.77847L715.043 3.79368L710.186 4.31064L705.46 4.11298L700.704 4.09777L695.998 2.48606L691.102 4.15859L686.516 2.72173L681.951 1.80944L677.094 1.9843L672.659 0.699484L667.612 1.39891L662.796 1.88546L658.15 1.96149L653.404 0.441006L648.518 5.66902e-05L644.193 2.35681L639.407 2.28079L634.49 2.02231L629.965 3.02583L625.7 4.62994L620.874 4.36385L616.128 4.24222L611.924 5.68668L607.649 6.98669L602.673 5.99837L598.508 7.80015L593.441 6.0972L589.037 6.98669L584.551 7.60248L579.896 7.32119L575.38 7.83056L570.965 9.15338L566.38 9.18379L561.794 9.23701L557.259 9.75397L552.513 8.45396L548.118 10.1113L543.633 10.8867L539.067 11.0616L534.271 9.64754L529.846 10.9171L525.301 11.2288L520.495 10.1949L516.15 11.7382L511.203 10.7727L506.587 11.5101L502.333 13.4411L497.567 13.4031L493.232 14.7032L487.954 13.5552L484.192 16.0488L479.416 16.2312L475.231 17.6073L470.325 17.7137L465.569 18.071L461.776 20.3213L456.518 19.2798L452.274 21.0132L447.588 21.5986L442.771 20.6939L438.096 20.1921L433.44 21.1044L428.854 20.6406L424.369 19.812L419.513 20.6254L414.917 20.1921L410.282 19.9564L406.107 18.1927L401.582 17.5921L397.077 16.847L392.401 16.7938L387.826 16.0868L383.14 15.9879L378.454 16.1096L373.908 17.326L369.443 18.0254L364.507 17.0599L360.082 18.0026L355.617 18.8009L352.034 21.036L346.977 20.8383L342.663 21.743L337.957 22.0699L335.067 25.0272L330.241 25.1717L326.558 27.0343L322.254 27.9922L317.869 28.8817L312.701 27.8325L308.487 28.7524L304.062 29.353L299.386 28.7904L295.082 30.2729L290.476 30.6758L286.282 32.1811L281.837 32.8729L277.161 33.2379L272.576 33.9297L267.9 34.3706L263.094 33.1922L258.518 34.8724L253.842 33.8613L249.196 34.0437L244.571 33.3899L239.965 32.8501L235.35 32.4472L230.654 33.4887L226.138 32.7285L221.613 32.2191L216.947 32.7589L212.322 32.9262L207.857 31.9987L203.351 31.4513L198.545 32.2952L194.321 30.5466L189.936 29.5963L185.391 29.2998L180.795 29.1401L175.939 30.3869L171.614 28.9121L167.059 28.6384L162.543 28.0074L157.847 28.6688L153.603 27.3916L149.058 27.1559L145.165 25.5746L140.218 25.7418L135.813 24.936L132.291 22.967L128.147 21.8266L123.872 20.8307L119.648 19.5155L114.922 19.485L110.226 20.7699L105.801 20.5722L101.306 20.6102L96.5499 19.8652L92.0247 20.3441L87.7703 21.6821L83.265 22.336L78.5291 21.8722L73.9836 22.2903L69.3579 23.2102L64.7725 22.3588L59.9762 22.7465L55.3406 22.3207L51.2867 20.595L46.5608 21.378L42.2964 21.1652L37.1691 20.078L32.8344 21.4693L28.1084 20.747L23.4225 20.8003L18.6263 20.1997L13.7297 20.3669L9.39502 21.4313L4.88978 20.7014L2.16065 19.1201L0.996588 16.6417L-1.00012 14.8475L-1.00012 81.9998L1920 82L1920 30.6076L1916.86 32.8807L1912.99 32.9871Z" fill="white"/>
</g>
<defs>
<clipPath id="clip0_541_3459">
<rect width="1921" height="81.9998" fill="white" transform="translate(1920 82) rotate(-180)"/>
</clipPath>
</defs>
</svg>
