<?xml version="1.0" encoding="utf-8"?>
<!-- Generator: Adobe Illustrator 24.0.1, SVG Export Plug-In . SVG Version: 6.00 Build 0)  -->
<svg version="1.1" id="Layer_1" xmlns="http://www.w3.org/2000/svg" xmlns:xlink="http://www.w3.org/1999/xlink" x="0px" y="0px"
	 viewBox="0 0 2299.47 1070.35" style="enable-background:new 0 0 2299.47 1070.35;" xml:space="preserve">
<style type="text/css">
	.st0{clip-path:url(#SVGID_2_);}
	.st1{fill:#F7F7F7;}
	.st2{clip-path:url(#SVGID_4_);}
</style>
<g>
	<defs>
		<rect id="SVGID_1_" x="1.94" width="2300.49" height="1061.17"/>
	</defs>
	<clipPath id="SVGID_2_">
		<use xlink:href="#SVGID_1_"  style="overflow:visible;"/>
	</clipPath>
	<g class="st0">
		<path class="st1" d="M-9.42,330.5l-0.02-0.42l3.1,3.15l-0.47,1.96l0.19,4.31l-0.47,1.96l-0.72-3.74l-1.94,2.4l2.33,2.6l-0.15,0.7
			l0.6,0.96l-0.27,2.37l0.61,1.24l-0.17,0.28l0.88,3.18l-1.02,2.11l0.88,3.32l-0.59,3.49l1.81,3.31l-1.52,3.37l-0.59,3.49l1.43,3.18
			l-0.16,0.7l0.01,0.28l-1,2.52l-0.04,3.48l-1.15,3.36l0.88,3.32l0.33,3.33l-0.22,3.48l1.76,2.06l0.74,4.3l0.12,2.78l-0.14,0.98
			l0.01,0.14l0.06,1.39l-0.04,3.48l-1.41,1.69l-0.41,3.49l1.99,3.3l-0.78,3.35l-0.04,3.34l2.74,3.43l-1.52,3.37l1.21,2.2l-0.62,2.79
			l-1.4,1.83l1.75,1.92l0.47,2.36l1.19,1.79l0.02,0.56l-2.45,3.52l-0.23,3.34l2.36,3.3l-2.26,3.38l2.19,3.44l0.88,3.18l-1.51,3.65
			l0.58,0.68l-1.18,2.66l3.11,3.29l-1.15,3.36l0.33,3.33l-2.82,3.53l0.7,3.33l0.88,3.32l0.7,3.33l-0.78,3.49l1.62,3.31l-0.41,3.35
			l-1.15,3.36l2,3.44l-0.78,3.35l-0.78,3.35l3.3,3.42l0.14,3.34L0,529.19l0.7,3.33l0.7,3.47l-2.64,3.39l2.18,3.3l-0.78,3.35
			l2.93,3.43l-0.97,3.36l0.14,3.34l-0.04,3.34l0.71,3.47l0.14,3.34l-1.89,3.37L1.69,573l2,3.44l-3.38,3.4l1.25,3.32l1.74,1.78
			l0.67,2.63l-2.49,2.41l2.7,2.46l0.07,1.53l0.01,0.28l-2.12,2.4l0.15,3.48l1.44,3.32l-1.71,3.37l3.67,3.41l-3.38,3.4l2.18,3.3
			l-2.44,3.52l3.11,3.28l1.07,3.32l-1.53,3.37l-2.07,3.52l2.18,3.3l-0.78,3.35l3.29,3.28l-3,3.53l-0.78,3.35l0.14,3.34l2.37,3.3
			l3.46,2.86l1.61,3.03l3.23,1.75l5.6,0.88l5.13-1.48l5.92-0.24l5.77,0.59l5.74-0.1l5.78,0.73l5.12-1.76l6.35,1.14l5.2,0.19
			l5.7-1.08l4.9,2l5.58,0.46l5.91-0.52l5.6,0.88l5.51-1.21l5.35-0.65l5.76,0.45l5.53-0.79l5.11-1.76l5.35-0.65l5.78,0.87l5.55-0.24
			l5.38,0.18l5.49-1.63l5.74-0.1l5.26,1.58l5.23,1.02l5.06,1.3l4.36,2.29l5.23,0.88l6.1-0.39l4.71,1.87l5.57,0.18l5.25,1.44
			l5.52-0.93l5.59,0.74l5.57,0.18l5.26,1.72l5.86-1.63l5.57,0.18l5.38,0.18l5.42,1.02l5.09,2l5.88-1.08l5.4,0.6l5.42,1.02l5.73-0.38
			l5.53-0.65l5.58,0.46l5.41,0.88l5.69-1.35l5.57,0.32l5.59,0.6l5.59,0.6l5.74-0.24l5.61,1.15l5.47-2.18l5.99,1.29l5.53-0.65
			l5.52-0.93l5.72-0.52l5.34-0.93l4.92-1.9l5.54-0.51l5.11-1.9l5.77,0.59l5.34-0.79l4.95-1.2l6.35,1.14l5.32-1.21l5.14-1.2l4.35-2.3
			l5.73-0.24l3.36-3.68l5.72-0.52l5.14-1.07l6.12,0.03l4.33-2.72l5.33-1.07l5.32-1.21l5.97,1.01l5.34-0.93l5.5-1.49l5.55-0.24
			l5.75,0.04l5.59,0.74l5.56-0.1l5.6,0.88l5.4,0.6l5.27,1.99l5.57,0.18l5.58,0.46l5.88-1.08l5.41,0.88l5.58,0.46l5.51-1.21
			l5.77,0.46l5.79,1.01l5.71-0.8l5.1-2.18l6.35,1.14l4.52-2.72l5.72-0.52l5.92-0.24l4.93-1.76l5.73-0.38l4.51-3l6.54,1.28l5.11-1.76
			l5.75,0.04l5.08-2.45l5.52-0.93l5.97,1.01l5.29-1.9l5.79,1.15l5.54-0.52l5.3-1.63l5.81,1.57l5.55-0.24l5.33-1.07l5.29-2.04
			l5.81,1.43l5.35-0.65l5.55-0.24l5.56-0.1l5.3-1.76l5.53-0.65l5.57,0.18l5.34-0.79l5.32-1.21l6.2,1.98l4.91-2.17l6.16,1l5.12-1.62
			l4.92-1.9l5.75,0.18l5.94,0.17l5.1-2.04l5.32-1.35l5.95,0.31l5.93-0.1l5.07-2.87l5.95,0.45l5.82,1.71l5.55-0.24l5.9-0.66
			l6.08-0.94l5.44,1.43l5.73-0.38l5.6,1.01l5.63,1.71l5.84-2.19l5.82,1.85l5.74-0.1l5.75,0.18l5.9-0.66l5.73-0.24l5.28,2l5.77,0.45
			l5.59,0.74l4.91,2.14l5.43,1.3l6.29-0.25l4.74,2.56l6.45-0.81l4.56,2.7l5.95,0.45l5.25,1.3l5.94,0.31l6.27-0.67l5.77,0.46
			l5.6,0.88l5.42,1.02l5.77,0.59l5.44,1.43l5.59,0.74l5.92-0.24l5.09,2l5.25,1.44l5.75,0.04l5.26,1.72l5.57,0.18l5.92-0.24l5.6,1.01
			l5.91-0.52l5.08,1.72l5.93-0.1l5.58,0.46l4.92,2.42l5.43,1.29l5.59,0.74l5.76,0.32l5.57,0.32l5.75,0.04l5.58,0.46l6.08-0.8
			l5.55-0.24l5.29,2.27l5.72-0.66l5.43,1.16l5.69-1.21l5.54-0.38l5.59,0.6l5.53-0.79l5.78,0.73l5.56,0.04l5.55-0.38l5.26-2.74
			l5.54-0.38l5.81,1.43l5.56,0.04l5.5-1.35l5.63,1.57l5.64-2.47l5.65,2.13l5.5-1.35l5.72-0.66l5.57,0.32l5.6,1.01l5.52-0.93
			l5.63,1.57l5.72-0.66l5.53-0.79l5.62,1.57l5.52-1.07l5.73-0.24l5.79,0.87l5.29-1.9l5.75,0.04l5.54-0.52l5.77,0.59l5.54-0.52
			l5.81,1.57l5.88-1.08l5.93-0.24l5.77,0.73l5.94,0.17l5.74-0.24l5.64-2.46l6.02,2.26l5.84-2.33l5.8,1.29l5.95,0.45l5.71-0.8
			l5.88-1.08l5.99,1.15l5.5-1.35l5.42,1.02l5.56,0.04l5.4,0.6l5.68-1.63l5.4,0.6l5.36-0.37l5.59,0.88l5.57,0.04l5.28-2.04l5.55-0.24
			l5.59,0.6l5.78,0.87l5.57,0.04l5.5-1.35l5.7-0.94l5.45,1.57l5.59,0.74l5.72-0.66l5.42,1.02l5.24,1.16l5.74-0.1l4.91,2.28l5.6,0.88
			l5.9-0.66l5.73-0.38l5.72-0.8l5.56,0.18l5.75,0.04l5.85,2.4l5.7-1.07l5.71-0.8l5.79,1.01l5.75,0.04l5.65-2.19l5.78,0.87l5.69-1.35
			l5.8,1.29l5.55-0.38l5.76,0.32l5.7-1.07l5.7-0.94l5.78,0.73l5.74-0.1l5.74-0.24l5.71-0.66l5.63,1.43l5.48-1.91l5.83,2.12
			l5.52-0.93l5.52-0.93l5.74-0.1l5.54-0.52l5.64,1.71l5.66-2.05l5.56,0.04l5.6,1.01l5.75,0.18l5.57,0.04l5.54-0.38l5.74-0.1
			l5.96,0.59l5.65-2.33l5.8,1.29l5.67-1.77l6,1.7l5.7-1.07l5.9-0.8l5.83,2.12l5.66-2.05l5.95,0.31l5.73-0.38l5.74-0.1l5.82,1.71
			l5.84-2.05l5.75,0.04l5.75,0.04l5.71-0.66l5.99,1.29l5.53-0.65l5.79,0.87l5.76,0.32l5.53-0.52l5.75-0.1l5.31-1.49l5.51-1.07
			l5.32-1.35l6.18,1.42l5.31-1.35l5.3-1.76l6.02,1.98l5.26-2.6l6.02,1.98l5.69-1.21l5.71-0.93l5.92-0.24l5.77,0.46l5.91-0.52
			l5.78,1.01l6.05-1.64l5.66,2.27l5.91-0.38l5.76,0.32l5.92-0.24l5.89-0.94l5.7-1.21l6.18,1.42l5.53-0.52l5.55-0.24l5.51-1.21
			l5.76,0.32l5.44,1.43l5.72-0.52l5.43,1.16l5.72-0.66l5.88-1.08l5.31,2.69l5.45-2.46l5.76,0.32l4.55-1.89l6.32,0.45l5.31-1.62
			l5.76,0.46l5.79,0.87l4.9,2l5.78,0.73l5.07,1.58l5.25,1.44l5.25,1.3l4.94,2.97l5.69-1.49l4.92-1.9l6.34,0.86l5.33-0.93l4.92-2.17
			l5.53-0.65l4.93-1.76l5.52-0.93l5.53-0.65l4.94-1.62l5.71-0.66l5.81,1.29l5.55-0.1l5.68-1.49l5.61,1.15l5.56-0.1l5.64-2.47
			l5.56,0.04l5.59,0.74l5.79,1.01l5.47-2.18l5.63,1.57l5.69-1.21l5.55-0.24l5.59,0.6l5.79,1.01l5.46-2.32l5.6,0.88l5.71-0.8
			l5.65,2.13l5.53-0.65l5.7-1.08l5.57,0.04l5.62,1.43l5.52-0.93l5.76,0.46l5.48-2.05l5.57,0.32l4.81-0.22l3.59-2.71l-1.26-3.6
			l-2-3.3l0.23-3.34l0.96-3.5l-2.73-3.29l-1.26-3.32l0.22-3.48l0.97-3.36l1.9-3.37l-3.12-3.42l0.97-3.36l0.79-3.35l0.59-3.49
			l-0.33-3.33l0.41-3.35l-3.48-3.42l2.82-3.39l-3.29-3.28l2.45-3.52l-2-3.3l1.9-3.37l-2.56-3.43l1.52-3.37l-0.39-0.41l0.38-0.01
			l2.01-4.91l-1.98-2.89l1.03-1.97l0.23-3.34l-0.51-3.33l-1.26-3.32l-1.42-2.9l0.78-3.35l-1.5-4.71l0.29-1.95l0.33-0.98l2.28-3.1
			l-2-3.3l0.6-3.35l1.15-3.5l-2.36-3.16l0.45-2.37l0.89-5.3l-1.22-2.62l0.78-3.35l-0.33-3.33l-0.64-2.08l1.66-4.48l-1.34-5.26
			l0.52-5.3l-1.38-1.92l-0.24-1.25l1.15-3.36l-1.75-2.06l0.65-1.96l-1.15-5.27l-0.06-1.39l1.55-2.81l-1.08-3.46l-0.24-1.39
			l0.13-1.39l0.51-5.3l-2.45-5.24l1.26-5.31l-0.97-5.27l-0.73-4.16l2.68-2.27l-0.88-3.32l-1.02-2.07l1.31-4.06l-1.14-5.13
			l-0.79-5.27l-0.46-2.08l1.78-1.7l-2.33-2.6l0.19-4.18l0.33-5.29l-0.62-1.52l0.97-3.22l-2.73-3.29l-0.3-2.64l3.11-5.2l-0.63-1.94
			l0.35-0.42l-0.99-1.51l-0.43-1.38l1.44-5.31l-2.82-5.24l0.88-5.3l2.19-5.33l-2.03-4.14l0.28-2.09l-1.26-3.32l1.52-3.51l-0.96-0.82
			l0.66-1.82l-2.38-3.71l0.17-0.28l-1.02-2.35l0.59-3.49l0.15-0.84l2.44-3.52l-0.51-3.33l-1.72-1.22l-1.03-2.35l2.93-5.34
			l-0.05-5.29l-0.96-5.27l-1.2-1.93l0.47-2.1l-0.82-14.74l0.65-2.24l-0.79-1.24l-0.59-9.45l1.07-5.17l-0.22-5.28l-1.16-5.27
			l-0.59-5.28l-2.05-4.56l0.16-0.56l1.71-3.37l-1.95-2.19l-0.95-4.99l0.17-0.42l3.2-3.12l0.07-7.1l-0.65-2.08l0.17-0.42l-0.19-0.14
			l-1.12-4.43l-0.42-1.24l0.33-0.84l-0.33-3.33l0.09-2.37l0.15-0.84l0.88-5.3l-0.78-5.27l0.15-5.29l-2.76-3.71l-0.22-0.83
			l-0.61-1.24l0.94-4.19l1.23-1.41l-1.53-1.22l-0.45-1.8l0.13-1.39l2.92-5.34l-1.38-1.92l0.67-1.68l0.44-6.97l-1.76-2.2l0.62-2.93
			l-2.45-5.24l0.15-0.84l1.35-2.95l-0.38-4.59l0.1-2.09l-1.34-5.26l1.07-5.31l-1.33-5.26l-0.05-5.29l1.63-5.32l-0.03-5.15
			l-1.53-5.26l0.33-5.29l-2.07-5.25l1.25-5.31l0.33-5.29l-2.63-5.24l1.63-5.18l0.14-5.29l-1.33-5.26l-1.71-5.26l-0.59-5.14l2-5.32
			l1.25-5.31l-1.71-5.26l-0.78-5.27l-4.8-3.95l-2.87-2.04l-5.37-4.22l-7.26-0.85l-5.89-3.24l-7.26-0.71L2262.75,0l-6.39,2.34
			l-6.39,2.06l-6.82,1.09l-6.18,2.75l-7,1.1l-7,0.96l-5.39,3.85l-7.01,0.96l-7,0.96l-6.19,2.61l-7.81-0.7l-5.6,3.58l-7.39,0.41
			l-5.4,3.85l-8-0.69l-6.4,2.06l-5.6,3.3l-6.82,0.96l-5.8,3.16l-7.07-0.71l-6.59,1.92l-7.06-0.29l-6.06-3.09l-7.2,0.68l-6.85,0.26
			l-6.61-3.08l-7.41,0.13l-7.39,0.69l-7.38,0.69l-7.4,0.27l-7.35,1.52l-7.4,0.41l-7.64-0.98l-7,1.1l-7.35-2.93l-6.93,2.77
			l-7.02,0.54l-7.26-0.71l-7.12-1.96l-6.92,3.04l-7.31-1.96l-7.03,0.4l-7.4,0.13l-7.23,0.13l-7.24-0.43l-7.23,0.13l-7.38,0.83
			l-6.81-3.22l-7.42-0.15l-7.36,1.24l-7.22,0.13l-7.25-0.43l-7.23-0.15l-7.43-0.43l-7.27-0.85l-7.12,2.49l-7.51-2.09l-6.88,3.6
			l-7.23-0.01l-7.29-1.4l-7.23,0.13l-7.05-0.29l-7.07-0.57l-7.34,1.66l-6.62-2.94l-7.08-0.85l-7.25-0.71l-7.4,0.41l-6.97,1.65
			l-7,1.1l-6.79,1.65l-6.54,3.04l-7.64-0.98l-7.19,0.96l-7.05-0.29l-7.25-0.29l-6.92-1.55l-7.56,0.83l-6.95-1.97l-7.4,0.13
			l-7.14-2.1l-7.34,1.66l-7.22,0.27l-7.36-3.07l-7.11,2.77l-7.48-1.68l-7.35,1.52l-7.64-0.98l-7.12,2.63l-7.41,0.13l-7.61-0.28
			l-7.44-0.7l-7.14,2.21l-7.6-0.14l-7.4,0.41l-7.56,0.97l-7.31-1.96l-7.44-0.56l-7.28-1.26l-7.58,0.55l-7.4,0.27l-7.4,0.27
			l-7.17,1.38l-7.89-2.51l-6.31,4.15l-7.82-0.7l-6.97,1.65l-7.28-1.12l-7.36,1.1l-7.13-1.96l-7.61-0.14l-6.87-0.44l-6.43-2.81
			l-6.73-1.55l-7.08-0.71l-7.3,2.63l-6.76-2.11l-7.15,1.94l-6.86-0.16l-7.11-1.54l-7.08-0.71l-6.78,1.79l-7.01,0.68l-6.6,1.79
			l-7.27-0.98l-7.04-0.02l-7.18,1.24l-6.95,2.07l-7.69-1.95l-6.9,3.32l-7.44-0.7l-7.37,0.96l-7.46-0.98l-7.37,1.1l-7.24-0.29
			l-7.48-1.68l-7.32,2.22l-7.3-1.54l-7.4,0.27l-7.41,0.13l-7.25-0.57l-7.51,2.22l-7.15-2.66l-7.39,0.55l-7.4,0.41l-7.27-0.85
			l-6.75-1.83l-6.6-2.67l-7.25-0.43l-6.58-2.11l-6.92-1.55l-6.75-1.69l-7.93,0.97l-5.75-4.35l-7.76,0.55l-6.58-2.11l-7.43-0.29
			l-6.9-0.99l-7.09-1.13l-6.1-4.07l-7.55,1.25l-7.25-0.43l-7.1-1.41l-6.93-1.69l-7.17,1.38l-7.07-0.71l-7.04-0.01l-7.23-0.01
			l-6.79,1.51l-7.31-1.96l-6.74,2.76l-7.49-1.82l-7.03,0.4l-7,0.96l-6.96,2.07l-7.03,0.26l-7.11-1.54l-7.09-0.99l-7.18,1.1
			l-6.92-1.41l-7.21,0.41l-6.77-2.39l-6.89-0.71l-6.91,3.04l-6.85,0.26l-7.52-2.37l-6.36,3.03l-7.28-1.26l-6.57,2.34l-6.77,2.07
			l-7.1-1.41l-6.98,1.51l-6.95-2.24l-7.03,0.26l-7.06-0.29l-6.91-1.13l-7.2,0.68l-6.93-1.69l-7.04,0.12l-7.03,0.26l-7.1-1.41
			l-7.03,0.26l-7.06-0.43l-6.97,1.79l-7.08-0.85l-7.21,0.54l-6.73,2.9l-7.1-1.27l-6.95,2.21l-7.02,0.54l-7.03,0.26l-7.28-1.26
			l-7.08-0.85l-6.94,2.49l-7.07-0.57l-7.1-1.27l-7.17,1.38l-7.09-0.99l-7.07-0.57l-7.06-0.43l-7.04,0.12l-6.89-0.71l-7.39,0.55
			l-7.06-0.43L670.67,15l-7.26-0.71l-7.07-0.71l-6.23-2.53l-7.39,0.55l-6.9-0.99l-6.96-2.38l-7.04-0.01l-7.27-0.85l-7.19,0.82
			l-7.21,0.54l-7.05-0.15L586,7.03l-7.18,1.24l-7.28-1.26l-7.06-0.43l-7.16,1.66l-7.22,0.13l-7,1.1l-6.98,1.38l-7.66-1.53l-6.7,3.74
			l-7.61-0.14l-7.62-0.42l-7.43-0.43l-7.44-0.56l-7.43-0.29l-7.5,2.36l-7.33-2.24l-7.59,0.13l-7.4,0.27l-7.37,1.1l-7.55-3.07
			l-7.09,3.19l-8.22-1.39l-6.6,1.65l-7.15,1.94l-7.4,0.27l-7.28-1.26l-7.25-0.43l-7.15-2.38l-7.41-0.01l-7.12,2.49l-7.4,0.27
			l-7.5-1.96l-7.37,1.1l-6.73,2.9l-7.22,0.27l-7.19,0.96l-7.42-0.15l-7.14-2.24l-7.55,1.11l-6.89-0.85l-7.26-0.85l-7.01,0.68
			l-7.63-0.7l-7.18,1.1l-6.94,2.49l-7.45-0.84l-7.54,1.39l-7.33-2.38l-7.26-0.85l-7.38,0.69l-7.38,0.83l-7.41,0.13l-7.31-1.96
			l-7.16,1.66l-7.4,0.27l-6.57,2.34l-7.29-1.54l-6.99,1.24l-7.07-0.71l-6.98,1.51l-7.1-1.27l-6.91-1.27l-7.16,1.66l-6.81-3.22
			L115,15.2l-7.21,0.41l-6.74-1.55l-6.73-1.41l-7.06-0.43l-7.38,0.83l-6.75-1.83l-6.9-0.99l-4.98-3.81l-7.97,0l-7.16,1.52
			l-7.17,1.38l-7.75,0.83l-5.78,3.58l-6.76,2.35l-6.76,2.21l-5.97,3.45l-5.78,3.44l-6.38,2.62l-6.75,2.48l-5.04,3.57l0.4,5.14
			l0.78,5.27l-2.92,5.34l2.07,5.11l-0.89,5.3l-0.88,5.3l1.89,5.25l-1.26,5.17l1.89,5.25l2.45,5.25l-1.07,5.31l-2,5.18l3.74,5.22
			l0.6,5.28l-1.07,5.31l0.03,5.15l1.52,5.26l-4.04,5.36l0.41,5.14l3.93,5.22l-0.19,4.18l-3.71,4.24l0.86,7.08l2.54,3.02l-0.63,2.52
			l-0.52,5.3l1.15,5.13l-1.26,5.31l3.74,5.08l-0.89,5.3l0.04,5.29l0.22,0.83l-0.93,4.19l0.99,1.37l-2.42,4.08l1.06,3.04l-2.06-0.38
			l-0.75,4.05l2.52,2.6l-0.32,1.26l0.4,0.69l-0.49,1.68l-1.74,2.67l0.99,1.37l-0.61,3.21l0.89,3.46l0.14,3.34l2.91,3.15l0.02,0.42
			l-1.72,3.23l-0.23,3.34l1.07,3.46l-2.26,3.38l1.99,3.3l1.07,3.32l-2.67,6.87l0.84,2.35l-0.88,1.13l1.92,1.5l0.64,1.94l0.05,1.25
			l-1.76,2.12l1.96,2.47l-0.13,1.25l-0.16,0.7l-1.39,2.25l0.61,1.24l-0.62,2.79l2.5,2.04l0.21,0.69l-2.64,3.39l1.81,3.31l2,3.44
			l-0.78,3.35l-2.45,3.38l-0.04,3.48l3.08,2.73l-0.35,0.56l0.59,5.14l0.6,1.1l-0.16,0.56l0.05,1.25l0.02,0.42l0.02,0.42l0.05,1.25
			l0.36,8.34l-2.64,3.25l-0.26-1.67l0.26,1.8l-0.53,0.7L-9.42,330.5z"/>
		<g>
			<defs>
				<polygon id="SVGID_3_" points="2321.74,1049.84 -5.81,1090.9 -35.02,407.59 2292.53,366.54 				"/>
			</defs>
			<clipPath id="SVGID_4_">
				<use xlink:href="#SVGID_3_"  style="overflow:visible;"/>
			</clipPath>
			<g class="st2">
				<path class="st1" d="M-17.08,729.7l-0.02-0.42l3.1,3.15l-0.47,1.96l0.18,4.31l-0.47,1.96l-0.72-3.74l-1.94,2.4l2.33,2.6
					l-0.16,0.7l0.6,0.96l-0.27,2.37l0.61,1.24l-0.17,0.28l0.88,3.18l-1.02,2.11l0.88,3.32l-0.59,3.49l1.81,3.31l-1.52,3.37
					l-0.59,3.49l1.43,3.18l-0.15,0.7l0.01,0.28l-1.01,2.52l-0.04,3.48l-1.15,3.36l0.88,3.32l0.33,3.33l-0.22,3.48l1.76,2.06
					l0.74,4.3l0.12,2.78l-0.14,0.98l0.01,0.14l0.06,1.39l-0.04,3.48l-1.41,1.69l-0.41,3.49l2,3.3l-0.78,3.35l-0.04,3.34l2.74,3.43
					l-1.52,3.37l1.21,2.21l-0.62,2.79l-1.4,1.83l1.75,1.92l0.47,2.36l1.19,1.79l0.02,0.56l-2.44,3.52l-0.23,3.34l2.36,3.3
					l-2.26,3.38l2.18,3.44l0.88,3.18l-1.51,3.65l0.59,0.68l-1.18,2.66l3.11,3.29l-1.15,3.36l0.33,3.33l-2.82,3.53l0.7,3.33
					l0.88,3.32l0.7,3.33l-0.78,3.49l1.62,3.31l-0.41,3.35l-1.15,3.36l2,3.44l-0.78,3.35l-0.78,3.35l3.3,3.42l0.14,3.34l-2.08,3.37
					l0.7,3.33l0.7,3.47l-2.64,3.38l2.18,3.3l-0.78,3.36l2.93,3.42L-5.54,952l0.14,3.34l-0.04,3.34l0.7,3.47l0.14,3.33l-1.89,3.38
					l0.51,3.33l2,3.44l-3.38,3.4l1.25,3.32l1.74,1.78l0.67,2.63l-2.49,2.41l2.7,2.46l0.07,1.52l0.01,0.28l-2.12,2.41l0.15,3.47
					l1.44,3.32l-1.71,3.37l3.67,3.41l-3.38,3.4l2.18,3.3l-2.44,3.52l3.11,3.29l1.07,3.32l-1.52,3.37l-2.07,3.51l2.18,3.3l-0.78,3.36
					l3.29,3.28l-3,3.53l-0.78,3.35l0.14,3.34l2.37,3.3l3.46,2.86l1.61,3.03l3.23,1.76l5.6,0.87l5.13-1.48l5.92-0.24l5.77,0.59
					l5.74-0.1l5.78,0.73l5.11-1.76l6.35,1.14l5.2,0.19l5.7-1.08l4.9,2l5.58,0.46l5.91-0.52l5.6,0.88l5.51-1.21l5.35-0.66l5.77,0.46
					l5.53-0.79l5.11-1.76l5.35-0.65l5.78,0.87l5.55-0.24l5.38,0.18l5.49-1.62l5.74-0.11l5.26,1.58l5.23,1.02l5.06,1.31l4.36,2.28
					l5.23,0.89l6.1-0.39l4.71,1.87l5.57,0.18l5.25,1.43l5.52-0.93l5.59,0.74l5.57,0.18l5.26,1.71l5.86-1.63l5.57,0.18l5.38,0.18
					l5.42,1.02l5.09,2l5.88-1.08l5.4,0.6l5.42,1.02l5.73-0.38l5.53-0.66l5.58,0.46l5.41,0.88l5.69-1.35l5.57,0.32l5.59,0.6
					l5.59,0.59l5.74-0.24l5.61,1.16l5.47-2.19l5.99,1.29l5.53-0.66l5.52-0.93l5.72-0.52l5.34-0.93l4.92-1.89l5.54-0.52l5.11-1.9
					l5.77,0.6l5.34-0.79l4.95-1.2l6.35,1.14l5.32-1.21l5.14-1.2l4.35-2.31l5.74-0.24l3.36-3.67l5.72-0.52l5.14-1.07l6.12,0.03
					l4.33-2.72l5.33-1.07l5.32-1.2l5.97,1.01l5.33-0.93l5.5-1.49l5.55-0.24l5.75,0.04l5.59,0.73l5.56-0.09l5.6,0.87l5.4,0.6l5.28,2
					l5.57,0.18l5.58,0.46l5.89-1.08l5.41,0.88l5.58,0.45l5.51-1.21l5.77,0.46l5.79,1.01l5.71-0.8l5.1-2.17l6.35,1.14l4.52-2.73
					l5.72-0.52l5.92-0.24l4.93-1.76l5.73-0.38l4.51-3l6.54,1.28l5.11-1.76l5.75,0.04l5.09-2.46l5.52-0.93l5.97,1.01l5.29-1.91
					l5.79,1.15l5.54-0.51l5.31-1.62l5.81,1.56l5.55-0.23l5.33-1.07l5.29-2.04l5.81,1.42l5.35-0.65l5.55-0.23l5.56-0.1l5.3-1.77
					l5.53-0.65l5.57,0.18l5.34-0.79l5.32-1.21l6.2,1.98l4.91-2.17l6.16,1l5.12-1.62l4.92-1.89l5.75,0.17l5.94,0.18l5.1-2.04
					l5.32-1.35l5.94,0.31l5.93-0.1l5.07-2.87l5.95,0.45l5.82,1.7l5.55-0.23l5.9-0.66l6.08-0.95l5.44,1.44l5.73-0.38l5.6,1.01
					l5.63,1.71l5.84-2.19l5.82,1.85l5.74-0.1l5.75,0.18l5.9-0.67l5.74-0.24l5.27,2l5.77,0.45l5.59,0.74l4.91,2.14l5.43,1.3
					l6.29-0.25l4.74,2.56l6.45-0.81l4.56,2.7l5.95,0.45l5.24,1.3l5.95,0.31l6.27-0.67l5.77,0.46l5.6,0.88l5.42,1.01l5.77,0.6
					l5.44,1.43l5.59,0.74l5.92-0.25l5.09,2l5.25,1.44l5.75,0.04l5.26,1.71l5.57,0.18l5.92-0.24l5.6,1.01l5.91-0.52l5.08,1.72
					l5.93-0.1l5.58,0.46l4.92,2.41l5.43,1.3l5.59,0.74l5.76,0.31l5.57,0.32l5.75,0.04l5.58,0.46l6.08-0.81l5.55-0.23l5.29,2.27
					l5.72-0.66l5.42,1.16l5.69-1.21l5.54-0.38l5.59,0.6l5.53-0.8l5.78,0.74l5.56,0.04l5.54-0.38l5.26-2.74l5.54-0.37l5.81,1.43
					l5.56,0.04l5.5-1.35l5.63,1.57l5.64-2.47l5.65,2.13l5.5-1.35l5.72-0.66l5.57,0.32l5.6,1.02l5.52-0.94l5.63,1.58l5.72-0.66
					l5.53-0.8l5.62,1.58l5.52-1.08l5.74-0.24l5.78,0.88l5.29-1.91l5.75,0.04l5.54-0.51l5.77,0.59l5.54-0.52l5.81,1.57l5.89-1.08
					l5.92-0.24l5.77,0.73l5.94,0.18l5.74-0.24l5.64-2.47l6.03,2.26l5.83-2.33l5.8,1.29l5.95,0.45l5.71-0.79l5.89-1.08l5.98,1.15
					l5.5-1.35l5.42,1.01l5.56,0.04l5.4,0.6l5.68-1.63l5.4,0.6l5.36-0.37l5.6,0.88l5.56,0.04l5.29-2.04l5.55-0.24l5.58,0.6l5.79,0.87
					l5.56,0.04l5.5-1.35l5.71-0.94l5.44,1.58l5.59,0.74l5.72-0.66l5.42,1.02l5.24,1.16l5.74-0.11l4.92,2.28l5.59,0.88l5.91-0.66
					l5.73-0.38l5.71-0.8l5.57,0.18l5.74,0.04l5.85,2.4l5.7-1.07l5.71-0.8l5.79,1.01l5.75,0.04l5.65-2.19l5.79,0.87l5.68-1.35
					l5.8,1.29l5.55-0.38l5.76,0.32l5.7-1.07l5.7-0.94l5.78,0.73l5.74-0.1l5.74-0.24l5.72-0.66l5.62,1.44l5.48-1.91l5.83,2.12
					l5.52-0.93l5.53-0.93l5.74-0.1l5.54-0.52l5.63,1.71l5.66-2.05l5.56,0.05l5.6,1.01l5.76,0.18l5.56,0.04l5.54-0.38l5.74-0.1
					l5.96,0.59l5.65-2.33l5.8,1.29l5.67-1.77l6,1.71l5.7-1.08l5.9-0.8l5.84,2.13l5.66-2.05l5.94,0.31l5.73-0.38l5.74-0.1l5.82,1.71
					l5.84-2.05l5.75,0.03l5.75,0.04l5.72-0.66l5.98,1.29l5.53-0.65l5.79,0.87l5.76,0.31l5.54-0.51l5.74-0.1l5.31-1.49l5.51-1.07
					l5.32-1.35l6.18,1.43l5.32-1.35l5.3-1.76l6.01,1.98l5.27-2.6l6.01,1.98l5.7-1.21l5.7-0.94l5.92-0.24l5.77,0.45l5.91-0.52
					l5.79,1.01l6.04-1.64l5.66,2.27l5.91-0.38l5.76,0.31l5.93-0.24l5.89-0.94l5.69-1.21l6.18,1.42l5.54-0.52l5.55-0.23l5.51-1.21
					l5.75,0.31l5.44,1.44l5.72-0.52l5.43,1.16l5.72-0.66l5.88-1.08l5.31,2.69l5.45-2.46l5.76,0.31l4.55-1.89l6.33,0.45l5.3-1.62
					l5.77,0.45l5.78,0.87l4.9,2l5.78,0.74l5.07,1.58l5.26,1.44l5.24,1.29l4.95,2.98l5.68-1.49l4.92-1.9l6.34,0.86l5.34-0.93
					l4.91-2.17l5.53-0.65l4.93-1.76l5.52-0.93l5.53-0.66l4.94-1.62l5.72-0.65l5.8,1.29l5.55-0.1l5.69-1.49l5.61,1.15l5.55-0.1
					l5.64-2.46l5.56,0.04l5.6,0.73l5.79,1.02l5.46-2.19l5.63,1.57l5.69-1.21l5.55-0.24l5.59,0.6l5.79,1.01l5.46-2.32l5.6,0.87
					l5.71-0.79l5.65,2.12l5.54-0.65l5.7-1.08l5.56,0.04l5.62,1.44l5.52-0.94l5.77,0.46l5.47-2.05l5.57,0.32l4.81-0.22l3.59-2.71
					l-1.26-3.59l-2-3.31l0.23-3.34l0.96-3.5l-2.73-3.29l-1.26-3.32l0.23-3.48l0.96-3.36l1.9-3.37l-3.11-3.42l0.97-3.36l0.78-3.35
					l0.59-3.49l-0.33-3.34l0.42-3.35l-3.49-3.41l2.82-3.39l-3.29-3.28l2.45-3.53l-2-3.3l1.9-3.37l-2.56-3.44l1.52-3.36l-0.38-0.41
					l0.37-0.01l2.01-4.91l-1.98-2.88l1.03-1.97l0.23-3.35l-0.51-3.33l-1.26-3.31l-1.42-2.9l0.79-3.35l-1.5-4.71l0.28-1.95l0.33-0.98
					l2.28-3.1l-2-3.3l0.6-3.35l1.15-3.5l-2.36-3.16l0.46-2.37l0.88-5.3l-1.22-2.62l0.78-3.35l-0.33-3.33l-0.64-2.08l1.66-4.48
					l-1.34-5.26l0.52-5.3l-1.38-1.92l-0.24-1.25l1.15-3.36l-1.75-2.06l0.65-1.96l-1.15-5.27l-0.06-1.39l1.55-2.81l-1.07-3.46
					l-0.25-1.39l0.13-1.39l0.51-5.3l-2.45-5.24l1.26-5.31l-0.97-5.27l-0.73-4.16l2.68-2.27l-0.88-3.32l-1.02-2.07l1.31-4.06
					l-1.14-5.13l-0.78-5.27l-0.46-2.08l1.78-1.7l-2.34-2.6l0.19-4.18l0.33-5.29l-0.62-1.52l0.98-3.22l-2.74-3.29l-0.3-2.64l3.12-5.2
					l-0.64-1.94l0.35-0.42l-0.99-1.51l-0.43-1.38l1.44-5.31l-2.82-5.24l0.89-5.3l2.18-5.33l-2.03-4.14l0.28-2.09l-1.25-3.32
					l1.51-3.51l-0.96-0.82l0.67-1.82l-2.39-3.72l0.18-0.28l-1.03-2.35l0.59-3.49l0.15-0.84l2.44-3.52l-0.51-3.33l-1.72-1.22
					l-1.03-2.35l2.93-5.34l-0.04-5.29l-0.97-5.27l-1.2-1.93l0.47-2.09l-0.81-14.74l0.64-2.24l-0.79-1.24l-0.59-9.45l1.07-5.17
					l-0.22-5.28l-1.15-5.27l-0.6-5.28l-2.05-4.56l0.16-0.56l1.71-3.37l-1.94-2.19l-0.96-4.99l0.17-0.42l3.2-3.12l0.07-7.1
					l-0.65-2.08l0.17-0.42l-0.19-0.14l-1.12-4.43l-0.42-1.24l0.33-0.84l-0.32-3.33l0.08-2.37l0.15-0.84l0.89-5.3l-0.79-5.27
					l0.15-5.29l-2.75-3.71l-0.23-0.83l-0.6-1.24l0.93-4.19l1.24-1.41l-1.54-1.23l-0.45-1.8l0.13-1.39l2.92-5.34l-1.38-1.92
					l0.67-1.68l0.44-6.97l-1.76-2.2l0.62-2.93l-2.45-5.24l0.15-0.84l1.36-2.95l-0.39-4.58l0.1-2.09l-1.34-5.26l1.07-5.31l-1.33-5.26
					l-0.04-5.29l1.62-5.32l-0.03-5.15l-1.52-5.26l0.33-5.29l-2.08-5.25l1.25-5.31l0.33-5.29l-2.63-5.24l1.63-5.18l0.15-5.29
					l-1.34-5.27l-1.71-5.26l-0.59-5.14l2-5.32l1.25-5.31l-1.7-5.26l-0.79-5.27l-4.8-3.95l-2.87-2.04l-5.37-4.22l-7.26-0.85
					l-5.89-3.24l-7.25-0.71l-7.07-0.43l-6.38,2.34l-6.4,2.06l-6.81,1.09l-6.19,2.75l-6.99,1.1l-7.01,0.96l-5.39,3.85l-7,0.96
					l-7.01,0.96l-6.19,2.61l-7.81-0.7l-5.59,3.58l-7.4,0.41l-5.4,3.85l-8-0.69l-6.4,2.06l-5.6,3.3l-6.82,0.96l-5.79,3.16l-7.08-0.71
					l-6.59,1.93l-7.05-0.29l-6.07-3.09l-7.2,0.68l-6.84,0.26l-6.62-3.08l-7.41,0.13l-7.39,0.69l-7.38,0.69l-7.4,0.27l-7.35,1.52
					l-7.4,0.41l-7.64-0.98l-7,1.1l-7.35-2.93l-6.93,2.77l-7.02,0.54l-7.25-0.71l-7.13-1.96l-6.91,3.04l-7.32-1.96l-7.02,0.4
					l-7.41,0.13l-7.22,0.13l-7.25-0.43l-7.23,0.13l-7.37,0.83l-6.81-3.22l-7.42-0.15l-7.37,1.24l-7.22,0.13l-7.25-0.43l-7.23-0.15
					l-7.43-0.42l-7.27-0.85l-7.12,2.49l-7.5-2.09l-6.89,3.6l-7.23-0.01l-7.29-1.4l-7.22,0.13l-7.06-0.29l-7.07-0.57l-7.34,1.66
					l-6.61-2.95l-7.08-0.85l-7.26-0.71l-7.4,0.41l-6.97,1.65l-7,1.1l-6.79,1.65l-6.54,3.04l-7.64-0.98l-7.19,0.96l-7.05-0.29
					l-7.24-0.29l-6.93-1.55l-7.56,0.83l-6.94-1.96l-7.41,0.13l-7.14-2.1l-7.34,1.66l-7.22,0.27l-7.36-3.07l-7.11,2.77l-7.48-1.68
					l-7.35,1.52l-7.64-0.98l-7.12,2.63l-7.41,0.13l-7.61-0.28l-7.44-0.7l-7.14,2.21l-7.6-0.14l-7.4,0.41l-7.56,0.97l-7.31-1.96
					l-7.44-0.56l-7.28-1.26l-7.58,0.55l-7.4,0.27l-7.4,0.27l-7.17,1.38l-7.89-2.51l-6.31,4.15l-7.82-0.7l-6.97,1.65l-7.28-1.13
					l-7.36,1.1l-7.13-1.96l-7.61-0.14l-6.87-0.44l-6.42-2.81l-6.74-1.55l-7.08-0.71l-7.3,2.63l-6.76-2.11l-7.15,1.93l-6.86-0.16
					l-7.11-1.54l-7.07-0.71l-6.79,1.79l-7.01,0.68l-6.6,1.79l-7.27-0.98l-7.04-0.02l-7.18,1.24l-6.95,2.07l-7.68-1.95l-6.91,3.32
					l-7.44-0.7l-7.37,0.96l-7.46-0.98l-7.37,1.1l-7.24-0.29l-7.48-1.68l-7.32,2.22l-7.3-1.54l-7.4,0.27l-7.41,0.13l-7.25-0.57
					l-7.5,2.22l-7.16-2.66l-7.39,0.55l-7.4,0.41l-7.27-0.85l-6.75-1.83l-6.6-2.67l-7.25-0.43l-6.58-2.11l-6.92-1.55l-6.74-1.69
					l-7.93,0.98l-5.75-4.35l-7.76,0.56l-6.58-2.11l-7.43-0.29l-6.9-0.99l-7.09-1.13l-6.1-4.07l-7.55,1.25l-7.25-0.43l-7.1-1.4
					l-6.93-1.69l-7.17,1.38l-7.07-0.71l-7.04-0.02l-7.23-0.01l-6.79,1.51l-7.31-1.96l-6.74,2.76l-7.49-1.82l-7.03,0.4l-7,0.96
					l-6.96,2.07l-7.03,0.26l-7.11-1.55l-7.09-0.99l-7.18,1.1l-6.92-1.41l-7.21,0.41l-6.78-2.39l-6.89-0.71l-6.91,3.04l-6.85,0.26
					l-7.52-2.37l-6.36,3.03l-7.28-1.26l-6.57,2.34l-6.77,2.07l-7.1-1.4l-6.98,1.51l-6.95-2.24l-7.03,0.26l-7.06-0.29l-6.91-1.13
					l-7.2,0.68l-6.93-1.69l-7.04,0.12l-7.03,0.26l-7.1-1.4l-7.03,0.26l-7.06-0.43l-6.97,1.79l-7.08-0.85l-7.21,0.54l-6.73,2.9
					l-7.1-1.27l-6.95,2.21l-7.02,0.54l-7.03,0.26l-7.28-1.26l-7.08-0.85l-6.94,2.49l-7.07-0.57l-7.1-1.27l-7.17,1.38l-7.09-0.99
					l-7.07-0.57l-7.06-0.43l-7.04,0.12l-6.89-0.71l-7.39,0.55l-7.06-0.43l-6.08-3.37l-7.26-0.71l-7.07-0.71l-6.22-2.53l-7.39,0.55
					l-6.9-0.99l-6.96-2.38l-7.04-0.01l-7.27-0.85l-7.19,0.82l-7.21,0.55l-7.05-0.15l-7.11-1.54l-7.18,1.24l-7.28-1.26l-7.06-0.43
					l-7.16,1.66l-7.22,0.13l-7,1.1l-6.98,1.38l-7.66-1.53l-6.7,3.74l-7.61-0.14l-7.62-0.42l-7.43-0.42l-7.44-0.57l-7.43-0.29
					l-7.5,2.36l-7.32-2.24l-7.59,0.13l-7.4,0.27l-7.37,1.1l-7.54-3.07l-7.09,3.19l-8.21-1.39l-6.6,1.65l-7.15,1.93l-7.4,0.27
					l-7.28-1.26l-7.25-0.43l-7.14-2.38l-7.41-0.01l-7.12,2.49l-7.4,0.27l-7.5-1.95l-7.37,1.1l-6.73,2.9l-7.22,0.27l-7.19,0.96
					l-7.42-0.15l-7.14-2.24l-7.55,1.11l-6.89-0.85l-7.26-0.85l-7.01,0.68l-7.63-0.7l-7.18,1.1l-6.94,2.49l-7.45-0.84l-7.54,1.39
					l-7.33-2.38l-7.26-0.85l-7.38,0.69l-7.38,0.82l-7.41,0.13l-7.31-1.96l-7.16,1.66l-7.4,0.27l-6.57,2.34l-7.29-1.54l-6.99,1.24
					l-7.07-0.71l-6.98,1.52l-7.1-1.27l-6.91-1.27l-7.16,1.66l-6.81-3.22l-6.88-0.43l-7.21,0.4l-6.74-1.55l-6.73-1.41l-7.06-0.43
					l-7.38,0.83l-6.75-1.83l-6.9-0.99l-4.98-3.81l-7.97,0l-7.16,1.52l-7.17,1.38l-7.75,0.83l-5.78,3.58L11,415.26l-6.76,2.21
					l-5.97,3.45l-5.78,3.44l-6.38,2.62l-6.75,2.49l-5.04,3.57l0.4,5.14l0.78,5.27l-2.92,5.34l2.07,5.11l-0.89,5.3l-0.89,5.3
					l1.89,5.25l-1.26,5.17l1.89,5.26l2.45,5.24l-1.07,5.31l-2,5.18l3.74,5.22l0.6,5.28l-1.07,5.31l0.04,5.15l1.52,5.26l-4.03,5.36
					l0.4,5.14l3.93,5.22l-0.19,4.18l-3.71,4.24l0.86,7.08l2.54,3.02l-0.63,2.52l-0.51,5.3l1.15,5.13l-1.26,5.31l3.74,5.08l-0.89,5.3
					l0.04,5.29l0.22,0.83l-0.93,4.19l0.99,1.37l-2.42,4.08l1.06,3.04l-2.05-0.38l-0.75,4.05l2.52,2.6l-0.32,1.26l0.4,0.69
					l-0.48,1.68l-1.74,2.67l0.99,1.37l-0.6,3.21l0.89,3.46l0.14,3.34l2.92,3.15l0.02,0.42l-1.71,3.23l-0.23,3.34l1.07,3.46
					l-2.27,3.38l1.99,3.3l1.07,3.32l-2.67,6.87l0.84,2.35l-0.88,1.13l1.92,1.5l0.64,1.94l0.05,1.25l-1.76,2.12l1.96,2.47l-0.13,1.25
					l-0.16,0.7l-1.39,2.25l0.61,1.24l-0.62,2.79l2.5,2.04l0.21,0.69l-2.64,3.39l1.81,3.31l2,3.44l-0.78,3.35l-2.45,3.38l-0.04,3.48
					l3.08,2.73l-0.35,0.56l0.59,5.14l0.6,1.1l-0.16,0.56l0.05,1.25l0.02,0.42l0.02,0.42l0.05,1.25l0.36,8.34l-2.64,3.25l-0.26-1.67
					l0.26,1.8l-0.53,0.71L-17.08,729.7z"/>
			</g>
		</g>
	</g>
</g>
</svg>
