<svg width="68" height="68" viewBox="0 0 68 68" fill="none" xmlns="http://www.w3.org/2000/svg">
<g clip-path="url(#clip0_204_3)">
<path d="M37.3655 57.3059H65.2561C65.4249 57.3032 65.5912 57.2654 65.7445 57.1947C65.8977 57.1241 66.0346 57.0223 66.1463 56.8959C66.2581 56.7694 66.3422 56.621 66.3934 56.4602C66.4445 56.2994 66.4616 56.1297 66.4435 55.9619C66.069 53.3774 66.1778 52.7398 65.1579 52.5938H37.0016C37.0663 52.7956 37.1134 53.0027 37.1424 53.2126L37.4957 55.6325C37.5787 56.1935 37.5315 56.7661 37.3575 57.3059H37.3655ZM38.9407 68H66.9136C67.0752 67.9948 67.2338 67.9547 67.3783 67.8823C67.5229 67.81 67.6501 67.7071 67.7511 67.5809C67.8521 67.4546 67.9245 67.308 67.9633 67.1511C68.0022 66.9942 68.0065 66.8307 67.9761 66.6719L67.5538 63.75C67.5168 63.5291 67.4154 63.324 67.2623 63.1604C67.1092 62.9969 66.9112 62.8823 66.6932 62.8309C65.0994 62.3927 64.3025 60.86 64.4672 59.4124H35.6788C35.6192 59.4797 35.577 59.5605 35.5558 59.6478C35.5346 59.7352 35.535 59.8263 35.5569 59.9135C35.5789 60.0006 35.6218 60.0811 35.6819 60.1479C35.7421 60.2147 35.8176 60.2658 35.9019 60.2969C36.6134 60.4939 37.2517 60.8949 37.7379 61.4505C38.2241 62.0061 38.537 62.6919 38.6379 63.4233L39.0628 66.3452C39.1449 66.8937 39.1031 67.4537 38.9407 67.984V68ZM62.653 50.4688L59.253 24.5199H37.9153L34.5605 50.1234C34.8286 50.2091 35.0862 50.325 35.3282 50.4688H62.653ZM58.9688 22.3949C62.4804 22.3949 62.4564 16.5511 58.9475 16.5511H38.2155C34.7066 16.5511 34.6827 22.3949 38.1942 22.3949H58.9688ZM59.6408 14.4261C60.3607 13.2706 61.8136 12.8323 62.6265 12.6358C62.8632 12.5863 63.0753 12.4558 63.2262 12.2666C63.377 12.0775 63.457 11.8417 63.4525 11.5999L63.1869 0H57.6088V5.33108H52.2963V0H44.8588V5.33108H39.5463V0H33.9682L33.7025 11.5999C33.6986 11.8416 33.7788 12.0771 33.9295 12.2662C34.0803 12.4552 34.2921 12.5858 34.5286 12.6358C35.3414 12.819 36.7944 13.2706 37.5142 14.4261H59.6408Z" fill="#008BAD"/>
<path fill-rule="evenodd" clip-rule="evenodd" d="M33.4314 52.5938C33.7022 52.5996 33.9619 52.703 34.1625 52.8851C34.3631 53.0672 34.4911 53.3156 34.5231 53.5846L34.8764 56.0071C34.9054 56.223 34.8706 56.4427 34.7762 56.6391C34.6818 56.8355 34.5319 56.9999 34.3451 57.1121C33.8925 57.405 33.5216 57.8078 33.267 58.2831C33.0124 58.7583 32.8825 59.2903 32.8895 59.8294C32.8886 60.5203 33.1152 61.1923 33.5343 61.7415C33.9535 62.2908 34.5418 62.6867 35.2084 62.8682C35.4194 62.9311 35.6073 63.0544 35.7489 63.2229C35.8905 63.3914 35.9797 63.5978 36.0053 63.8165L36.4329 66.7383C36.4554 66.8939 36.4442 67.0524 36.4 67.2032C36.3559 67.354 36.2799 67.4936 36.1771 67.6125C36.0743 67.7314 35.9473 67.8267 35.8044 67.8922C35.6616 67.9577 35.5063 67.9918 35.3492 67.9921H3.4742C3.31246 67.9873 3.15369 67.9475 3.00889 67.8753C2.86409 67.8031 2.73673 67.7002 2.63565 67.5739C2.53457 67.4475 2.46218 67.3007 2.42351 67.1435C2.38484 66.9864 2.38081 66.8228 2.4117 66.6639L2.83404 63.766C2.87197 63.5455 2.9737 63.3409 3.12666 63.1775C3.27961 63.0142 3.47709 62.8992 3.69466 62.8469C4.34902 62.6587 4.92364 62.2612 5.33048 61.7152C5.73732 61.1693 5.95395 60.505 5.94717 59.8241C5.95036 59.2792 5.81564 58.7424 5.55556 58.2636C5.29548 57.7847 4.91848 57.3795 4.45966 57.0855C4.27752 56.9702 4.13301 56.8042 4.04383 56.6079C3.95465 56.4116 3.92471 56.1936 3.95764 55.9805L4.31357 53.5315C4.35121 53.2707 4.48142 53.0322 4.68041 52.8596C4.8794 52.6869 5.13388 52.5916 5.39733 52.5911L33.4314 52.5938ZM10.6939 50.4688C11.3659 46.5296 8.9142 43.095 3.64951 43.6236C3.56982 35.5327 -1.63909 31.5244 0.525757 21.8637C2.95091 11.0527 13.2492 9.23849 19.1965 9.60506C19.4488 9.62128 19.6854 9.73306 19.8581 9.91763C20.0309 10.1022 20.1268 10.3457 20.1262 10.5985V13.6771C24.9845 14.0171 25.1545 18.5061 32.693 22.3205C32.8147 22.3844 32.9217 22.473 33.0072 22.5806C33.0927 22.6883 33.1548 22.8126 33.1896 22.9455C33.2243 23.0785 33.2309 23.2173 33.209 23.353C33.1871 23.4887 33.137 23.6184 33.0622 23.7336L29.9597 28.5919C29.8558 28.7757 29.6923 28.9186 29.4962 28.9968C29.3001 29.0751 29.0831 29.084 28.8812 29.0222C23.0693 26.8494 21.0426 27.0832 17.8631 26.0021C17.5656 26.8972 17.539 27.888 18.8379 28.7991C25.1147 33.2032 29.8029 36.0852 32.1192 46.3171C32.3237 47.2096 31.7925 48.7236 30.1403 50.4688H10.6939ZM15.0767 14.2402C10.0511 15.4993 7.02826 18.3388 6.15701 23.1519C5.0706 29.1524 7.95795 33.6601 6.8742 38.9938C5.8117 32.4408 3.51138 28.4007 4.55794 22.711C5.44779 17.8872 10.075 14.211 15.0767 14.2402Z" fill="#008BAD"/>
</g>
<defs>
<clipPath id="clip0_204_3">
<rect width="68" height="68" fill="white"/>
</clipPath>
</defs>
</svg>
