<svg width="95" height="70" viewBox="0 0 95 70" fill="none" xmlns="http://www.w3.org/2000/svg">
<g clip-path="url(#clip0_395_3055)">
<path d="M77.8636 25.9453C78.0626 25.8713 78.2345 25.7391 78.3566 25.566C78.4788 25.3929 78.5455 25.1871 78.548 24.9756V14.9382L90.6566 12.6581C90.8941 12.6066 91.1079 12.4785 91.265 12.2937C91.422 12.109 91.5135 11.8778 91.5252 11.6361C91.5326 11.3912 91.4558 11.1511 91.3074 10.9557C91.1589 10.7603 90.9479 10.6212 90.7092 10.5616L45.96 0.0785881C45.7943 0.05258 45.6255 0.05258 45.4599 0.0785881L0.710615 10.5616C0.47428 10.6254 0.265921 10.7655 0.118233 10.96C-0.0294552 11.1545 -0.108114 11.3923 -0.105401 11.6361C-0.0987269 11.905 0.0115748 12.1612 0.202672 12.3514C0.393769 12.5417 0.651029 12.6515 0.921199 12.6581L13.0298 14.9382V24.9756C13.0302 25.1841 13.0931 25.3877 13.2103 25.5604C13.3275 25.7331 13.4938 25.8671 13.6879 25.9453C14.8724 26.417 16.0833 26.8626 17.3731 27.2557C13.102 32.2206 10.8488 38.5954 11.0556 45.1291C11.0556 61.6922 22.743 70.1048 45.7494 70.1048C68.7558 70.1048 80.4695 61.5874 80.4695 45.1291C80.6719 38.6415 78.4488 32.3099 74.231 27.3605C75.4945 26.7839 76.7053 26.417 77.8636 25.9453ZM78.3374 45.1291C78.3374 60.4867 67.6765 67.9558 45.7494 67.9558C23.8223 67.9558 13.1878 60.3818 13.1878 45.1291C12.9738 38.8165 15.2727 32.6753 19.5843 28.0419C28.0933 30.283 36.8695 31.3586 45.6704 31.2392C54.5551 31.341 63.4119 30.23 71.9935 27.9371C76.3046 32.6094 78.585 38.7894 78.3374 45.1291Z" fill="#008BAD"/>
<path d="M46.3813 52.5458C46.205 52.4076 45.9871 52.3325 45.7627 52.3325C45.5383 52.3325 45.3205 52.4076 45.1441 52.5458L40.1691 56.11C40.0474 56.1886 39.9444 56.2926 39.8671 56.4148C39.7898 56.537 39.7402 56.6744 39.7216 56.8176C39.697 56.9542 39.7007 57.0944 39.7324 57.2296C39.7641 57.3648 39.8231 57.4921 39.9058 57.6038L44.9072 64.3391C45.0037 64.481 45.1329 64.5979 45.284 64.6799C45.4352 64.762 45.6038 64.8069 45.7759 64.8109C45.9471 64.8028 46.1142 64.7562 46.2647 64.6745C46.4152 64.5928 46.5451 64.4781 46.6445 64.3391L51.6196 57.6038C51.7834 57.3759 51.8583 57.0964 51.8302 56.8176C51.8069 56.6759 51.7553 56.5402 51.6784 56.4187C51.6015 56.2971 51.501 56.1922 51.3827 56.11L46.3813 52.5458Z" fill="#008BAD"/>
<path d="M62.912 32.5759C59.8784 32.5765 56.9546 33.7058 54.7143 35.7423C52.474 37.7788 51.0791 40.5753 50.8034 43.583H40.6953C40.424 40.4884 38.9632 37.6174 36.6177 35.5688C34.2721 33.5202 31.2228 32.4522 28.1056 32.5874C24.9884 32.7226 22.0439 34.0506 19.8861 36.2944C17.7284 38.5383 16.5239 41.5249 16.5239 44.6313C16.5239 47.7378 17.7284 50.7244 19.8861 52.9683C22.0439 55.2121 24.9884 56.5401 28.1056 56.6753C31.2228 56.8105 34.2721 55.7425 36.6177 53.6939C38.9632 51.6453 40.424 48.7743 40.6953 45.6796H50.935C51.1392 48.0085 52.0191 50.228 53.4675 52.0679C54.9159 53.9078 56.8704 55.2888 59.093 56.0427C61.3156 56.7965 63.7104 56.8907 65.9858 56.3138C68.2612 55.7369 70.3191 54.5138 71.9088 52.7935C73.4986 51.0731 74.5516 48.9296 74.9398 46.624C75.3279 44.3185 75.0344 41.9503 74.0949 39.8079C73.1555 37.6654 71.6106 35.8412 69.6485 34.5571C67.6864 33.2731 65.3916 32.5848 63.0436 32.5759H62.912ZM28.692 54.5902C26.7114 54.5953 24.7738 54.015 23.1248 52.9227C21.4759 51.8304 20.1897 50.2753 19.4294 48.4545C18.669 46.6337 18.4687 44.6292 18.8538 42.6949C19.239 40.7607 20.1922 38.9838 21.5927 37.5894C22.9931 36.1951 24.7779 35.2461 26.7207 34.8626C28.6635 34.4792 30.6769 34.6786 32.5057 35.4356C34.3346 36.1927 35.8965 37.4732 36.9936 39.1149C38.0907 40.7566 38.6736 42.6857 38.6684 44.6576C38.665 45.9654 38.4028 47.2597 37.8969 48.4666C37.3911 49.6736 36.6514 50.7695 35.7201 51.6918C34.7888 52.6142 33.6841 53.3448 32.4692 53.8421C31.2543 54.3394 29.9529 54.5936 28.6393 54.5902H28.692ZM62.912 54.5902C60.9314 54.5953 58.9938 54.015 57.3448 52.9227C55.6959 51.8304 54.4097 50.2753 53.6494 48.4545C52.889 46.6337 52.6887 44.6292 53.0738 42.6949C53.459 40.7607 54.4122 38.9838 55.8127 37.5894C57.2132 36.1951 58.9979 35.2461 60.9407 34.8626C62.8835 34.4792 64.8969 34.6786 66.7257 35.4356C68.5546 36.1927 70.1165 37.4732 71.2136 39.1149C72.3107 40.7566 72.8936 42.6857 72.8884 44.6576C72.8815 47.2897 71.8282 49.8121 69.9587 51.6733C68.0893 53.5346 65.5558 54.5832 62.912 54.5902Z" fill="#008BAD"/>
<path d="M28.7446 41.1716C24.4803 41.1716 21.4795 46.4131 21.3478 46.4131C21.218 46.6627 21.1864 46.9516 21.2595 47.2231C21.3325 47.4947 21.5049 47.7292 21.7427 47.8807C21.8634 47.9507 21.9969 47.996 22.1353 48.0141C22.2738 48.0321 22.4145 48.0226 22.5493 47.986C22.684 47.9494 22.8101 47.8865 22.9202 47.801C23.0302 47.7154 23.1221 47.6089 23.1905 47.4876C23.9012 46.2821 26.2439 43.2158 28.7446 43.2158C30.482 43.2158 32.1666 44.6572 33.7723 47.4876C33.8705 47.6518 34.0089 47.7885 34.1747 47.8848C34.3405 47.981 34.5281 48.0338 34.72 48.038C34.8961 48.0218 35.0666 47.9681 35.2201 47.8807C35.3441 47.8149 35.4536 47.7251 35.5422 47.6165C35.6308 47.5079 35.6967 47.3828 35.7359 47.2484C35.7752 47.1141 35.787 46.9733 35.7708 46.8344C35.7545 46.6954 35.7105 46.5611 35.6413 46.4393C33.6144 42.9799 31.298 41.1716 28.7446 41.1716Z" fill="#008BAD"/>
<path d="M63.2804 41.1716C58.9898 41.1716 56.0153 46.4131 55.8836 46.4131C55.7474 46.6614 55.7124 46.9524 55.7859 47.2256C55.8595 47.4989 56.0358 47.7335 56.2785 47.8807C56.3992 47.9507 56.5327 47.996 56.6711 48.0141C56.8096 48.0321 56.9503 48.0226 57.0851 47.986C57.2198 47.9494 57.3459 47.8865 57.4559 47.801C57.566 47.7154 57.6579 47.6089 57.7263 47.4876C58.4107 46.2821 60.7534 43.2158 63.2804 43.2158C65.0177 43.2158 66.7024 44.6572 68.3345 47.4876C68.4243 47.6533 68.5572 47.7918 68.7193 47.8886C68.8814 47.9855 69.0667 48.0371 69.2558 48.038C69.4409 48.0255 69.6208 47.9718 69.7822 47.8807C69.904 47.8127 70.011 47.7212 70.0969 47.6116C70.1829 47.502 70.2461 47.3765 70.2828 47.2424C70.3196 47.1082 70.3291 46.9681 70.311 46.8303C70.2928 46.6924 70.2473 46.5595 70.1771 46.4393C68.1502 42.9799 65.8338 41.1716 63.2804 41.1716Z" fill="#008BAD"/>
<path d="M89.5249 38.1058C90.9051 38.1488 92.2503 37.6685 93.2885 36.7619C94.3266 35.8553 94.9803 34.5901 95.1174 33.222C95.2545 31.8539 94.8647 30.4851 94.0269 29.3921C93.1891 28.2992 91.9657 27.5638 90.6041 27.3345V14.6501C90.5641 14.3973 90.4347 14.1669 90.2392 14.0006C90.0438 13.8343 89.7951 13.7429 89.538 13.7429C89.2809 13.7429 89.0323 13.8343 88.8368 14.0006C88.6414 14.1669 88.512 14.3973 88.4719 14.6501V27.3345C87.1137 27.5646 85.8935 28.2984 85.0568 29.3882C84.2202 30.478 83.8292 31.8429 83.9626 33.2081C84.0961 34.5733 84.7441 35.8375 85.7761 36.7463C86.8081 37.655 88.1476 38.1407 89.5249 38.1058ZM89.5249 29.3525C90.1861 29.3525 90.8324 29.5477 91.3822 29.9134C91.9319 30.2791 92.3604 30.799 92.6134 31.4071C92.8665 32.0153 92.9327 32.6845 92.8037 33.3302C92.6747 33.9758 92.3563 34.5688 91.8887 35.0343C91.4212 35.4998 90.8255 35.8168 90.1771 35.9452C89.5286 36.0736 88.8564 36.0077 88.2455 35.7558C87.6347 35.5039 87.1126 35.0773 86.7452 34.53C86.3779 33.9826 86.1818 33.3391 86.1818 32.6808C86.1957 31.8072 86.554 30.974 87.1794 30.3611C87.8049 29.7483 88.6473 29.4048 89.5249 29.4049V29.3525Z" fill="#008BAD"/>
<path d="M89.5251 41.9845C89.2458 41.9845 88.978 42.0949 88.7806 42.2915C88.5831 42.4881 88.4722 42.7547 88.4722 43.0328V53.2536C88.5122 53.5065 88.6416 53.7368 88.837 53.9031C89.0325 54.0695 89.2811 54.1609 89.5383 54.1609C89.7954 54.1609 90.044 54.0695 90.2395 53.9031C90.4349 53.7368 90.5643 53.5065 90.6043 53.2536V43.0328C90.6044 42.8929 90.5763 42.7544 90.5217 42.6254C90.4672 42.4965 90.3873 42.3798 90.2867 42.2821C90.1861 42.1844 90.0669 42.1077 89.9361 42.0566C89.8053 42.0055 89.6656 41.981 89.5251 41.9845Z" fill="#008BAD"/>
<path d="M86.1817 39.8877C86.0412 39.8877 85.9021 39.9156 85.7726 39.9699C85.6431 40.0242 85.5258 40.1038 85.4277 40.2039C85.3295 40.3041 85.2525 40.4228 85.2012 40.553C85.1499 40.6832 85.1252 40.8223 85.1287 40.9622V51.1831C85.1688 51.4359 85.2982 51.6663 85.4936 51.8326C85.6891 51.9989 85.9377 52.0903 86.1948 52.0903C86.4519 52.0903 86.7006 51.9989 86.896 51.8326C87.0915 51.6663 87.2209 51.4359 87.2609 51.1831V40.936C87.254 40.6556 87.1373 40.389 86.9357 40.1931C86.734 39.9972 86.4634 39.8876 86.1817 39.8877Z" fill="#008BAD"/>
<path d="M92.8681 39.8877C92.5818 39.8877 92.3073 40.0009 92.1049 40.2024C91.9025 40.4039 91.7888 40.6772 91.7888 40.9622V51.1831C91.7957 51.4635 91.9124 51.7301 92.1141 51.926C92.3157 52.1219 92.5863 52.2315 92.8681 52.2314C93.1478 52.225 93.4147 52.1134 93.615 51.9188C93.8153 51.7243 93.9341 51.4613 93.9473 51.1831V40.936C93.9404 40.6556 93.8237 40.389 93.6221 40.1931C93.4204 39.9972 93.1498 39.8876 92.8681 39.8877Z" fill="#008BAD"/>
</g>
<defs>
<clipPath id="clip0_395_3055">
<rect width="95" height="70" fill="white"/>
</clipPath>
</defs>
</svg>
