<svg width="67" height="73" viewBox="0 0 67 73" fill="none" xmlns="http://www.w3.org/2000/svg">
<path d="M65.58 22.86C64.9596 22.2849 64.1952 21.8884 63.3678 21.7123C62.5404 21.5363 61.6807 21.5873 60.88 21.86C60.0472 22.1189 59.309 22.6174 58.7577 23.2932C58.2064 23.969 57.8664 24.7921 57.78 25.66L55.58 35.16C55.5374 35.2636 55.4692 35.3547 55.3817 35.4247C55.2943 35.4947 55.1904 35.5412 55.08 35.56C54.963 35.5633 54.847 35.5377 54.7423 35.4853C54.6376 35.433 54.5475 35.3556 54.48 35.26L52.68 31.06L53.28 30.06C53.6156 29.5284 53.8431 28.9358 53.9494 28.3161C54.0556 27.6964 54.0386 27.0619 53.8993 26.4488C53.7599 25.8357 53.501 25.2561 53.1374 24.7433C52.7737 24.2304 52.3124 23.7943 51.78 23.46C50.9831 22.9109 50.0469 22.5988 49.08 22.56L47.38 18.46C47.4464 17.5078 47.2006 16.56 46.68 15.76C46.3766 15.3359 46.0424 14.9348 45.68 14.56L41.38 3.45999C40.38 1.05999 38.58 -0.0400058 36.68 0.759994C35.8039 1.08181 35.0859 1.72957 34.676 2.56806C34.2661 3.40655 34.1959 4.37096 34.48 5.25999L37.88 15.26C37.7581 15.4125 37.6572 15.5807 37.58 15.76L35.78 18.86L34.98 17.26C35.16 16.0374 34.9222 14.7899 34.3052 13.7192C33.6882 12.6485 32.728 11.8173 31.58 11.36L27.58 4.35999C27.3262 3.80113 26.9189 3.32584 26.4055 2.98947C25.8921 2.6531 25.2937 2.46948 24.68 2.45999C24.0245 2.46668 23.3808 2.63433 22.8054 2.9482C22.2299 3.26208 21.7404 3.71255 21.38 4.25999C21.0951 4.76719 20.9539 5.34244 20.9715 5.92389C20.9892 6.50533 21.1649 7.07098 21.48 7.55999L24.98 13.96C24.7934 14.283 24.6264 14.6169 24.48 14.96L23.18 18.16L20.38 14.46C18.68 12.26 16.68 12.36 15.48 13.26C14.8069 13.674 14.3244 14.3368 14.1372 15.1044C13.9499 15.8721 14.0731 16.6826 14.48 17.36L20.08 25.76L17.98 30.76L14.28 27.66C12.58 26.26 10.98 26.56 10.08 27.46C9.83606 27.7156 9.64509 28.0168 9.51804 28.3465C9.39099 28.6761 9.33037 29.0276 9.33966 29.3808C9.34896 29.7339 9.42798 30.0818 9.57219 30.4043C9.71641 30.7268 9.92296 31.0176 10.18 31.26C10.38 31.46 12.88 33.56 15.68 36.26L13.98 40.36L12.98 36.06C12.7786 34.8936 12.2759 33.8002 11.5216 32.8881C10.7674 31.9759 9.78776 31.2768 8.67997 30.86C7.58454 30.5079 6.41543 30.4519 5.29137 30.6978C4.16731 30.9437 3.12834 31.4827 2.27997 32.26C1.38026 33.1786 0.746895 34.3243 0.447488 35.5748C0.14808 36.8252 0.193872 38.1335 0.579972 39.36C0.879972 40.46 1.17997 41.76 1.47997 42.96C3.27997 50.36 5.37997 58.66 9.07997 64.56C12.08 69.26 17.98 72.66 22.98 72.66C23.5485 72.6796 24.1176 72.6461 24.68 72.56C29.18 71.76 34.58 69.66 40.88 61.06C41.8009 61.3402 42.7355 61.5739 43.68 61.76C44.1754 61.843 44.6779 61.8765 45.18 61.86C49.68 61.86 55.28 58.66 58.08 54.26C61.88 48.26 63.98 39.56 65.88 31.96L65.98 31.46C66.28 30.26 66.58 29.16 66.78 28.16C67.0684 27.2496 67.1092 26.2788 66.8983 25.3474C66.6874 24.4159 66.2324 23.5574 65.58 22.86ZM54.98 41.36C53.98 42.26 43.98 51.06 41.28 55.06C40.08 56.96 38.98 58.66 37.88 60.06C37.58 60.46 37.18 60.86 36.88 61.26C36.88 61.2865 36.8694 61.312 36.8507 61.3307C36.8319 61.3495 36.8065 61.36 36.78 61.36C35.3946 63.098 33.818 64.6746 32.08 66.06C31.78 66.26 31.58 66.46 31.28 66.66L31.18 66.76C30.937 66.9619 30.6679 67.1301 30.38 67.26C30.3535 67.26 30.328 67.2705 30.3093 67.2893C30.2905 67.308 30.28 67.3335 30.28 67.36C29.5448 67.8177 28.7759 68.2188 27.98 68.56C27.9535 68.56 27.928 68.5705 27.9093 68.5893C27.8905 68.608 27.88 68.6335 27.88 68.66C27.68 68.76 27.48 68.76 27.28 68.86C27.08 68.96 27.08 68.96 26.98 68.96C26.88 68.96 26.68 69.06 26.48 69.16C26.28 69.26 26.18 69.26 26.08 69.26C25.98 69.26 25.78 69.36 25.68 69.36C25.58 69.36 25.38 69.46 25.18 69.46C24.98 69.46 24.98 69.56 24.88 69.56C24.58 69.66 24.28 69.66 24.08 69.76C19.98 70.46 14.28 67.46 11.58 63.16C8.07997 57.66 6.07997 49.56 4.37997 42.46C4.07997 41.26 3.77997 39.96 3.47997 38.86C2.97997 37.06 3.27997 35.56 4.27997 34.66C4.93249 34.0593 5.79337 33.7365 6.67997 33.76C7.05385 33.7779 7.42371 33.8452 7.77997 33.96C8.3936 34.1841 8.93324 34.5736 9.33918 35.0854C9.74512 35.5973 10.0015 36.2115 10.08 36.86L12.08 45.76C12.1558 46.0651 12.3194 46.3413 12.5504 46.5546C12.7814 46.7678 13.0698 46.9087 13.38 46.96C13.6937 46.9921 14.0093 46.9217 14.2797 46.7595C14.5501 46.5973 14.7607 46.3519 14.88 46.06L21.68 29.66L21.98 28.86L25.28 20.96L25.98 19.26L27.28 16.06C27.98 14.26 29.18 13.56 30.48 14.06C31.0738 14.263 31.564 14.6914 31.8446 15.2527C32.1253 15.814 32.1739 16.4631 31.98 17.06L25.48 35.96L25.18 36.76L24.88 37.66C24.7594 38.0198 24.7741 38.4112 24.9214 38.761C25.0687 39.1107 25.3384 39.3948 25.68 39.56C26.0138 39.7192 26.3956 39.7458 26.7482 39.6345C27.1009 39.5231 27.3982 39.2821 27.58 38.96L32.48 30.46L33.08 29.46L38.88 19.46L39.18 18.96L40.28 17.16C40.4333 16.8084 40.6846 16.5084 41.0037 16.2956C41.3229 16.0829 41.6965 15.9664 42.08 15.96C42.5179 15.9594 42.949 16.069 43.3334 16.2787C43.7179 16.4884 44.0434 16.7915 44.28 17.16C44.4601 17.5026 44.5458 17.8869 44.5282 18.2736C44.5106 18.6602 44.3904 19.0352 44.18 19.36L41.18 24.86L40.58 25.86L32.28 41.06C32.108 41.3901 32.0659 41.7726 32.1618 42.1323C32.2577 42.4919 32.4848 42.8026 32.7983 43.0032C33.1118 43.2039 33.489 43.2799 33.8558 43.2164C34.2225 43.1529 34.5522 42.9544 34.78 42.66L46.78 26.86C47.78 25.56 48.98 25.16 50.08 25.96C50.2916 26.0766 50.4779 26.2343 50.628 26.4237C50.7781 26.6131 50.889 26.8305 50.9541 27.0632C51.0193 27.296 51.0374 27.5393 51.0075 27.7791C50.9776 28.0189 50.9003 28.2504 50.78 28.46L38.18 47.46C37.9873 47.7506 37.9019 48.0992 37.9384 48.446C37.9749 48.7927 38.131 49.1159 38.38 49.36C38.6674 49.579 39.0187 49.6976 39.38 49.6976C39.7413 49.6976 40.0926 49.579 40.38 49.36L52.38 39.36C53.58 38.36 54.48 38.56 55.08 39.16C55.2281 39.3057 55.3438 39.4809 55.4197 39.6742C55.4957 39.8676 55.53 40.0748 55.5206 40.2823C55.5111 40.4898 55.4581 40.693 55.365 40.8787C55.2719 41.0644 55.1407 41.2284 54.98 41.36Z" fill="#008BAD"/>
</svg>
