<svg width="73" height="73" viewBox="0 0 73 73" fill="none" xmlns="http://www.w3.org/2000/svg">
<g clip-path="url(#clip0_395_3070)">
<path d="M59.261 12.3754H33.999V4.11084H59.261L63.2708 8.24312L59.261 12.3754Z" fill="#008BAD" stroke="#008BAD" stroke-width="2" stroke-miterlimit="10" stroke-linecap="round" stroke-linejoin="round"/>
<path d="M36.8694 8.24316H56.2748" stroke="white" stroke-width="2" stroke-miterlimit="10" stroke-linecap="round" stroke-linejoin="round"/>
<path d="M59.261 28.8939H33.999V20.6294H59.261L63.2708 24.7617L59.261 28.8939Z" stroke="#008BAD" stroke-width="2" stroke-miterlimit="10" stroke-linecap="round" stroke-linejoin="round"/>
<path d="M36.8694 24.7615H56.2748" stroke="#008BAD" stroke-width="2" stroke-miterlimit="10" stroke-linecap="round" stroke-linejoin="round"/>
<path d="M4.64289 20.6293H29.9048V12.3755H4.64289L0.633057 16.5078L4.64289 20.6293Z" fill="#008BAD" stroke="#008BAD" stroke-width="2" stroke-miterlimit="10" stroke-linecap="round" stroke-linejoin="round"/>
<path d="M27.0347 16.5078H7.61865" stroke="white" stroke-width="2" stroke-miterlimit="10" stroke-linecap="round" stroke-linejoin="round"/>
<path d="M29.9048 65.6989V0.642334H33.999V65.9666" fill="#008BAD"/>
<path d="M29.9048 65.6989V0.642334H33.999V65.9666" stroke="#008BAD" stroke-width="2" stroke-miterlimit="10" stroke-linecap="round" stroke-linejoin="round"/>
<path d="M3.73535 70.4951C3.73535 70.4951 22.6238 61.9093 40.974 67.5725C59.3243 73.2356 62.5743 72.2936 62.5743 72.2936" stroke="#008BAD" stroke-width="2" stroke-miterlimit="10" stroke-linecap="round" stroke-linejoin="round"/>
<path d="M36.1729 65.8488C36.1729 65.8488 40.9741 62.8513 48.9621 63.119C56.9396 63.3866 66.2571 70.4093 72.3668 69.8634" stroke="#008BAD" stroke-width="2" stroke-miterlimit="10" stroke-linecap="round" stroke-linejoin="round"/>
<path d="M18.0229 70.677H21.9589" stroke="#008BAD" stroke-width="2" stroke-miterlimit="10" stroke-linecap="round" stroke-linejoin="round"/>
<path d="M27.731 68.9961H29.2716" stroke="#008BAD" stroke-width="2" stroke-miterlimit="10" stroke-linecap="round" stroke-linejoin="round"/>
<path d="M48.561 66.502H51.7478" stroke="#008BAD" stroke-width="2" stroke-miterlimit="10" stroke-linecap="round" stroke-linejoin="round"/>
<path d="M26.0532 60.9243L23.8794 65.6346L19.3103 56.792" stroke="#008BAD" stroke-width="2" stroke-miterlimit="10" stroke-linecap="round" stroke-linejoin="round"/>
<path d="M45.8809 57.3489L48.9621 63.1191L53.4573 53.7197" stroke="#008BAD" stroke-width="2" stroke-miterlimit="10" stroke-linecap="round" stroke-linejoin="round"/>
</g>
<defs>
<clipPath id="clip0_395_3070">
<rect width="73" height="73" fill="white"/>
</clipPath>
</defs>
</svg>
