<svg width="74" height="74" viewBox="0 0 74 74" fill="none" xmlns="http://www.w3.org/2000/svg">
<g clip-path="url(#clip0_205_6)">
<path fill-rule="evenodd" clip-rule="evenodd" d="M55.2111 13.3698C48.4123 7.95914 39.8005 5.35455 31.1421 6.09028C22.4837 6.82601 14.435 10.8463 8.64687 17.3266C2.85874 23.8068 -0.230089 32.2558 0.0139179 40.9406C0.257925 49.6255 3.81627 57.8878 9.95912 64.0329C16.102 70.1781 24.3637 73.7403 33.0497 73.9888C41.7358 74.2374 50.1878 71.1535 56.6721 65.3698C63.1564 59.586 67.1816 51.5407 67.9221 42.8841C68.6625 34.2274 66.0621 25.6156 60.6542 18.8149L55.6881 23.7831C59.7797 29.256 61.6458 36.0754 60.9109 42.8686C60.1759 49.6619 56.8944 55.9246 51.7269 60.396C46.5594 64.8674 39.8896 67.2155 33.0601 66.9677C26.2307 66.7199 19.7487 63.8946 14.9189 59.0605C10.0891 54.2263 7.27026 47.7423 7.02968 40.9137C6.7891 34.0851 9.14469 27.4188 13.6223 22.2569C18.0999 17.0949 24.367 13.8206 31.1621 13.0929C37.9572 12.3653 44.7757 14.2384 50.245 18.3352L55.2111 13.3698ZM45.9004 22.6791C41.5859 19.7202 36.3216 18.4792 31.1395 19.1992C25.9573 19.9193 21.231 22.5485 17.8869 26.5715C14.5428 30.5945 12.8219 35.7213 13.0617 40.9469C13.3016 46.1725 15.4847 51.1202 19.1832 54.8201C22.8818 58.52 27.8291 60.7055 33.0554 60.948C38.2817 61.1905 43.4101 59.4727 47.4356 56.1312C51.461 52.7898 54.0931 48.0656 54.816 42.8846C55.5389 37.7037 54.3005 32.4396 51.3435 28.1242L46.2878 33.1791C47.9312 36.1365 48.45 39.5882 47.7487 42.898C47.0474 46.2078 45.1732 49.1527 42.4715 51.1897C39.7698 53.2268 36.4228 54.2188 33.0472 53.983C29.6717 53.7471 26.4951 52.2993 24.103 49.9063C21.711 47.5134 20.2646 44.3366 20.0305 40.9614C19.7964 37.5863 20.7904 34.2402 22.8292 31.5401C24.868 28.8399 27.8143 26.9675 31.125 26.2681C34.4357 25.5687 37.8877 26.0893 40.8447 27.734L45.9004 22.6791ZM34.0257 47.8236C35.0539 47.8239 36.0721 47.6218 37.0222 47.2286C37.9722 46.8355 38.8355 46.2591 39.5627 45.5322C40.2899 44.8054 40.8667 43.9425 41.2603 42.9928C41.6539 42.043 41.8564 41.025 41.8564 39.997C41.8538 39.2897 41.7566 38.586 41.5674 37.9045L36.7487 42.7253C36.025 43.4489 35.0434 43.8554 34.0199 43.8554C32.9965 43.8554 32.0149 43.4489 31.2912 42.7253C30.5675 42.0017 30.1609 41.0203 30.1609 39.997C30.1609 38.9737 30.5675 37.9923 31.2912 37.2687C32.8984 35.6646 34.52 34.0635 36.1272 32.4565C35.0511 32.1573 33.9234 32.0919 32.8199 32.2645C31.7164 32.4372 30.6626 32.8439 29.7294 33.4575C28.7961 34.071 28.005 34.8772 27.4091 35.8217C26.8133 36.7663 26.4265 37.8274 26.2748 38.9339C26.123 40.0403 26.2099 41.1664 26.5295 42.2364C26.8491 43.3065 27.394 44.2958 28.1276 45.1378C28.8613 45.9799 29.7667 46.6553 30.783 47.1185C31.7993 47.5817 32.903 47.8221 34.0199 47.8236H34.0257Z" fill="#008BAD"/>
<path fill-rule="evenodd" clip-rule="evenodd" d="M35.0692 41.0462L60.0702 16.2254L67.0627 16.1907C67.1543 16.1921 67.2452 16.1745 67.3297 16.1392C67.4142 16.1039 67.4906 16.0516 67.5541 15.9855L73.8209 9.52022C74.2574 9.06936 73.8903 8.40748 73.2688 8.40748H67.7217L68.19 7.93638C69.5659 6.56066 67.4731 4.46817 66.0943 5.8439L65.6231 6.23699V0.682049C65.6288 0.548945 65.593 0.417385 65.5208 0.305431C65.4486 0.193476 65.3434 0.106631 65.2198 0.0568799C65.0962 0.00712884 64.9602 -0.00309959 64.8306 0.0275971C64.7009 0.0582938 64.584 0.12842 64.4958 0.228308L58.3185 6.51733C58.2526 6.58152 58.2004 6.65842 58.1652 6.74337C58.1299 6.82833 58.1122 6.91956 58.1133 7.01154V13.948C49.7738 22.2861 41.3159 30.6185 32.9793 38.9537C31.6005 40.3324 33.6962 42.422 35.075 41.0491L35.0692 41.0462Z" fill="#008BAD"/>
</g>
<defs>
<clipPath id="clip0_205_6">
<rect width="74" height="74" fill="white"/>
</clipPath>
</defs>
</svg>
