<svg width="70" height="70" viewBox="0 0 70 70" fill="none" xmlns="http://www.w3.org/2000/svg">
<g clip-path="url(#clip0_395_3050)">
<path d="M1.16686 70C1.47633 70 1.77313 69.8771 1.99196 69.6583C2.21079 69.4395 2.33372 69.1427 2.33372 68.8333V63C2.33372 60.5246 3.31722 58.1507 5.06785 56.4003C6.81848 54.65 9.19284 53.6666 11.6686 53.6666H12.9872C13.2435 53.6633 13.4917 53.5757 13.6932 53.4173C13.8948 53.2588 14.0386 53.0384 14.1023 52.7901C14.1661 52.5418 14.1462 52.2795 14.0459 52.0435C13.9456 51.8076 13.7703 51.6113 13.5473 51.485C12.133 50.704 10.9821 49.5212 10.2402 48.0861C9.49833 46.6511 9.19877 45.0283 9.37942 43.4231C9.56007 41.8178 10.2128 40.3021 11.2551 39.0678C12.2974 37.8335 13.6823 36.936 15.2349 36.4887C16.7874 36.0415 18.4377 36.0647 19.977 36.5553C21.5164 37.0459 22.8756 37.982 23.8828 39.2451C24.89 40.5082 25.5 42.0415 25.6355 43.6512C25.771 45.2609 25.426 46.8747 24.6441 48.2883C23.8969 49.6308 22.7896 50.7379 21.4469 51.485C21.223 51.6119 21.0473 51.8092 20.9472 52.0462C20.8471 52.2833 20.8282 52.5468 20.8935 52.7957C20.9587 53.0446 21.1044 53.265 21.3079 53.4225C21.5114 53.58 21.7613 53.6659 22.0187 53.6666H22.1704C24.6461 53.6666 27.0205 54.65 28.7711 56.4003C30.5218 58.1507 31.5052 60.5246 31.5052 63V68.8333C31.5052 69.1427 31.6282 69.4395 31.847 69.6583C32.0658 69.8771 32.3626 70 32.6721 70C32.9816 70 33.2784 69.8771 33.4972 69.6583C33.716 69.4395 33.839 69.1427 33.839 68.8333V63C33.8389 60.3992 32.9696 57.8729 31.3692 55.8226C29.7689 53.7722 27.5291 52.3153 25.0058 51.6833C26.4482 50.2161 27.4277 48.3575 27.8227 46.3385C28.2176 44.3194 28.0107 42.2289 27.2275 40.3264C26.4443 38.424 25.1194 36.7935 23.4173 35.6375C21.7152 34.4814 19.711 33.8508 17.6535 33.8239C15.5961 33.797 13.576 34.375 11.8443 35.4861C10.1126 36.5973 8.74546 38.1926 7.91278 40.0739C7.0801 41.9552 6.81853 44.0397 7.16055 46.0683C7.50258 48.097 8.43313 49.9805 9.83664 51.485C7.09508 51.9207 4.59871 53.3195 2.79583 55.43C0.992943 57.5405 0.00166179 60.2245 0 63V68.8333C0 69.1427 0.122937 69.4395 0.341766 69.6583C0.560594 69.8771 0.85739 70 1.16686 70Z" fill="#008BAD"/>
<path d="M50.0934 51.6833C51.5357 50.2161 52.5152 48.3575 52.9102 46.3385C53.3052 44.3194 53.0982 42.2289 52.315 40.3264C51.5318 38.424 50.2069 36.7935 48.5048 35.6375C46.8028 34.4814 44.7985 33.8508 42.741 33.8239C40.6836 33.797 38.6635 34.375 36.9318 35.4861C35.2001 36.5973 33.833 38.1926 33.0003 40.0739C32.1676 41.9552 31.9061 44.0397 32.2481 46.0683C32.5901 48.097 33.5207 49.9805 34.9242 51.485C32.1826 51.9207 29.6862 53.3195 27.8834 55.43C26.0805 57.5405 25.0892 60.2245 25.0875 63V68.8333C25.0875 69.1427 25.2105 69.4395 25.4293 69.6583C25.6481 69.8771 25.9449 70 26.2544 70H57.7596C58.0691 70 58.3659 69.8771 58.5847 69.6583C58.8036 69.4395 58.9265 69.1427 58.9265 68.8333V63C58.9264 60.3992 58.0572 57.8729 56.4568 55.8226C54.8564 53.7722 52.6167 52.3153 50.0934 51.6833Z" fill="#008BAD"/>
<path d="M2.33371 18.6667H21.0968L22.1703 31.5934C22.1927 31.8616 22.3072 32.1139 22.4944 32.3074C22.6815 32.5009 22.9298 32.6237 23.1972 32.6551H23.3372C23.5818 32.6557 23.8205 32.5795 24.0194 32.4371C24.2183 32.2947 24.3674 32.0935 24.4457 31.8617L28.8448 18.6667H31.5052C31.8147 18.6667 32.1115 18.5438 32.3303 18.325C32.5492 18.1062 32.6721 17.8095 32.6721 17.5001V1.16674C32.6726 1.00536 32.6396 0.845614 32.5752 0.697621C32.5109 0.549627 32.4165 0.4166 32.298 0.306951C32.1796 0.197301 32.0397 0.113414 31.8871 0.0605927C31.7346 0.00777162 31.5728 -0.0128342 31.4119 7.78092e-05H2.24036C1.93485 0.0239793 1.65101 0.167081 1.45015 0.398471C1.24929 0.629861 1.14753 0.930966 1.16685 1.23674C1.16053 1.27538 1.16053 1.31478 1.16685 1.35341V17.6867C1.21158 17.9628 1.354 18.2136 1.56817 18.3935C1.78235 18.5734 2.05402 18.6703 2.33371 18.6667ZM30.3384 2.42674V16.3334H28.0047C27.76 16.3328 27.5214 16.409 27.3225 16.5514C27.1236 16.6938 26.9744 16.895 26.8961 17.1267L24.0257 25.7367L23.3372 17.4067C23.3137 17.1138 23.1805 16.8405 22.9641 16.6415C22.7478 16.4425 22.4643 16.3325 22.1703 16.3334H3.32554L3.69893 2.22841L30.3384 2.42674Z" fill="#008BAD"/>
<path d="M37.3396 21H40L43.2322 30.7066C43.3105 30.9384 43.4597 31.1396 43.6586 31.282C43.8575 31.4243 44.0961 31.5006 44.3408 31.5C44.5933 31.4896 44.8356 31.3976 45.0313 31.2377C45.227 31.0778 45.3655 30.8587 45.4259 30.6133L47.5963 22.1666L68.9032 21C69.1831 20.9843 69.4479 20.8683 69.6493 20.6734C69.8508 20.4784 69.9752 20.2175 70 19.9383V3.60497C70.0296 3.30077 69.9386 2.99712 69.7465 2.75932C69.5545 2.52152 69.2768 2.36855 68.9732 2.3333H37.4679C37.3123 2.31514 37.1546 2.32851 37.0042 2.37261C36.8539 2.41671 36.714 2.49063 36.5928 2.58997C36.4712 2.6906 36.3712 2.81487 36.299 2.95524C36.2268 3.09561 36.1838 3.24918 36.1727 3.40664V19.74C36.16 19.8933 36.1777 20.0476 36.2248 20.194C36.2719 20.3405 36.3475 20.4762 36.4473 20.5933C36.5471 20.7104 36.669 20.8066 36.8061 20.8764C36.9433 20.9462 37.0928 20.9882 37.2462 21H37.3396ZM38.4131 4.79497L67.5846 4.52664L67.7713 18.6666L46.6045 19.8333C46.356 19.8485 46.119 19.9428 45.9279 20.1023C45.7369 20.2619 45.6019 20.4783 45.5426 20.72L44.1774 26.1683L42.007 19.4716C41.9279 19.228 41.7708 19.0171 41.5599 18.8716C41.349 18.7262 41.0961 18.6541 40.8402 18.6666H38.5881L38.4131 4.79497Z" fill="#008BAD"/>
</g>
<defs>
<clipPath id="clip0_395_3050">
<rect width="70" height="70" fill="white"/>
</clipPath>
</defs>
</svg>
