<svg width="174" height="121" viewBox="0 0 174 121" fill="none" xmlns="http://www.w3.org/2000/svg">
<g clip-path="url(#clip0_535_2963)">
<path d="M87.0007 122H86.9361L1.58108 117.436C1.29028 117.421 1.01685 117.3 0.816988 117.1C0.617124 116.9 0.506007 116.636 0.506475 116.361V21.3766C0.506012 21.2281 0.538106 21.0812 0.600736 20.945C0.663366 20.8088 0.755176 20.6864 0.870387 20.5853C0.985597 20.4843 1.12171 20.4069 1.27016 20.358C1.41862 20.309 1.57619 20.2896 1.73297 20.301L8.63435 20.7976C8.78395 20.8083 8.92984 20.8467 9.06371 20.9107C9.19758 20.9746 9.31679 21.0628 9.41455 21.1703C9.51231 21.2777 9.5867 21.4023 9.63346 21.5369C9.68023 21.6715 9.69846 21.8134 9.68712 21.9547C9.67577 22.0959 9.63508 22.2337 9.56735 22.3601C9.49962 22.4865 9.40619 22.599 9.29238 22.6913C9.17858 22.7836 9.04664 22.8539 8.90409 22.898C8.76154 22.9422 8.61117 22.9594 8.46158 22.9487L2.78479 22.5382V115.346L85.8615 119.788V25.9387C85.8615 25.6535 85.9815 25.3799 86.1952 25.1782C86.4088 24.9765 86.6985 24.8632 87.0007 24.8632C87.3028 24.8632 87.5925 24.9765 87.8062 25.1782C88.0198 25.3799 88.1398 25.6535 88.1398 25.9387V120.925C88.1398 121.21 88.0198 121.483 87.8062 121.685C87.5925 121.887 87.3028 122 87.0007 122Z" fill="#C6EDDB"/>
<path d="M87.0007 116.113C86.8374 116.113 86.6761 116.079 86.5277 116.015C86.3793 115.951 86.2473 115.857 86.1406 115.74C84.2914 113.743 78.2273 109.255 68.5141 106.584C61.3678 104.612 53.3254 103.854 44.6222 104.323C33.7034 104.913 21.6986 107.448 8.94006 111.852C8.76801 111.912 8.58333 111.931 8.40169 111.909C8.22004 111.886 8.04679 111.823 7.89662 111.724C7.74644 111.625 7.62378 111.493 7.53903 111.34C7.45429 111.186 7.40995 111.016 7.40979 110.843V16.3411C7.41178 16.1226 7.48426 15.9098 7.61756 15.7311C7.75086 15.5524 7.93865 15.4163 8.15594 15.3409C21.1822 10.8289 33.4566 8.24757 44.6393 7.6614C53.6253 7.18994 61.9374 7.9984 69.3381 10.0635C82.0454 13.6074 87.631 19.5786 87.8627 19.8313C88.0418 20.027 88.1402 20.2771 88.1399 20.5358V115.038C88.1398 115.257 88.0689 115.471 87.9366 115.651C87.8042 115.831 87.6168 115.968 87.3994 116.045C87.2718 116.09 87.1368 116.113 87.0007 116.113ZM49.5434 102.032C56.6631 102.032 63.3025 102.88 69.3381 104.565C77.8969 106.953 83.2244 110.44 85.8558 112.541V20.9517C83.7332 18.8364 77.7792 14.6238 68.5141 12.0766C61.3678 10.1047 53.3254 9.34643 44.6222 9.81609C33.9217 10.3933 22.1676 12.842 9.6881 17.0958V109.312C22.1448 105.13 33.8952 102.726 44.6393 102.163C46.2974 102.076 47.9321 102.032 49.5434 102.032Z" fill="#C6EDDB"/>
<path d="M87.0006 122C86.6985 122 86.4087 121.887 86.1951 121.685C85.9815 121.484 85.8615 121.21 85.8615 120.925V25.9388C85.8615 25.6535 85.9815 25.38 86.1951 25.1783C86.4087 24.9766 86.6985 24.8632 87.0006 24.8632C87.3027 24.8632 87.5925 24.9766 87.8061 25.1783C88.0197 25.38 88.1398 25.6535 88.1398 25.9388V119.788L171.218 115.346V22.4898L165.494 22.6906C165.345 22.6958 165.195 22.6731 165.055 22.6238C164.915 22.5746 164.786 22.4997 164.676 22.4035C164.567 22.3073 164.478 22.1916 164.416 22.0631C164.354 21.9346 164.319 21.7957 164.313 21.6545C164.308 21.5133 164.332 21.3724 164.384 21.2399C164.436 21.1074 164.515 20.986 164.617 20.8824C164.719 20.7789 164.842 20.6953 164.978 20.6365C165.114 20.5776 165.261 20.5447 165.411 20.5395L172.314 20.3047C172.467 20.2994 172.62 20.3233 172.763 20.3749C172.906 20.4266 173.036 20.505 173.147 20.6054C173.257 20.7058 173.344 20.8262 173.404 20.9593C173.464 21.0924 173.495 21.2356 173.495 21.3802V116.363C173.495 116.638 173.384 116.902 173.184 117.102C172.984 117.302 172.711 117.423 172.42 117.438L87.0652 122H87.0006Z" fill="#C6EDDB"/>
<path d="M87.0006 116.112C86.8644 116.112 86.7294 116.089 86.6019 116.043C86.3848 115.967 86.1976 115.829 86.0653 115.65C85.933 115.47 85.8619 115.257 85.8615 115.038V20.5394C85.8616 20.2805 85.9607 20.0304 86.1405 19.8349C86.3722 19.5822 91.9578 13.6111 104.663 10.0671C112.068 8.00204 120.374 7.19896 129.362 7.66503C140.545 8.24763 152.821 10.829 165.845 15.3409C166.064 15.4166 166.254 15.5539 166.388 15.7344C166.521 15.9149 166.593 16.1298 166.593 16.3501V110.845C166.593 111.018 166.549 111.188 166.464 111.342C166.379 111.495 166.257 111.627 166.107 111.726C165.956 111.825 165.783 111.888 165.601 111.91C165.42 111.933 165.235 111.913 165.063 111.854C152.305 107.443 140.3 104.908 129.381 104.325C120.674 103.85 112.635 104.612 105.499 106.584C95.7835 109.26 89.7194 113.754 87.8702 115.748C87.7615 115.864 87.6276 115.957 87.4775 116.019C87.3274 116.082 87.1648 116.114 87.0006 116.112ZM88.1398 20.9517V112.541C90.7769 110.44 96.1138 106.953 104.658 104.565C112.062 102.5 120.368 101.697 129.356 102.163C140.1 102.726 151.851 105.13 164.309 109.312V17.0959C151.83 12.842 140.081 10.3934 129.375 9.81614C120.674 9.34649 112.635 10.1065 105.499 12.0766C96.2183 14.6239 90.2719 18.8347 88.1398 20.9517Z" fill="#C6EDDB"/>
<path d="M87.0026 116.113H86.9362L8.48061 111.919C8.33101 111.911 8.18455 111.875 8.04959 111.813C7.91462 111.752 7.7938 111.666 7.69401 111.561C7.49248 111.347 7.38888 111.067 7.406 110.782C7.41448 110.641 7.45234 110.503 7.51742 110.375C7.5825 110.248 7.67353 110.134 7.7853 110.04C7.89708 109.945 8.02741 109.873 8.16886 109.826C8.31031 109.779 8.46012 109.76 8.60971 109.768L87.0615 113.96C87.3636 113.968 87.6501 114.089 87.8578 114.296C88.0656 114.504 88.1776 114.78 88.1693 115.066C88.161 115.351 88.033 115.621 87.8135 115.817C87.594 116.014 87.301 116.119 86.9988 116.112L87.0026 116.113Z" fill="#C6EDDB"/>
<path d="M87.0006 116.113C86.6985 116.121 86.4054 116.016 86.1857 115.82C85.966 115.624 85.8378 115.353 85.8292 115.068C85.8206 114.783 85.9324 114.506 86.14 114.299C86.3476 114.091 86.634 113.97 86.9361 113.962L165.39 109.769C165.692 109.753 165.988 109.851 166.214 110.041C166.44 110.232 166.576 110.499 166.593 110.784C166.611 111.069 166.507 111.349 166.305 111.562C166.104 111.775 165.821 111.904 165.519 111.92L87.0652 116.112L87.0006 116.113Z" fill="#C6EDDB"/>
<path d="M87.0007 21.6149C86.7827 21.6145 86.5694 21.555 86.3862 21.4436C86.2029 21.3321 86.0574 21.1733 85.9668 20.9861C85.8763 20.7989 85.8445 20.5911 85.8753 20.3873C85.9061 20.1836 85.9982 19.9925 86.1406 19.8367C86.3723 19.5839 91.9579 13.6128 104.663 10.0688C112.068 8.00375 120.374 7.20067 129.362 7.66674C140.545 8.24754 152.821 10.8289 165.845 15.3408C166.127 15.4407 166.354 15.6412 166.48 15.8989C166.605 16.1566 166.617 16.4505 166.514 16.7168C166.411 16.9831 166.201 17.2001 165.929 17.3208C165.657 17.4414 165.346 17.4559 165.063 17.3611C152.305 12.9495 140.3 10.4148 129.381 9.83219C120.674 9.3464 112.635 10.1065 105.499 12.0765C99.1536 13.8243 94.6995 16.2228 92.0794 17.9275C89.241 19.7739 87.8835 21.2259 87.8702 21.2403C87.7627 21.3584 87.6292 21.4532 87.4791 21.5179C87.329 21.5825 87.1657 21.6157 87.0007 21.6149Z" fill="#C6EDDB"/>
<path d="M95.5253 27.7098C95.2703 27.7109 95.0222 27.6311 94.8209 27.4833C94.6196 27.3355 94.4766 27.1281 94.4149 26.8945C94.3532 26.6608 94.3764 26.4144 94.4806 26.1946C94.5849 25.9749 94.7642 25.7945 94.9899 25.6824C101.343 22.5023 108.777 20.5162 117.093 19.7812C128.314 18.7881 140.894 20.1397 154.484 23.7697C154.775 23.8477 155.021 24.0315 155.168 24.2808C155.316 24.5301 155.352 24.8244 155.269 25.0989C155.187 25.3735 154.992 25.6058 154.728 25.7448C154.464 25.8838 154.152 25.9181 153.861 25.8401C140.545 22.2729 128.246 20.9553 117.306 21.9215C109.292 22.6386 102.142 24.5369 96.0588 27.5843C95.8943 27.6663 95.7113 27.7093 95.5253 27.7098Z" fill="#C6EDDB"/>
<path d="M95.5254 41.4465C95.271 41.4468 95.0238 41.3667 94.8232 41.2189C94.6227 41.0712 94.4803 40.8644 94.4187 40.6313C94.3571 40.3983 94.3799 40.1525 94.4834 39.9331C94.5869 39.7138 94.7653 39.5334 94.99 39.4208C101.343 36.2408 108.778 34.2546 117.093 33.5196C128.314 32.5247 140.894 33.8674 154.484 37.5081C154.631 37.5443 154.769 37.6077 154.889 37.6947C155.01 37.7818 155.111 37.8906 155.186 38.015C155.261 38.1393 155.309 38.2766 155.328 38.4188C155.346 38.561 155.334 38.7052 155.293 38.843C155.251 38.9808 155.181 39.1094 155.086 39.2212C154.991 39.333 154.874 39.4258 154.741 39.4941C154.607 39.5625 154.461 39.605 154.31 39.6192C154.159 39.6334 154.006 39.619 153.862 39.5768C140.545 36.0095 128.246 34.7009 117.306 35.66C109.292 36.377 102.142 38.2736 96.0589 41.321C95.8947 41.4037 95.7114 41.4468 95.5254 41.4465Z" fill="#C6EDDB"/>
<path d="M95.5254 55.1883C95.271 55.1886 95.0238 55.1085 94.8232 54.9608C94.6227 54.8131 94.4803 54.6062 94.4187 54.3732C94.3571 54.1402 94.3799 53.8944 94.4834 53.675C94.5869 53.4556 94.7653 53.2753 94.99 53.1627C101.343 49.9808 108.778 47.9964 117.093 47.2597C128.314 46.2684 140.894 47.6092 154.484 51.25C154.631 51.2861 154.769 51.3495 154.889 51.4366C155.01 51.5236 155.111 51.6325 155.186 51.7568C155.261 51.8812 155.309 52.0185 155.328 52.1607C155.346 52.3029 155.334 52.4471 155.293 52.5849C155.251 52.7226 155.181 52.8512 155.086 52.963C154.991 53.0748 154.874 53.1677 154.741 53.236C154.607 53.3044 154.461 53.3469 154.31 53.3611C154.159 53.3753 154.006 53.3608 153.862 53.3186C140.545 49.7586 128.246 48.4338 117.306 49.4C109.296 50.1171 102.142 52.0154 96.0589 55.0628C95.8944 55.1448 95.7113 55.1878 95.5254 55.1883Z" fill="#C6EDDB"/>
<path d="M95.5254 68.9395C95.271 68.9398 95.0238 68.8597 94.8232 68.712C94.6227 68.5643 94.4803 68.3574 94.4187 68.1244C94.3571 67.8914 94.3799 67.6456 94.4834 67.4262C94.5869 67.2068 94.7653 67.0265 94.9899 66.9139C101.343 63.7321 108.778 61.7459 117.093 61.0109C128.314 60.0178 140.894 61.3605 154.484 64.9994C154.775 65.0774 155.021 65.2612 155.168 65.5105C155.316 65.7598 155.352 66.0541 155.269 66.3286C155.187 66.6032 154.992 66.8355 154.728 66.9745C154.464 67.1135 154.152 67.1478 153.862 67.0699C140.545 63.5026 128.246 62.1851 117.306 63.153C109.292 63.8611 102.142 65.7666 96.0589 68.814C95.8944 68.896 95.7113 68.939 95.5254 68.9395Z" fill="#C6EDDB"/>
<path d="M95.5253 82.6724C95.2703 82.6735 95.0222 82.5937 94.8209 82.4459C94.6196 82.2981 94.4766 82.0908 94.4149 81.8571C94.3532 81.6235 94.3764 81.377 94.4806 81.1573C94.5849 80.9375 94.7642 80.7571 94.9899 80.645C101.343 77.465 108.777 75.4788 117.093 74.7438C128.314 73.7507 140.894 75.0934 154.484 78.7323C154.628 78.7709 154.763 78.8359 154.88 78.9236C154.997 79.0113 155.095 79.12 155.168 79.2434C155.241 79.3668 155.288 79.5026 155.305 79.643C155.322 79.7834 155.31 79.9256 155.269 80.0615C155.228 80.1975 155.16 80.3245 155.067 80.4353C154.974 80.5461 154.859 80.6386 154.728 80.7074C154.597 80.7763 154.453 80.8201 154.305 80.8365C154.156 80.8528 154.005 80.8414 153.861 80.8028C140.545 77.2355 128.246 75.9162 117.306 76.886C109.292 77.594 102.142 79.4996 96.0588 82.547C95.8943 82.6289 95.7113 82.6719 95.5253 82.6724Z" fill="#C6EDDB"/>
<path d="M95.5254 96.4127C95.271 96.413 95.0238 96.3329 94.8232 96.1852C94.6227 96.0375 94.4803 95.8306 94.4187 95.5976C94.3571 95.3646 94.3799 95.1188 94.4834 94.8994C94.5869 94.68 94.7653 94.4997 94.99 94.3871C101.343 91.207 108.778 89.2208 117.093 88.4841C128.314 87.4928 140.894 88.8426 154.484 92.4744C154.631 92.5105 154.769 92.574 154.889 92.661C155.01 92.748 155.111 92.8569 155.186 92.9813C155.261 93.1056 155.309 93.2429 155.328 93.3851C155.346 93.5273 155.334 93.6715 155.293 93.8093C155.251 93.9471 155.181 94.0756 155.086 94.1874C154.991 94.2993 154.874 94.3921 154.741 94.4604C154.607 94.5288 154.461 94.5713 154.31 94.5855C154.159 94.5997 154.006 94.5853 153.862 94.5431C140.545 90.9758 128.246 89.6582 117.306 90.6262C109.292 91.3433 102.142 93.2398 96.0589 96.2873C95.8947 96.37 95.7114 96.4131 95.5254 96.4127Z" fill="#C6EDDB"/>
<path d="M78.4779 27.7098C78.2919 27.7093 78.1089 27.6663 77.9444 27.5843C72.4916 24.8417 63.1601 21.615 49.5415 21.615H49.1617C48.8596 21.615 48.5699 21.5017 48.3562 21.3C48.1426 21.0983 48.0226 20.8247 48.0226 20.5395C48.0226 20.2542 48.1426 19.9806 48.3562 19.7789C48.5699 19.5772 48.8596 19.4639 49.1617 19.4639C63.4524 19.4047 73.2909 22.8107 79.0247 25.6824C79.2513 25.7949 79.4312 25.9762 79.5353 26.1971C79.6394 26.418 79.6617 26.6655 79.5985 26.8998C79.5353 27.1341 79.3903 27.3414 79.187 27.4884C78.9837 27.6353 78.7339 27.7134 78.4779 27.7098Z" fill="#C6EDDB"/>
<path d="M78.4779 41.4464C78.2918 41.4468 78.1085 41.4037 77.9444 41.3209C72.4916 38.5908 63.1524 35.3516 49.5414 35.3516H49.1617C49.0121 35.3523 48.8638 35.3252 48.7253 35.2718C48.5868 35.2184 48.4608 35.1397 48.3545 35.0404C48.2482 34.941 48.1637 34.8228 48.1058 34.6926C48.0478 34.5624 48.0176 34.4226 48.0169 34.2814C48.0161 34.1402 48.0448 34.0002 48.1014 33.8694C48.1579 33.7386 48.2412 33.6197 48.3465 33.5193C48.4517 33.4189 48.5769 33.3391 48.7148 33.2844C48.8527 33.2297 49.0007 33.2012 49.1503 33.2005C63.441 33.1413 73.2795 36.5472 79.0133 39.419C79.2378 39.5315 79.4161 39.7117 79.5196 39.9309C79.6232 40.1501 79.6461 40.3957 79.5848 40.6286C79.5234 40.8615 79.3813 41.0684 79.1811 41.2163C78.9809 41.3641 78.734 41.4445 78.4798 41.4446L78.4779 41.4464Z" fill="#C6EDDB"/>
<path d="M78.4779 55.1883C78.2918 55.1887 78.1085 55.1456 77.9444 55.0628C72.4916 52.3327 63.1525 49.0935 49.5415 49.0935H49.1617C48.8596 49.0935 48.5699 48.9802 48.3562 48.7785C48.1426 48.5768 48.0226 48.3032 48.0226 48.0179C48.0226 47.7327 48.1426 47.4591 48.3562 47.2574C48.5699 47.0557 48.8596 46.9424 49.1617 46.9424H49.5547C63.6347 46.9424 73.3422 50.316 79.0247 53.1627C79.2492 53.2752 79.4275 53.4554 79.531 53.6746C79.6346 53.8938 79.6575 54.1394 79.5962 54.3723C79.5348 54.6052 79.3927 54.8121 79.1925 54.96C78.9923 55.1078 78.7454 55.1882 78.4912 55.1883H78.4779Z" fill="#C6EDDB"/>
<path d="M78.4779 68.9395C78.2919 68.939 78.1089 68.8959 77.9444 68.814C71.8594 65.7666 64.7112 63.8611 56.6972 63.153C45.7575 62.185 33.4584 63.5025 20.1417 67.0698C19.9975 67.1084 19.8466 67.1198 19.6977 67.1034C19.5488 67.0869 19.4048 67.0429 19.2739 66.9739C19.143 66.9049 19.0277 66.8123 18.9348 66.7012C18.8418 66.5902 18.7729 66.4629 18.732 66.3268C18.6911 66.1906 18.679 66.0481 18.6965 65.9075C18.7139 65.767 18.7605 65.631 18.8335 65.5074C18.9066 65.3838 19.0047 65.275 19.1224 65.1872C19.24 65.0994 19.3747 65.0344 19.519 64.9958C33.1072 61.3568 45.6873 60.0141 56.9099 61.0072C65.2238 61.7422 72.6682 63.7284 79.0114 66.9103C79.2359 67.0228 79.4142 67.203 79.5177 67.4222C79.6213 67.6414 79.6442 67.887 79.5829 68.1199C79.5215 68.3528 79.3795 68.5597 79.1792 68.7075C78.979 68.8554 78.7321 68.9358 78.4779 68.9359V68.9395Z" fill="#C6EDDB"/>
<path d="M78.4779 82.6724C78.2919 82.6719 78.1088 82.6289 77.9444 82.547C71.8594 79.4996 64.7112 77.594 56.6972 76.886C45.7556 75.918 33.4584 77.2355 20.1417 80.8028C19.8509 80.8807 19.5392 80.8464 19.2752 80.7074C19.0112 80.5684 18.8165 80.3361 18.7339 80.0615C18.6513 79.787 18.6876 79.4927 18.8349 79.2434C18.9821 78.9941 19.2282 78.8103 19.519 78.7323C33.1072 75.0934 45.6873 73.7507 56.9099 74.7438C65.2238 75.4788 72.6682 77.465 79.0114 80.645C79.2369 80.7571 79.4162 80.9373 79.5205 81.1569C79.6247 81.3764 79.648 81.6227 79.5865 81.8562C79.5251 82.0898 79.3825 82.2971 79.1815 82.4451C78.9805 82.593 78.7327 82.6731 78.4779 82.6724Z" fill="#C6EDDB"/>
<path d="M78.4779 96.4127C78.2918 96.4131 78.1085 96.37 77.9443 96.2873C71.8594 93.2399 64.7111 91.3361 56.6972 90.6263C45.7556 89.6583 33.4584 90.9758 20.1417 94.5431C19.9967 94.5853 19.8443 94.5997 19.6933 94.5855C19.5423 94.5713 19.3959 94.5288 19.2626 94.4604C19.1292 94.3921 19.0117 94.2993 18.9169 94.1875C18.8221 94.0756 18.7519 93.9471 18.7104 93.8093C18.6689 93.6715 18.657 93.5273 18.6754 93.3851C18.6937 93.2429 18.742 93.1056 18.8173 92.9813C18.8926 92.8569 18.9935 92.748 19.1139 92.661C19.2344 92.574 19.3721 92.5105 19.5189 92.4744C33.1072 88.8372 45.6929 87.4928 56.9098 88.4787C65.2238 89.2155 72.6682 91.2017 79.0114 94.3817C79.2359 94.4942 79.4142 94.6744 79.5177 94.8936C79.6213 95.1128 79.6442 95.3584 79.5829 95.5914C79.5215 95.8243 79.3794 96.0312 79.1792 96.179C78.9789 96.3269 78.7321 96.4073 78.4779 96.4074V96.4127Z" fill="#C6EDDB"/>
<path d="M19.8303 53.3599C19.5282 53.3599 19.2384 53.2466 19.0248 53.0449C18.8112 52.8432 18.6912 52.5696 18.6912 52.2843V24.8003C18.6912 24.5664 18.7721 24.3388 18.9215 24.1522C19.0708 23.9655 19.2806 23.8299 19.5189 23.766C27.0108 21.7601 34.2672 20.4389 41.0889 19.8402C41.247 19.8265 41.4064 19.8441 41.5569 19.892C41.7074 19.9398 41.8457 20.0169 41.9628 20.1181C42.0799 20.2194 42.1732 20.3427 42.2369 20.4801C42.3006 20.6174 42.3331 20.7658 42.3324 20.9158V48.3944C42.3337 48.6631 42.2284 48.9225 42.0372 49.1216C41.8461 49.3206 41.5829 49.4449 41.2996 49.47C34.6204 50.0562 27.5006 51.3522 20.1417 53.3241C20.0401 53.3492 19.9353 53.3613 19.8303 53.3599ZM20.9695 25.616V50.8682C27.2222 49.2368 33.6046 48.0864 40.0541 47.4282V22.0989C33.6014 22.7766 27.2185 23.9529 20.9695 25.616Z" fill="#C6EDDB"/>
<path d="M76.3021 8.43752C76.1318 8.43739 75.9638 8.40125 75.8103 8.33175C65.9604 3.87716 48.5408 0.0159155 21.4403 6.9156C21.2942 6.95791 21.1405 6.97201 20.9884 6.95705C20.8363 6.94209 20.689 6.89839 20.5552 6.82854C20.4214 6.7587 20.3039 6.66414 20.2096 6.5505C20.1154 6.43686 20.0463 6.30647 20.0065 6.16709C19.9667 6.02772 19.9571 5.88221 19.9781 5.73923C19.9992 5.59626 20.0505 5.45875 20.129 5.33489C20.2075 5.21104 20.3116 5.10337 20.4352 5.01831C20.5587 4.93325 20.6991 4.87253 20.848 4.83978C48.613 -2.2302 66.6041 1.79237 76.7957 6.39575C77.0286 6.50122 77.2166 6.67829 77.329 6.89793C77.4413 7.11756 77.4712 7.36671 77.4138 7.60451C77.3564 7.8423 77.2151 8.05462 77.0131 8.20663C76.8111 8.35864 76.5604 8.44132 76.3021 8.4411V8.43752Z" fill="#C6EDDB"/>
<path d="M153.696 7.41755C153.591 7.41794 153.486 7.40406 153.385 7.37632C139.472 3.65132 126.691 2.38037 115.39 3.60112C115.24 3.62035 115.087 3.61106 114.941 3.5738C114.794 3.53655 114.657 3.47207 114.538 3.38416C114.418 3.29625 114.318 3.18667 114.244 3.06185C114.17 2.93702 114.123 2.79946 114.105 2.65723C114.088 2.515 114.101 2.37097 114.144 2.23356C114.186 2.09616 114.258 1.96816 114.353 1.85705C114.449 1.74595 114.567 1.65399 114.701 1.58656C114.834 1.51913 114.981 1.47758 115.132 1.46435C126.727 0.209539 139.814 1.50379 154.006 5.30767C154.27 5.37875 154.498 5.53748 154.648 5.75464C154.798 5.97179 154.859 6.23277 154.822 6.48954C154.784 6.74632 154.649 6.98161 154.443 7.15212C154.236 7.32264 153.971 7.41689 153.696 7.41755Z" fill="#C6EDDB"/>
</g>
<defs>
<clipPath id="clip0_535_2963">
<rect width="172.99" height="121" fill="white" transform="translate(0.50647)"/>
</clipPath>
</defs>
</svg>
