<svg width="105" height="113" viewBox="0 0 105 113" fill="none" xmlns="http://www.w3.org/2000/svg">
<g clip-path="url(#clip0_535_2945)">
<path d="M52.5986 113C37.8563 113.028 23.6801 107.384 13.0647 97.2587C12.996 97.1933 12.9409 97.1152 12.9027 97.0287C12.8645 96.9423 12.8438 96.8493 12.8419 96.7549C12.84 96.6606 12.8569 96.5668 12.8917 96.479C12.9264 96.3911 12.9782 96.3109 13.0443 96.2429C13.1103 96.1748 13.1893 96.1203 13.2766 96.0825C13.3639 96.0447 13.4579 96.0242 13.5532 96.0224C13.6485 96.0205 13.7433 96.0372 13.8321 96.0716C13.9208 96.1059 14.0019 96.1573 14.0706 96.2226C21.3355 103.116 30.3511 107.934 40.16 110.164C49.969 112.394 60.205 111.953 69.7811 108.888C69.8717 108.859 69.9673 108.848 70.0623 108.855C70.1573 108.862 70.2499 108.888 70.3348 108.931C70.4197 108.974 70.4953 109.033 70.5571 109.105C70.619 109.177 70.666 109.26 70.6954 109.349C70.7248 109.439 70.7361 109.534 70.7286 109.628C70.7211 109.722 70.6949 109.813 70.6516 109.897C70.6083 109.981 70.5487 110.056 70.4762 110.117C70.4037 110.179 70.3197 110.225 70.2291 110.254C64.5342 112.079 58.5846 113.006 52.5986 113Z" fill="#88CADB"/>
<path d="M88.0328 13.8393C87.8666 13.839 87.7055 13.7824 87.5763 13.6789C80.9604 8.39296 73.2105 4.67486 64.9195 2.80907C56.6285 0.943282 48.0161 0.979248 39.7414 2.91422C39.5598 2.94429 39.3736 2.90498 39.2202 2.80422C39.0669 2.70347 38.958 2.54881 38.9156 2.37157C38.8731 2.19432 38.9003 2.00774 38.9916 1.8496C39.083 1.69146 39.2316 1.57358 39.4075 1.51983C47.8966 -0.48023 56.7363 -0.524761 65.2456 1.38967C73.7548 3.30409 81.7065 7.12637 88.4878 12.562C88.6049 12.6554 88.6898 12.7824 88.7307 12.9256C88.7716 13.0688 88.7666 13.221 88.7164 13.3613C88.6661 13.5015 88.573 13.6228 88.4501 13.7085C88.3271 13.7941 88.1803 13.8398 88.0299 13.8393H88.0328Z" fill="#88CADB"/>
<path d="M52.5986 108.128C40.5627 108.122 28.8989 103.998 19.5834 96.4555C10.2679 88.9125 3.87352 78.4141 1.48377 66.739C-0.905992 55.0639 0.855803 42.93 6.47064 32.3934C12.0855 21.8568 21.2081 13.5654 32.2927 8.9239C45.0408 3.59394 59.4061 3.49443 72.2283 8.64727C85.0505 13.8001 95.2793 23.7832 100.665 36.4004C106.05 49.0175 106.15 63.2353 100.944 75.9258C95.7378 88.6163 85.6511 98.7402 72.9031 104.07C66.4797 106.761 59.5737 108.141 52.5986 108.128ZM52.5986 6.30803C40.895 6.30773 29.5515 10.3134 20.4913 17.6459C11.4311 24.9784 5.21191 35.1865 2.88818 46.5393C0.564438 57.8921 2.27918 69.6909 7.74165 79.9353C13.2041 90.1796 22.0781 98.239 32.8591 102.747C45.2518 107.928 59.2166 108.025 71.6813 103.016C84.1461 98.0062 94.0897 88.3014 99.3248 76.0359C104.56 63.7704 104.657 49.9491 99.5962 37.6123C94.535 25.2756 84.7294 15.4341 72.3367 10.2528C66.0925 7.63679 59.3791 6.2951 52.5986 6.30803Z" fill="#88CADB"/>
<path d="M48.8666 60.4664L26.5347 31.4728C26.4222 31.3281 26.3668 31.1477 26.3788 30.9654C26.3909 30.7831 26.4696 30.6114 26.6003 30.4824C26.731 30.3534 26.9047 30.2759 27.0889 30.2644C27.2731 30.253 27.4553 30.3083 27.6012 30.4201L56.8942 52.5211L48.8666 60.4664Z" fill="#88CADB"/>
<path d="M78.5244 82.6147C78.3558 82.615 78.1919 82.5601 78.0581 82.4585L48.7961 60.377L56.8266 52.429L79.1401 81.3904C79.2271 81.5034 79.2804 81.6381 79.2941 81.7794C79.3077 81.9208 79.2812 82.0631 79.2175 82.1903C79.1537 82.3175 79.0553 82.4245 78.9333 82.4993C78.8114 82.574 78.6707 82.6135 78.5273 82.6133L78.5244 82.6147ZM50.9968 60.2292L74.9121 78.2782L56.6759 54.6084L50.9968 60.2292Z" fill="#88CADB"/>
<path d="M52.5987 16.9779C52.4061 16.9779 52.2214 16.9023 52.0851 16.7677C51.9488 16.633 51.8721 16.4504 51.8717 16.2598V5.58994C51.8799 5.40478 51.9601 5.2299 52.0954 5.10176C52.2307 4.97362 52.4107 4.9021 52.598 4.9021C52.7852 4.9021 52.9653 4.97362 53.1006 5.10176C53.2359 5.2299 53.316 5.40478 53.3242 5.58994V16.2598C53.3239 16.4501 53.2473 16.6326 53.1113 16.7672C52.9753 16.9018 52.791 16.9776 52.5987 16.9779Z" fill="#88CADB"/>
<path d="M52.5987 108.128C52.5033 108.128 52.4088 108.11 52.3206 108.074C52.2324 108.038 52.1522 107.985 52.0847 107.918C52.0172 107.851 51.9636 107.772 51.9271 107.685C51.8905 107.598 51.8717 107.504 51.8717 107.41V96.7398C51.8799 96.5547 51.9601 96.3798 52.0954 96.2517C52.2307 96.1235 52.4107 96.052 52.598 96.052C52.7852 96.052 52.9653 96.1235 53.1006 96.2517C53.2359 96.3798 53.316 96.5547 53.3242 96.7398V107.41C53.3242 107.504 53.3055 107.597 53.269 107.685C53.2325 107.772 53.1791 107.851 53.1117 107.918C53.0444 107.984 52.9644 108.037 52.8763 108.073C52.7883 108.109 52.694 108.128 52.5987 108.128Z" fill="#88CADB"/>
<path d="M103.588 53.744H92.8089C92.6218 53.7358 92.4451 53.6565 92.3156 53.5226C92.1862 53.3887 92.1139 53.2105 92.1139 53.0252C92.1139 52.8398 92.1862 52.6616 92.3156 52.5277C92.4451 52.3938 92.6218 52.3145 92.8089 52.3064H103.588C103.686 52.3021 103.784 52.3175 103.876 52.3517C103.968 52.3859 104.052 52.4382 104.123 52.5053C104.194 52.5725 104.25 52.6532 104.289 52.7425C104.327 52.8319 104.347 52.928 104.347 53.0252C104.347 53.1223 104.327 53.2185 104.289 53.3078C104.25 53.3972 104.194 53.4778 104.123 53.545C104.052 53.6122 103.968 53.6644 103.876 53.6986C103.784 53.7328 103.686 53.7482 103.588 53.744Z" fill="#88CADB"/>
<path d="M12.2757 53.744H1.49515C1.30806 53.7359 1.13138 53.6566 1.00191 53.5227C0.872436 53.3887 0.800171 53.2105 0.800171 53.0252C0.800171 52.8399 0.872436 52.6617 1.00191 52.5278C1.13138 52.3938 1.30806 52.3146 1.49515 52.3064H12.2757C12.4628 52.3146 12.6395 52.3938 12.769 52.5278C12.8984 52.6617 12.9707 52.8399 12.9707 53.0252C12.9707 53.2105 12.8984 53.3887 12.769 53.5227C12.6395 53.6566 12.4628 53.7359 12.2757 53.744Z" fill="#88CADB"/>
</g>
<defs>
<clipPath id="clip0_535_2945">
<rect width="104.327" height="113" fill="white" transform="translate(0.434326)"/>
</clipPath>
</defs>
</svg>
