<svg width="139" height="133" viewBox="0 0 139 133" fill="none" xmlns="http://www.w3.org/2000/svg">
<g clip-path="url(#clip0_535_2988)">
<path d="M131.207 104.54H127.639C127.374 104.54 127.12 104.436 126.933 104.25C126.746 104.064 126.641 103.812 126.641 103.549C126.641 103.286 126.746 103.033 126.933 102.847C127.12 102.662 127.374 102.557 127.639 102.557H131.207C132.64 102.558 134.016 101.993 135.031 100.986C136.046 99.9801 136.617 98.6147 136.621 97.1899V7.35006C136.617 5.92526 136.046 4.55988 135.031 3.55364C134.016 2.54739 132.64 1.98249 131.207 1.98293H7.5839C6.15156 1.9838 4.77809 2.54944 3.76496 3.55569C2.75184 4.56194 2.18183 5.92657 2.18007 7.35006V97.1899C2.18183 98.6134 2.75184 99.9781 3.76496 100.984C4.77809 101.991 6.15156 102.556 7.5839 102.557H81.0576C81.3222 102.557 81.5759 102.662 81.763 102.847C81.9501 103.033 82.0552 103.286 82.0552 103.549C82.0552 103.812 81.9501 104.064 81.763 104.25C81.5759 104.436 81.3222 104.54 81.0576 104.54H7.5839C5.62252 104.539 3.7418 103.764 2.35459 102.386C0.967373 101.008 0.187016 99.1392 0.184814 97.1899L0.184814 7.35006C0.187016 5.4008 0.967373 3.53205 2.35459 2.15403C3.7418 0.776007 5.62252 0.00131199 7.5839 0L131.207 0C133.169 0.000433636 135.052 0.774531 136.441 2.15246C137.83 3.53039 138.612 5.39962 138.616 7.35006V97.1899C138.612 99.1404 137.83 101.01 136.441 102.388C135.052 103.765 133.169 104.54 131.207 104.54Z" fill="#DEB9C1"/>
<path d="M108.428 104.54H108.153C107.889 104.54 107.635 104.436 107.448 104.25C107.261 104.064 107.156 103.812 107.156 103.549C107.156 103.286 107.261 103.033 107.448 102.848C107.635 102.662 107.889 102.557 108.153 102.557H108.428C108.692 102.557 108.946 102.662 109.133 102.848C109.32 103.033 109.425 103.286 109.425 103.549C109.425 103.812 109.32 104.064 109.133 104.25C108.946 104.436 108.692 104.54 108.428 104.54Z" fill="#DEB9C1"/>
<path d="M137.617 18.0777H1.18244C0.917856 18.0777 0.664105 17.9732 0.477013 17.7873C0.289921 17.6013 0.184814 17.3491 0.184814 17.0862C0.184814 16.8232 0.289921 16.5711 0.477013 16.3851C0.664105 16.1992 0.917856 16.0947 1.18244 16.0947H137.617C137.881 16.0947 138.135 16.1992 138.322 16.3851C138.509 16.5711 138.614 16.8232 138.614 17.0862C138.614 17.3491 138.509 17.6013 138.322 17.7873C138.135 17.9732 137.881 18.0777 137.617 18.0777Z" fill="#DEB9C1"/>
<path d="M65.2352 59.2368H33.8747C33.4065 59.2363 32.9576 59.0513 32.6266 58.7223C32.2955 58.3933 32.1093 57.9472 32.1089 57.4819V26.3152C32.1093 25.8499 32.2955 25.4038 32.6266 25.0748C32.9576 24.7458 33.4065 24.5607 33.8747 24.5603H65.2352C65.7033 24.5607 66.1522 24.7458 66.4833 25.0748C66.8143 25.4038 67.0005 25.8499 67.001 26.3152V57.4819C67.0005 57.9472 66.8143 58.3933 66.4833 58.7223C66.1522 59.0513 65.7033 59.2363 65.2352 59.2368ZM34.1041 57.2538H65.0057V26.5432H34.1041V57.2538Z" fill="#DEB9C1"/>
<path d="M104.923 59.2368H73.5622C73.094 59.2363 72.6451 59.0513 72.3141 58.7223C71.983 58.3933 71.7968 57.9472 71.7964 57.4819V26.3152C71.7968 25.8499 71.983 25.4038 72.3141 25.0748C72.6451 24.7458 73.094 24.5607 73.5622 24.5603H104.923C105.391 24.5607 105.84 24.7458 106.171 25.0748C106.502 25.4038 106.688 25.8499 106.688 26.3152V57.4819C106.688 57.9472 106.502 58.3933 106.171 58.7223C105.84 59.0513 105.391 59.2363 104.923 59.2368ZM73.7916 57.2538H104.693V26.5432H73.7916V57.2538Z" fill="#DEB9C1"/>
<path d="M65.2352 97.2461H33.8747C33.4066 97.2452 32.958 97.06 32.627 96.7311C32.2961 96.4022 32.1098 95.9563 32.1089 95.4912V64.3245C32.1093 63.8592 32.2955 63.4131 32.6266 63.0841C32.9576 62.7551 33.4065 62.57 33.8747 62.5696H65.2352C65.7033 62.57 66.1522 62.7551 66.4833 63.0841C66.8143 63.4131 67.0005 63.8592 67.001 64.3245V95.4912C67.0005 95.9565 66.8143 96.4026 66.4833 96.7316C66.1522 97.0606 65.7033 97.2456 65.2352 97.2461ZM34.1041 95.2631H65.0057V64.5525H34.1041V95.2631Z" fill="#DEB9C1"/>
<path d="M101.406 97.2444H101.175C100.91 97.2444 100.656 97.1399 100.469 96.954C100.282 96.768 100.177 96.5159 100.177 96.2529C100.177 95.99 100.282 95.7378 100.469 95.5518C100.656 95.3659 100.91 95.2614 101.175 95.2614H101.406C102.277 95.2606 103.113 94.9161 103.729 94.3036C104.345 93.6912 104.692 92.8607 104.693 91.9946V67.8194C104.692 66.9532 104.345 66.1228 103.729 65.5103C103.113 64.8979 102.277 64.5534 101.406 64.5525H77.0803C76.2087 64.5534 75.3731 64.8979 74.7569 65.5103C74.1406 66.1228 73.794 66.9532 73.7931 67.8194V91.9946C73.794 92.8607 74.1406 93.6912 74.7569 94.3036C75.3731 94.9161 76.2087 95.2606 77.0803 95.2614H89.243C89.5076 95.2614 89.7614 95.3659 89.9485 95.5518C90.1356 95.7378 90.2407 95.99 90.2407 96.2529C90.2407 96.5159 90.1356 96.768 89.9485 96.954C89.7614 97.1399 89.5076 97.2444 89.243 97.2444H77.0803C75.6797 97.2431 74.3369 96.6895 73.3465 95.7053C72.3561 94.7211 71.7992 93.3865 71.7979 91.9946V67.8194C71.7992 66.4275 72.3561 65.0929 73.3465 64.1087C74.3369 63.1244 75.6797 62.5709 77.0803 62.5696H101.406C102.806 62.5709 104.149 63.1244 105.14 64.1087C106.13 65.0929 106.687 66.4275 106.688 67.8194V91.9946C106.687 93.3865 106.13 94.7211 105.14 95.7053C104.149 96.6895 102.806 97.2431 101.406 97.2444Z" fill="#DEB9C1"/>
<path d="M108.15 109.03C107.885 109.03 107.632 108.925 107.445 108.739C107.257 108.553 107.152 108.301 107.152 108.038V101.939C107.151 101.195 106.852 100.482 106.321 99.9562C106.06 99.6916 105.748 99.4821 105.403 99.3401C105.059 99.1982 104.689 99.1267 104.316 99.13C103.566 99.13 102.847 99.4259 102.317 99.9528C101.787 100.48 101.489 101.194 101.489 101.939C101.489 102.202 101.384 102.454 101.197 102.64C101.01 102.826 100.756 102.931 100.492 102.931C100.227 102.931 99.9732 102.826 99.7861 102.64C99.599 102.454 99.4939 102.202 99.4939 101.939C99.4939 100.668 100.002 99.4493 100.906 98.5506C101.81 97.6519 103.037 97.147 104.316 97.147C104.953 97.1435 105.584 97.2671 106.172 97.5107C106.76 97.7542 107.293 98.1127 107.739 98.5648C108.633 99.4634 109.136 100.675 109.139 101.939V108.038C109.139 108.3 109.035 108.551 108.85 108.736C108.665 108.922 108.413 109.028 108.15 109.03Z" fill="#DEB9C1"/>
<path d="M115.8 112.024C115.535 112.024 115.282 111.919 115.095 111.733C114.907 111.548 114.802 111.295 114.802 111.032V104.93C114.81 104.333 114.614 103.751 114.247 103.278L114.19 103.198C114.125 103.106 114.051 103.02 113.969 102.942C113.684 102.659 113.34 102.44 112.962 102.301C112.584 102.161 112.179 102.104 111.777 102.134C111.375 102.163 110.983 102.278 110.63 102.471C110.276 102.665 109.969 102.931 109.728 103.253L109.709 103.278C109.341 103.75 109.144 104.332 109.151 104.93C109.151 105.193 109.046 105.445 108.859 105.631C108.672 105.817 108.418 105.921 108.153 105.921C107.889 105.921 107.635 105.817 107.448 105.631C107.261 105.445 107.156 105.193 107.156 104.93C107.152 103.893 107.494 102.885 108.128 102.061C108.54 101.512 109.066 101.056 109.671 100.727C110.276 100.397 110.945 100.2 111.633 100.151C112.321 100.101 113.011 100.199 113.658 100.438C114.304 100.677 114.891 101.051 115.379 101.536C115.553 101.703 115.71 101.887 115.847 102.086C116.468 102.905 116.802 103.904 116.798 104.93V111.029C116.798 111.16 116.773 111.289 116.723 111.41C116.673 111.53 116.599 111.64 116.507 111.732C116.414 111.825 116.304 111.898 116.183 111.948C116.061 111.998 115.931 112.024 115.8 112.024Z" fill="#DEB9C1"/>
<path d="M119.376 133H95.1607C94.2906 133.003 93.4397 132.746 92.7186 132.262C91.9975 131.778 91.4394 131.09 91.1169 130.287L80.3509 105.963C80.0803 105.363 79.9544 104.709 79.9833 104.053C80.0122 103.396 80.195 102.756 80.5171 102.182C80.9176 101.462 81.5189 100.873 82.2488 100.484C82.9786 100.096 83.8058 99.926 84.6307 99.9942H84.6939C85.2309 100.075 85.7415 100.279 86.1847 100.591C86.6279 100.903 86.9914 101.314 87.2461 101.79L87.469 102.205L92.0298 110.515V87.786C92.0298 86.5401 92.5278 85.3451 93.4143 84.4641C94.3008 83.5831 95.5032 83.0881 96.7569 83.0881C98.0106 83.0881 99.2129 83.5831 100.099 84.4641C100.986 85.3451 101.484 86.5401 101.484 87.786V109.488C101.484 109.75 101.379 110.003 101.192 110.189C101.005 110.375 100.751 110.479 100.486 110.479C100.222 110.479 99.968 110.375 99.7809 110.189C99.5938 110.003 99.4887 109.75 99.4887 109.488V87.786C99.4887 87.066 99.2009 86.3754 98.6886 85.8663C98.1762 85.3571 97.4814 85.0711 96.7569 85.0711C96.0323 85.0711 95.3375 85.3571 94.8252 85.8663C94.3129 86.3754 94.025 87.066 94.025 87.786V114.39C94.0244 114.61 93.9503 114.824 93.8143 114.997C93.6783 115.17 93.4882 115.294 93.2738 115.348C93.0594 115.403 92.833 115.385 92.6301 115.297C92.4271 115.209 92.2592 115.057 92.1528 114.865L85.7131 103.132L85.482 102.721C85.3764 102.525 85.2271 102.355 85.0456 102.225C84.8641 102.094 84.6551 102.007 84.4345 101.969C83.9948 101.939 83.5556 102.034 83.1685 102.244C82.7815 102.453 82.4627 102.769 82.2497 103.152C82.0803 103.458 81.985 103.8 81.9714 104.149C81.9579 104.499 82.0264 104.846 82.1715 105.165L92.9443 129.504L92.9576 129.537C93.13 129.976 93.432 130.353 93.8241 130.618C94.2161 130.884 94.6797 131.025 95.154 131.024H119.376C119.981 131.028 120.564 130.799 121.003 130.385C121.441 129.971 121.702 129.405 121.729 128.805L122.429 114.947V108.873C122.419 108.16 122.136 107.478 121.639 106.964C121.141 106.451 120.466 106.144 119.749 106.107C119.033 106.07 118.329 106.306 117.781 106.765C117.233 107.225 116.88 107.874 116.796 108.582C116.796 108.663 116.796 108.747 116.796 108.873C116.796 109.136 116.691 109.388 116.504 109.574C116.317 109.76 116.063 109.864 115.798 109.864C115.534 109.864 115.28 109.76 115.093 109.574C114.906 109.388 114.801 109.136 114.801 108.873C114.801 107.926 115.083 107 115.612 106.213C116.141 105.425 116.893 104.811 117.772 104.448C118.652 104.085 119.621 103.988 120.555 104.172C121.49 104.355 122.349 104.809 123.024 105.477C123.473 105.922 123.829 106.452 124.07 107.035C124.312 107.618 124.434 108.242 124.431 108.873V114.972C124.431 114.988 124.431 115.005 124.431 115.022L123.731 128.902C123.677 130.011 123.194 131.057 122.382 131.821C121.571 132.584 120.494 133.007 119.376 133Z" fill="#DEB9C1"/>
<path d="M11.3417 10.63H11.2419C10.7789 10.63 10.3349 10.4472 10.0074 10.1218C9.68003 9.79646 9.49609 9.35514 9.49609 8.89497C9.49609 8.43481 9.68003 7.99349 10.0074 7.6681C10.3349 7.34271 10.7789 7.15991 11.2419 7.15991H11.3417C11.8047 7.15991 12.2488 7.34271 12.5762 7.6681C12.9036 7.99349 13.0876 8.43481 13.0876 8.89497C13.0876 9.35514 12.9036 9.79646 12.5762 10.1218C12.2488 10.4472 11.8047 10.63 11.3417 10.63Z" fill="#DEB9C1"/>
<path d="M18.7041 10.63H18.606C18.1429 10.63 17.6989 10.4472 17.3715 10.1218C17.044 9.79646 16.8601 9.35514 16.8601 8.89497C16.8601 8.43481 17.044 7.99349 17.3715 7.6681C17.6989 7.34271 18.1429 7.15991 18.606 7.15991H18.7041C19.1671 7.15991 19.6112 7.34271 19.9386 7.6681C20.266 7.99349 20.4499 8.43481 20.4499 8.89497C20.4499 9.35514 20.266 9.79646 19.9386 10.1218C19.6112 10.4472 19.1671 10.63 18.7041 10.63Z" fill="#DEB9C1"/>
<path d="M26.0683 10.63H25.9685C25.5055 10.63 25.0614 10.4472 24.734 10.1218C24.4066 9.79646 24.2227 9.35514 24.2227 8.89497C24.2227 8.43481 24.4066 7.99349 24.734 7.6681C25.0614 7.34271 25.5055 7.15991 25.9685 7.15991H26.0683C26.5313 7.15991 26.9754 7.34271 27.3028 7.6681C27.6302 7.99349 27.8141 8.43481 27.8141 8.89497C27.8141 9.35514 27.6302 9.79646 27.3028 10.1218C26.9754 10.4472 26.5313 10.63 26.0683 10.63Z" fill="#DEB9C1"/>
</g>
<defs>
<clipPath id="clip0_535_2988">
<rect width="138.434" height="133" fill="white" transform="translate(0.184814)"/>
</clipPath>
</defs>
</svg>
