<svg width="190" height="77" viewBox="0 0 190 77" fill="none" xmlns="http://www.w3.org/2000/svg">
<path d="M7.63897 73.9011H0V71.5958L6.78154 64.0938H10.64V71.713H12.8615V73.8621H10.64V76.2065H7.67795V73.9011H7.63897ZM7.63897 66.5944L3.11795 71.7521H7.63897V66.5944Z" fill="#008BAD"/>
<path d="M14.7322 63.7817H26.3466V66.1652H18.084V68.744H25.9179V71.0103H18.084V73.8626H26.3855V76.2461H14.6932V63.7817H14.7322Z" fill="#008BAD"/>
<path d="M28.6461 63.7817H32.0369V66.0089C32.0369 68.2361 30.9066 69.6427 28.6461 69.9553V68.744C29.7764 68.4315 30.1271 67.9235 30.2051 66.7513H28.6461V63.7817Z" fill="#008BAD"/>
<path d="M36.4801 73.3544C36.636 74.175 37.1816 74.6829 38.7796 74.6829C40.1827 74.6829 41.0011 74.3313 41.0011 73.667C41.0011 73.1591 40.7283 72.9246 39.2473 72.7293L36.4411 72.3385C34.4924 72.065 33.3621 71.4789 33.3621 69.6815C33.3621 67.1418 35.9344 66.5166 38.4678 66.5166C42.7939 66.5166 43.7683 67.9232 44.0021 69.6815H40.6114C40.4555 68.7047 39.4421 68.4312 38.5457 68.4312C37.7273 68.4312 36.558 68.5093 36.558 69.408C36.558 69.8378 36.7919 70.1504 38.117 70.2676L40.2606 70.5021C43.3786 70.8537 44.3919 71.7524 44.3919 73.3935C44.3919 76.1677 41.2739 76.5584 38.6237 76.5584C35.077 76.5584 33.2842 75.5425 33.1283 73.3154H36.4801V73.3544Z" fill="#008BAD"/>
<path d="M63.0215 68.4702C62.7097 66.6728 61.2287 65.7741 59.4748 65.7741C56.2789 65.7741 55.5774 68.2748 55.5774 69.994C55.5774 71.6742 56.2399 74.2139 59.4748 74.2139C61.1117 74.2139 62.7097 73.4325 63.0215 71.4397H66.6851C66.2564 75.0735 63.2943 76.5974 59.3189 76.5974C54.7979 76.5974 51.9528 74.6437 51.9528 69.994C51.9528 65.3443 54.7589 63.3906 59.3189 63.3906C62.3199 63.3906 66.1394 64.1721 66.6461 68.4702H63.0215Z" fill="#008BAD"/>
<path d="M75.3374 63.4297C82.041 63.4297 83.0933 67.4152 83.0933 70.0331C83.0933 72.651 82.041 76.6365 75.3374 76.6365C68.6339 76.6365 67.5815 72.651 67.5815 70.0331C67.5815 67.4152 68.6728 63.4297 75.3374 63.4297ZM75.3374 74.2139C78.4164 74.2139 79.4687 71.9477 79.4687 69.994C79.4687 68.0403 78.3774 65.7741 75.3374 65.7741C72.2585 65.7741 71.2062 68.0403 71.2062 69.994C71.2062 71.9477 72.2974 74.2139 75.3374 74.2139Z" fill="#008BAD"/>
<path d="M95.2534 63.7817H98.5272V76.2461H94.8636L88.0821 67.5328H88.0431V76.2461H84.7693V63.7817H88.7057L95.2534 72.4951H95.2924V63.7817H95.2534Z" fill="#008BAD"/>
<path d="M109.323 67.3761C109.128 65.735 107.569 65.5787 106.205 65.5787C104.802 65.5787 103.906 66.2039 103.906 67.0635C103.906 67.7278 104.451 68.0794 105.348 68.2357L109.596 68.9C111.856 69.2516 113.571 70.1112 113.571 72.3775C113.571 74.7219 112.012 76.5583 107.102 76.5583C104.062 76.5583 100.125 76.1676 100.086 72.2603H103.906C103.945 73.9795 105.66 74.253 107.102 74.253C108.7 74.253 109.752 73.7841 109.752 72.6901C109.752 71.7132 108.972 71.4788 107.647 71.2444L104.568 70.7755C102.425 70.4238 100.32 69.7987 100.32 67.2589C100.32 64.4847 102.581 63.3516 106.478 63.3516C109.05 63.3516 112.831 63.7814 113.065 67.337H109.323V67.3761Z" fill="#008BAD"/>
<path d="M114.974 63.7817H118.365V70.9322C118.365 72.1434 118.404 74.2143 121.522 74.2143C124.64 74.2143 124.679 72.1434 124.679 70.9322V63.7817H128.07V71.7918C128.07 73.1984 127.914 76.5978 121.522 76.5978C115.169 76.5978 114.974 73.1593 114.974 71.7918V63.7817Z" fill="#008BAD"/>
<path d="M130.291 63.7817H133.682V73.7845H141.282V76.2852H130.33V63.7817H130.291Z" fill="#008BAD"/>
<path d="M144.673 66.1261H140.035V63.7427H152.663V66.1261H148.025V76.2461H144.634V66.1261H144.673Z" fill="#008BAD"/>
<path d="M153.871 63.7817H157.262V76.2461H153.871V63.7817Z" fill="#008BAD"/>
<path d="M170.123 63.7817H173.397V76.2461H169.733L162.913 67.5328V76.2461H159.639V63.7817H163.575L170.123 72.4951H170.162V63.7817H170.123Z" fill="#008BAD"/>
<path d="M183.647 69.2907H190V76.2457H188.285L187.817 74.8C186.648 76.0894 184.739 76.5974 182.595 76.5974C178.074 76.5974 175.229 74.6437 175.229 69.994C175.229 66.1258 177.879 63.3906 182.595 63.3906C186.064 63.3906 189.299 64.4065 189.922 67.845H186.142C185.635 66.243 184.193 65.7741 182.985 65.7741C179.906 65.7741 178.853 68.0403 178.853 69.994C178.853 71.9477 179.945 74.2139 182.985 74.2139C184.816 74.2139 186.259 73.5106 186.648 71.4397H183.647V69.2907Z" fill="#008BAD"/>
<path d="M186.064 59.522H185.323V59.2876H187.116V59.522H186.375V61.5929H186.102V59.522H186.064ZM189.454 59.2876H189.922V61.5929H189.649V59.522L188.831 61.5929H188.636L187.817 59.522V61.5929H187.545V59.2876H188.012L188.753 61.1631L189.454 59.2876Z" fill="#008BAD"/>
<path d="M133.877 30.061L114.507 49.4804L108.699 43.6585L128.07 24.2782L124.211 20.3708L104.841 39.7903L99.0338 33.9683L118.404 14.588L114.546 10.6807L95.1754 30.1001H95.1364L75.8051 10.7197L71.9466 14.588L91.2779 34.0074L85.5097 39.8293L66.1395 20.4099L62.281 24.2782L81.6123 43.6976L75.8441 49.5195L56.4738 30.1001L52.6154 33.9683L71.9466 53.3878L75.8441 57.256L95.1754 37.8757L114.507 57.256L118.365 53.3878V53.3487L137.735 33.9683L133.877 30.061Z" fill="#008BAD"/>
<path d="M56.4738 28.0681L75.8441 47.4484L79.7025 43.5801L60.3323 24.1607L66.1395 18.3779L85.5097 37.7582L89.3682 33.89L69.9979 14.4705L75.8051 8.6877L95.1754 28.0681L99.0338 24.1998L114.546 8.64863L120.314 14.4705L100.983 33.8509L104.841 37.7582L124.211 18.3388L129.979 24.1607L110.648 43.5411L114.507 47.4484L133.877 28.029L137.735 24.1607L114.507 0.873047L110.648 4.78037L95.1364 20.2925L79.6636 4.78037L75.8051 0.91212L52.6154 24.1607L56.4738 28.0681Z" fill="#008BAD"/>
<path d="M118.755 0.638737H118.014V0.404297H119.807V0.638737H119.067V2.70962H118.794V0.638737H118.755ZM122.107 0.404297H122.574V2.70962H122.302V0.638737L121.483 2.70962H121.327L120.509 0.638737V2.70962H120.236V0.404297H120.704L121.444 2.27981L122.107 0.404297Z" fill="#008BAD"/>
</svg>
