<svg width="187" height="75" viewBox="0 0 187 75" fill="none" xmlns="http://www.w3.org/2000/svg">
<path d="M7.51836 72.3462H0V70.077L6.67446 62.6924H10.472V70.1924H12.6585V72.3078H10.472V74.6155H7.55672V72.3462H7.51836ZM7.51836 65.1539L3.06872 70.2308H7.51836V65.1539Z" fill="white"/>
<path d="M14.4998 62.3843H25.9308V64.7304H17.7987V67.2689H25.5088V69.4997H17.7987V72.3074H25.9691V74.6535H14.4614V62.3843H14.4998Z" fill="white"/>
<path d="M28.1938 62.3843H31.5311V64.5766C31.5311 66.7689 30.4187 68.1535 28.1938 68.4612V67.2689C29.3063 66.9612 29.6515 66.4612 29.7282 65.3074H28.1938V62.3843Z" fill="white"/>
<path d="M35.9041 71.8074C36.0575 72.6151 36.5946 73.1151 38.1673 73.1151C39.5482 73.1151 40.3537 72.769 40.3537 72.1151C40.3537 71.6151 40.0852 71.3844 38.6276 71.192L35.8657 70.8074C33.9478 70.5382 32.8354 69.9613 32.8354 68.192C32.8354 65.692 35.3671 65.0767 37.8604 65.0767C42.1182 65.0767 43.0772 66.4613 43.3074 68.192H39.9701C39.8167 67.2305 38.8194 66.9613 37.9371 66.9613C37.1316 66.9613 35.9808 67.0382 35.9808 67.9228C35.9808 68.3459 36.211 68.6536 37.5152 68.769L39.6249 68.9997C42.6936 69.3459 43.691 70.2305 43.691 71.8459C43.691 74.5767 40.6222 74.9613 38.0138 74.9613C34.5232 74.9613 32.7587 73.9613 32.6052 71.769H35.9041V71.8074Z" fill="white"/>
<path d="M62.0265 67C61.7197 65.2308 60.262 64.3462 58.5359 64.3462C55.3904 64.3462 54.7 66.8077 54.7 68.5C54.7 70.1538 55.3521 72.6538 58.5359 72.6538C60.1469 72.6538 61.7197 71.8846 62.0265 69.9231H65.6323C65.2103 73.5 62.295 75 58.3824 75C53.9328 75 51.1326 73.0769 51.1326 68.5C51.1326 63.9231 53.8944 62 58.3824 62C61.3361 62 65.0952 62.7692 65.5939 67H62.0265Z" fill="white"/>
<path d="M74.1478 62.0386C80.7456 62.0386 81.7813 65.9616 81.7813 68.5386C81.7813 71.1155 80.7456 75.0386 74.1478 75.0386C67.5501 75.0386 66.5144 71.1155 66.5144 68.5386C66.5144 65.9616 67.5885 62.0386 74.1478 62.0386ZM74.1478 72.654C77.1782 72.654 78.2139 70.4232 78.2139 68.5001C78.2139 66.577 77.1398 64.3463 74.1478 64.3463C71.1175 64.3463 70.0818 66.577 70.0818 68.5001C70.0818 70.4232 71.1558 72.654 74.1478 72.654Z" fill="white"/>
<path d="M93.7492 62.3843H96.9714V74.6535H93.3656L86.6912 66.0766H86.6528V74.6535H83.4307V62.3843H87.3049L93.7492 70.9612H93.7876V62.3843H93.7492Z" fill="white"/>
<path d="M107.597 65.923C107.405 64.3076 105.871 64.1537 104.528 64.1537C103.147 64.1537 102.265 64.7691 102.265 65.6153C102.265 66.2691 102.802 66.6153 103.684 66.7691L107.865 67.423C110.09 67.7691 111.778 68.6153 111.778 70.846C111.778 73.1537 110.244 74.9614 105.41 74.9614C102.418 74.9614 98.5442 74.5768 98.5059 70.7307H102.265C102.303 72.423 103.991 72.6922 105.41 72.6922C106.983 72.6922 108.019 72.2307 108.019 71.1537C108.019 70.1922 107.252 69.9614 105.948 69.7307L102.917 69.2691C100.807 68.923 98.736 68.3076 98.736 65.8076C98.736 63.0768 100.961 61.9614 104.797 61.9614C107.328 61.9614 111.049 62.3845 111.279 65.8845H107.597V65.923Z" fill="white"/>
<path d="M113.159 62.3843H116.496V69.4227C116.496 70.615 116.535 72.6535 119.603 72.6535C122.672 72.6535 122.71 70.615 122.71 69.4227V62.3843H126.048V70.2689C126.048 71.6535 125.894 74.9997 119.603 74.9997C113.351 74.9997 113.159 71.615 113.159 70.2689V62.3843Z" fill="white"/>
<path d="M128.234 62.3843H131.571V72.2304H139.051V74.692H128.272V62.3843H128.234Z" fill="white"/>
<path d="M142.388 64.6923H137.824V62.3462H150.252V64.6923H145.687V74.6539H142.35V64.6923H142.388Z" fill="white"/>
<path d="M151.441 62.3843H154.778V74.6535H151.441V62.3843Z" fill="white"/>
<path d="M167.437 62.3843H170.659V74.6535H167.053L160.341 66.0766V74.6535H157.118V62.3843H160.993L167.437 70.9612H167.475V62.3843H167.437Z" fill="white"/>
<path d="M180.747 67.8077H187V74.6538H185.312L184.852 73.2308C183.701 74.5 181.822 75 179.712 75C175.262 75 172.462 73.0769 172.462 68.5C172.462 64.6923 175.07 62 179.712 62C183.126 62 186.31 63 186.923 66.3846H183.202C182.704 64.8077 181.284 64.3462 180.095 64.3462C177.065 64.3462 176.029 66.5769 176.029 68.5C176.029 70.4231 177.103 72.6538 180.095 72.6538C181.898 72.6538 183.318 71.9615 183.701 69.9231H180.747V67.8077Z" fill="white"/>
<path d="M55.5822 27.2307L74.6466 46.3076L78.4442 42.4999L59.3797 23.3845L65.0952 17.6922L84.1596 36.7691L87.9572 32.9614L68.8928 13.846L74.6083 8.15373L93.6727 27.2307L97.4702 23.423L112.737 8.11527L118.414 13.846L99.3881 32.923L103.186 36.7691L122.25 17.6537L127.927 23.3845L108.901 42.4614L112.699 46.3076L131.763 27.1922L135.561 23.3845L112.699 0.461426L108.901 4.30758L93.6343 19.5768L78.4058 4.30758L74.6083 0.499887L51.7847 23.3845L55.5822 27.2307Z" fill="white"/>
</svg>
