<svg width="1920" height="512" viewBox="0 0 1920 512" fill="none" xmlns="http://www.w3.org/2000/svg">
<mask id="mask0_277_47" style="mask-type:alpha" maskUnits="userSpaceOnUse" x="0" y="0" width="1920" height="512">
<rect width="1920" height="512" fill="#C4C4C4"/>
</mask>
<g mask="url(#mask0_277_47)">
<mask id="mask1_277_47" style="mask-type:alpha" maskUnits="userSpaceOnUse" x="-136" y="-127" width="2192" height="640">
<g clip-path="url(#clip0_277_47)">
<path d="M-117.749 209.889L-117.771 209.54L-114.854 212.135L-115.262 213.781L-115.026 217.393L-115.433 219.04L-116.153 215.91L-117.908 217.949L-115.707 220.099L-115.841 220.687L-115.273 221.486L-115.486 223.478L-114.904 224.51L-115.06 224.748L-114.199 227.407L-115.113 229.186L-114.245 231.961L-114.74 234.895L-113.015 237.643L-114.374 240.487L-114.869 243.421L-113.494 246.063L-113.628 246.651L-113.612 246.884L-114.504 249.013L-114.485 251.93L-115.501 254.763L-114.633 257.538L-114.279 260.329L-114.431 263.252L-112.774 264.952L-112.024 268.548L-111.872 270.878L-111.99 271.699L-111.982 271.815L-111.906 272.98L-111.887 275.898L-113.166 277.338L-113.49 280.267L-111.594 283.01L-112.268 285.832L-112.256 288.634L-109.667 291.472L-111.026 294.316L-109.876 296.148L-110.409 298.499L-111.681 300.056L-110.032 301.64L-109.56 303.609L-108.433 305.092L-108.402 305.558L-110.611 308.545L-110.771 311.352L-108.532 314.084L-110.576 316.949L-108.501 319.803L-107.64 322.462L-108.984 325.538L-108.432 326.105L-109.487 328.355L-106.562 331.067L-107.579 333.9L-107.225 336.691L-109.776 339.688L-109.079 342.468L-108.211 345.243L-107.514 348.023L-108.181 350.962L-106.627 353.716L-106.958 356.528L-107.975 359.361L-106.071 362.22L-106.745 365.043L-107.419 367.865L-104.315 370.688L-104.132 373.484L-106.006 376.343L-105.309 379.124L-104.604 382.02L-106.992 384.896L-104.924 387.634L-105.598 390.456L-102.837 393.289L-103.682 396.117L-103.5 398.913L-103.488 401.714L-102.784 404.611L-102.601 407.407L-104.303 410.261L-103.778 413.047L-101.873 415.906L-104.946 418.803L-103.735 421.567L-102.094 423.034L-101.435 425.232L-103.705 427.286L-101.169 429.309L-101.085 430.591L-101.07 430.824L-102.996 432.868L-102.806 435.78L-101.424 438.539L-102.955 441.388L-99.5081 444.2L-102.581 447.097L-100.513 449.835L-102.722 452.821L-99.7973 455.533L-98.7576 458.302L-100.117 461.146L-101.983 464.122L-99.9152 466.86L-100.589 469.682L-97.4932 472.388L-100.216 475.391L-100.89 478.213L-100.707 481.01L-98.4679 483.742L-95.2233 486.093L-93.6848 488.614L-90.6725 490.039L-85.4781 490.695L-80.7562 489.382L-75.2799 489.096L-69.9295 489.515L-64.6172 489.351L-59.2591 489.886L-54.5522 488.339L-48.6571 489.208L-43.8437 489.293L-38.5845 488.313L-34.0147 489.923L-28.8433 490.23L-23.3825 489.712L-18.1881 490.368L-13.1081 489.277L-8.16887 488.658L-2.82607 488.96L2.27685 488.219L6.98379 486.672L11.923 486.053L17.2887 486.704L22.422 486.429L27.407 486.509L32.4642 485.068L37.7765 484.904L42.6661 486.154L47.5254 486.938L52.2284 487.96L56.2994 489.819L61.1511 490.486L66.7908 490.079L71.1816 491.577L76.3379 491.652L81.22 492.785L86.3153 491.927L91.502 492.467L96.6583 492.542L101.555 493.908L106.956 492.457L112.112 492.531L117.097 492.611L122.127 493.389L126.868 494.994L132.299 494.009L137.306 494.438L142.337 495.217L147.634 494.82L152.745 494.195L157.916 494.502L162.939 495.164L168.183 493.952L173.347 494.142L178.526 494.566L183.705 494.99L189.01 494.709L194.219 495.599L199.246 493.693L204.806 494.688L209.917 494.063L215.012 493.206L220.301 492.692L225.225 491.84L229.753 490.182L234.871 489.674L239.571 488.011L244.921 488.43L249.853 487.694L254.419 486.619L260.314 487.487L265.222 486.402L269.96 485.322L273.95 483.331L279.255 483.05L282.313 479.921L287.603 479.407L292.348 478.443L298.01 478.385L301.978 476.045L306.895 475.076L311.803 473.99L317.348 474.753L322.272 473.9L327.337 472.576L332.47 472.301L337.79 472.254L342.977 472.794L348.118 472.635L353.312 473.292L358.32 473.721L363.233 475.32L368.389 475.394L373.56 475.702L378.991 474.717L384.014 475.379L389.185 475.686L394.265 474.595L399.608 474.897L404.981 475.665L410.256 474.919L414.94 473.023L420.835 473.891L424.974 471.546L430.264 471.032L435.74 470.746L440.275 469.205L445.572 468.808L449.697 466.229L455.771 467.209L460.477 465.663L465.797 465.615L470.466 463.487L475.561 462.629L481.106 463.392L485.977 461.724L491.358 462.608L496.476 462.1L501.362 460.665L506.765 461.899L511.899 461.623L516.815 460.654L521.678 458.87L527.074 459.987L532.013 459.368L537.147 459.093L542.288 458.934L547.166 457.382L552.277 456.758L557.433 456.832L562.364 456.096L567.273 455.01L573.042 456.583L577.555 454.693L583.271 455.45L587.986 454.021L592.514 452.363L597.841 452.432L603.34 452.496L608.032 450.716L612.933 449.515L618.439 449.695L623.923 449.525L628.569 447.047L634.083 447.344L639.495 448.694L644.628 448.419L650.081 447.784L655.691 446.91L660.744 448.038L666.041 447.641L671.243 448.414L676.483 449.77L681.853 447.853L687.272 449.32L692.584 449.156L697.912 449.225L703.365 448.589L708.67 448.309L713.582 449.908L718.925 450.21L724.112 450.75L728.689 452.477L733.735 453.488L739.554 453.192L743.983 455.273L749.943 454.505L754.208 456.708L759.722 457.005L764.596 458.022L770.103 458.202L775.899 457.556L781.242 457.858L786.436 458.515L791.467 459.293L796.817 459.712L801.871 460.84L807.057 461.38L812.533 461.094L817.275 462.699L822.157 463.832L827.477 463.785L832.374 465.151L837.53 465.225L843.006 464.939L848.208 465.713L853.669 465.194L858.395 466.565L863.879 466.396L869.05 466.703L873.643 468.663L878.689 469.674L883.876 470.214L889.211 470.4L894.375 470.591L899.695 470.543L904.866 470.85L910.483 470.093L915.617 469.818L920.544 471.65L925.826 471.02L930.864 471.915L936.116 470.819L941.242 470.427L946.421 470.851L951.524 470.11L956.882 470.645L962.03 470.602L967.156 470.211L971.981 467.844L977.107 467.452L982.503 468.569L987.652 468.527L992.724 467.32L997.956 468.559L1003.14 466.414L1008.4 468.12L1013.47 466.912L1018.76 466.282L1023.92 466.473L1029.12 467.246L1034.22 466.389L1039.45 467.628L1044.73 466.998L1049.83 466.256L1055.07 467.496L1060.15 466.521L1065.46 466.241L1070.83 466.892L1075.7 465.224L1081.02 465.177L1086.13 464.669L1091.48 465.087L1096.6 464.579L1102.01 465.813L1107.44 464.828L1112.91 464.542L1118.27 465.077L1123.77 465.141L1129.07 464.86L1134.26 462.715L1139.87 464.527L1145.23 462.493L1150.62 463.494L1156.14 463.791L1161.41 463.044L1166.84 462.059L1172.39 462.938L1177.47 461.731L1182.5 462.51L1187.64 462.467L1192.65 462.896L1197.88 461.451L1202.89 461.88L1207.84 461.493L1213.04 462.15L1218.19 462.108L1223.05 460.323L1228.18 460.048L1233.36 460.472L1238.73 461.123L1243.88 461.081L1248.95 459.874L1254.21 459.011L1259.28 460.255L1264.46 460.796L1269.74 460.165L1274.77 460.944L1279.64 461.844L1284.95 461.68L1289.54 463.523L1294.73 464.18L1300.19 463.545L1305.48 463.147L1310.76 462.401L1315.91 462.475L1321.23 462.428L1326.68 464.361L1331.94 463.381L1337.22 462.634L1342.59 463.402L1347.91 463.355L1353.11 461.443L1358.47 462.095L1363.72 460.882L1369.11 461.883L1374.23 461.491L1379.57 461.677L1384.83 460.697L1390.09 459.834L1395.45 460.369L1400.76 460.205L1406.07 459.924L1411.35 459.294L1416.58 460.417L1421.62 458.744L1427.05 460.444L1432.15 459.586L1437.24 458.728L1442.55 458.564L1447.67 458.056L1452.91 459.412L1458.12 457.617L1463.27 457.574L1468.47 458.347L1473.8 458.416L1478.95 458.374L1484.07 457.982L1489.38 457.818L1494.91 458.231L1500.1 456.203L1505.48 457.204L1510.71 455.642L1516.29 456.987L1521.55 456.008L1526.99 455.256L1532.43 456.956L1537.63 455.161L1543.14 455.341L1548.44 454.944L1553.75 454.78L1559.16 456.13L1564.54 454.33L1569.86 454.282L1575.18 454.235L1580.46 453.605L1586.02 454.6L1591.13 453.976L1596.5 454.627L1601.83 454.813L1606.95 454.304L1612.26 454.14L1617.15 452.822L1622.24 451.847L1627.14 450.645L1632.88 451.752L1637.78 450.55L1642.66 448.999L1648.26 450.577L1653.09 448.327L1658.69 449.905L1663.94 448.809L1669.21 447.946L1674.68 447.66L1680.03 447.962L1685.49 447.443L1690.86 448.211L1696.43 446.755L1701.7 448.576L1707.17 448.174L1712.51 448.359L1717.98 448.074L1723.42 447.205L1728.67 446.109L1734.41 447.216L1739.53 446.708L1744.66 446.432L1749.74 445.342L1755.08 445.527L1760.13 446.655L1765.42 446.142L1770.46 447.037L1775.74 446.407L1781.17 445.422L1786.12 447.604L1791.13 445.464L1796.47 445.65L1800.65 444.003L1806.51 444.289L1811.4 442.854L1816.74 443.156L1822.11 443.807L1826.67 445.417L1832.03 445.952L1836.75 447.207L1841.63 448.341L1846.51 449.357L1851.13 451.783L1856.37 450.454L1860.9 448.796L1866.77 449.432L1871.7 448.579L1876.21 446.689L1881.32 446.064L1885.86 444.523L1890.95 443.666L1896.06 443.041L1900.61 441.616L1905.89 440.986L1911.28 441.987L1916.42 441.829L1921.65 440.499L1926.86 441.389L1932 441.23L1937.19 439.086L1942.34 439.044L1947.52 439.584L1952.9 440.352L1957.92 438.445L1963.16 439.685L1968.41 438.589L1973.54 438.313L1978.72 438.737L1984.09 439.505L1989.11 437.482L1994.31 438.139L1999.58 437.392L2004.84 439.098L2009.95 438.473L2015.21 437.493L2020.36 437.451L2025.59 438.574L2030.68 437.716L2036.02 438.018L2041.06 436.228L2046.22 436.419L2050.67 436.165L2053.95 433.845L2052.73 430.848L2050.83 428.105L2050.99 425.298L2051.83 422.354L2049.25 419.632L2048.03 416.868L2048.19 413.945L2049.03 411.117L2050.73 408.263L2047.8 405.435L2048.65 402.607L2049.32 399.785L2049.82 396.851L2049.46 394.06L2049.79 391.248L2046.52 388.431L2049.08 385.55L2045.98 382.844L2048.19 379.858L2046.29 377.114L2048 374.26L2045.58 371.416L2046.94 368.573L2046.57 368.234L2046.91 368.223L2048.7 364.082L2046.83 361.689L2047.75 360.026L2047.91 357.219L2047.39 354.434L2046.18 351.669L2044.82 349.26L2045.49 346.437L2044.03 342.513L2044.27 340.872L2044.56 340.046L2046.62 337.414L2044.72 334.671L2045.22 331.854L2046.23 328.904L2044 326.288L2044.39 324.292L2045.12 319.833L2043.95 317.651L2044.63 314.828L2044.27 312.038L2043.64 310.306L2045.11 306.525L2043.79 302.13L2044.19 297.682L2042.88 296.088L2042.64 295.044L2043.66 292.211L2042 290.511L2042.58 288.859L2041.44 284.459L2041.36 283.294L2042.75 280.916L2041.7 278.03L2041.46 276.87L2041.55 275.7L2041.95 271.252L2039.6 266.888L2040.68 262.419L2039.71 258.013L2038.97 254.534L2041.41 252.59L2040.55 249.815L2039.57 248.094L2040.72 244.673L2039.59 240.389L2038.78 235.978L2038.33 234.241L2039.95 232.79L2037.75 230.64L2037.86 227.135L2038.09 222.692L2037.49 221.426L2038.34 218.715L2035.76 215.993L2035.44 213.784L2038.24 209.379L2037.62 207.764L2037.94 207.403L2037 206.148L2036.58 204.994L2037.84 200.519L2035.15 196.166L2035.89 191.707L2037.83 187.212L2035.88 183.77L2036.11 182.011L2034.9 179.247L2036.25 176.287L2035.35 175.614L2035.94 174.079L2033.67 170.997L2033.83 170.758L2032.84 168.804L2033.34 165.871L2033.47 165.166L2035.67 162.18L2035.15 159.394L2033.54 158.393L2032.55 156.439L2035.17 151.922L2035.06 147.49L2034.08 143.084L2032.95 141.485L2033.35 139.721L2032.37 127.377L2032.93 125.492L2032.18 124.465L2031.49 116.548L2032.41 112.2L2032.12 107.773L2030.97 103.373L2030.34 98.9564L2028.37 95.1647L2028.51 94.6934L2030.04 91.8445L2028.21 90.0334L2027.25 85.8605L2027.4 85.5057L2030.31 82.8474L2030.27 76.8952L2029.64 75.1636L2029.79 74.8088L2029.61 74.6976L2028.51 70.996L2028.1 69.9581L2028.4 69.2485L2028.04 66.4577L2028.08 64.4719L2028.21 63.7676L2028.95 59.3088L2028.14 54.8976L2028.2 50.4599L2025.59 47.3885L2025.37 46.6948L2024.79 45.6622L2025.59 42.1354L2026.72 40.9333L2025.28 39.9271L2024.83 38.4232L2024.93 37.2529L2027.55 32.7359L2026.25 31.1418L2026.84 29.7227L2027.15 23.8764L2025.48 22.06L2026.01 19.5923L2023.66 15.2288L2023.79 14.5245L2025 12.0356L2024.57 8.19635L2024.63 6.44354L2023.31 2.04821L2024.22 -2.41588L2022.91 -6.81117L2022.79 -11.2435L2024.21 -15.7235L2024.1 -20.0394L2022.61 -24.4294L2022.84 -28.8723L2020.83 -33.2465L2021.92 -37.7158L2022.14 -42.1588L2019.62 -46.517L2021.06 -50.8805L2021.11 -55.3182L2019.79 -59.7135L2018.13 -64.0982L2017.51 -68.3982L2019.27 -72.8887L2020.35 -77.3581L2018.69 -81.7429L2017.89 -86.154L2013.38 -89.4003L2010.7 -91.0684L2005.67 -94.5318L1998.93 -95.1409L1993.43 -97.7729L1986.7 -98.2655L1980.16 -98.5304L1974.29 -96.4811L1968.4 -94.6649L1962.11 -93.6535L1956.43 -91.2601L1949.97 -90.2435L1943.5 -89.3433L1938.57 -86.039L1932.1 -85.1389L1925.63 -84.2388L1919.94 -81.9618L1912.7 -82.4386L1907.58 -79.362L1900.74 -78.9172L1895.8 -75.613L1888.39 -76.0844L1882.5 -74.2681L1877.36 -71.4245L1871.07 -70.5297L1865.75 -67.7973L1859.19 -68.2952L1853.12 -66.5902L1846.59 -66.7386L1840.93 -69.2488L1834.28 -68.5764L1827.94 -68.264L1821.77 -70.7583L1814.92 -70.5466L1808.09 -69.8689L1801.27 -69.1912L1794.42 -68.863L1787.64 -67.4863L1780.8 -67.0416L1773.72 -67.7567L1767.26 -66.74L1760.41 -69.0967L1754.04 -66.6821L1747.55 -66.1314L1740.82 -66.624L1734.19 -68.1705L1727.84 -65.5228L1721.04 -67.0639L1714.55 -66.6298L1707.69 -66.4181L1701.01 -66.2117L1694.3 -66.4713L1687.61 -66.2649L1680.8 -65.4707L1674.44 -68.0763L1667.57 -68.0976L1660.78 -66.9539L1654.1 -66.7474L1647.38 -67.007L1640.69 -67.0337L1633.8 -67.288L1627.06 -67.8971L1620.51 -65.7102L1613.53 -67.3625L1607.21 -64.2488L1600.52 -64.159L1593.75 -65.2341L1587.07 -65.0277L1580.54 -65.1761L1573.99 -65.5575L1567.21 -64.0642L1561.05 -66.4421L1554.48 -67.0564L1547.75 -67.5491L1540.92 -67.1044L1534.49 -65.6217L1528.03 -64.6051L1521.77 -63.1278L1515.76 -60.4907L1508.68 -61.2058L1502.04 -60.3003L1495.5 -60.4488L1488.8 -60.5918L1482.36 -61.7941L1475.38 -60.9946L1468.92 -62.5463L1462.07 -62.3346L1455.43 -63.9975L1448.66 -62.5043L1441.99 -62.1814L1435.13 -64.6545L1428.59 -62.2346L1421.64 -63.5374L1414.86 -62.1607L1407.77 -62.8757L1401.22 -60.5723L1394.37 -60.3606L1387.32 -60.4931L1380.42 -60.9805L1373.85 -59.0265L1366.81 -59.0425L1359.97 -58.5979L1352.99 -57.6819L1346.19 -59.223L1339.3 -59.5938L1332.54 -60.5524L1325.54 -59.9859L1318.69 -59.6577L1311.84 -59.3295L1305.23 -58.0746L1297.89 -60.0659L1292.11 -56.5021L1284.87 -56.9788L1278.44 -55.4962L1271.69 -56.3383L1264.89 -55.3111L1258.26 -56.8575L1251.22 -56.8735L1244.85 -57.1437L1238.86 -59.4103L1232.6 -60.6178L1226.04 -61.1157L1219.32 -58.807L1213.03 -60.4805L1206.45 -58.7596L1200.09 -58.7968L1193.49 -59.9937L1186.93 -60.4916L1180.68 -58.8977L1174.2 -58.2306L1168.12 -56.6421L1161.38 -57.3677L1154.86 -57.2831L1148.24 -56.1447L1141.83 -54.3125L1134.69 -55.8431L1128.36 -52.9624L1121.45 -53.4498L1114.65 -52.539L1107.73 -53.2593L1100.93 -52.2322L1094.22 -52.3753L1087.27 -53.6781L1080.53 -51.7189L1073.75 -52.9105L1066.91 -52.5823L1060.05 -52.3706L1053.33 -52.7467L1046.42 -50.7822L1039.75 -52.9111L1032.92 -52.3499L1026.08 -51.9052L1019.35 -52.5143L1013.07 -53.9548L1006.92 -56.0996L1000.21 -56.3592L994.087 -58.038L987.655 -59.2403L981.387 -60.5642L974.064 -59.6376L968.679 -63.2069L961.505 -62.6352L955.385 -64.3139L948.507 -64.4518L942.106 -65.188L935.525 -66.0354L929.813 -69.361L922.848 -68.2121L916.134 -68.4717L909.539 -69.5521L903.099 -70.8708L896.484 -69.6159L889.927 -70.1138L883.407 -70.0292L876.716 -69.9393L870.452 -68.5784L863.654 -70.1196L857.458 -67.7102L850.497 -69.1295L844 -68.6954L837.534 -67.7953L831.129 -65.9632L824.624 -65.6456L818.021 -66.8425L811.448 -67.5734L804.818 -66.5515L798.394 -67.6372L791.726 -67.1978L785.419 -69.1043L779.033 -69.6075L772.681 -66.9598L766.348 -66.6475L759.356 -68.5328L753.519 -65.9011L746.759 -66.8597L740.712 -64.8051L734.478 -62.9783L727.882 -64.0587L721.446 -62.6926L714.976 -64.4773L708.472 -64.1597L701.937 -64.3081L695.528 -65.1608L688.875 -64.4884L682.436 -65.8071L675.924 -65.606L669.419 -65.2884L662.824 -66.3688L656.319 -66.0512L649.777 -66.3161L643.356 -64.7169L636.791 -65.3313L630.131 -64.7754L623.942 -62.2496L617.354 -63.2135L610.957 -61.2648L604.468 -60.7142L597.963 -60.3966L591.204 -61.3552L584.638 -61.9697L578.256 -59.788L571.706 -60.1694L565.118 -61.1333L558.503 -59.8784L551.93 -60.6093L545.38 -60.9907L538.838 -61.2556L532.326 -61.0545L525.94 -61.5577L519.108 -60.9965L512.565 -61.2614L506.891 -64.0046L500.162 -64.4972L493.604 -64.9951L487.805 -67.034L480.973 -66.4728L474.571 -67.209L468.094 -69.1102L461.574 -69.0256L454.837 -69.6347L448.192 -68.8458L441.532 -68.2899L435.005 -68.3218L428.401 -69.5187L421.779 -68.3803L415.019 -69.3389L408.477 -69.6038L401.877 -68.1159L395.194 -67.9095L388.736 -66.8928L382.292 -65.6432L375.175 -66.8242L369.032 -63.5994L361.991 -63.6154L354.934 -63.8644L348.049 -64.1188L341.157 -64.4896L334.279 -64.6274L327.375 -62.5464L320.562 -64.3205L313.536 -64.1035L306.689 -63.7753L299.888 -62.7481L292.858 -65.216L286.342 -62.4465L278.718 -63.4952L272.633 -62.0231L266.048 -60.3022L259.201 -59.974L252.442 -60.9326L245.728 -61.1922L239.079 -63.0882L232.217 -62.993L225.663 -60.806L218.816 -60.4778L211.847 -62.0137L205.045 -60.9865L198.857 -58.4606L192.182 -58.1377L185.544 -57.2323L178.674 -57.2536L172.033 -59.033L165.06 -58.0005L158.666 -58.6202L151.929 -59.2294L145.448 -58.5622L138.376 -59.0442L131.746 -58.0224L125.364 -55.8407L118.456 -56.4445L111.498 -55.179L104.678 -57.0697L97.9412 -57.6788L91.117 -57.0011L84.3004 -56.2069L77.4458 -55.9952L70.6482 -57.5363L64.0488 -56.0484L57.2018 -55.7202L51.1543 -53.6656L44.3797 -54.8572L37.9286 -53.7241L31.3709 -54.222L24.9353 -52.8559L18.3471 -53.8198L11.9304 -54.789L5.33085 -53.3011L-1.02115 -55.9066L-7.39232 -56.1768L-14.0602 -55.7374L-20.321 -56.9449L-26.574 -58.0359L-33.1163 -58.3008L-39.9328 -57.5066L-46.2089 -58.9471L-52.6103 -59.6833L-57.2791 -62.8077L-64.6556 -62.6966L-71.2627 -61.3252L-77.8773 -60.0703L-85.0368 -59.2655L-90.33 -56.1836L-96.5488 -54.1238L-102.775 -52.1805L-108.247 -49.2098L-113.548 -46.2444L-119.409 -43.9621L-125.62 -41.7858L-130.228 -38.7251L-129.775 -34.4198L-128.971 -30.0086L-131.595 -25.4916L-129.599 -21.234L-130.338 -16.7751L-131.077 -12.3163L-129.245 -7.93691L-130.334 -3.58399L-128.502 0.795419L-126.156 5.15899L-127.066 9.62308L-128.841 13.9972L-125.295 18.3237L-124.663 22.7402L-125.573 27.2042L-125.463 31.5201L-123.974 35.9101L-127.626 40.4589L-127.172 44.7642L-123.456 49.0854L-123.57 52.591L-126.94 56.1972L-126.037 62.1229L-123.642 64.6171L-124.19 66.7353L-124.586 71.1836L-123.448 75.4676L-124.529 79.9371L-120.991 84.147L-121.73 88.6059L-121.612 93.0382L-121.395 93.7319L-122.194 97.2587L-121.261 98.3973L-123.44 101.85L-122.415 104.387L-124.323 104.095L-124.959 107.5L-122.586 109.645L-122.861 110.704L-122.48 111.276L-122.903 112.69L-124.471 114.956L-123.538 116.095L-124.049 118.796L-123.173 121.687L-122.99 124.483L-120.244 127.083L-120.221 127.433L-121.76 130.165L-121.92 132.972L-120.872 135.858L-122.917 138.723L-121.021 141.466L-119.981 144.235L-122.35 150.029L-121.535 151.988L-122.331 152.946L-120.533 154.175L-119.913 155.79L-119.844 156.839L-121.443 158.639L-119.593 160.683L-119.695 161.737L-119.829 162.325L-121.078 164.231L-120.495 165.264L-121.028 167.615L-118.686 169.294L-118.477 169.871L-120.864 172.746L-119.139 175.495L-117.235 178.354L-117.909 181.177L-120.125 184.047L-120.106 186.965L-117.212 189.21L-117.524 189.687L-116.9 193.987L-116.325 194.903L-116.466 195.374L-116.397 196.423L-116.374 196.772L-116.351 197.122L-116.283 198.17L-115.826 205.16L-118.221 207.919L-118.484 206.527L-118.213 208.036L-118.689 208.634L-117.749 209.889Z" fill="#008BAD"/>
</g>
</mask>
<g mask="url(#mask1_277_47)">
<g style="mix-blend-mode:multiply">
<rect x="-46" y="-25.3994" width="2006" height="561.462" fill="#008BAD"/>
</g>
</g>
</g>
<defs>
<clipPath id="clip0_277_47">
<rect width="2154.59" height="573.711" fill="white" transform="matrix(-0.999523 0.0308683 -0.0652502 -0.997869 2055 445.492)"/>
</clipPath>
</defs>
</svg>
