<svg width="1920" height="176" viewBox="0 0 1920 176" fill="none" xmlns="http://www.w3.org/2000/svg">
<mask id="mask0_285_2358" style="mask-type:alpha" maskUnits="userSpaceOnUse" x="0" y="0" width="1920" height="176">
<rect width="1920" height="176" fill="#C4C4C4"/>
</mask>
<g mask="url(#mask0_285_2358)">
<mask id="mask1_285_2358" style="mask-type:alpha" maskUnits="userSpaceOnUse" x="-136" y="-44" width="2192" height="220">
<g clip-path="url(#clip0_285_2358)">
<path d="M-117.748 72.1485L-117.771 72.0284L-114.854 72.9203L-115.262 73.4865L-115.026 74.7279L-115.433 75.2941L-116.153 74.2182L-117.908 74.919L-115.707 75.6581L-115.84 75.8602L-115.273 76.1351L-115.486 76.8195L-114.904 77.1745L-115.06 77.2564L-114.199 78.1702L-115.113 78.7818L-114.245 79.7357L-114.74 80.7441L-113.015 81.6889L-114.374 82.6664L-114.869 83.6749L-113.494 84.5832L-113.628 84.7853L-113.612 84.8654L-114.503 85.5972L-114.484 86.6002L-115.501 87.574L-114.633 88.5279L-114.279 89.4872L-114.431 90.492L-112.774 91.0764L-112.024 92.3124L-111.872 93.1133L-111.99 93.3955L-111.982 93.4355L-111.906 93.836L-111.887 94.839L-113.166 95.3341L-113.49 96.3408L-111.594 97.2837L-112.268 98.254L-112.256 99.2169L-109.666 100.193L-111.026 101.17L-109.876 101.8L-110.409 102.608L-111.681 103.143L-110.032 103.688L-109.56 104.365L-108.433 104.875L-108.402 105.035L-110.611 106.061L-110.771 107.026L-108.531 107.965L-110.576 108.95L-108.501 109.931L-107.64 110.845L-108.984 111.903L-108.432 112.098L-109.487 112.871L-106.562 113.803L-107.579 114.777L-107.225 115.736L-109.776 116.767L-109.079 117.722L-108.211 118.676L-107.514 119.632L-108.18 120.642L-106.627 121.589L-106.958 122.555L-107.974 123.529L-106.071 124.512L-106.745 125.483L-107.418 126.453L-104.315 127.423L-104.132 128.384L-106.006 129.367L-105.309 130.323L-104.604 131.319L-106.992 132.307L-104.924 133.248L-105.598 134.218L-102.837 135.192L-103.682 136.164L-103.499 137.125L-103.488 138.088L-102.783 139.084L-102.601 140.045L-104.303 141.026L-103.777 141.984L-101.873 142.967L-104.946 143.963L-103.735 144.913L-102.094 145.417L-101.435 146.173L-103.705 146.879L-101.168 147.574L-101.085 148.015L-101.069 148.095L-102.996 148.797L-102.806 149.799L-101.423 150.747L-102.954 151.726L-99.5078 152.693L-102.581 153.689L-100.513 154.63L-102.722 155.656L-99.7971 156.588L-98.7574 157.541L-100.117 158.518L-101.983 159.541L-99.9151 160.482L-100.589 161.452L-97.4931 162.383L-100.216 163.415L-100.89 164.385L-100.707 165.346L-98.4677 166.285L-95.2232 167.094L-93.6846 167.96L-90.6724 168.45L-85.478 168.676L-80.7561 168.224L-75.2797 168.126L-69.9294 168.27L-64.6169 168.213L-59.259 168.397L-54.5521 167.866L-48.657 168.164L-43.8437 168.193L-38.5843 167.857L-34.0147 168.41L-28.8432 168.516L-23.3822 168.337L-18.1881 168.563L-13.1079 168.188L-8.16873 167.975L-2.82581 168.079L2.27692 167.824L6.98394 167.293L11.9232 167.08L17.2888 167.304L22.4221 167.209L27.4071 167.236L32.4643 166.741L37.7767 166.685L42.6661 167.115L47.5255 167.384L52.2285 167.735L56.2996 168.374L61.1512 168.604L66.7909 168.464L71.1818 168.979L76.3379 169.004L81.2202 169.394L86.3154 169.099L91.5022 169.285L96.6584 169.31L101.556 169.78L106.956 169.281L112.112 169.307L117.097 169.334L122.127 169.602L126.869 170.153L132.299 169.815L137.307 169.962L142.337 170.23L147.634 170.093L152.745 169.879L157.916 169.984L162.939 170.212L168.183 169.795L173.347 169.86L178.526 170.006L183.705 170.152L189.01 170.055L194.219 170.361L199.246 169.706L204.806 170.048L209.917 169.833L215.012 169.539L220.302 169.362L225.226 169.069L229.753 168.499L234.871 168.324L239.571 167.753L244.921 167.897L249.853 167.644L254.419 167.274L260.314 167.573L265.222 167.2L269.96 166.828L273.951 166.144L279.255 166.048L282.313 164.972L287.603 164.795L292.348 164.464L298.01 164.444L301.978 163.639L306.895 163.306L311.804 162.933L317.348 163.195L322.272 162.902L327.337 162.447L332.47 162.353L337.79 162.336L342.977 162.522L348.118 162.467L353.312 162.693L358.32 162.841L363.233 163.39L368.389 163.416L373.56 163.522L378.991 163.183L384.014 163.411L389.185 163.516L394.265 163.141L399.608 163.245L404.981 163.509L410.256 163.252L414.94 162.601L420.835 162.899L424.974 162.093L430.264 161.916L435.74 161.818L440.275 161.288L445.572 161.152L449.697 160.265L455.771 160.602L460.477 160.071L465.797 160.054L470.466 159.323L475.562 159.028L481.106 159.29L485.977 158.717L491.358 159.021L496.476 158.846L501.362 158.353L506.766 158.777L511.899 158.682L516.815 158.349L521.678 157.736L527.074 158.12L532.014 157.907L537.147 157.812L542.288 157.758L547.166 157.224L552.277 157.01L557.433 157.035L562.365 156.782L567.273 156.409L573.043 156.95L577.555 156.3L583.271 156.56L587.986 156.069L592.514 155.499L597.841 155.523L603.34 155.544L608.032 154.933L612.933 154.52L618.439 154.582L623.923 154.523L628.569 153.672L634.083 153.773L639.495 154.238L644.628 154.143L650.081 153.925L655.691 153.624L660.744 154.012L666.041 153.876L671.243 154.141L676.483 154.607L681.853 153.949L687.272 154.453L692.584 154.396L697.912 154.42L703.365 154.202L708.67 154.105L713.582 154.655L718.925 154.759L724.112 154.945L728.689 155.538L733.735 155.886L739.554 155.784L743.983 156.499L749.943 156.235L754.208 156.993L759.722 157.095L764.597 157.444L770.103 157.506L775.899 157.284L781.242 157.388L786.436 157.614L791.467 157.881L796.817 158.025L801.871 158.413L807.057 158.598L812.534 158.5L817.275 159.052L822.157 159.441L827.477 159.425L832.374 159.895L837.53 159.92L843.006 159.822L848.208 160.088L853.669 159.909L858.395 160.381L863.879 160.323L869.05 160.428L873.643 161.102L878.689 161.45L883.876 161.635L889.211 161.699L894.375 161.765L899.695 161.748L904.866 161.854L910.483 161.594L915.617 161.499L920.544 162.129L925.826 161.912L930.864 162.22L936.116 161.843L941.242 161.708L946.421 161.854L951.524 161.599L956.882 161.783L962.03 161.769L967.156 161.634L971.981 160.82L977.107 160.686L982.503 161.07L987.652 161.055L992.724 160.64L997.957 161.066L1003.14 160.329L1008.4 160.915L1013.47 160.5L1018.76 160.284L1023.92 160.349L1029.12 160.615L1034.22 160.32L1039.45 160.746L1044.73 160.53L1049.83 160.275L1055.07 160.701L1060.16 160.366L1065.46 160.269L1070.83 160.493L1075.7 159.92L1081.02 159.904L1086.13 159.729L1091.48 159.873L1096.6 159.698L1102.01 160.122L1107.44 159.784L1112.91 159.685L1118.27 159.869L1123.77 159.891L1129.07 159.795L1134.26 159.057L1139.87 159.68L1145.23 158.981L1150.62 159.325L1156.14 159.427L1161.41 159.171L1166.84 158.832L1172.39 159.134L1177.47 158.719L1182.5 158.987L1187.64 158.972L1192.65 159.12L1197.88 158.623L1202.89 158.77L1207.84 158.637L1213.04 158.863L1218.19 158.849L1223.05 158.235L1228.18 158.141L1233.36 158.286L1238.73 158.51L1243.88 158.496L1248.95 158.081L1254.21 157.784L1259.28 158.212L1264.46 158.398L1269.74 158.181L1274.77 158.449L1279.64 158.758L1284.95 158.702L1289.54 159.335L1294.73 159.561L1300.19 159.343L1305.48 159.206L1310.76 158.949L1315.91 158.975L1321.23 158.959L1326.68 159.623L1331.94 159.286L1337.22 159.03L1342.59 159.294L1347.91 159.277L1353.11 158.62L1358.47 158.844L1363.72 158.427L1369.11 158.771L1374.23 158.637L1379.57 158.7L1384.83 158.364L1390.09 158.067L1395.45 158.251L1400.76 158.195L1406.07 158.098L1411.35 157.881L1416.58 158.267L1421.62 157.692L1427.05 158.277L1432.15 157.982L1437.24 157.687L1442.55 157.63L1447.67 157.456L1452.91 157.922L1458.12 157.305L1463.27 157.29L1468.47 157.556L1473.8 157.58L1478.95 157.565L1484.07 157.431L1489.38 157.374L1494.91 157.516L1500.1 156.819L1505.48 157.163L1510.71 156.626L1516.29 157.089L1521.55 156.752L1526.99 156.493L1532.43 157.078L1537.63 156.461L1543.14 156.523L1548.44 156.386L1553.75 156.33L1559.16 156.794L1564.54 156.175L1569.86 156.159L1575.18 156.142L1580.46 155.926L1586.02 156.268L1591.13 156.053L1596.5 156.277L1601.83 156.341L1606.95 156.166L1612.26 156.11L1617.15 155.657L1622.24 155.322L1627.14 154.908L1632.88 155.289L1637.78 154.876L1642.66 154.342L1648.26 154.885L1653.09 154.111L1658.69 154.654L1663.94 154.277L1669.21 153.98L1674.68 153.882L1680.03 153.986L1685.49 153.808L1690.86 154.072L1696.43 153.571L1701.7 154.197L1707.17 154.059L1712.51 154.123L1717.98 154.024L1723.42 153.726L1728.67 153.349L1734.41 153.73L1739.53 153.555L1744.66 153.46L1749.74 153.085L1755.08 153.149L1760.13 153.537L1765.42 153.36L1770.46 153.668L1775.74 153.451L1781.17 153.113L1786.12 153.863L1791.13 153.127L1796.47 153.191L1800.65 152.625L1806.51 152.723L1811.4 152.23L1816.74 152.334L1822.11 152.558L1826.68 153.111L1832.03 153.295L1836.75 153.727L1841.63 154.116L1846.51 154.466L1851.13 155.299L1856.37 154.843L1860.9 154.273L1866.77 154.491L1871.7 154.198L1876.21 153.548L1881.32 153.334L1885.86 152.804L1890.95 152.509L1896.06 152.294L1900.61 151.805L1905.89 151.588L1911.28 151.932L1916.42 151.878L1921.65 151.421L1926.86 151.727L1932 151.672L1937.19 150.935L1942.34 150.92L1947.52 151.106L1952.9 151.37L1957.92 150.715L1963.16 151.141L1968.41 150.764L1973.54 150.669L1978.72 150.815L1984.09 151.079L1989.11 150.384L1994.31 150.609L1999.58 150.353L2004.84 150.939L2009.95 150.724L2015.21 150.387L2020.36 150.373L2025.59 150.759L2030.68 150.464L2036.02 150.568L2041.06 149.953L2046.22 150.018L2050.67 149.931L2053.95 149.133L2052.73 148.103L2050.83 147.16L2050.99 146.195L2051.83 145.183L2049.25 144.248L2048.03 143.297L2048.19 142.293L2049.03 141.321L2050.73 140.339L2047.8 139.367L2048.65 138.395L2049.32 137.425L2049.82 136.417L2049.46 135.457L2049.79 134.491L2046.52 133.522L2049.08 132.532L2045.98 131.602L2048.19 130.575L2046.29 129.632L2048 128.651L2045.58 127.673L2046.94 126.696L2046.57 126.579L2046.91 126.576L2048.7 125.152L2046.83 124.33L2047.75 123.758L2047.91 122.793L2047.39 121.836L2046.18 120.885L2044.82 120.057L2045.49 119.087L2044.03 117.738L2044.27 117.174L2044.56 116.89L2046.62 115.985L2044.72 115.042L2045.22 114.074L2046.23 113.06L2044 112.161L2044.39 111.474L2045.12 109.942L2043.95 109.192L2044.63 108.221L2044.27 107.262L2043.64 106.667L2045.11 105.367L2043.79 103.856L2044.19 102.327L2042.88 101.779L2042.64 101.421L2043.66 100.447L2042 99.8624L2042.58 99.2944L2041.44 97.7817L2041.36 97.3813L2042.75 96.5639L2041.7 95.5718L2041.46 95.1732L2041.55 94.7709L2041.95 93.2418L2039.6 91.7418L2040.68 90.2055L2039.71 88.691L2038.97 87.495L2041.41 86.827L2040.55 85.8731L2039.57 85.2815L2040.72 84.1056L2039.59 82.6329L2038.78 81.1165L2038.33 80.5195L2039.95 80.0207L2037.75 79.2816L2037.86 78.0766L2038.09 76.5493L2037.49 76.1143L2038.34 75.1823L2035.76 74.2466L2035.44 73.4875L2038.24 71.973L2037.62 71.4178L2037.94 71.294L2037 70.8626L2036.58 70.4658L2037.84 68.9276L2035.15 67.4312L2035.89 65.8985L2037.83 64.3531L2035.88 63.1698L2036.11 62.5655L2034.9 61.6153L2036.25 60.5977L2035.35 60.3665L2035.94 59.8386L2033.67 58.7792L2033.83 58.6973L2032.84 58.0256L2033.34 57.0171L2033.47 56.775L2035.67 55.7483L2035.15 54.7908L2033.54 54.4468L2032.55 53.7751L2035.17 52.2224L2035.06 50.6987L2034.08 49.1842L2032.95 48.6345L2033.35 48.0283L2032.37 43.7851L2032.93 43.137L2032.18 42.7839L2031.49 40.0625L2032.41 38.568L2032.12 37.0462L2030.97 35.5335L2030.34 34.0153L2028.37 32.712L2028.51 32.55L2030.04 31.5706L2028.21 30.9481L2027.25 29.5136L2027.4 29.3917L2030.31 28.4779L2030.27 26.4318L2029.64 25.8366L2029.79 25.7146L2029.61 25.6764L2028.51 24.404L2028.1 24.0472L2028.4 23.8032L2028.04 22.8439L2028.08 22.1613L2028.21 21.9192L2028.95 20.3865L2028.14 18.8701L2028.2 17.3447L2025.59 16.2889L2025.37 16.0504L2024.79 15.6955L2025.59 14.4831L2026.72 14.0699L2025.28 13.724L2024.83 13.2071L2024.93 12.8048L2027.55 11.252L2026.25 10.7041L2026.84 10.2163L2027.15 8.20661L2025.48 7.58222L2026.01 6.73395L2023.66 5.23398L2023.79 4.99187L2025 4.13632L2024.57 2.81659L2024.63 2.21405L2023.31 0.703166L2024.22 -0.831368L2022.91 -2.34225L2022.79 -3.86588L2024.21 -5.40586L2024.1 -6.88944L2022.61 -8.3985L2022.84 -9.92578L2020.83 -11.4294L2021.92 -12.9657L2022.14 -14.493L2019.62 -15.9911L2021.06 -17.4911L2021.11 -19.0165L2019.79 -20.5274L2018.13 -22.0347L2017.51 -23.5128L2019.27 -25.0564L2020.35 -26.5928L2018.69 -28.1L2017.89 -29.6164L2013.38 -30.7322L2010.7 -31.3057L2005.67 -32.4962L1998.93 -32.7056L1993.43 -33.6103L1986.7 -33.7797L1980.16 -33.8707L1974.29 -33.1663L1968.4 -32.542L1962.11 -32.1943L1956.43 -31.3716L1949.97 -31.0221L1943.5 -30.7127L1938.57 -29.5768L1932.1 -29.2674L1925.63 -28.958L1919.94 -28.1753L1912.7 -28.3392L1907.58 -27.2816L1900.74 -27.1287L1895.8 -25.9929L1888.39 -26.1549L1882.5 -25.5306L1877.36 -24.5531L1871.07 -24.2455L1865.75 -23.3062L1859.19 -23.4774L1853.12 -22.8913L1846.59 -22.9423L1840.93 -23.8052L1834.28 -23.574L1827.94 -23.4667L1821.77 -24.3241L1814.92 -24.2513L1808.09 -24.0184L1801.27 -23.7854L1794.42 -23.6726L1787.64 -23.1993L1780.8 -23.0465L1773.72 -23.2923L1767.26 -22.9428L1760.41 -23.7529L1754.04 -22.9229L1747.55 -22.7336L1740.82 -22.9029L1734.19 -23.4345L1727.84 -22.5244L1721.04 -23.0541L1714.55 -22.9049L1707.69 -22.8321L1701.01 -22.7612L1694.3 -22.8504L1687.61 -22.7795L1680.8 -22.5065L1674.44 -23.4021L1667.57 -23.4094L1660.78 -23.0163L1654.1 -22.9453L1647.38 -23.0346L1640.69 -23.0437L1633.8 -23.1311L1627.06 -23.3405L1620.51 -22.5888L1613.53 -23.1568L1607.21 -22.0865L1600.52 -22.0555L1593.75 -22.4251L1587.07 -22.3542L1580.54 -22.4052L1573.99 -22.5363L1567.21 -22.023L1561.05 -22.8404L1554.48 -23.0516L1547.75 -23.2209L1540.92 -23.068L1534.49 -22.5584L1528.03 -22.2089L1521.77 -21.7011L1515.76 -20.7946L1508.68 -21.0404L1502.04 -20.7292L1495.5 -20.7802L1488.8 -20.8294L1482.36 -21.2426L1475.38 -20.9678L1468.92 -21.5012L1462.07 -21.4284L1455.43 -22L1448.66 -21.4868L1441.99 -21.3758L1435.13 -22.2259L1428.59 -21.394L1421.64 -21.8419L1414.86 -21.3686L1407.77 -21.6144L1401.22 -20.8226L1394.37 -20.7499L1387.32 -20.7954L1380.42 -20.9629L1373.85 -20.2913L1366.81 -20.2968L1359.97 -20.1439L1352.99 -19.829L1346.19 -20.3588L1339.3 -20.4863L1332.54 -20.8158L1325.54 -20.6211L1318.69 -20.5082L1311.84 -20.3954L1305.23 -19.9641L1297.89 -20.6485L1292.11 -19.4235L1284.87 -19.5874L1278.44 -19.0777L1271.69 -19.3672L1264.89 -19.0141L1258.26 -19.5457L1251.22 -19.5512L1244.85 -19.6441L1238.86 -20.4232L1232.6 -20.8383L1226.04 -21.0094L1219.32 -20.2158L1213.03 -20.7911L1206.45 -20.1995L1200.09 -20.2123L1193.49 -20.6237L1186.93 -20.7949L1180.68 -20.247L1174.2 -20.0177L1168.12 -19.4716L1161.38 -19.721L1154.86 -19.692L1148.24 -19.3006L1141.83 -18.6708L1134.69 -19.197L1128.36 -18.2067L1121.45 -18.3743L1114.65 -18.0612L1107.73 -18.3088L1100.93 -17.9557L1094.22 -18.0049L1087.27 -18.4528L1080.53 -17.7793L1073.75 -18.1889L1066.91 -18.0761L1060.05 -18.0033L1053.33 -18.1326L1046.42 -17.4573L1039.75 -18.1891L1032.92 -17.9962L1026.08 -17.8433L1019.35 -18.0527L1013.07 -18.5479L1006.92 -19.2852L1000.21 -19.3744L994.087 -19.9515L987.655 -20.3647L981.387 -20.8199L974.064 -20.5013L968.679 -21.7283L961.505 -21.5318L955.385 -22.1088L948.508 -22.1562L942.106 -22.4093L935.526 -22.7006L929.813 -23.8438L922.848 -23.4488L916.134 -23.538L909.539 -23.9094L903.099 -24.3627L896.484 -23.9314L889.927 -24.1025L883.407 -24.0734L876.716 -24.0425L870.452 -23.5747L863.654 -24.1045L857.458 -23.2763L850.497 -23.7642L844 -23.615L837.534 -23.3055L831.129 -22.6757L824.625 -22.5666L818.021 -22.978L811.448 -23.2292L804.818 -22.878L798.394 -23.2512L791.726 -23.1001L785.42 -23.7555L779.033 -23.9285L772.681 -23.0183L766.348 -22.911L759.357 -23.5591L753.519 -22.6544L746.759 -22.9839L740.712 -22.2777L734.478 -21.6497L727.882 -22.0211L721.447 -21.5515L714.976 -22.165L708.472 -22.0558L701.937 -22.1068L695.528 -22.3999L688.875 -22.1688L682.436 -22.6221L675.924 -22.553L669.419 -22.4438L662.824 -22.8152L656.319 -22.706L649.777 -22.7971L643.356 -22.2473L636.791 -22.4586L630.131 -22.2675L623.943 -21.3992L617.354 -21.7305L610.957 -21.0607L604.468 -20.8714L597.963 -20.7622L591.204 -21.0918L584.639 -21.303L578.256 -20.553L571.706 -20.6841L565.118 -21.0155L558.503 -20.5841L551.93 -20.8354L545.38 -20.9665L538.838 -21.0575L532.326 -20.9884L525.94 -21.1614L519.108 -20.9684L512.566 -21.0595L506.891 -22.0025L500.162 -22.1718L493.605 -22.343L487.805 -23.0438L480.973 -22.8509L474.571 -23.104L468.094 -23.7575L461.574 -23.7284L454.838 -23.9378L448.192 -23.6666L441.532 -23.4756L435.005 -23.4865L428.401 -23.898L421.779 -23.5066L415.02 -23.8361L408.477 -23.9272L401.878 -23.4157L395.194 -23.3448L388.736 -22.9953L382.292 -22.5658L375.175 -22.9717L369.032 -21.8632L361.991 -21.8687L354.935 -21.9543L348.049 -22.0417L341.157 -22.1692L334.279 -22.2166L327.375 -21.5012L320.562 -22.1111L313.536 -22.0365L306.689 -21.9237L299.888 -21.5706L292.858 -22.4189L286.342 -21.4669L278.718 -21.8274L272.633 -21.3213L266.048 -20.7298L259.201 -20.617L252.442 -20.9465L245.728 -21.0357L239.079 -21.6875L232.217 -21.6547L225.663 -20.903L218.816 -20.7902L211.847 -21.3181L205.046 -20.965L198.858 -20.0967L192.182 -19.9857L185.544 -19.6745L178.674 -19.6818L172.033 -20.2935L165.06 -19.9386L158.666 -20.1516L151.93 -20.361L145.448 -20.1317L138.376 -20.2974L131.746 -19.9461L125.364 -19.1962L118.456 -19.4037L111.499 -18.9687L104.678 -19.6186L97.9413 -19.828L91.1172 -19.595L84.3006 -19.322L77.4458 -19.2492L70.6482 -19.779L64.0489 -19.2675L57.2018 -19.1547L51.1544 -18.4485L44.3799 -18.8581L37.9288 -18.4686L31.3711 -18.6397L24.9354 -18.1701L18.3472 -18.5015L11.9305 -18.8346L5.33098 -18.3232L-1.02106 -19.2188L-7.39212 -19.3117L-14.0601 -19.1606L-20.3208 -19.5757L-26.5739 -19.9507L-33.116 -20.0418L-39.9328 -19.7688L-46.2088 -20.264L-52.6102 -20.517L-57.279 -21.591L-64.6554 -21.5529L-71.2627 -21.0814L-77.8771 -20.6501L-85.0366 -20.3734L-90.3297 -19.314L-96.5485 -18.606L-102.775 -17.9379L-108.247 -16.9168L-113.548 -15.8974L-119.409 -15.1129L-125.62 -14.3648L-130.228 -13.3126L-129.774 -11.8327L-128.971 -10.3164L-131.595 -8.76363L-129.599 -7.30007L-130.338 -5.76736L-131.076 -4.23465L-129.245 -2.72922L-130.334 -1.23291L-128.502 0.272519L-126.156 1.7725L-127.066 3.30702L-128.841 4.81061L-125.295 6.29785L-124.663 7.81602L-125.573 9.35056L-125.463 10.8341L-123.974 12.3432L-127.626 13.9068L-127.172 15.3868L-123.455 16.8722L-123.57 18.0772L-126.94 19.3169L-126.037 21.3538L-123.642 22.2112L-124.19 22.9393L-124.586 24.4684L-123.448 25.9411L-124.529 27.4775L-120.991 28.9246L-121.73 30.4574L-121.612 31.981L-121.395 32.2194L-122.194 33.4318L-121.261 33.8232L-123.439 35.01L-122.415 35.882L-124.323 35.7818L-124.959 36.9523L-122.586 37.6895L-122.86 38.0536L-122.48 38.2502L-122.902 38.7362L-124.471 39.5153L-123.538 39.9067L-124.049 40.8351L-123.173 41.829L-122.99 42.7901L-120.244 43.6839L-120.221 43.804L-121.76 44.7433L-121.92 45.7081L-120.872 46.7002L-122.917 47.685L-121.021 48.6279L-119.981 49.58L-122.35 51.5714L-121.535 52.2449L-122.33 52.5744L-120.533 52.9967L-119.912 53.5519L-119.844 53.9124L-121.443 54.5313L-119.592 55.2339L-119.695 55.5962L-119.828 55.7982L-121.078 56.4536L-120.495 56.8085L-121.028 57.6167L-118.686 58.1938L-118.476 58.3922L-120.864 59.3807L-119.139 60.3254L-117.235 61.3084L-117.909 62.2787L-120.125 63.2653L-120.106 64.2683L-117.212 65.0401L-117.524 65.2039L-116.9 66.682L-116.325 66.997L-116.465 67.159L-116.397 67.5194L-116.374 67.6395L-116.351 67.7597L-116.283 68.1201L-115.825 70.523L-118.221 71.4713L-118.484 70.9926L-118.213 71.5114L-118.689 71.7171L-117.748 72.1485Z" fill="#008BAD"/>
</g>
</mask>
<g mask="url(#mask1_285_2358)">
<g style="mix-blend-mode:multiply">
<rect x="-46" y="-8.73096" width="2006" height="193.003" fill="#008BAD"/>
</g>
</g>
</g>
<defs>
<clipPath id="clip0_285_2358">
<rect width="2153.69" height="200.322" fill="white" transform="matrix(-0.999944 0.0106154 -0.186873 -0.982384 2055 153.138)"/>
</clipPath>
</defs>
</svg>
