<svg width="344" height="14" viewBox="0 0 344 14" fill="none" xmlns="http://www.w3.org/2000/svg">
<g clip-path="url(#clip0_395_3104)">
<path d="M249.081 0.14252C249.081 0.261264 248.706 0.368133 247.988 0.391882C247.453 0.404413 246.941 0.47901 246.521 0.605623C246.521 0.712493 245.959 0.700619 245.335 0.605623C244.711 0.510627 244.367 0.451255 244.243 0.605623C244.118 0.759991 243.369 0.843112 243.369 0.605623C243.369 0.368134 242.526 0.41563 240.435 0.427505C238.343 0.439379 237.563 0.4275 237.625 0.617491C237.688 0.807483 236.658 0.85498 236.377 0.617491C236.096 0.380002 236.096 0.474998 235.846 0.617491C235.597 0.759985 233.1 0.831234 233.1 0.712489C232.232 0.65721 231.356 0.621529 230.478 0.605624C229.431 0.588781 228.388 0.545142 227.356 0.475004C227.075 0.475004 226.857 0.475004 226.857 0.475004C226.857 0.475004 224.297 0.475003 224.016 0.344384C222.885 0.332648 221.759 0.409441 220.708 0.570002C217.587 0.914361 216.182 0.854983 216.619 0.415629C216.619 0.28501 216.619 0.178143 216.369 0.178143C216.12 0.178143 216.026 0.249387 216.182 0.332508C216.338 0.415629 216.182 0.486872 215.776 0.486872C215.624 0.483505 215.474 0.502609 215.358 0.540206C215.241 0.577803 215.168 0.631006 215.152 0.688745C215.152 0.819364 215.152 0.831239 214.84 0.688745C214.419 0.558719 213.882 0.494982 213.342 0.510627C212.686 0.510627 211.937 0.510627 211.719 0.510627C211.251 0.497249 210.781 0.497249 210.314 0.510627C209.377 0.510627 209.346 0.510626 210.127 0.759989C210.907 1.00935 210.688 0.985607 210.439 0.985607C209.927 0.912917 209.489 0.779757 209.19 0.605625L208.41 0.213765L207.973 0.688745C207.536 1.15185 206.974 1.27059 206.506 0.985607C206.428 0.94223 206.327 0.905897 206.208 0.879212C206.089 0.852527 205.956 0.836144 205.819 0.831233C205.538 0.831233 205.507 0.831238 205.819 1.02123C206.131 1.21122 205.975 1.2231 205.226 1.24685C204.477 1.2706 204.352 1.24684 204.727 1.13997C205.101 1.0331 205.039 0.985603 204.29 0.926231C203.269 0.83038 202.218 0.790398 201.168 0.807488C200.294 0.807489 200.263 0.807489 200.763 1.10435C201.262 1.40121 201.262 1.36559 200.232 1.10435C199.202 0.843112 195.675 0.72437 195.956 1.03311C195.956 1.15185 195.956 1.23497 195.613 1.23497C195.269 1.23497 195.051 1.16372 195.051 1.0806C195.051 0.997475 194.863 1.00935 194.583 1.0806C194.302 1.15184 193.053 1.31809 193.053 1.0806C193.054 1.05196 193.038 1.02362 193.008 0.997439C192.977 0.97126 192.932 0.947851 192.876 0.928759C192.82 0.909667 192.754 0.89533 192.682 0.886705C192.611 0.87808 192.535 0.875363 192.46 0.878733C192.117 0.878733 191.898 0.878739 192.023 0.949986C192.148 1.02123 192.023 1.1281 191.617 1.23497C191.211 1.34184 189.432 1.37746 189.432 1.09247C189.432 0.985603 189.245 0.997478 188.839 1.09247C188.434 1.18747 188.215 1.23497 187.997 1.09247C187.778 0.94998 187.56 0.985603 187.185 1.09247C186.81 1.19934 186.498 1.23497 186.311 1.18747C185.567 1.13941 184.808 1.13941 184.064 1.18747C183.002 1.18747 182.035 1.18747 181.941 1.18747C181.848 1.18747 181.442 1.18747 181.13 1.18747C180.817 1.18747 180.349 1.31809 179.6 1.11623C178.851 0.914362 178.539 0.926236 178.414 0.985608C177.324 1.09065 176.194 1.12278 175.074 1.0806C172.39 1.0806 171.766 1.0806 171.017 1.36559C170.267 1.65058 170.111 1.62683 170.111 1.54371C170.111 1.46059 169.674 1.41309 169.175 1.41309C168.676 1.41309 168.27 1.47246 168.395 1.86432C168.52 2.25617 168.395 2.27993 168.083 2.05431C167.944 1.97902 167.762 1.91649 167.552 1.87129C167.341 1.82609 167.106 1.79937 166.865 1.79307C166.223 1.74824 165.633 1.62779 165.18 1.44871C164.368 1.13998 164.275 1.1281 164.15 1.36559C164.025 1.60308 163.463 1.72182 163.057 1.48433C162.651 1.24684 160.56 1.29434 160.342 1.48433C160.123 1.67433 160.03 1.62683 159.499 1.48433C158.968 1.34184 158.843 1.30622 158.843 1.48433C158.843 1.66245 158.656 1.70995 158.438 1.65058C158.219 1.5912 158.032 1.65058 158.032 1.79307C158.032 1.93557 157.689 2.04243 157.189 2.04243C156.69 2.04243 156.44 1.95931 156.596 1.74557C156.67 1.67678 156.686 1.60086 156.642 1.52845C156.597 1.45605 156.494 1.39079 156.346 1.34184C156.065 1.25872 155.972 1.28247 156.159 1.34184C156.346 1.40121 155.972 1.48433 155.004 1.42496C153.412 1.32996 153.288 1.42497 154.224 1.75745C155.16 2.08994 154.817 1.99494 154.224 1.99494C153.631 1.99494 153.007 1.99493 153.131 1.72182C153.256 1.44871 152.882 1.51996 152.289 1.51996C151.963 1.52179 151.648 1.5648 151.394 1.6422C151.14 1.71959 150.96 1.82698 150.884 1.94744C150.541 2.23242 150.447 2.26805 150.541 2.04244C150.634 1.81682 150.541 1.7337 147.201 1.76932C145.297 1.76932 143.58 1.76932 143.393 1.76932C143.206 1.76932 143.393 1.88806 143.393 2.01868C143.393 2.1493 143.768 2.30367 143.643 2.36304C143.518 2.42241 143.393 2.36304 143.393 2.26804C143.393 2.17305 143.206 2.11368 142.987 2.16118C142.912 2.18876 142.811 2.20416 142.706 2.20416C142.602 2.20416 142.501 2.18876 142.425 2.16118C142.113 1.98306 140.303 2.04244 139.616 2.25618C138.929 2.46992 138.898 2.43429 138.711 2.41054C138.245 2.41405 137.783 2.44202 137.338 2.49366C136.414 2.57458 135.474 2.62622 134.528 2.64804C133.68 2.65862 132.839 2.71458 132.031 2.81428C131.532 2.88552 131.313 2.81427 131.313 2.69553C131.343 2.6132 131.423 2.53471 131.548 2.46657C131.673 2.39842 131.838 2.34258 132.031 2.30368C132.656 2.14931 132.656 2.13743 132.031 2.12556C131.848 2.12451 131.666 2.13887 131.499 2.1676C131.332 2.19634 131.183 2.23874 131.064 2.2918C130.964 2.33733 130.828 2.36981 130.677 2.38471C130.526 2.39962 130.367 2.39619 130.221 2.37492C129.94 2.37492 129.753 2.37492 129.878 2.37492C130.003 2.37492 128.848 2.73115 128.255 2.52928C127.662 2.32742 127.693 2.41054 127.693 2.52928C127.693 2.64803 126.101 2.73115 125.851 2.52928C125.601 2.32742 125.164 2.35117 123.573 2.44616C122.767 2.50083 121.943 2.50083 121.138 2.44616C121.083 2.43205 121.019 2.42295 120.953 2.41956C120.887 2.41616 120.82 2.41857 120.757 2.4266C120.693 2.43462 120.636 2.44804 120.588 2.46584C120.541 2.48364 120.505 2.50534 120.483 2.52928C120.264 2.6599 119.889 2.6599 119.14 2.52928C118.391 2.39867 118.11 2.42242 118.298 2.60054C118.485 2.77865 118.298 2.8024 117.268 2.73116C116.238 2.65991 116.019 2.73115 116.019 2.90927C116.019 3.08738 116.019 3.13488 115.457 2.99239C114.895 2.84989 114.708 2.89739 114.084 3.20613C113.46 3.51486 113.147 3.52674 112.991 3.43175C112.965 3.41215 112.929 3.39475 112.884 3.38054C112.84 3.36633 112.789 3.35561 112.734 3.34898C112.679 3.34235 112.621 3.33995 112.563 3.34193C112.505 3.34391 112.449 3.35022 112.398 3.3605C112.211 3.3605 111.556 3.3605 110.9 3.20613C109.62 2.94489 107.342 2.8974 106.967 3.13488C106.908 3.17529 106.81 3.20531 106.693 3.21861C106.577 3.23191 106.451 3.22743 106.343 3.20613C106.156 3.20613 105.968 3.20613 105.968 3.28925C105.968 3.37237 105.625 3.408 105.188 3.3605C104.751 3.313 104.47 3.3605 104.657 3.68111C104.845 4.00172 104.657 4.06109 104.408 3.98985C104.246 3.92296 104.121 3.84431 104.04 3.75862C103.96 3.67293 103.925 3.58196 103.94 3.49112C103.94 3.08739 103.659 3.05176 102.067 3.28925C101.255 3.39911 100.4 3.45533 99.5385 3.45549C98.9411 3.42513 98.3363 3.4848 97.853 3.62174C97.6033 3.77611 97.416 3.77611 97.0414 3.62174C96.6669 3.46737 96.3859 3.49112 95.7305 3.70486C95.075 3.9186 95.0438 3.89485 95.231 3.78798C95.7929 3.41988 91.5791 3.64549 90.7052 4.02547C89.8312 4.40545 89.0821 4.4767 89.8624 4.12047C90.1434 3.98985 90.2369 3.84736 90.1121 3.78798C89.9872 3.72861 89.5815 3.78798 89.3006 3.96609C89.0197 4.14421 88.4266 4.21546 87.3341 4.15609C86.2417 4.09672 85.9295 4.15609 86.0232 4.21547C86.0558 4.23177 86.0779 4.25075 86.0876 4.27089C86.0974 4.29103 86.0945 4.31176 86.0793 4.33141C86.0641 4.35106 86.037 4.36907 86.0002 4.38399C85.9633 4.39892 85.9177 4.41034 85.8671 4.41733C85.6798 4.41733 85.3989 4.41733 85.3053 4.31046C85.2117 4.20359 84.4937 4.12046 83.3389 4.14421L81.2164 4.14421C81.0291 4.14421 81.2164 4.27483 81.747 4.44108C82.8395 4.80918 82.8082 4.89231 81.747 4.80919C81.2164 4.80919 80.7482 4.6667 80.7482 4.59545C80.7482 4.5242 80.2488 4.59545 79.6869 4.72607C79.1251 4.85669 78.5633 4.9398 78.4384 4.82106C78.1575 4.48857 75.3171 5.04668 75.3171 5.48603C75.3171 5.5929 75.3171 5.67602 75.598 5.67602C75.657 5.67575 75.7154 5.68038 75.7692 5.68958C75.823 5.69878 75.8709 5.71233 75.9095 5.72928C75.9481 5.74624 75.9766 5.76619 75.9928 5.78775C76.0091 5.80931 76.0129 5.83197 76.0038 5.85414C76.0038 5.96101 75.7541 5.99663 75.4107 5.93726C75.0674 5.87789 74.8177 5.93726 74.8177 5.93726C74.8177 5.93726 74.568 6.03226 74.2246 5.93726C73.8813 5.84226 73.6004 5.79476 73.6004 5.71164C73.6004 5.62852 73.8501 5.56915 74.2246 5.56915C74.5992 5.56915 74.8177 5.56915 74.8177 5.41478C74.8177 5.26041 74.568 5.27229 74.2559 5.27229C74.0464 5.2615 73.8446 5.23493 73.6624 5.19415C73.4802 5.15338 73.3212 5.09921 73.1946 5.0348C73.0788 4.97752 72.933 4.93001 72.7664 4.89526C72.5999 4.86052 72.4162 4.8393 72.227 4.83293C71.9773 4.83293 71.9773 4.83293 72.227 4.91606C72.3627 4.93235 72.4827 4.96362 72.5716 5.00591C72.6605 5.04819 72.7144 5.09958 72.7264 5.15354C72.7264 5.23666 72.4455 5.27229 72.1645 5.22479C71.8836 5.1773 71.4779 5.28416 71.3218 5.5929C71.1658 5.90164 70.8224 6.04413 69.9796 6.04413L68.9184 6.04413L69.8548 5.79476C70.7288 5.55727 70.7288 5.53353 70.0421 5.33166C69.3554 5.12979 69.3554 5.1298 70.0421 5.22479C70.7288 5.31979 70.7912 5.29604 70.2605 5.05855C69.7299 4.82106 67.545 4.69044 68.0132 4.97543C68.4814 5.26042 68.0132 5.10605 67.545 4.97543C66.8347 4.88826 66.0704 4.88826 65.3601 4.97543C64.611 5.04668 64.2052 5.10604 64.5173 5.11792C65.6098 5.11792 63.9867 5.56915 62.3636 5.66414C61.4906 5.71812 60.647 5.82645 59.8666 5.98476C58.8054 6.25787 58.6805 6.38849 59.6481 6.246C60.0539 6.246 60.2099 6.246 60.0226 6.31724C59.8354 6.38849 60.0227 6.51911 60.3972 6.5666C60.7718 6.6141 60.8966 6.5666 60.7718 6.5666C60.6469 6.5666 60.7718 6.34099 61.3024 6.25787C61.833 6.17475 62.3012 6.16287 63.0191 6.40036C63.737 6.63785 63.8306 6.69722 63.2064 6.6141C62.5821 6.53098 62.5197 6.6141 62.707 6.6141C62.8942 6.6141 62.707 6.78034 62.4885 6.76847C61.2088 6.76847 60.1787 6.76847 60.1787 6.92284C60.1787 7.07721 63.0503 7.06534 63.7058 6.92284C64.3613 6.78035 64.2052 6.92284 64.2052 6.92284C64.2052 6.92284 64.4549 7.07721 64.7982 7.07721C65.1416 7.07721 65.3913 7.07721 65.3913 6.92284C65.3913 6.8819 65.4341 6.84263 65.5102 6.81368C65.5863 6.78473 65.6895 6.76847 65.7971 6.76847C66.0156 6.76847 66.2029 6.91096 66.2029 7.07721C66.2029 7.24345 66.0156 7.38594 65.7659 7.38594C65.7195 7.38285 65.6718 7.38552 65.6298 7.39357C65.5877 7.40163 65.5537 7.41462 65.5327 7.43064C65.5116 7.44665 65.5047 7.46482 65.513 7.48244C65.5213 7.50006 65.5442 7.51619 65.5786 7.52843C65.8907 7.71842 67.4826 7.52844 67.2953 7.33845C67.108 7.14845 68.6999 6.47161 69.1993 6.47161C69.6987 6.47161 69.3866 6.62598 69.1993 6.81597C69.0726 7.01094 69.1277 7.21661 69.3554 7.39782C69.6987 7.59969 69.7299 7.59969 69.7924 7.39782C69.8244 7.28336 69.8244 7.16792 69.7924 7.05346C69.7924 6.78035 71.4466 6.95846 71.6339 7.24345C71.7005 7.34307 71.8618 7.42977 72.0867 7.48679C72.3115 7.54381 72.5839 7.56711 72.8512 7.55219C73.4131 7.55219 73.7252 7.55218 73.5692 7.70655C73.4555 7.75649 73.3085 7.79387 73.1438 7.81477C72.979 7.83566 72.8025 7.83929 72.6328 7.82529C72.2582 7.82529 72.0085 7.8253 72.0709 7.96779C72.0709 8.26465 71.4467 8.1934 71.0097 7.87279C70.848 7.79808 70.6416 7.7392 70.4078 7.70108C70.1741 7.66296 69.9196 7.6467 69.6659 7.65368C69.4122 7.66066 69.1666 7.69067 68.9496 7.74119C68.7327 7.7917 68.5507 7.86127 68.419 7.94405C68.2317 8.07466 67.7947 8.09841 66.9832 7.94405C66.6912 7.89456 66.3678 7.87832 66.052 7.89729C65.7363 7.91626 65.4417 7.96961 65.204 8.05091C64.7583 8.20339 64.1804 8.28796 63.5809 8.28841C63.3527 8.27986 63.1224 8.29269 62.9102 8.32581C62.698 8.35893 62.5103 8.41132 62.3636 8.47839C62.3636 8.59714 61.7082 8.64464 61.0215 8.60901C60.3348 8.57339 60.0851 8.60901 61.4897 8.85838L63.1127 9.17899L63.9555 8.77525C64.7358 8.41902 64.8607 8.40715 65.1104 8.65651C65.3601 8.90587 65.4537 8.90587 65.9844 8.56151C66.515 8.21715 66.5462 8.21715 66.4838 8.47839C66.4838 9.13149 67.7323 9.66584 68.2629 9.13149C68.2629 8.989 68.4814 8.989 68.5126 9.13149C68.5438 9.27398 70.0109 9.39273 70.3542 9.13149C70.6976 8.87025 71.1657 8.98899 71.8836 8.98899C75.0049 8.98899 75.0049 8.989 75.0049 8.66839C75.0049 8.34778 75.005 8.32403 75.161 8.27653C75.3171 8.22903 75.5356 8.27653 75.5356 8.40715C75.5356 8.53777 75.8477 8.59713 76.5344 8.54964C77.2211 8.50214 77.5332 8.54964 77.5332 8.66839C77.5332 8.78713 77.5332 8.82275 77.7829 8.76338C78.0326 8.704 79.1251 8.94149 79.1251 9.14336C79.1251 9.34522 78.5008 9.25024 77.6893 9.21461C76.0662 9.21461 74.724 9.21461 74.724 9.42835C75.6717 9.50096 76.648 9.50096 77.5956 9.42835C79.6869 9.42835 80.4048 9.42835 80.28 9.54709C80.1551 9.66584 78.4072 9.83208 75.1922 9.84396C74.2246 9.84396 73.5692 9.9152 73.6628 9.98644C73.7564 10.0577 73.4131 10.0696 72.8825 9.98644C72.3519 9.90332 71.8836 9.98645 71.8836 10.0814C71.8836 10.1764 71.2906 10.2358 70.2918 10.2002C69.293 10.1646 68.6687 10.2002 68.6687 10.3546C68.6529 10.4124 68.5988 10.4678 68.5114 10.5156C68.4241 10.5633 68.3064 10.6019 68.1693 10.6277C67.9196 10.6277 68.1693 10.6277 68.6687 10.6277C70.3542 10.4733 70.4478 10.4733 70.6039 10.7583C70.7599 11.0433 70.6039 11.0314 69.7924 11.0433C68.9808 11.0552 68.9184 11.0433 69.7924 11.1739C70.9964 11.3007 72.2826 11.2454 73.3819 11.0195C73.8661 10.9534 74.3959 10.9534 74.8801 11.0195C75.4121 11.0984 76.0024 11.0984 76.5344 11.0195C78.1823 10.8278 79.9431 10.8278 81.5909 11.0195C82.0739 11.1129 82.5747 11.1923 83.0891 11.257C83.8695 11.352 83.8695 11.3758 83.0891 11.5539C82.3088 11.732 82.1528 11.9457 83.2765 11.9457C85.1805 11.9457 85.8359 12.4682 83.9319 12.4801C83.4949 12.4801 83.214 12.5513 83.2452 12.6345C85.3897 12.8288 87.6242 12.8288 89.7688 12.6345C90.7457 12.466 91.8237 12.4004 92.8901 12.4445C93.0913 12.4512 93.2821 12.4817 93.4355 12.5317C93.5889 12.5817 93.6973 12.6487 93.7455 12.7234C93.7937 12.798 93.7793 12.8765 93.7042 12.9479C93.6292 13.0193 93.4973 13.0799 93.3271 13.1213C93.0462 13.2044 93.1398 13.2282 93.608 13.1213C93.9631 13.0785 94.3294 13.0506 94.7004 13.0382C94.8877 13.0382 94.9501 12.9432 94.7004 12.8126C94.4507 12.682 94.7005 12.6107 95.6993 12.7176C96.1657 12.7756 96.6686 12.7756 97.1351 12.7176C97.1351 12.7176 97.6345 12.7176 97.9778 12.8363C98.3212 12.9551 98.6957 13.0026 98.9767 12.8363C99.2576 12.6701 99.3824 12.6819 99.757 12.9194C100.132 13.1569 100.194 13.1569 100.038 12.9194C99.972 12.8569 99.9575 12.7882 99.9966 12.7224C100.036 12.6567 100.126 12.597 100.256 12.5513C100.537 12.4801 100.6 12.5513 100.412 12.6226C100.225 12.6938 100.412 12.8007 100.6 12.8007C100.787 12.8007 100.974 12.8957 100.881 13.0144C100.787 13.1332 101.63 13.62 102.285 13.4775C102.941 13.335 102.535 13.3232 101.786 13.2401L100.787 13.1451L101.879 13.1451C102.504 13.1451 103.003 13.1451 103.003 13.2757C103.003 13.297 103.014 13.3181 103.037 13.3376C103.059 13.3572 103.092 13.3748 103.133 13.3893C103.174 13.4038 103.222 13.4149 103.275 13.4219C103.328 13.4289 103.384 13.4317 103.44 13.43C103.69 13.43 103.721 13.3588 103.44 13.2519C103.159 13.145 104.002 12.8244 105.032 12.8244C105.469 12.8244 105.719 12.9313 105.719 13.1213C105.719 13.5132 105.875 13.5132 108.216 13.1213C109.776 12.8363 110.026 12.8244 109.714 13.0382C109.402 13.2519 109.714 13.3113 110.463 13.3825C111.212 13.4538 111.618 13.3825 111.68 13.3113C111.743 13.24 113.241 13.1451 113.553 13.3113C113.647 13.3633 113.777 13.4041 113.929 13.429C114.081 13.4539 114.249 13.4618 114.413 13.4519C114.576 13.4419 114.729 13.4145 114.853 13.3728C114.977 13.3311 115.068 13.2768 115.114 13.2163C115.301 13.0382 115.114 12.9907 114.771 13.0619C114.427 13.1332 114.146 13.0619 114.146 13.0619C114.146 12.8126 115.301 12.7532 115.769 12.9788C116.237 13.2044 117.985 13.2875 117.58 13.0501C117.174 12.8126 117.58 12.8838 117.767 12.8838C117.875 12.8838 117.978 12.9001 118.054 12.929C118.13 12.958 118.173 12.9972 118.173 13.0382C118.173 13.1213 118.454 13.1926 118.797 13.1926C119.14 13.1926 119.359 13.1926 119.234 13.3232C119.109 13.4538 119.952 13.62 120.514 13.3944C121.076 13.1688 120.888 13.1926 120.514 13.2044C120.026 13.1709 119.565 13.0935 119.172 12.9788C118.454 12.7532 118.485 12.7532 119.484 12.8838C119.881 12.9569 120.328 12.9817 120.763 12.9551C120.763 12.9551 121.076 12.9551 121.232 13.1688C121.388 13.3825 121.793 13.4657 122.855 13.4538C123.916 13.4419 124.259 13.3825 124.259 13.3113C124.259 13.24 124.415 13.2163 124.634 13.3113C124.852 13.4063 125.164 13.3113 125.383 13.1332C125.601 12.9551 126.257 12.8838 127.818 12.8957C129.378 12.9076 129.909 12.8957 129.909 12.7294C129.909 12.5632 130.127 12.7294 130.408 12.8126C130.557 12.8915 130.764 12.9518 131.003 12.9857C131.242 13.0195 131.502 13.0254 131.75 13.0026C131.985 12.9797 132.232 12.982 132.463 13.0093C132.695 13.0365 132.902 13.0876 133.061 13.1569C133.717 13.4538 135.715 13.5013 135.402 13.1569C135.402 13.0382 135.402 12.9669 136.058 12.9669C136.713 12.9669 136.869 12.9669 136.838 12.8126C136.807 12.6582 138.805 12.6582 139.523 12.8126C139.71 12.8126 139.959 12.8126 140.053 12.6938C140.147 12.5751 140.365 12.5395 140.896 12.6938C141.427 12.8482 141.676 12.8719 142.113 12.6938C142.55 12.5157 144.236 12.4326 144.08 12.6938C143.924 12.9551 146.608 12.9076 147.201 12.6938C147.794 12.4801 149.23 12.4326 148.949 12.6938C148.919 12.7175 148.907 12.7439 148.914 12.7701C148.921 12.7963 148.947 12.8212 148.989 12.8421C149.031 12.863 149.087 12.8791 149.152 12.8886C149.216 12.898 149.287 12.9005 149.355 12.8957C149.522 12.8945 149.686 12.8763 149.829 12.8429C149.971 12.8095 150.088 12.7621 150.166 12.7057C150.166 12.5632 150.447 12.5632 151.009 12.7057C151.571 12.8482 151.664 12.8838 151.664 12.7057C151.664 12.5276 151.914 12.6226 152.226 12.8007C152.538 12.9788 152.819 13.0144 152.851 12.9194C152.882 12.8244 153.319 12.7176 153.849 12.6819C154.38 12.6463 154.755 12.682 154.63 12.7413C154.505 12.8007 155.16 12.8957 155.722 12.6701C156.284 12.4445 156.971 12.3613 157.345 12.5869C157.72 12.8126 157.689 12.7176 157.689 12.5869C157.689 12.4563 158.531 12.4326 159.998 12.4445C161.465 12.4563 162.527 12.4445 163.12 12.1951C163.713 11.9457 164.712 11.8864 164.462 12.1951C164.462 12.2782 164.212 12.3257 164.025 12.2901C163.838 12.2545 163.806 12.2901 164.025 12.4088C164.243 12.5276 164.836 12.5276 165.773 12.4088C166.804 12.3434 167.849 12.3156 168.894 12.3257C169.269 12.3456 169.652 12.3336 170.013 12.2905C170.375 12.2474 170.707 12.1742 170.985 12.0763C171.422 11.8626 171.485 11.8626 171.516 12.0763C171.537 12.1448 171.621 12.2084 171.752 12.256C171.883 12.3037 172.053 12.3325 172.234 12.3376C172.841 12.3518 173.446 12.3796 174.044 12.4207C174.825 12.4207 175.168 12.4207 175.168 12.2901C175.168 12.2331 175.201 12.1768 175.266 12.1254C175.331 12.074 175.426 12.0289 175.542 11.9932C175.761 11.9932 175.823 11.9932 175.73 12.112C175.636 12.2307 175.979 12.3257 177.915 12.3138C179.85 12.302 180.443 12.2307 181.036 11.9339C181.629 11.637 181.941 11.6014 182.69 11.7439C182.876 11.7919 183.085 11.825 183.305 11.8414C183.525 11.8577 183.751 11.8568 183.97 11.8389C184.188 11.8389 184.376 11.8389 184.376 11.8389C185.615 11.9667 186.904 12.0109 188.184 11.9695C189.391 12.0183 190.612 11.9739 191.773 11.8389C191.773 11.7676 191.773 11.7201 191.992 11.7201C192.045 11.7185 192.099 11.7209 192.15 11.7272C192.2 11.7335 192.248 11.7435 192.288 11.7568C192.329 11.77 192.362 11.7862 192.386 11.8044C192.41 11.8225 192.425 11.8423 192.429 11.8626C192.429 12.017 193.49 12.0288 195.55 11.8626C196.924 11.7914 196.955 11.7795 195.987 11.637C194.458 11.4233 195.706 11.2333 197.704 11.3758C199.701 11.5183 200.295 11.542 199.733 11.3758C199.171 11.2095 199.421 11.2095 199.733 11.067C200.045 10.9245 200.419 10.9245 201.012 11.1501C201.416 11.308 201.963 11.4014 202.542 11.4114C203.509 11.4114 203.884 10.877 202.916 10.877C202.573 10.877 202.386 10.9483 202.511 11.0195C202.635 11.0908 202.511 11.1739 202.511 11.1739C202.511 11.1739 201.605 10.9126 202.105 10.7939C202.543 10.7441 203.009 10.7441 203.447 10.7939C204.134 10.8651 204.321 10.9601 204.196 11.1858C204.071 11.4114 204.196 11.4945 205.382 11.4945C206.568 11.4945 206.88 11.4233 206.943 11.3401C207.005 11.257 207.817 11.162 208.691 11.1264C209.565 11.0908 210.376 11.0551 210.439 11.0551C210.501 11.0551 210.439 10.9364 210.095 10.8058C209.752 10.6752 209.721 10.5802 210.782 10.6158C211.843 10.6514 211.968 10.7227 211.843 10.8414C211.719 10.9601 211.843 11.0433 212.093 11.0433C212.247 11.0393 212.395 11.0179 212.517 10.982C212.639 10.9461 212.731 10.8971 212.78 10.8414C212.78 10.6989 213.716 10.6395 215.558 10.6514C216.603 10.6905 217.658 10.6624 218.679 10.5683C219.12 10.5009 219.612 10.5009 220.052 10.5683C220.807 10.6768 221.639 10.6768 222.393 10.5683C223.205 10.4852 223.892 10.4614 223.892 10.5683C224.716 10.6712 225.588 10.7076 226.451 10.6752C228.48 10.6752 228.979 10.6752 228.823 10.4495C228.667 10.2239 228.823 10.2714 229.448 10.4495C230.072 10.6277 230.29 10.592 230.072 10.4495C229.853 10.3071 230.072 10.1646 230.883 10.4495C231.695 10.7345 231.695 10.6395 232.069 10.5208C232.274 10.4693 232.507 10.4361 232.75 10.4238C232.994 10.4114 233.241 10.4203 233.474 10.4495C234.192 10.5208 234.348 10.4495 234.379 10.1764L234.379 9.8202L234.816 10.2002L235.222 10.5802L235.597 10.2239C235.909 9.93894 236.065 9.90332 236.502 10.0696C236.939 10.2358 237.001 10.3427 236.908 10.4258C236.814 10.5089 242.651 10.6158 243.15 10.4258C243.65 10.2358 243.837 10.2952 244.43 10.4258C246.462 10.6676 248.64 10.6676 250.673 10.4258C250.849 10.3562 251.063 10.302 251.301 10.2672C251.538 10.2323 251.792 10.2175 252.046 10.2239C252.608 10.2239 253.107 10.1527 253.107 10.0577C253.107 9.96269 253.294 9.98644 253.607 10.0577C253.919 10.1289 255.042 10.2952 257.415 10.3189C258.523 10.376 259.65 10.3437 260.723 10.2239C260.723 10.1527 261.035 10.0458 261.379 9.99831C261.722 9.95082 261.972 9.99831 261.784 10.1171C261.597 10.2358 261.94 10.3427 263.158 10.3308C264.375 10.3189 264.75 10.3308 264.75 10.2121C264.75 10.0933 265.592 10.1289 266.622 10.2121C267.652 10.2952 268.402 10.2121 268.277 10.1527C268.152 10.0933 268.839 10.0102 269.806 10.0102C270.774 10.0102 271.492 10.0102 271.429 10.0814C271.367 10.1527 273.333 10.1764 273.958 10.0814C274.582 9.98644 274.457 9.99831 274.27 10.0814C274.082 10.1646 274.551 10.2596 275.362 10.2952C277.808 10.3886 280.277 10.3243 282.666 10.1052C282.612 10.0658 282.602 10.0199 282.637 9.97762C282.672 9.93531 282.75 9.90004 282.853 9.87957C282.957 9.8591 283.077 9.8551 283.189 9.86846C283.3 9.88182 283.393 9.91145 283.446 9.95081C283.479 9.97076 283.499 9.99308 283.507 10.0163C283.515 10.0395 283.51 10.0631 283.492 10.0855C283.475 10.1079 283.445 10.1287 283.405 10.1464C283.364 10.1641 283.315 10.1784 283.259 10.1883C282.51 10.3664 282.853 10.5683 283.883 10.5683C284.414 10.5683 284.882 10.5089 284.882 10.4377C284.882 10.3664 285.194 10.2477 285.538 10.2002C285.881 10.1527 286.099 10.2002 285.943 10.3427C285.787 10.4852 287.067 10.6633 287.504 10.4139C287.941 10.1646 287.941 10.307 288.378 10.4139C289.185 10.5483 290.075 10.5939 290.946 10.5456C291.818 10.4973 292.637 10.3571 293.31 10.1408L294.277 9.78457L293.185 9.63021C292.623 9.54709 292.124 9.40459 292.124 9.33335C292.124 9.2621 291.531 9.10773 290.844 8.98898L289.564 8.78712L290.688 8.66838C291.178 8.61794 291.695 8.61794 292.186 8.66838C292.317 8.69343 292.461 8.70648 292.607 8.70648C292.754 8.70648 292.898 8.69343 293.029 8.66838C294.174 8.56528 295.348 8.51347 296.525 8.514C297.595 8.53819 298.665 8.46492 299.646 8.30026C299.833 8.18152 299.989 8.19339 300.145 8.30026C300.301 8.40713 300.457 8.46651 300.801 8.30026C301.144 8.13402 301.238 8.0984 301.456 8.30026C301.675 8.50213 302.112 8.514 303.079 8.46651C304.047 8.41901 304.484 8.34777 304.484 8.27652C304.484 8.20527 305.576 8.08653 305.764 8.27652C305.951 8.46651 307.262 8.44276 309.759 8.41901C312.245 8.45779 314.703 8.62968 317.063 8.92961C317.874 8.92961 318.499 8.92961 318.655 8.85836C318.811 8.78712 319.373 8.73962 320.153 8.85836C321.409 8.94215 322.687 8.97005 323.961 8.94148C325.012 8.89265 326.078 8.93321 327.082 9.06023C327.332 9.14335 327.582 9.1671 327.582 9.06023C327.582 8.95336 327.956 9.06023 328.393 9.06023C329.466 9.1871 330.579 9.25898 331.702 9.27397C332.958 9.29319 334.21 9.34477 335.447 9.42834C336.228 9.49959 336.446 9.42834 336.072 9.42834C335.697 9.42834 335.666 9.25023 336.072 9.17898C336.477 9.10773 336.633 9.17897 336.758 9.30959C336.827 9.37266 336.939 9.42776 337.081 9.46942C337.223 9.51108 337.392 9.53785 337.57 9.54708C337.633 9.54727 337.695 9.5414 337.751 9.53002C337.806 9.51865 337.853 9.50213 337.887 9.482C337.921 9.46187 337.942 9.43879 337.946 9.41488C337.951 9.39097 337.939 9.36701 337.913 9.34522C337.664 9.10773 340.036 8.89399 340.41 9.1196C340.785 9.34522 342.221 9.19084 342.939 9.01273C343.188 9.01273 343.376 9.01273 343.376 9.0721C343.376 9.13148 343.126 9.25022 342.876 9.28584C342.626 9.32147 342.502 9.40459 342.658 9.47584C342.814 9.54709 343.781 9.47583 343.781 9.0721C343.781 8.66837 343.594 8.77525 342.939 8.83462C342.283 8.89399 342.189 8.83462 342.626 8.66838C343.063 8.50213 343.063 8.43088 342.626 8.514C342.545 8.52964 342.456 8.53867 342.365 8.5405C342.274 8.54233 342.183 8.53693 342.098 8.52464C342.013 8.51235 341.935 8.49344 341.871 8.46912C341.806 8.4448 341.755 8.4156 341.721 8.38338C341.721 8.25276 341.721 8.19339 341.908 8.25276C342.096 8.31214 342.314 8.25277 342.314 8.01528C342.314 7.77779 342.314 7.70654 341.721 7.86091C341.128 8.01528 341.066 7.97966 340.91 7.86091C340.878 7.84303 340.858 7.82239 340.852 7.80086C340.846 7.77933 340.854 7.75758 340.876 7.73756C340.898 7.71754 340.932 7.69989 340.976 7.68618C341.02 7.67248 341.072 7.66315 341.128 7.65904C341.503 7.65904 341.503 7.50467 341.128 7.24344C340.754 6.9822 340.91 6.57847 341.472 6.92283C341.574 6.98127 341.727 7.02407 341.904 7.04364C342.081 7.0632 342.271 7.05826 342.439 7.0297C342.662 7.01113 342.893 7.01448 343.112 7.03941C343.33 7.06434 343.529 7.11004 343.688 7.17219C344.25 7.38593 344.281 7.37406 344.281 7.08907C344.281 6.80408 344.125 6.76846 343.906 6.76846C343.688 6.76846 343.376 6.60222 343.251 6.37661C343.126 6.15099 342.814 6.02036 342.564 6.04411C342.314 6.06786 341.659 5.771 341.128 5.36727C340.825 5.0817 340.355 4.82595 339.755 4.61918C339.536 4.61918 339.474 4.71418 339.568 4.82105C339.661 4.92792 339.568 5.03479 339.131 5.04666C338.694 5.05854 338.475 4.91604 338.444 4.36982C338.413 3.82359 338.444 3.76422 338.6 3.85922C338.616 3.87766 338.643 3.89449 338.678 3.90848C338.714 3.92248 338.757 3.93328 338.805 3.94011C338.853 3.94694 338.904 3.94962 338.955 3.94795C339.006 3.94628 339.055 3.9403 339.099 3.93046C339.318 3.93046 339.349 3.93047 339.099 4.08484C338.725 4.45294 339.942 4.22733 340.504 3.8236C341.066 3.41986 340.941 3.51486 340.847 3.95422C340.754 4.39357 340.847 4.41731 341.659 4.44106C342.47 4.46481 342.502 4.44107 342.346 4.32232C342.319 4.30273 342.283 4.28533 342.239 4.27112C342.194 4.25691 342.143 4.24618 342.088 4.23955C342.033 4.23293 341.975 4.23053 341.917 4.23251C341.86 4.23448 341.804 4.2408 341.752 4.25108C341.534 4.25108 341.378 4.25107 341.378 4.17982C341.378 4.10858 341.628 4.01358 341.971 4.01358C342.314 4.01358 342.72 3.76422 341.971 3.64548C341.628 3.64548 341.471 3.49111 341.596 3.40799C341.721 3.32487 341.596 3.25362 341.003 3.25362C340.41 3.25362 340.285 3.18237 340.41 3.09925C340.535 3.01613 340.161 2.94489 339.474 2.94489C338.787 2.94489 338.163 3.028 338.038 3.13487C337.913 3.24174 337.851 3.13488 338.038 2.94489C338.038 2.49366 338.756 2.26804 339.224 2.54115C339.692 2.81426 339.536 2.62427 339.536 2.44615C339.541 2.41184 339.527 2.37755 339.496 2.34524C339.465 2.31293 339.418 2.28325 339.357 2.25788C339.297 2.23251 339.223 2.21196 339.141 2.19741C339.06 2.18285 338.971 2.17457 338.881 2.17305C338.537 2.17305 338.381 2.08993 338.538 2.00681C338.694 1.92368 338.538 1.86431 337.882 1.93555C337.227 2.0068 337.071 1.99492 337.476 1.93555C337.882 1.87618 337.913 1.69806 337.695 1.50807C337.476 1.31808 337.351 1.27058 337.227 1.50807C337.102 1.74556 336.509 1.73369 334.886 1.73369C333.262 1.73369 332.701 1.73369 332.701 1.85243C332.701 1.97118 332.513 1.94743 332.295 1.85243C332.237 1.84367 332.184 1.83023 332.14 1.81302C332.097 1.79581 332.063 1.77524 332.043 1.7527C332.022 1.73017 332.014 1.7062 332.02 1.68243C332.026 1.65866 332.045 1.63564 332.076 1.61495C332.232 1.53182 331.546 1.46058 330.609 1.46058C325.49 1.46058 320.215 1.10434 320.215 0.843105C320.215 0.771858 319.966 0.74811 319.622 0.843105C319.279 0.938101 319.123 0.997476 319.217 1.06872C319.31 1.13997 319.217 1.21121 318.842 1.21121C318.631 1.19836 318.431 1.16698 318.258 1.11957C318.084 1.07216 317.942 1.01003 317.843 0.938103C317.469 0.712488 317.344 0.700614 317.032 0.938103C316.719 1.17559 316.719 1.21122 316.844 1.28246C316.969 1.35371 316.439 1.44871 316.064 1.28246C315.689 1.11622 316.064 1.0806 316.251 0.973725C316.439 0.866855 316.251 0.759985 314.722 0.759985C313.86 0.737349 312.998 0.802956 312.225 0.94998C311.85 1.09247 311.569 1.09247 310.945 0.94998C310.321 0.807487 310.196 0.807487 310.383 0.94998C310.418 0.980221 310.436 1.01289 310.436 1.0459C310.435 1.07892 310.417 1.11155 310.382 1.14172C310.347 1.17188 310.295 1.19893 310.231 1.22112C310.167 1.24331 310.091 1.26015 310.009 1.27059C309.26 1.37746 306.138 1.05685 306.138 0.86686C306.138 0.676868 305.295 0.771864 304.265 0.86686C303.22 0.895945 302.169 0.867945 301.144 0.78373C300.02 0.664986 299.802 0.676866 299.989 0.854983C300.177 1.0331 299.989 1.08059 299.615 1.08059C299.24 1.08059 299.053 0.926228 299.053 0.759985C299.053 0.593743 298.866 0.451251 298.241 0.510623C297.617 0.569995 297.43 0.510623 297.43 0.510623C297.43 0.510623 296.649 0.391878 295.932 0.510623C295.582 0.565385 295.189 0.565385 294.839 0.510623C294.433 0.439376 294.215 0.510622 294.215 0.676865C294.215 0.843107 293.31 1.35371 292.841 1.35371C292.373 1.35371 292.841 1.24684 292.841 1.11622C292.841 0.985604 292.841 0.902482 292.217 0.985603C291.593 1.06872 291.343 0.985603 291.343 0.985603C291.343 0.985603 290.906 0.843112 290.376 0.86686C289.845 0.890609 289.377 0.86686 289.377 0.736241C289.377 0.605622 289.72 0.581867 290.157 0.581867C290.594 0.581867 290.937 0.510623 290.937 0.427502C290.937 0.344381 290.532 0.308756 290.032 0.332505C289.263 0.347997 288.492 0.347997 287.723 0.332505C286.849 0.332505 286.661 0.332502 287.254 0.403748C288.503 0.498744 288.378 0.700617 287.036 0.736241C284.57 0.807488 283.54 0.736241 283.197 0.5225C282.853 0.30876 281.324 0.225639 281.043 0.522501C280.881 0.663837 280.578 0.774877 280.2 0.83123C278.345 0.810686 276.523 0.636436 274.863 0.320628C274.703 0.272469 274.505 0.246268 274.301 0.246268C274.097 0.246268 273.899 0.272469 273.739 0.320628C273.364 0.439373 272.803 0.439373 271.648 0.320628C271.15 0.224758 270.59 0.186065 270.036 0.20926C269.482 0.232455 268.957 0.316536 268.526 0.451248C267.746 0.617491 267.184 0.688743 267.34 0.605622C267.496 0.522501 267.091 0.451253 266.248 0.475002C265.309 0.468638 264.384 0.387743 263.532 0.237508C262.627 0.0712655 262.034 0.035649 261.753 0.142519C261.472 0.249389 261.503 0.296884 261.753 0.296884C262.003 0.296884 262.128 0.368127 262.003 0.451248C261.878 0.53437 261.379 0.569993 260.879 0.534369L259.693 0.451249C259.693 0.451249 259.412 0.320628 259.412 0.190009C259.412 0.0593901 259.412 -0.0237311 258.819 0.190009C258.647 0.237176 258.503 0.297422 258.396 0.366923C258.288 0.436424 258.22 0.513667 258.195 0.593745C258.195 0.700616 258.008 0.795609 257.789 0.795609C257.682 0.795609 257.578 0.779343 257.502 0.750393C257.426 0.721443 257.383 0.682185 257.383 0.641244C257.383 0.558123 256.353 0.486871 255.042 0.486871C254.124 0.510287 253.201 0.465943 252.327 0.35626C251.797 0.23858 251.215 0.158131 250.61 0.118766C249.611 0.0356445 249.33 0.118768 249.424 0.213764L249.081 0.14252ZM223.642 0.819364C223.642 0.819364 223.143 0.819364 222.549 0.819365C221.956 0.819365 221.582 0.819364 222.019 0.688745C222.456 0.558126 223.642 0.617495 223.642 0.759989L223.642 0.819364ZM226.014 1.10435C225.83 1.15733 225.605 1.18598 225.374 1.18598C225.143 1.18598 224.919 1.15733 224.734 1.10435C224.36 0.961855 224.422 0.914353 224.953 0.914353C225.483 0.914353 225.64 0.84311 225.64 0.759988C225.64 0.676867 225.889 0.676867 226.233 0.759988C226.576 0.84311 226.701 0.97373 226.014 1.10435V1.10435ZM248.612 1.24684C248.612 1.24684 248.269 1.24684 247.895 1.24684C247.683 1.22402 247.496 1.17594 247.361 1.10969C247.226 1.04344 247.15 0.962494 247.145 0.87873C247.145 0.593743 247.145 0.593743 247.895 0.87873C248.176 0.988805 248.417 1.1126 248.612 1.24684V1.24684ZM230.915 0.878731C230.915 0.919672 230.872 0.958939 230.796 0.987889C230.72 1.01684 230.616 1.0331 230.509 1.0331C230.401 1.0331 230.298 1.01684 230.222 0.987889C230.146 0.958939 230.103 0.919672 230.103 0.878731C230.098 0.858003 230.106 0.837132 230.124 0.817579C230.143 0.798027 230.173 0.780273 230.211 0.76556C230.25 0.750847 230.297 0.739537 230.348 0.73242C230.399 0.725304 230.454 0.722553 230.509 0.724366C230.616 0.724366 230.72 0.740633 230.796 0.769582C230.872 0.798532 230.915 0.83779 230.915 0.878731ZM263.47 1.18747C263.47 1.38933 263.283 1.4487 262.877 1.38933C262.711 1.36807 262.566 1.32842 262.461 1.27551C262.355 1.22259 262.293 1.15883 262.284 1.09247C262.284 1.06337 262.299 1.03457 262.329 1.00784C262.36 0.981099 262.404 0.956984 262.459 0.936973C262.515 0.916962 262.58 0.901474 262.652 0.891458C262.724 0.881443 262.801 0.877113 262.877 0.87873C263.22 0.87873 263.47 1.02123 263.47 1.18747ZM240.84 1.46059C240.466 1.46059 240.154 1.60308 240.154 1.69807C240.154 1.79307 239.998 1.79307 239.779 1.69807C239.671 1.63798 239.601 1.56925 239.574 1.49719C239.547 1.42512 239.564 1.35166 239.623 1.28247C239.779 1.11622 239.998 1.11622 240.684 1.28247C241.371 1.44871 241.465 1.47245 240.84 1.51995L240.84 1.46059ZM282.728 1.18747C282.728 1.27059 282.541 1.32996 281.979 1.32996C281.532 1.33983 281.09 1.28937 280.731 1.18747C280.575 1.09247 280.887 1.0331 281.48 1.0331C281.933 1.02213 282.379 1.07734 282.728 1.18747V1.18747ZM203.229 1.41309C203.229 1.54371 203.072 1.6387 202.823 1.6387C202.573 1.6387 202.417 1.54371 202.417 1.41309C202.417 1.28247 202.604 1.18747 202.823 1.18747C203.041 1.18747 203.229 1.28247 203.229 1.41309ZM173.482 1.48433C173.482 1.57933 173.482 1.6387 173.295 1.6387C173.108 1.6387 173.014 1.6387 172.889 1.48433C172.765 1.32997 172.889 1.32997 173.045 1.32997C173.101 1.32833 173.157 1.3311 173.21 1.33812C173.263 1.34514 173.312 1.35625 173.353 1.37075C173.394 1.38526 173.427 1.40284 173.449 1.42238C173.471 1.44193 173.483 1.46302 173.482 1.48433V1.48433ZM175.792 1.48433C175.705 1.54661 175.575 1.59847 175.415 1.63412C175.255 1.66977 175.072 1.6878 174.887 1.6862C174.702 1.68649 174.521 1.66791 174.362 1.6324C174.203 1.59689 174.071 1.54575 173.982 1.48433C173.982 1.35371 174.2 1.28247 174.887 1.28247C175.574 1.28247 175.917 1.35371 175.792 1.48433ZM178.32 1.48433C178.601 1.56745 178.757 1.67432 178.601 1.7337C178.445 1.79307 178.102 1.7337 177.79 1.7337C177.478 1.7337 177.103 1.60308 176.978 1.66245C176.853 1.72182 176.697 1.66245 176.697 1.57933C176.697 1.49621 177.478 1.34184 178.32 1.57933L178.32 1.48433ZM179.725 1.56745C179.725 1.69807 179.538 1.75745 179.319 1.70995C179.21 1.68417 179.117 1.64952 179.047 1.60847C178.976 1.56741 178.931 1.52097 178.914 1.47246C178.914 1.43152 178.956 1.39226 179.032 1.36331C179.108 1.33436 179.212 1.31809 179.319 1.31809C179.538 1.31809 179.725 1.43683 179.725 1.56745ZM303.173 1.41308C303.173 1.47246 302.674 1.47246 302.424 1.41308C302.174 1.35371 302.205 1.31809 302.674 1.31809C303.142 1.31809 303.329 1.31808 303.173 1.38933L303.173 1.41308ZM307.699 1.65057C307.699 1.69151 307.656 1.73078 307.58 1.75973C307.504 1.78868 307.401 1.80493 307.293 1.80493C307.186 1.80493 307.082 1.78868 307.006 1.75973C306.93 1.73078 306.887 1.69151 306.887 1.65057C306.887 1.60963 306.93 1.57036 307.006 1.54141C307.082 1.51246 307.186 1.4962 307.293 1.4962C307.401 1.4962 307.504 1.51246 307.58 1.54141C307.656 1.57036 307.699 1.60963 307.699 1.65057V1.65057ZM159.749 1.95931C159.374 2.1968 158.781 2.13742 159.031 1.88806C159.28 1.6387 159.436 1.6862 159.624 1.7337C159.669 1.74701 159.706 1.7641 159.731 1.78366C159.756 1.80322 159.77 1.82472 159.77 1.84651C159.77 1.8683 159.756 1.88979 159.731 1.90935C159.706 1.92891 159.669 1.946 159.624 1.95931L159.749 1.95931ZM183.97 1.95931C184.086 2.01129 184.171 2.07211 184.219 2.13768C184.268 2.20324 184.279 2.272 184.251 2.3393C184.251 2.41054 183.876 2.3393 183.72 2.3393C183.521 2.26784 183.285 2.21297 183.027 2.17821C182.769 2.14345 182.495 2.12956 182.222 2.13743C181.473 2.13743 181.067 2.05431 181.192 1.94744C181.317 1.84057 183.439 1.73369 183.97 2.01868L183.97 1.95931ZM198.796 1.81682C198.952 1.89994 198.796 1.97118 198.203 1.97118C197.61 1.97118 197.485 1.89994 197.61 1.81682C197.676 1.77705 197.763 1.74283 197.865 1.71628C197.967 1.68973 198.082 1.67142 198.203 1.66245C198.327 1.66822 198.446 1.68525 198.549 1.71212C198.652 1.73898 198.737 1.77489 198.796 1.81682V1.81682ZM314.94 1.81681C314.94 1.85775 314.898 1.89702 314.822 1.92597C314.745 1.95492 314.642 1.97118 314.535 1.97118C314.285 1.97118 314.222 1.89993 314.347 1.81681C314.472 1.73369 314.659 1.66245 314.784 1.66245C314.909 1.66245 314.784 1.73369 314.784 1.81681L314.94 1.81681ZM206.756 2.11368C207.255 2.33929 207.286 2.43429 206.912 2.49366C206.58 2.54102 206.214 2.54102 205.882 2.49366C205.476 2.39866 205.507 2.35117 205.882 2.2918C206.256 2.23242 206.194 2.20867 205.694 2.1968C205.195 2.18492 205.101 2.11368 205.226 2.03056C205.351 1.94743 206.006 1.84057 206.724 2.16118L206.756 2.11368ZM210.283 2.11368C210.283 2.2443 210.283 2.33929 210.127 2.33929C209.971 2.33929 209.877 2.2443 209.752 2.11368C209.627 1.98306 209.752 1.88806 209.908 1.88806C210.064 1.88806 210.283 1.98306 210.283 2.11368ZM228.386 2.18492C228.917 2.31554 228.917 2.33929 228.386 2.33929C228.217 2.34308 228.048 2.33223 227.891 2.30755C227.734 2.28287 227.594 2.245 227.481 2.1968C227.169 2.00681 227.668 1.99493 228.449 2.1968L228.386 2.18492ZM310.321 2.18492C310.321 2.26804 310.321 2.33929 310.165 2.33929C310.109 2.34093 310.053 2.33815 310 2.33113C309.947 2.32411 309.898 2.313 309.857 2.29849C309.816 2.28399 309.784 2.26642 309.761 2.24687C309.739 2.22733 309.728 2.20623 309.728 2.18492C309.728 2.10179 309.728 2.03055 309.915 2.03055C310.102 2.03055 310.165 2.10179 310.321 2.18492ZM145.391 2.50554C145.016 2.64803 144.236 2.41054 144.517 2.2443C144.798 2.07806 144.922 2.12555 145.203 2.2443C145.484 2.36304 145.515 2.45804 145.391 2.50554ZM175.792 2.41054C176.416 2.52928 176.916 2.67178 176.916 2.7549C176.916 2.83802 176.572 2.90927 174.825 2.68366C173.763 2.54116 173.482 2.43429 173.826 2.30367C174.169 2.17305 174.356 2.13743 174.481 2.16118L175.792 2.41054V2.41054ZM266.498 2.51741C266.092 2.67178 265.717 2.44616 266.061 2.24429C266.404 2.04243 266.404 2.08993 266.56 2.24429C266.609 2.28741 266.634 2.33388 266.634 2.38085C266.634 2.42782 266.609 2.47429 266.56 2.51741L266.498 2.51741ZM157.969 2.3868C157.969 2.3868 158.344 2.51741 158.843 2.52928C160.342 2.52928 160.56 2.83803 159.187 2.9449C158.836 3.00346 158.445 3.01657 158.072 2.98225C157.7 2.94792 157.368 2.86805 157.127 2.7549C156.596 2.52929 156.534 2.42241 156.877 2.36304C157.22 2.30367 157.969 2.25617 157.969 2.36304L157.969 2.3868ZM168.863 3.03988C168.863 3.24175 168.395 3.218 167.552 2.96864C167.34 2.91968 167.179 2.84484 167.094 2.75639C167.009 2.66793 167.005 2.57111 167.084 2.48178C167.333 2.23242 167.427 2.24429 168.114 2.5649C168.446 2.7021 168.701 2.86375 168.863 3.03988V3.03988ZM181.348 2.41054C181.348 2.45148 181.305 2.49075 181.229 2.5197C181.153 2.54865 181.05 2.5649 180.942 2.5649C180.835 2.5649 180.732 2.54865 180.655 2.5197C180.579 2.49075 180.537 2.45148 180.537 2.41054C180.537 2.3696 180.579 2.33033 180.655 2.30138C180.732 2.27243 180.835 2.25617 180.942 2.25617C181.05 2.25617 181.153 2.27243 181.229 2.30138C181.305 2.33033 181.348 2.3696 181.348 2.41054V2.41054ZM166.054 2.5649C166.058 2.58563 166.051 2.60651 166.033 2.62607C166.014 2.64562 165.984 2.66337 165.945 2.67808C165.907 2.6928 165.86 2.70411 165.809 2.71122C165.757 2.71834 165.702 2.72109 165.648 2.71928C165.519 2.71437 165.395 2.69779 165.286 2.67094C165.178 2.64408 165.088 2.60772 165.024 2.5649C165.024 2.48178 165.024 2.41054 165.429 2.41054C165.835 2.41054 166.054 2.48178 166.054 2.5649ZM170.236 2.5649C171.173 2.7074 171.017 3.07551 170.08 2.98052C169.612 2.98052 169.269 2.81427 169.269 2.69552C169.269 2.57678 169.269 2.44616 170.236 2.5649ZM145.11 2.93302C145.11 2.97396 145.067 3.01322 144.991 3.04217C144.915 3.07112 144.812 3.08738 144.704 3.08738C144.596 3.08738 144.493 3.07112 144.417 3.04217C144.341 3.01322 144.298 2.97396 144.298 2.93302C144.298 2.89208 144.341 2.85281 144.417 2.82386C144.493 2.79491 144.596 2.77865 144.704 2.77865C144.812 2.77865 144.915 2.79491 144.991 2.82386C145.067 2.85281 145.11 2.89208 145.11 2.93302V2.93302ZM164.649 2.93302C164.649 3.02801 164.649 3.05176 164.243 2.99239C163.838 2.93301 163.432 2.77865 164.025 2.77865C164.152 2.7853 164.274 2.80259 164.382 2.82928C164.49 2.85596 164.581 2.89139 164.649 2.93302V2.93302ZM258.819 2.93301C258.819 3.01614 258.819 3.08738 258.663 3.08738C258.552 3.08749 258.446 3.07161 258.365 3.04296C258.283 3.01431 258.234 2.97502 258.226 2.93301C258.226 2.84989 258.226 2.77864 258.413 2.77864C258.601 2.77864 258.694 2.84989 258.819 2.93301ZM290.438 2.93301C290.43 2.97501 290.381 3.01431 290.3 3.04296C290.218 3.07161 290.112 3.08749 290.001 3.08738C289.783 3.08738 289.689 3.01613 289.814 2.93301C289.939 2.84989 290.126 2.77864 290.251 2.77864C290.376 2.77864 290.438 2.84989 290.438 2.93301ZM162.464 3.07551C162.469 3.09519 162.462 3.11501 162.445 3.1337C162.428 3.15238 162.401 3.16952 162.366 3.18404C162.331 3.19856 162.288 3.21012 162.241 3.21801C162.193 3.2259 162.142 3.22995 162.09 3.22988C161.959 3.22708 161.833 3.21137 161.724 3.18429C161.614 3.15721 161.525 3.11971 161.465 3.07551C161.309 2.99239 161.465 2.92114 161.84 2.92114C162.214 2.92114 162.464 2.99239 162.464 3.07551ZM336.946 3.0755C336.946 3.15862 336.946 3.22987 336.54 3.22987C336.134 3.22987 336.009 3.15862 336.134 3.0755C336.259 2.99238 336.446 2.92113 336.54 2.92113C336.633 2.92113 336.821 2.99238 336.946 3.0755ZM124.103 3.49112C124.103 3.59799 123.916 3.66924 123.51 3.65736C123.104 3.64549 122.761 3.55049 122.761 3.43175C122.761 3.313 123.885 3.22988 124.103 3.43175L124.103 3.49112ZM125.945 3.49112C125.945 3.63361 125.945 3.68111 125.414 3.62174C124.884 3.56237 124.727 3.49112 124.852 3.408C124.977 3.32488 125.695 3.24176 125.945 3.49112V3.49112ZM109.215 3.76423C109.027 3.97797 107.311 4.13234 107.311 3.9186C107.311 3.70486 107.779 3.57424 108.622 3.57424C109.464 3.57424 109.308 3.65736 109.215 3.76423V3.76423ZM189.027 3.76423C189.027 3.91859 188.277 3.98984 188.028 3.84735C187.778 3.70485 188.028 3.68111 188.402 3.68111C188.777 3.68111 189.027 3.6811 189.027 3.76423V3.76423ZM100.787 4.08485C100.664 4.11194 100.524 4.1262 100.381 4.1262C100.239 4.1262 100.099 4.11194 99.9755 4.08485C99.6633 4.08485 99.7882 4.00172 100.225 4.00172C100.662 4.00172 100.912 4.00172 100.787 4.07297L100.787 4.08485ZM128.879 4.08484C128.879 4.08484 128.879 4.19171 128.504 4.23921C128.13 4.28671 128.099 4.23921 128.099 4.23921C128.094 4.21796 128.102 4.1966 128.12 4.17648C128.138 4.15636 128.168 4.13791 128.206 4.1223C128.244 4.10668 128.29 4.09423 128.341 4.08574C128.393 4.07725 128.448 4.0729 128.504 4.07297C128.723 4.07297 128.879 4.07296 128.879 4.14421L128.879 4.08484ZM301.581 4.16796C301.573 4.20996 301.524 4.24925 301.443 4.2779C301.361 4.30656 301.255 4.32243 301.144 4.32232C300.926 4.32232 300.832 4.25108 300.957 4.16796C301.082 4.08484 301.269 4.01358 301.394 4.01358C301.519 4.01358 301.581 4.08484 301.581 4.16796ZM224.079 4.78543C224.235 4.86855 224.079 4.93979 223.704 4.93979C223.33 4.93979 223.142 4.86855 223.299 4.78543C223.455 4.70231 223.611 4.63106 223.704 4.63106C223.798 4.63106 223.954 4.63106 224.079 4.78543ZM84.2441 4.92793C84.2441 4.96887 84.2013 5.00813 84.1252 5.03708C84.0491 5.06603 83.9459 5.0823 83.8383 5.0823C83.7307 5.0823 83.6275 5.06603 83.5514 5.03708C83.4753 5.00813 83.4325 4.96887 83.4325 4.92793C83.4325 4.88699 83.4753 4.84772 83.5514 4.81877C83.6275 4.78982 83.7307 4.77356 83.8383 4.77356C83.9459 4.77356 84.0491 4.78982 84.1252 4.81877C84.2013 4.84772 84.2441 4.88699 84.2441 4.92793V4.92793ZM90.674 5.09417C90.674 5.31979 89.9561 5.27229 89.7064 5.02293C89.4567 4.77357 89.7063 4.83293 90.0809 4.88043C90.4555 4.92793 90.674 5.02293 90.674 5.09417ZM260.91 5.09417C260.911 5.11392 260.9 5.13347 260.879 5.15158C260.858 5.1697 260.828 5.18597 260.79 5.19936C260.752 5.21276 260.707 5.223 260.658 5.22942C260.608 5.23584 260.556 5.2383 260.505 5.23665C260.453 5.2383 260.401 5.23584 260.352 5.22942C260.303 5.223 260.258 5.21276 260.219 5.19936C260.181 5.18597 260.151 5.1697 260.13 5.15158C260.109 5.13347 260.099 5.11392 260.099 5.09417C260.099 5.05323 260.142 5.01396 260.218 4.98501C260.294 4.95606 260.397 4.93979 260.505 4.93979C260.559 4.93798 260.614 4.94073 260.665 4.94785C260.717 4.95496 260.763 4.96627 260.802 4.98099C260.841 4.9957 260.871 5.01346 260.889 5.03301C260.908 5.05257 260.915 5.07344 260.91 5.09417V5.09417ZM84.6186 5.67602C84.6186 5.67602 84.2129 5.78289 83.7134 5.79476C83.1303 5.81415 82.5546 5.85796 81.9967 5.92538C81.5597 5.99663 81.747 5.92538 82.4025 5.74726C83.058 5.56915 84.6186 5.42666 84.6186 5.67602V5.67602ZM81.1227 5.79476C80.8804 5.92363 80.527 6.01608 80.1239 6.056C79.5621 6.056 79.406 6.21037 79.5933 6.34099C79.7806 6.47161 79.7493 6.48348 79.5933 6.43598C79.3638 6.29597 79.2247 6.13727 79.1875 5.97288C79.1875 5.67602 79.1875 5.61665 80.1863 5.61665C81.1852 5.61665 81.2476 5.68789 81.1539 5.79476L81.1227 5.79476ZM67.8884 5.79476C67.8884 5.86601 67.6387 5.96101 67.108 5.99664C66.1092 6.06788 65.4849 5.99663 65.9844 5.74726C66.2613 5.67097 66.5945 5.6299 66.9364 5.6299C67.2783 5.6299 67.6114 5.67097 67.8884 5.74726L67.8884 5.79476ZM92.3907 6.1035C92.578 6.1035 92.1722 6.18662 91.4855 6.1035C90.7988 6.02038 90.237 5.97288 90.237 5.88976C90.237 5.80664 91.8289 5.88976 92.3907 6.056L92.3907 6.1035ZM224.297 6.02037C224.297 6.02037 224.016 6.12724 223.673 6.17474C223.33 6.22224 223.143 6.17474 223.267 6.17474C223.392 6.17474 224.297 5.961 224.297 6.07975L224.297 6.02037ZM339.786 6.02037C339.786 6.02037 339.599 6.13911 339.38 6.19849C339.162 6.25786 338.974 6.19849 338.974 6.11537C338.974 6.07326 339.016 6.03268 339.091 6.00182C339.167 5.97097 339.27 5.95213 339.38 5.94912C339.599 5.94912 339.786 5.94912 339.786 6.02037V6.02037ZM66.7959 6.31724C67.4826 6.59035 65.6098 6.64973 64.1116 6.41224C63.3001 6.28162 62.6446 6.12725 62.6446 6.06788C64.061 6.02226 65.4854 6.10782 66.7959 6.31724V6.31724ZM72.6952 6.18662C72.6952 6.26974 72.6952 6.34099 72.5391 6.34099C72.3831 6.34099 72.2582 6.26974 72.1021 6.18662C71.9461 6.1035 72.1021 6.03226 72.2894 6.03226C72.397 6.03226 72.5002 6.04851 72.5763 6.07746C72.6524 6.10641 72.6952 6.14568 72.6952 6.18662V6.18662ZM81.6846 6.31724C81.4349 6.5666 80.7482 6.63785 80.7482 6.41224C80.7482 6.18662 81.0291 6.21037 81.8718 6.1035C81.8491 6.17892 81.7853 6.25172 81.6846 6.31724ZM87.3966 6.40036C87.0811 6.49899 86.6808 6.54975 86.2729 6.54286C85.6486 6.54286 85.5238 6.54285 85.8671 6.72097C86.2933 6.83736 86.81 6.89591 87.3341 6.88722C88.0832 6.88722 88.2394 6.88721 87.8648 7.07721C87.6872 7.13223 87.4825 7.17318 87.2627 7.19765C87.043 7.22212 86.8126 7.22962 86.585 7.2197C86.1484 7.2107 85.7108 7.2107 85.2741 7.2197C84.3065 7.2197 84.7747 6.62597 85.8984 6.47161C87.022 6.31724 87.6775 6.25787 87.3966 6.47161L87.3966 6.40036ZM84.2753 6.54286C84.2753 6.62598 84.2752 6.69722 83.8695 6.69722C83.4637 6.69722 83.3389 6.62598 83.4637 6.54286C83.5886 6.45974 83.7758 6.40036 83.8695 6.40036C83.9631 6.40036 84.1192 6.45974 84.2753 6.54286ZM94.9501 6.62598C94.9501 6.7566 94.7941 6.85159 94.5756 6.85159C94.3571 6.85159 94.1386 6.7566 93.9825 6.62598C93.8265 6.49536 93.9825 6.40036 94.3571 6.40036C94.4362 6.39864 94.5153 6.40329 94.5893 6.41402C94.6633 6.42475 94.7305 6.44131 94.7865 6.46262C94.8425 6.48392 94.886 6.50949 94.9142 6.53764C94.9424 6.56579 94.9547 6.5959 94.9501 6.62598V6.62598ZM159.343 6.69722C159.335 6.73922 159.285 6.77851 159.204 6.80717C159.123 6.83582 159.017 6.85169 158.906 6.85158C158.687 6.85158 158.594 6.78034 158.719 6.69722C158.758 6.66108 158.818 6.62859 158.893 6.60196C158.968 6.57533 159.058 6.55517 159.156 6.54286C159.156 6.54286 159.343 6.54285 159.343 6.69722ZM78.4696 7.01783C79.0627 7.38594 78.8754 7.46907 77.7205 7.38594C76.5656 7.30282 76.6905 7.31469 77.3459 7.49281C80.28 8.26465 80.4673 8.45465 78.6257 8.58527C77.7205 8.58527 77.6269 8.58527 77.8454 8.32403C78.0638 8.06279 77.8454 8.06279 77.8454 8.19341C77.6501 8.25791 77.4214 8.30606 77.174 8.3347C76.9266 8.36334 76.6661 8.37184 76.4095 8.35965C75.8477 8.35965 75.442 8.2884 75.5668 8.25277C75.6917 8.21715 75.3171 8.07466 74.7865 7.93217L73.8501 7.69468L74.6304 7.38594C75.0986 7.20783 75.3483 7.16033 75.1922 7.25532C75.0362 7.35032 75.1922 7.46907 75.7541 7.51656C76.3159 7.56406 76.909 7.2672 76.1286 7.08908C76.0235 7.06267 75.9353 7.02762 75.8705 6.98652C75.8057 6.94542 75.7659 6.89931 75.7541 6.85159C75.7541 6.62597 78.1887 6.78034 78.5945 7.01783L78.4696 7.01783ZM167.24 6.79222C167.24 6.79222 166.74 6.79222 166.459 6.79222C166.179 6.79222 166.241 6.69722 166.709 6.69722C167.177 6.69722 167.365 6.69722 167.24 6.76846L167.24 6.79222ZM81.2788 7.80155C80.9355 7.94404 80.9355 8.03904 81.2788 8.19341C81.6222 8.34778 81.6222 8.3834 80.6858 8.19341C79.1563 7.93217 79.406 7.64718 81.1851 7.61155C81.6221 7.61155 81.6533 7.61156 81.1851 7.7778L81.2788 7.80155ZM83.9632 7.87279C83.828 7.93303 83.6505 7.97733 83.4514 8.00047C83.2523 8.02361 83.04 8.02463 82.8395 8.00341C82.0591 7.8253 82.3713 7.62343 83.4949 7.62343C84.6186 7.62343 84.5562 7.62343 83.9632 7.87279ZM86.7411 7.87279C86.6207 7.89672 86.4868 7.90922 86.351 7.90922C86.2151 7.90922 86.0812 7.89672 85.9608 7.87279C85.6487 7.87279 85.7423 7.78968 86.2105 7.7778C86.6787 7.76593 86.866 7.7778 86.7411 7.86092L86.7411 7.87279ZM145.391 8.32402C145.274 8.34515 145.146 8.3561 145.016 8.3561C144.886 8.3561 144.759 8.34515 144.641 8.32402C144.329 8.32402 144.423 8.22903 144.891 8.22903C145.359 8.22903 145.547 8.22902 145.391 8.30027L145.391 8.32402ZM111.993 8.87025C111.993 8.98899 111.743 8.95337 111.743 8.77525C111.743 8.59714 111.743 8.52589 111.961 8.57339C112.017 8.61996 112.046 8.67059 112.046 8.72182C112.046 8.77305 112.017 8.82368 111.961 8.87025L111.993 8.87025ZM89.5815 8.87025C89.5815 9.00087 89.3942 9.06024 89.1757 9.01274C89.0632 8.98835 88.9676 8.95407 88.897 8.91275C88.8264 8.87143 88.7829 8.82428 88.77 8.77525C88.8092 8.74522 88.8731 8.72086 88.9519 8.70587C89.0307 8.69087 89.1203 8.68605 89.2069 8.69213C89.4254 8.69213 89.6127 8.81088 89.6127 8.94149L89.5815 8.87025ZM84.5562 9.11961C84.8059 9.21461 82.9019 9.38085 81.4348 9.38085C81.0297 9.36917 80.6227 9.36917 80.2175 9.38085C79.8742 9.38085 79.5621 9.38086 79.4996 9.26211C79.4372 9.14337 83.8383 8.8465 84.4625 9.07211L84.5562 9.11961ZM259.038 9.11961C259.038 9.16055 258.995 9.19981 258.919 9.22876C258.843 9.25771 258.739 9.27397 258.632 9.27397C258.524 9.27397 258.421 9.25771 258.345 9.22876C258.269 9.19981 258.226 9.16055 258.226 9.11961C258.226 9.07867 258.269 9.0394 258.345 9.01045C258.421 8.9815 258.524 8.96524 258.632 8.96524C258.739 8.96524 258.843 8.9815 258.919 9.01045C258.995 9.0394 259.038 9.07867 259.038 9.11961V9.11961ZM63.2064 9.28586C63.2064 9.36898 63.2064 9.44022 63.0503 9.44022C62.9945 9.44186 62.9383 9.43909 62.8854 9.43207C62.8325 9.42505 62.7841 9.41394 62.743 9.39944C62.702 9.38493 62.6692 9.36735 62.6469 9.34781C62.6246 9.32826 62.6132 9.30717 62.6133 9.28586C62.6133 9.19086 62.6133 9.13149 62.8006 9.13149C62.9879 9.13149 63.0815 9.13149 63.2064 9.28586ZM84.7435 9.64209C84.7435 9.64209 84.4938 9.74896 84.1504 9.79646C83.8071 9.84396 83.5574 9.79646 83.5574 9.79646C83.5574 9.79646 83.8071 9.64209 84.1504 9.64209C84.4938 9.64209 84.7435 9.64209 84.7435 9.64209ZM285.475 10.0221C285.475 10.1289 285.475 10.1646 285.007 10.1171C284.539 10.0696 284.383 9.95081 284.383 9.86769C284.383 9.78457 285.288 9.78458 285.475 10.0221V10.0221ZM248.956 10.2002C248.956 10.2411 248.913 10.2804 248.837 10.3093C248.761 10.3383 248.658 10.3546 248.55 10.3546C248.442 10.3546 248.339 10.3383 248.263 10.3093C248.187 10.2804 248.144 10.2411 248.144 10.2002C248.144 10.1592 248.187 10.12 248.263 10.091C248.339 10.0621 248.442 10.0458 248.55 10.0458C248.658 10.0458 248.761 10.0621 248.837 10.091C248.913 10.12 248.956 10.1592 248.956 10.2002V10.2002ZM133.03 10.8177C133.03 10.9127 133.03 10.9602 132.718 10.9602C132.406 10.9602 132.375 10.8652 132.375 10.7345C132.375 10.6039 132.375 10.5445 132.718 10.592C132.813 10.6178 132.89 10.6517 132.944 10.6908C132.998 10.73 133.028 10.7734 133.03 10.8177V10.8177ZM190.306 10.8177C189.98 10.8533 189.634 10.8533 189.307 10.8177C188.995 10.8177 189.308 10.7464 189.807 10.7464C190.306 10.7464 190.587 10.7464 190.306 10.8177V10.8177ZM194.208 10.8177C194.208 10.9008 194.208 10.9602 194.208 10.9602C194.208 10.9602 193.927 10.9008 193.771 10.8177C193.615 10.7345 193.771 10.6633 193.958 10.6633C194.066 10.6633 194.169 10.6795 194.245 10.7085C194.321 10.7374 194.364 10.7767 194.364 10.8177L194.208 10.8177ZM181.723 10.9602C181.723 11.0433 181.723 11.1145 181.535 11.1145C181.348 11.1145 181.254 11.0433 181.098 10.9602C180.942 10.877 181.098 10.8058 181.286 10.8058C181.342 10.8041 181.398 10.8069 181.451 10.8139C181.503 10.821 181.552 10.8321 181.593 10.8466C181.634 10.8611 181.667 10.8786 181.689 10.8982C181.711 10.9177 181.723 10.9388 181.723 10.9602V10.9602ZM177.103 11.6964C177.103 11.6964 176.635 11.6964 176.354 11.5895C176.073 11.4826 176.011 11.4233 176.604 11.5182C177.197 11.6132 177.228 11.6607 177.103 11.6964ZM137.025 11.8745C137.03 11.8952 137.023 11.9161 137.004 11.9356C136.986 11.9552 136.956 11.9729 136.917 11.9877C136.879 12.0024 136.832 12.0137 136.78 12.0208C136.729 12.0279 136.674 12.0307 136.62 12.0288C136.568 12.0289 136.516 12.0249 136.469 12.017C136.421 12.0091 136.378 11.9975 136.343 11.983C136.308 11.9685 136.281 11.9513 136.264 11.9327C136.247 11.914 136.241 11.8942 136.245 11.8745C136.241 11.8548 136.247 11.835 136.264 11.8163C136.281 11.7976 136.308 11.7805 136.343 11.766C136.378 11.7514 136.421 11.7399 136.469 11.732C136.516 11.7241 136.568 11.7201 136.62 11.7201C136.727 11.7201 136.831 11.7364 136.907 11.7653C136.983 11.7943 137.025 11.8335 137.025 11.8745V11.8745ZM115.176 12.0407C115.176 12.1238 115.176 12.1951 114.989 12.1951C114.802 12.1951 114.708 12.1238 114.583 12.0407C114.458 11.9576 114.583 11.8864 114.739 11.8864C114.795 11.8847 114.851 11.8875 114.904 11.8945C114.957 11.9015 115.006 11.9126 115.047 11.9271C115.088 11.9416 115.12 11.9592 115.143 11.9788C115.165 11.9983 115.176 12.0194 115.176 12.0407V12.0407ZM165.492 11.9457C165.492 11.9457 165.211 12.0407 164.868 12.1001C164.524 12.1595 164.337 12.1001 164.493 12.1001C164.649 12.1001 165.492 11.8745 165.492 12.0051L165.492 11.9457ZM180.381 12.1832C180.381 12.2663 180.38 12.3376 180.193 12.3376C180.006 12.3376 179.944 12.2663 179.787 12.1832C179.631 12.1001 179.787 12.0288 179.975 12.0288C180.082 12.0288 180.186 12.0451 180.262 12.0741C180.338 12.103 180.381 12.1423 180.381 12.1832V12.1832ZM130.096 12.4445C130.096 12.5751 129.909 12.6344 129.659 12.5751C129.553 12.5525 129.474 12.5151 129.439 12.4708C129.404 12.4264 129.416 12.3787 129.472 12.3376C129.846 12.1238 130.096 12.1595 130.096 12.4445ZM134.404 12.4445C134.283 12.4684 134.149 12.4809 134.013 12.4809C133.878 12.4809 133.744 12.4684 133.623 12.4445C133.311 12.4445 133.405 12.3613 133.873 12.3495C134.341 12.3376 134.528 12.3495 134.404 12.4326L134.404 12.4445ZM103.19 12.5751C103.19 12.5751 103.19 12.682 102.785 12.7294C102.379 12.7769 102.379 12.7294 102.379 12.7294C102.379 12.6873 102.42 12.6468 102.496 12.6159C102.571 12.585 102.674 12.5662 102.785 12.5632C103.034 12.5632 103.19 12.5632 103.19 12.6345L103.19 12.5751Z" fill="#5E5E5E"/>
<path d="M265.811 0.2137C265.934 0.240797 266.074 0.255066 266.217 0.255066C266.359 0.255066 266.499 0.240797 266.623 0.2137C266.623 0.2137 266.623 0.130578 266.061 0.130578C265.499 0.130578 265.499 0.13058 265.811 0.225577L265.811 0.2137Z" fill="#5E5E5E"/>
<path d="M167.24 1.34178C167.24 1.4249 167.24 1.49615 167.428 1.49615C167.535 1.49615 167.638 1.47989 167.714 1.45094C167.791 1.42199 167.833 1.38272 167.833 1.34178C167.833 1.25866 167.833 1.18741 167.833 1.18741C167.833 1.18741 167.552 1.25866 167.396 1.34178L167.24 1.34178Z" fill="#5E5E5E"/>
<path d="M117.299 2.36299C117.419 2.38692 117.553 2.39941 117.689 2.39941C117.825 2.39941 117.959 2.38692 118.079 2.36299C118.079 2.36299 118.079 2.268 117.549 2.27987C117.018 2.29174 116.987 2.27987 117.299 2.37486L117.299 2.36299Z" fill="#5E5E5E"/>
<path d="M136.183 2.36304C136.515 2.4104 136.881 2.4104 137.213 2.36304C137.494 2.36304 137.213 2.27991 136.682 2.27991C136.152 2.27991 135.902 2.27991 136.183 2.36304Z" fill="#5E5E5E"/>
<path d="M75.9102 4.83297C75.9102 4.90422 74.9738 4.93984 73.8189 4.90421C72.664 4.86859 71.8525 4.90422 72.3207 4.99921C73.3507 5.2842 77.3772 5.14171 76.8778 4.84485C76.3784 4.54799 75.9102 4.66673 75.9102 4.84485L75.9102 4.83297Z" fill="#5E5E5E"/>
<path d="M342.034 5.07047C342.034 5.33171 343.126 5.71169 343.47 5.58107C343.813 5.45045 343.47 5.33171 342.877 5.16547C342.283 4.99922 342.034 4.9161 342.034 5.07047Z" fill="#5E5E5E"/>
<path d="M61.1155 5.31997C61.2716 5.41497 61.4589 5.47433 61.5525 5.47433C61.6461 5.47433 61.7398 5.41497 61.7398 5.31997C61.7319 5.27797 61.6824 5.23867 61.6013 5.21002C61.5202 5.18136 61.4135 5.16549 61.3028 5.1656C61.2564 5.16613 61.2113 5.17157 61.1726 5.18131C61.1339 5.19106 61.1031 5.20471 61.0836 5.22074C61.0642 5.23677 61.0569 5.25455 61.0625 5.27208C61.0682 5.28961 61.0865 5.30619 61.1155 5.31997Z" fill="#5E5E5E"/>
<path d="M59.4299 5.78291C59.6796 5.96103 59.9293 6.09164 60.0542 6.09164C60.179 6.09164 60.0542 5.96103 59.8045 5.78291C59.5548 5.6048 59.3051 5.47418 59.1802 5.47418C59.0554 5.47418 59.1802 5.6048 59.4299 5.78291Z" fill="#5E5E5E"/>
<path d="M57.0265 5.94916C57.0265 6.03228 57.3698 6.09164 57.838 6.09164C58.3062 6.09164 58.6183 6.09164 58.6183 6.09164C58.6183 6.09164 58.275 5.99666 57.838 5.94916C57.401 5.90166 57.0265 5.94916 57.0265 5.94916Z" fill="#5E5E5E"/>
<path d="M46.7884 6.31713C46.5387 6.57837 47.4751 6.74461 48.3803 6.614C49.2854 6.48338 48.9733 6.61399 48.7861 6.68524C48.5988 6.75649 48.7861 6.86336 49.5664 6.86336C50.3467 6.86336 50.69 6.94648 50.8149 7.16022C50.9397 7.37396 51.1582 7.43334 51.7513 7.30272C52.4891 7.20499 53.292 7.20499 54.0298 7.30272C55.0287 7.37396 55.3408 7.44521 54.8414 7.48084C54.342 7.51646 54.1859 7.6352 54.342 7.7777C54.4617 7.87166 54.5458 7.97161 54.5917 8.07456C54.5917 8.25268 55.7466 8.07455 56.246 7.88456C56.7454 7.69457 56.683 7.62332 56.246 7.57582C55.809 7.52833 56.0587 7.40958 56.6518 7.20772L57.5569 6.91086L56.5581 6.91086C55.9978 6.92325 55.4364 6.89504 54.9038 6.82774C54.6627 6.78751 54.4023 6.76675 54.1391 6.76675C53.8758 6.76675 53.6155 6.78751 53.3744 6.82774C52.4692 7.01773 51.564 6.92274 51.9698 6.67337C52.0633 6.64544 52.1787 6.63026 52.2975 6.63026C52.4164 6.63026 52.5318 6.64544 52.6253 6.67337C52.9062 6.74462 52.9686 6.67337 52.8125 6.67337C52.6565 6.67337 52.0946 6.54275 51.5016 6.57837C49.2854 6.73274 48.8797 6.68524 50.1282 6.41213C51.3767 6.13902 50.4716 6.1034 49.2855 6.41213C49.0564 6.46696 48.7913 6.49605 48.5207 6.49605C48.2501 6.49605 47.985 6.46696 47.756 6.41213C47.163 6.29339 46.9132 6.30526 46.7572 6.41213L46.7884 6.31713ZM55.7778 7.78956C55.7778 7.87269 55.7778 7.94394 55.7778 7.94394C55.7778 7.94394 55.4968 7.87269 55.3408 7.78956C55.1847 7.70644 55.3408 7.6352 55.5281 7.6352C55.6357 7.6352 55.7389 7.65147 55.815 7.68042C55.8911 7.70937 55.9338 7.74862 55.9338 7.78956L55.7778 7.78956Z" fill="#5E5E5E"/>
<path d="M55.4968 6.24612C55.7153 6.54298 57.6818 6.80421 58.1812 6.61422C58.6806 6.42423 58.1812 6.45986 57.3384 6.45986C56.7367 6.46416 56.1544 6.37894 55.7154 6.22236C55.4032 6.05612 55.372 6.05612 55.4968 6.22236L55.4968 6.24612Z" fill="#5E5E5E"/>
<path d="M42.7935 6.7567L41.6385 6.94669L42.731 7.23168C43.8235 7.50479 43.8235 7.49292 43.605 7.16043C43.3865 6.82795 43.605 6.82795 44.2605 6.91107C46.6015 7.17231 47.3818 7.19606 47.3818 7.00607C47.3818 6.81608 47.1009 6.86357 46.7575 6.91107C46.4142 6.95857 46.2269 6.91107 46.383 6.91107C46.539 6.91107 46.383 6.7567 45.8212 6.7567C45.3755 6.77769 44.9246 6.77769 44.479 6.7567C43.9099 6.7419 43.3404 6.78278 42.8247 6.87545L42.7935 6.7567Z" fill="#5E5E5E"/>
<path d="M39.5157 7.10101C39.11 7.50474 39.2348 7.70661 39.7654 7.50474C40.2961 7.30287 41.0764 7.2435 40.733 7.50474C40.3897 7.76598 40.8891 7.69473 41.3885 7.76598C41.8523 7.81291 42.2734 7.90738 42.6058 8.03909C42.7931 8.14596 42.9179 8.03909 42.9179 7.86098C42.9179 7.68286 42.918 7.52848 42.044 7.61161C41.17 7.69473 41.2324 7.61161 41.4509 7.45724C41.6694 7.30287 41.4509 7.20788 41.2637 7.20788C41.0764 7.20788 40.9515 7.20788 41.0764 7.06538C41.2012 6.92289 41.0764 6.91102 40.5458 6.91102C40.33 6.91182 40.1191 6.93561 39.937 6.97969C39.755 7.02376 39.609 7.08636 39.5157 7.16038L39.5157 7.10101Z" fill="#5E5E5E"/>
<path d="M57.9937 7.16026C57.307 7.4215 57.3383 7.43337 58.5868 7.61148C59.8353 7.7896 59.8041 7.7421 59.4608 7.61148C59.3397 7.56321 59.251 7.50456 59.2021 7.44049C59.1532 7.37641 59.1456 7.30881 59.1798 7.24338C59.492 6.92277 58.7741 6.87527 57.9937 7.16026Z" fill="#5E5E5E"/>
<path d="M36.1451 7.3146C35.4119 7.36316 34.6621 7.36316 33.9289 7.3146C32.8052 7.3146 32.774 7.31461 33.7104 7.42148C34.1816 7.51334 34.72 7.54259 35.2399 7.5046C35.5208 7.5046 35.7705 7.5046 35.7705 7.5046C35.7705 7.5046 35.4896 7.67084 35.1462 7.71834C34.8029 7.76584 34.7717 8.13394 35.6769 8.13394C36.5821 8.13394 36.2699 8.13395 35.8329 7.99145C35.3959 7.84896 35.6769 7.78958 36.6445 7.62334C37.6121 7.4571 38.0179 7.4096 38.2051 7.62334C38.3924 7.83708 38.486 7.83708 38.6733 7.62334C38.8606 7.4096 37.4872 7.05337 36.1451 7.18399L36.1451 7.3146Z" fill="#5E5E5E"/>
<path d="M48.6303 7.38619C49.3794 7.6593 50.2534 7.7068 50.0037 7.38619C49.754 7.06558 49.4419 7.18432 48.9425 7.1487C48.4431 7.11307 48.0997 7.1487 48.6303 7.32681L48.6303 7.38619Z" fill="#5E5E5E"/>
<path d="M31.3693 7.76577C31.3693 7.94389 30.9635 8.02701 30.7138 7.97951C30.4641 7.93201 30.4329 7.97951 30.7138 8.06263C30.79 8.13233 30.81 8.20908 30.771 8.2831C30.7321 8.35712 30.6361 8.42506 30.4953 8.47824C30.2144 8.60886 30.0896 8.7276 30.2144 8.7751C30.3393 8.8226 30.6514 8.66823 30.9323 8.46636C31.4941 8.06263 32.6178 7.8014 32.2744 8.15763C32.2744 8.30013 32.2745 8.38324 32.649 8.38324C33.6791 8.38324 33.8663 8.06263 32.9924 7.75389C32.1184 7.44516 31.7126 7.39766 31.4629 7.75389L31.3693 7.76577Z" fill="#5E5E5E"/>
<path d="M28.2789 7.73022C28.2064 7.75896 28.1659 7.79725 28.1659 7.83708C28.1659 7.87692 28.2064 7.91521 28.2789 7.94396C28.5598 8.12207 29.6834 8.12207 29.6834 7.94396C29.6834 7.76584 28.6222 7.5996 28.3101 7.73022L28.2789 7.73022Z" fill="#5E5E5E"/>
<path d="M46.0079 7.93196C46.2493 8.03779 46.51 8.137 46.7882 8.22882C46.7882 8.22882 46.7882 8.0982 46.7882 7.93196C46.7924 7.89199 46.7754 7.8521 46.738 7.8147C46.7007 7.7773 46.6439 7.74316 46.571 7.71432C46.4981 7.68549 46.4107 7.66256 46.3139 7.6469C46.2171 7.63125 46.1131 7.62319 46.0079 7.62322C45.29 7.62322 45.29 7.62322 46.0079 7.93196Z" fill="#5E5E5E"/>
<path d="M48.2554 8.03891C48.4097 8.09912 48.5942 8.14696 48.7979 8.17959C49.0016 8.21222 49.2205 8.22899 49.4415 8.22891C50.2843 8.22891 50.4403 8.47827 49.66 8.59701C48.8797 8.71576 49.4103 8.66826 49.66 8.68014C49.8414 8.67794 50.0207 8.69584 50.1758 8.73168C50.331 8.76752 50.4554 8.81975 50.534 8.88201C50.534 9.01263 50.8149 8.98887 51.0334 8.79888C51.564 8.30015 50.7213 7.88455 49.1294 7.87267C47.5375 7.8608 47.756 7.87267 48.0994 8.03891L48.2554 8.03891Z" fill="#5E5E5E"/>
<path d="M51.7514 8.02694C52.1797 8.14169 52.6948 8.20007 53.2184 8.19318C53.8426 8.19318 54.0924 8.19317 53.8114 8.12193C53.5305 8.05068 53.4056 8.00319 53.4993 7.94381C53.5929 7.88444 53.1872 7.82506 52.5317 7.83694C51.8762 7.84881 51.4704 7.90819 51.7514 8.02694Z" fill="#5E5E5E"/>
<path d="M23.6598 8.07446C23.6598 8.1154 23.7025 8.15466 23.7786 8.1836C23.8547 8.21255 23.958 8.22882 24.0656 8.22882C24.3153 8.22882 24.3777 8.15758 24.2529 8.07446C24.128 7.99133 23.9407 7.93196 23.8159 7.93196C23.691 7.93196 23.6598 7.93196 23.6598 8.07446Z" fill="#5E5E5E"/>
<path d="M26.2192 8.22907C25.5326 8.51406 25.5326 8.52593 26.2192 8.50218C26.9059 8.47843 26.9683 8.43094 26.8747 8.37157C26.781 8.3122 26.8747 8.22907 27.1556 8.19345C27.4365 8.15783 27.4989 8.09845 27.1556 8.02721C26.8122 7.95596 26.4065 8.02721 26.0319 8.22907L26.2192 8.22907Z" fill="#5E5E5E"/>
<path d="M39.7032 8.20524C40.3587 8.32398 40.6396 8.84646 40.0466 8.84646C39.4535 8.84646 39.7032 8.90584 39.7032 9.00084C39.7032 9.09583 40.3899 9.00083 41.2951 8.84646C42.0074 8.69876 42.7763 8.59459 43.5737 8.53773C44.1355 8.53773 44.1668 8.53773 43.8234 8.35961C43.759 8.32978 43.678 8.30575 43.5862 8.28925C43.4945 8.27275 43.3942 8.26419 43.2927 8.26419C43.1913 8.26419 43.0911 8.27275 42.9993 8.28925C42.9076 8.30575 42.8265 8.32978 42.7621 8.35961C42.3876 8.47836 42.1067 8.49023 41.9194 8.35961C41.8655 8.31713 41.7695 8.28453 41.6524 8.26895C41.5354 8.25336 41.4069 8.25608 41.2951 8.27649C41.1078 8.27649 40.8582 8.27649 40.7021 8.19337C40.5876 8.14274 40.4427 8.10336 40.2797 8.07855C40.1167 8.05375 39.9404 8.04426 39.7657 8.05087C39.2038 8.05087 39.1726 8.05087 39.7657 8.16962L39.7032 8.20524Z" fill="#5E5E5E"/>
<path d="M60.6157 8.21718C60.6157 8.31218 61.3649 8.38342 62.3013 8.38342C64.2989 8.38342 64.1428 8.22906 62.0827 8.13406C61.2088 8.13406 60.6157 8.13406 60.6157 8.21718Z" fill="#5E5E5E"/>
<path d="M55.9962 8.38324C55.9962 8.46636 55.9962 8.53761 55.9962 8.53761C55.9962 8.53761 55.9962 8.6801 55.7777 8.83447C55.5592 8.98884 55.2471 9.11946 53.9674 8.91759C52.1882 8.63261 52.0946 8.73947 53.9674 9.07196C55.8401 9.40444 58.2123 9.2382 57.4632 8.89384C57.2135 8.77509 57.1511 8.6801 57.4632 8.70385C58.1183 8.71659 58.7746 8.71659 59.4296 8.70385C60.7718 8.70385 60.8967 8.70385 60.3036 8.52573C59.7585 8.42802 59.1428 8.40293 58.5556 8.45449C58.2966 8.48408 58.0244 8.49302 57.7558 8.48076C57.4873 8.4685 57.2283 8.4353 56.995 8.38324C56.6204 8.26449 56.4019 8.26449 56.2147 8.38324L55.9962 8.38324Z" fill="#5E5E5E"/>
<path d="M37.2685 8.4905C37.2685 8.59737 36.8628 8.68048 36.3634 8.68048C35.8393 8.68557 35.3343 8.75656 34.9275 8.88236C34.5218 9.03673 34.272 9.01297 33.835 8.77548C33.3981 8.53799 33.242 8.4905 33.242 8.77548C33.242 9.06047 33.0547 9.07234 32.7114 9.02485C32.6336 9.01352 32.5506 9.00823 32.4674 9.00929C32.3841 9.01035 32.3023 9.01774 32.2267 9.03101C32.151 9.04429 32.0832 9.0632 32.0271 9.08661C31.9709 9.11003 31.9277 9.13747 31.8999 9.16734C31.7126 9.35733 31.8998 9.3692 32.805 9.27421C33.5357 9.21557 34.2905 9.21557 35.0212 9.27421C35.7079 9.27421 36.0824 9.27421 36.0824 9.16734C36.0824 9.06047 36.3321 9.01297 36.6755 9.06047C37.0188 9.10797 37.2685 9.06047 37.2685 9.06047C37.2685 9.06047 37.6431 8.94172 38.0488 8.94172C38.4546 8.94172 38.8604 8.88235 38.8604 8.79923C38.8604 8.71611 38.6419 8.64486 38.3922 8.64486C38.2361 8.64201 38.0834 8.62681 37.9436 8.60023C37.8039 8.57365 37.6803 8.53628 37.5807 8.4905C37.3934 8.3955 37.2685 8.41925 37.2685 8.4905Z" fill="#5E5E5E"/>
<path d="M21.5055 8.69225C21.6698 8.73776 21.8587 8.76882 22.0584 8.78319C22.2581 8.79757 22.4637 8.79489 22.6604 8.77537C23.191 8.77537 23.0974 8.70412 22.2546 8.63288C21.4119 8.56163 21.2558 8.63288 21.5055 8.63288L21.5055 8.69225Z" fill="#5E5E5E"/>
<path d="M24.4086 8.69212C24.4086 8.77524 24.4085 8.81087 24.8143 8.69212C25.2201 8.57338 25.1889 8.57338 25.1889 8.53776C25.1889 8.50213 25.0328 8.46651 24.8143 8.46651C24.7583 8.46644 24.7028 8.4708 24.6515 8.47929C24.6001 8.48778 24.5539 8.50022 24.5158 8.51583C24.4776 8.53145 24.4484 8.54991 24.43 8.57003C24.4115 8.59015 24.4042 8.6115 24.4086 8.63275L24.4086 8.69212Z" fill="#5E5E5E"/>
<path d="M25.5949 9.02472C25.2203 9.27408 25.2516 9.32158 25.5949 9.27408C25.7555 9.24332 25.8936 9.19797 25.9971 9.14204C26.1005 9.08612 26.1661 9.02135 26.188 8.95347C26.344 8.59724 26.188 8.62098 25.5637 9.02472L25.5949 9.02472Z" fill="#5E5E5E"/>
<path d="M28.1852 8.96524C28.6222 9.14335 28.9343 9.1671 29.2464 9.04836C29.5586 8.92961 29.2465 8.87023 28.6222 8.81086C27.9979 8.75149 27.5922 8.81087 28.1852 8.96524Z" fill="#5E5E5E"/>
<path d="M49.6599 9.16687C49.9408 9.27374 50.2529 9.32123 50.3778 9.27373C50.5026 9.22623 50.3778 9.14312 49.8784 9.08375C49.3789 9.02437 49.2541 9.0125 49.6599 9.16687Z" fill="#5E5E5E"/>
<path d="M22.13 9.38068C22.3573 9.47105 22.6207 9.54719 22.9104 9.60629C22.9104 9.60629 23.0664 9.5113 23.0664 9.38068C23.0664 9.25007 22.7231 9.15507 22.2861 9.15507C21.8491 9.15507 21.5682 9.15507 22.13 9.38068Z" fill="#5E5E5E"/>
<path d="M29.3719 9.4405C28.9349 9.71362 28.9661 9.72549 29.8401 9.6305C30.714 9.5355 31.2134 9.25051 30.3707 9.19114C30.0898 9.19114 29.6216 9.28613 29.3719 9.4405Z" fill="#5E5E5E"/>
<path d="M64.2365 9.6301C63.6435 9.77259 63.6747 9.78447 65.2041 9.84384C65.8284 9.84384 66.3278 9.84384 66.3278 9.76072C66.3278 9.6776 64.8608 9.47573 64.2365 9.6301Z" fill="#5E5E5E"/>
<path d="M338.382 9.49953L339.349 9.77264C340.067 9.97451 340.098 9.97451 339.599 9.77264C339.361 9.64734 339.021 9.55549 338.631 9.5114C338.413 9.5114 338.288 9.5114 338.382 9.5114L338.382 9.49953Z" fill="#5E5E5E"/>
<path d="M37.2685 9.76073C36.7378 9.89135 36.7378 9.9151 37.2685 9.9151C37.4443 9.91591 37.6187 9.90258 37.78 9.87598C37.9414 9.84937 38.0862 9.8101 38.2049 9.76073C38.517 9.57074 37.9864 9.57074 37.1748 9.76073L37.2685 9.76073Z" fill="#5E5E5E"/>
<path d="M61.7392 9.8796C61.115 9.8796 60.7092 9.99835 60.8028 10.0696C60.8965 10.1408 62.9878 10.0696 63.2999 9.90335C63.612 9.7371 63.2999 9.78461 63.2999 9.79648L61.7392 9.8796Z" fill="#5E5E5E"/>
<path d="M71.884 9.87952C70.4794 9.99827 70.6979 10.0458 72.8204 10.0933C73.5071 10.0933 73.9128 10.0933 73.9128 9.92702C73.9128 9.76078 73.9128 9.73703 73.6319 9.7489L71.884 9.87952Z" fill="#5E5E5E"/>
<path d="M55.9962 10.0697C55.9962 10.1409 55.9961 10.224 55.4967 10.2597C54.9973 10.2953 54.9037 10.3309 55.4967 10.4022C55.7166 10.4263 55.9488 10.4292 56.1723 10.4105C56.3958 10.3919 56.6035 10.3522 56.7765 10.2953C57.151 10.1409 57.0886 10.0815 56.4956 10.0222C55.9025 9.9628 55.8089 10.0222 55.9025 10.0222L55.9962 10.0697Z" fill="#5E5E5E"/>
<path d="M59.3359 10.1766C59.4564 10.2005 59.5902 10.213 59.7261 10.213C59.862 10.213 59.9958 10.2005 60.1163 10.1766C60.1163 10.1766 60.1163 10.0935 59.5856 10.0935C59.055 10.0935 59.0238 10.0935 59.3359 10.1885L59.3359 10.1766Z" fill="#5E5E5E"/>
<path d="M48.9421 10.3666C48.63 10.4497 48.4739 10.5447 48.5988 10.5922C48.7236 10.6397 49.1606 10.5922 49.5976 10.4615C50.0345 10.3309 49.8785 10.1409 48.9421 10.3666Z" fill="#5E5E5E"/>
<path d="M43.1367 10.9719C43.0824 11.0193 43.078 11.0729 43.1245 11.1215C43.1709 11.1701 43.2647 11.2101 43.3864 11.2332C43.6361 11.2332 43.7297 11.2332 43.5736 11.2332C43.4176 11.2332 43.5736 11.0432 43.8233 10.9957C44.0731 10.9482 44.1979 10.9125 43.8233 10.9007C43.6839 10.8959 43.5436 10.9056 43.4173 10.9285C43.291 10.9515 43.1833 10.987 43.1054 11.0313L43.1367 10.9719Z" fill="#5E5E5E"/>
<path d="M64.2369 10.984C64.2369 11.0671 63.8935 11.0908 63.519 10.984C63.1444 10.8771 62.9571 10.984 63.1132 10.984C63.5119 11.0741 63.9612 11.127 64.4241 11.1383C65.2669 11.1383 65.3605 11.1383 64.986 10.9602C64.6114 10.7821 64.2369 10.699 64.2369 10.9602L64.2369 10.984Z" fill="#5E5E5E"/>
<path d="M39.2659 11.4825C39.6093 11.6131 39.9526 11.6131 40.6393 11.4825C41.326 11.3519 41.482 11.3044 40.1711 11.3044C38.8601 11.3044 38.9226 11.3044 39.2659 11.4825Z" fill="#5E5E5E"/>
<path d="M60.3976 11.6015C60.1063 11.7757 60.512 11.7757 61.6149 11.6015C62.3952 11.4709 62.3952 11.4709 61.6149 11.459C61.4066 11.4475 61.194 11.4544 60.9938 11.4791C60.7935 11.5038 60.6109 11.5457 60.46 11.6015L60.3976 11.6015Z" fill="#5E5E5E"/>
<path d="M181.38 12.5156C181.38 12.5566 181.422 12.5958 181.499 12.6248C181.575 12.6537 181.678 12.67 181.786 12.67C182.035 12.67 182.098 12.5987 181.973 12.5156C181.848 12.4325 181.629 12.3612 181.536 12.3612C181.442 12.3612 181.38 12.3613 181.38 12.5156Z" fill="#5E5E5E"/>
<path d="M138.305 13.5132C137.868 13.7151 137.868 13.7269 138.461 13.6557C139.054 13.5844 139.117 13.5013 139.117 13.4301C139.117 13.3588 138.898 13.252 138.305 13.5132Z" fill="#5E5E5E"/>
</g>
<defs>
<clipPath id="clip0_395_3104">
<rect width="14" height="344" fill="white" transform="translate(0 14) rotate(-90)"/>
</clipPath>
</defs>
</svg>
