<svg width="344" height="14" viewBox="0 0 344 14" fill="none" xmlns="http://www.w3.org/2000/svg">
<g clip-path="url(#clip0_200_56)">
<path d="M249.081 0.142702C249.081 0.261447 248.706 0.368316 247.988 0.392065C247.453 0.404597 246.941 0.479193 246.521 0.605806C246.521 0.712676 245.959 0.700801 245.335 0.605806C244.711 0.51081 244.367 0.451438 244.243 0.605806C244.118 0.760174 243.369 0.843296 243.369 0.605806C243.369 0.368317 242.526 0.415813 240.435 0.427687C238.343 0.439563 237.563 0.427683 237.625 0.617675C237.688 0.807666 236.658 0.855163 236.377 0.617675C236.096 0.380185 236.096 0.475181 235.846 0.617675C235.596 0.760168 233.099 0.831417 233.099 0.712672C232.232 0.657394 231.356 0.621712 230.478 0.605806C229.431 0.588965 228.388 0.545326 227.356 0.475188C227.075 0.475188 226.857 0.475188 226.857 0.475188C226.857 0.475188 224.297 0.475187 224.016 0.344568C222.885 0.332831 221.758 0.409625 220.708 0.570185C217.586 0.914545 216.182 0.855166 216.619 0.415811C216.619 0.285192 216.619 0.178326 216.369 0.178326C216.119 0.178326 216.026 0.24957 216.182 0.332691C216.338 0.415812 216.182 0.487056 215.776 0.487056C215.624 0.483688 215.474 0.502792 215.358 0.540389C215.241 0.577986 215.168 0.631189 215.152 0.688928C215.152 0.819548 215.152 0.831422 214.84 0.688928C214.418 0.558903 213.882 0.495166 213.341 0.51081C212.686 0.51081 211.937 0.51081 211.718 0.51081C211.251 0.497432 210.781 0.497432 210.314 0.51081C209.377 0.51081 209.346 0.510809 210.126 0.760172C210.907 1.00954 210.688 0.985789 210.439 0.985789C209.926 0.9131 209.489 0.779941 209.19 0.605807L208.41 0.213948L207.973 0.688929C207.536 1.15203 206.974 1.27078 206.506 0.98579C206.428 0.942414 206.326 0.90608 206.208 0.879396C206.089 0.852711 205.956 0.836327 205.819 0.831416C205.538 0.831416 205.507 0.83142 205.819 1.02141C206.131 1.2114 205.975 1.22328 205.226 1.24703C204.477 1.27078 204.352 1.24702 204.727 1.14016C205.101 1.03328 205.039 0.985787 204.29 0.926414C203.269 0.830563 202.218 0.790581 201.168 0.807672C200.294 0.807672 200.263 0.807672 200.763 1.10453C201.262 1.40139 201.262 1.36577 200.232 1.10453C199.202 0.843295 195.675 0.724554 195.956 1.03329C195.956 1.15203 195.956 1.23515 195.612 1.23515C195.269 1.23515 195.051 1.1639 195.051 1.08078C195.051 0.997659 194.863 1.00953 194.582 1.08078C194.301 1.15203 193.053 1.31827 193.053 1.08078C193.053 1.05215 193.038 1.0238 193.007 0.997622C192.977 0.971443 192.932 0.948034 192.876 0.928943C192.82 0.90985 192.754 0.895513 192.682 0.886888C192.61 0.878263 192.535 0.875546 192.46 0.878916C192.117 0.878916 191.898 0.878922 192.023 0.950169C192.148 1.02142 192.023 1.12828 191.617 1.23515C191.211 1.34202 189.432 1.37764 189.432 1.09266C189.432 0.985786 189.245 0.997661 188.839 1.09266C188.433 1.18765 188.215 1.23515 187.996 1.09266C187.778 0.950163 187.559 0.985787 187.185 1.09266C186.81 1.19953 186.498 1.23515 186.311 1.18765C185.567 1.1396 184.807 1.1396 184.064 1.18765C183.002 1.18765 182.035 1.18765 181.941 1.18765C181.847 1.18765 181.442 1.18765 181.13 1.18765C180.817 1.18765 180.349 1.31828 179.6 1.11641C178.851 0.914546 178.539 0.926419 178.414 0.985791C177.324 1.09083 176.193 1.12297 175.074 1.08078C172.39 1.08078 171.766 1.08079 171.016 1.36577C170.267 1.65076 170.111 1.62701 170.111 1.54389C170.111 1.46077 169.674 1.41327 169.175 1.41327C168.675 1.41327 168.27 1.47264 168.395 1.8645C168.519 2.25636 168.395 2.28011 168.082 2.05449C167.943 1.9792 167.762 1.91667 167.551 1.87147C167.341 1.82628 167.106 1.79955 166.865 1.79325C166.222 1.74842 165.633 1.62797 165.18 1.44889C164.368 1.14016 164.274 1.12828 164.15 1.36577C164.025 1.60326 163.463 1.72201 163.057 1.48452C162.651 1.24703 160.56 1.29453 160.342 1.48452C160.123 1.67451 160.029 1.62701 159.499 1.48452C158.968 1.34202 158.843 1.3064 158.843 1.48452C158.843 1.66263 158.656 1.71013 158.438 1.65076C158.219 1.59139 158.032 1.65076 158.032 1.79326C158.032 1.93575 157.688 2.04262 157.189 2.04262C156.69 2.04262 156.44 1.9595 156.596 1.74576C156.67 1.67697 156.686 1.60104 156.642 1.52864C156.597 1.45623 156.493 1.39097 156.346 1.34202C156.065 1.2589 155.972 1.28265 156.159 1.34202C156.346 1.40139 155.972 1.48451 155.004 1.42514C153.412 1.33015 153.287 1.42515 154.224 1.75763C155.16 2.09012 154.817 1.99512 154.224 1.99512C153.631 1.99512 153.006 1.99511 153.131 1.722C153.256 1.44889 152.882 1.52014 152.289 1.52014C151.963 1.52197 151.648 1.56498 151.394 1.64238C151.14 1.71978 150.96 1.82716 150.884 1.94762C150.541 2.23261 150.447 2.26823 150.541 2.04262C150.634 1.817 150.541 1.73388 147.201 1.7695C145.297 1.7695 143.58 1.7695 143.393 1.7695C143.206 1.7695 143.393 1.88825 143.393 2.01886C143.393 2.14948 143.767 2.30385 143.643 2.36323C143.518 2.4226 143.393 2.36322 143.393 2.26823C143.393 2.17323 143.206 2.11386 142.987 2.16136C142.911 2.18894 142.811 2.20434 142.706 2.20434C142.601 2.20434 142.501 2.18894 142.425 2.16136C142.113 1.98325 140.303 2.04262 139.616 2.25636C138.929 2.4701 138.898 2.43447 138.711 2.41072C138.245 2.41424 137.783 2.44221 137.337 2.49385C136.414 2.57477 135.474 2.6264 134.528 2.64822C133.68 2.6588 132.839 2.71476 132.031 2.81446C131.532 2.88571 131.313 2.81445 131.313 2.69571C131.343 2.61338 131.423 2.5349 131.548 2.46675C131.673 2.3986 131.838 2.34276 132.031 2.30386C132.656 2.14949 132.656 2.13761 132.031 2.12574C131.848 2.12469 131.666 2.13905 131.499 2.16779C131.331 2.19652 131.183 2.23892 131.064 2.29198C130.963 2.33751 130.828 2.36999 130.677 2.3849C130.526 2.3998 130.367 2.39638 130.221 2.3751C129.94 2.3751 129.753 2.3751 129.878 2.3751C130.002 2.3751 128.847 2.73133 128.254 2.52947C127.661 2.3276 127.693 2.41072 127.693 2.52947C127.693 2.64821 126.101 2.73133 125.851 2.52947C125.601 2.3276 125.164 2.35135 123.572 2.44635C122.767 2.50101 121.943 2.50101 121.138 2.44635C121.082 2.43223 121.019 2.42313 120.953 2.41974C120.887 2.41635 120.82 2.41875 120.757 2.42678C120.693 2.4348 120.636 2.44822 120.588 2.46602C120.541 2.48382 120.504 2.50553 120.482 2.52947C120.264 2.66009 119.889 2.66009 119.14 2.52947C118.391 2.39885 118.11 2.4226 118.297 2.60072C118.485 2.77884 118.297 2.80259 117.267 2.73134C116.237 2.66009 116.019 2.73133 116.019 2.90945C116.019 3.08757 116.019 3.13506 115.457 2.99257C114.895 2.85008 114.708 2.89758 114.084 3.20631C113.459 3.51505 113.147 3.52692 112.991 3.43193C112.965 3.41234 112.929 3.39493 112.884 3.38073C112.84 3.36652 112.789 3.35579 112.734 3.34916C112.679 3.34253 112.621 3.34014 112.563 3.34211C112.505 3.34409 112.449 3.35041 112.398 3.36068C112.211 3.36068 111.555 3.36068 110.9 3.20631C109.62 2.94507 107.342 2.89758 106.967 3.13507C106.908 3.17547 106.809 3.2055 106.693 3.2188C106.576 3.23209 106.451 3.22762 106.343 3.20631C106.156 3.20631 105.968 3.20631 105.968 3.28943C105.968 3.37255 105.625 3.40818 105.188 3.36069C104.751 3.31319 104.47 3.36068 104.657 3.68129C104.845 4.0019 104.657 4.06128 104.408 3.99003C104.245 3.92314 104.12 3.8445 104.04 3.75881C103.96 3.67311 103.925 3.58214 103.939 3.49131C103.939 3.08757 103.658 3.05194 102.067 3.28943C101.255 3.39929 100.4 3.45552 99.5384 3.45567C98.941 3.42532 98.3362 3.48498 97.8529 3.62193C97.6032 3.77629 97.4159 3.77629 97.0413 3.62193C96.6667 3.46756 96.3858 3.49131 95.7304 3.70505C95.0749 3.91879 95.0436 3.89504 95.2309 3.78817C95.7928 3.42006 91.579 3.64567 90.705 4.02565C89.8311 4.40564 89.082 4.47689 89.8623 4.12065C90.1432 3.99003 90.2368 3.84754 90.112 3.78817C89.9871 3.7288 89.5814 3.78816 89.3005 3.96628C89.0195 4.14439 88.4265 4.21565 87.334 4.15627C86.2415 4.0969 85.9294 4.15628 86.0231 4.21565C86.0557 4.23195 86.0777 4.25093 86.0875 4.27108C86.0973 4.29122 86.0944 4.31194 86.0792 4.33159C86.064 4.35124 86.0369 4.36925 86.0001 4.38417C85.9632 4.3991 85.9176 4.41052 85.867 4.41751C85.6797 4.41751 85.3988 4.41751 85.3052 4.31064C85.2115 4.20377 84.4936 4.12065 83.3387 4.1444L81.2163 4.1444C81.029 4.1444 81.2163 4.27502 81.7469 4.44126C82.8393 4.80937 82.8081 4.89249 81.7469 4.80937C81.2163 4.80937 80.748 4.66688 80.748 4.59563C80.748 4.52439 80.2486 4.59563 79.6868 4.72625C79.125 4.85687 78.5631 4.93999 78.4383 4.82124C78.1574 4.48876 75.317 5.04686 75.317 5.48622C75.317 5.59309 75.317 5.6762 75.5979 5.6762C75.6569 5.67594 75.7153 5.68057 75.7691 5.68977C75.8228 5.69896 75.8707 5.71251 75.9094 5.72946C75.948 5.74642 75.9764 5.76637 75.9927 5.78793C76.009 5.8095 76.0127 5.83215 76.0037 5.85432C76.0037 5.96119 75.754 5.99681 75.4106 5.93744C75.0673 5.87807 74.8176 5.93744 74.8176 5.93744C74.8176 5.93744 74.5678 6.03244 74.2245 5.93744C73.8812 5.84245 73.6002 5.79495 73.6002 5.71182C73.6002 5.6287 73.8499 5.56934 74.2245 5.56934C74.5991 5.56934 74.8176 5.56933 74.8176 5.41496C74.8176 5.2606 74.5679 5.27248 74.2557 5.27248C74.0463 5.26168 73.8445 5.23511 73.6623 5.19434C73.4801 5.15356 73.321 5.09939 73.1945 5.03498C73.0786 4.97771 72.9328 4.93019 72.7663 4.89545C72.5997 4.8607 72.4161 4.83948 72.2269 4.83312C71.9772 4.83312 71.9772 4.83312 72.2269 4.91624C72.3626 4.93253 72.4826 4.9638 72.5715 5.00609C72.6604 5.04838 72.7143 5.09976 72.7263 5.15372C72.7263 5.23685 72.4453 5.27247 72.1644 5.22498C71.8835 5.17748 71.4778 5.28435 71.3217 5.59308C71.1656 5.90182 70.8223 6.04431 69.9795 6.04431L68.9183 6.04431L69.8547 5.79495C70.7286 5.55746 70.7286 5.53371 70.0419 5.33184C69.3553 5.12998 69.3553 5.12998 70.0419 5.22498C70.7286 5.31997 70.791 5.29622 70.2604 5.05874C69.7298 4.82125 67.5449 4.69063 68.0131 4.97562C68.4813 5.2606 68.0131 5.10623 67.5449 4.97562C66.8346 4.88844 66.0703 4.88844 65.36 4.97562C64.6109 5.04686 64.2051 5.10623 64.5172 5.1181C65.6097 5.1181 63.9866 5.56933 62.3635 5.66433C61.4905 5.71831 60.6469 5.82663 59.8665 5.98494C58.8052 6.25805 58.6804 6.38868 59.648 6.24618C60.0537 6.24618 60.2098 6.24618 60.0225 6.31743C59.8352 6.38867 60.0225 6.51929 60.3971 6.56679C60.7717 6.61429 60.8965 6.56679 60.7716 6.56679C60.6468 6.56679 60.7716 6.34117 61.3023 6.25805C61.8329 6.17493 62.3011 6.16306 63.019 6.40055C63.7369 6.63804 63.8305 6.69741 63.2063 6.61429C62.582 6.53117 62.5196 6.61429 62.7068 6.61429C62.8941 6.61429 62.7069 6.78053 62.4884 6.76865C61.2086 6.76865 60.1786 6.76866 60.1786 6.92303C60.1786 7.07739 63.0502 7.06552 63.7057 6.92302C64.3612 6.78053 64.2051 6.92302 64.2051 6.92302C64.2051 6.92302 64.4548 7.07739 64.7981 7.07739C65.1415 7.07739 65.3912 7.07739 65.3912 6.92302C65.3912 6.88208 65.434 6.84282 65.5101 6.81387C65.5861 6.78492 65.6893 6.76865 65.797 6.76865C66.0155 6.76865 66.2027 6.91115 66.2027 7.07739C66.2027 7.24363 66.0155 7.38613 65.7658 7.38613C65.7194 7.38303 65.6717 7.3857 65.6296 7.39376C65.5876 7.40181 65.5536 7.41481 65.5325 7.43082C65.5115 7.44683 65.5046 7.465 65.5129 7.48262C65.5211 7.50024 65.5441 7.51637 65.5784 7.52862C65.8906 7.71861 67.4825 7.52862 67.2952 7.33863C67.1079 7.14864 68.6998 6.47179 69.1992 6.47179C69.6986 6.47179 69.3865 6.62616 69.1992 6.81615C69.0724 7.01112 69.1276 7.21679 69.3553 7.39801C69.6986 7.59987 69.7298 7.59987 69.7922 7.39801C69.8243 7.28354 69.8243 7.16811 69.7922 7.05364C69.7922 6.78053 71.4465 6.95864 71.6338 7.24363C71.7004 7.34325 71.8617 7.42995 72.0865 7.48697C72.3114 7.54399 72.5838 7.56729 72.8511 7.55237C73.4129 7.55237 73.7251 7.55237 73.569 7.70673C73.4553 7.75667 73.3084 7.79406 73.1436 7.81495C72.9789 7.83584 72.8024 7.83948 72.6326 7.82548C72.2581 7.82548 72.0084 7.82548 72.0708 7.96797C72.0708 8.26483 71.4465 8.19359 71.0095 7.87298C70.8479 7.79827 70.6415 7.73939 70.4077 7.70126C70.1739 7.66314 69.9195 7.64689 69.6658 7.65386C69.4121 7.66084 69.1665 7.69085 68.9495 7.74137C68.7326 7.79189 68.5506 7.86145 68.4189 7.94423C68.2316 8.07485 67.7946 8.0986 66.9831 7.94423C66.6911 7.89475 66.3677 7.87851 66.0519 7.89747C65.7362 7.91644 65.4416 7.96979 65.2039 8.05109C64.7582 8.20357 64.1802 8.28814 63.5808 8.28859C63.3525 8.28004 63.1223 8.29288 62.9101 8.326C62.6979 8.35911 62.5102 8.4115 62.3635 8.47858C62.3635 8.59732 61.708 8.64482 61.0214 8.6092C60.3347 8.57357 60.0849 8.60919 61.4895 8.85856L63.1126 9.17917L63.9554 8.77544C64.7357 8.4192 64.8606 8.40733 65.1103 8.65669C65.36 8.90606 65.4536 8.90606 65.9842 8.5617C66.5149 8.21734 66.5461 8.21734 66.4837 8.47858C66.4837 9.13167 67.7322 9.66603 68.2628 9.13167C68.2628 8.98918 68.4813 8.98918 68.5125 9.13167C68.5437 9.27417 70.0108 9.39291 70.3541 9.13167C70.6974 8.87044 71.1656 8.98918 71.8835 8.98918C75.0048 8.98918 75.0048 8.98918 75.0048 8.66857C75.0048 8.34796 75.0048 8.32421 75.1609 8.27671C75.317 8.22921 75.5354 8.27671 75.5354 8.40733C75.5354 8.53795 75.8476 8.59732 76.5343 8.54982C77.221 8.50232 77.5331 8.54983 77.5331 8.66857C77.5331 8.78732 77.5331 8.82293 77.7828 8.76356C78.0325 8.70419 79.125 8.94168 79.125 9.14354C79.125 9.34541 78.5007 9.25042 77.6892 9.21479C76.0661 9.21479 74.7239 9.2148 74.7239 9.42854C75.6716 9.50114 76.6478 9.50114 77.5955 9.42854C79.6868 9.42854 80.4047 9.42853 80.2799 9.54728C80.155 9.66602 78.4071 9.83227 75.1921 9.84414C74.2245 9.84414 73.569 9.91538 73.6627 9.98663C73.7563 10.0579 73.413 10.0697 72.8824 9.98663C72.3517 9.90351 71.8835 9.98663 71.8835 10.0816C71.8835 10.1766 71.2905 10.236 70.2917 10.2004C69.2928 10.1647 68.6686 10.2004 68.6686 10.3547C68.6527 10.4126 68.5986 10.468 68.5113 10.5158C68.424 10.5635 68.3063 10.6021 68.1691 10.6278C67.9194 10.6278 68.1692 10.6278 68.6686 10.6278C70.3541 10.4735 70.4477 10.4735 70.6038 10.7585C70.7598 11.0435 70.6038 11.0316 69.7922 11.0435C68.9807 11.0553 68.9183 11.0435 69.7922 11.1741C70.9963 11.3009 72.2825 11.2455 73.3817 11.0197C73.866 10.9535 74.3957 10.9535 74.88 11.0197C75.412 11.0986 76.0023 11.0986 76.5343 11.0197C78.1821 10.828 79.943 10.828 81.5908 11.0197C82.0738 11.1131 82.5746 11.1925 83.089 11.2572C83.8693 11.3522 83.8693 11.3759 83.089 11.5541C82.3087 11.7322 82.1527 11.9459 83.2763 11.9459C85.1803 11.9459 85.8358 12.4684 83.9318 12.4803C83.4948 12.4803 83.2139 12.5515 83.2451 12.6346C85.3896 12.829 87.6241 12.829 89.7686 12.6346C90.7456 12.4662 91.8236 12.4006 92.8899 12.4446C93.0912 12.4513 93.282 12.4818 93.4354 12.5319C93.5888 12.5819 93.6972 12.6489 93.7454 12.7236C93.7936 12.7982 93.7791 12.8767 93.7041 12.9481C93.629 13.0194 93.4972 13.0801 93.327 13.1215C93.0461 13.2046 93.1397 13.2284 93.6079 13.1215C93.9629 13.0787 94.3293 13.0508 94.7003 13.0384C94.8876 13.0384 94.95 12.9434 94.7003 12.8128C94.4506 12.6821 94.7003 12.6109 95.6992 12.7178C96.1656 12.7758 96.6685 12.7758 97.1349 12.7178C97.1349 12.7178 97.6344 12.7178 97.9777 12.8365C98.321 12.9552 98.6956 13.0027 98.9765 12.8365C99.2575 12.6703 99.3823 12.6821 99.7569 12.9196C100.131 13.1571 100.194 13.1571 100.038 12.9196C99.9718 12.8571 99.9574 12.7884 99.9964 12.7226C100.035 12.6569 100.126 12.5972 100.256 12.5515C100.537 12.4803 100.6 12.5515 100.412 12.6228C100.225 12.694 100.412 12.8009 100.6 12.8009C100.787 12.8009 100.974 12.8959 100.881 13.0146C100.787 13.1334 101.63 13.6202 102.285 13.4777C102.941 13.3352 102.535 13.3234 101.786 13.2402L100.787 13.1452L101.879 13.1452C102.504 13.1452 103.003 13.1452 103.003 13.2759C103.003 13.2972 103.014 13.3183 103.037 13.3378C103.059 13.3574 103.092 13.3749 103.133 13.3894C103.174 13.4039 103.222 13.415 103.275 13.4221C103.328 13.4291 103.384 13.4319 103.44 13.4302C103.69 13.4302 103.721 13.359 103.44 13.2521C103.159 13.1452 104.002 12.8246 105.032 12.8246C105.469 12.8246 105.719 12.9315 105.719 13.1215C105.719 13.5133 105.875 13.5133 108.216 13.1215C109.776 12.8365 110.026 12.8246 109.714 13.0384C109.402 13.2521 109.714 13.3115 110.463 13.3827C111.212 13.454 111.618 13.3827 111.68 13.3115C111.743 13.2402 113.241 13.1452 113.553 13.3115C113.647 13.3635 113.777 13.4043 113.929 13.4292C114.081 13.4541 114.249 13.462 114.413 13.4521C114.576 13.4421 114.729 13.4147 114.853 13.373C114.977 13.3313 115.068 13.277 115.114 13.2165C115.301 13.0384 115.114 12.9909 114.77 13.0621C114.427 13.1334 114.146 13.0621 114.146 13.0621C114.146 12.8128 115.301 12.7534 115.769 12.979C116.237 13.2046 117.985 13.2877 117.58 13.0502C117.174 12.8127 117.58 12.884 117.767 12.884C117.874 12.884 117.978 12.9003 118.054 12.9292C118.13 12.9582 118.173 12.9974 118.173 13.0384C118.173 13.1215 118.454 13.1927 118.797 13.1927C119.14 13.1927 119.359 13.1927 119.234 13.3234C119.109 13.454 119.952 13.6202 120.514 13.3946C121.075 13.169 120.888 13.1927 120.514 13.2046C120.025 13.171 119.565 13.0937 119.171 12.979C118.454 12.7534 118.485 12.7534 119.484 12.884C119.881 12.9571 120.328 12.9819 120.763 12.9552C120.763 12.9552 121.075 12.9552 121.231 13.169C121.388 13.3827 121.793 13.4658 122.855 13.454C123.916 13.4421 124.259 13.3827 124.259 13.3115C124.259 13.2402 124.415 13.2165 124.634 13.3115C124.852 13.4065 125.164 13.3115 125.383 13.1334C125.601 12.9552 126.257 12.884 127.817 12.8959C129.378 12.9077 129.909 12.8959 129.909 12.7296C129.909 12.5634 130.127 12.7296 130.408 12.8128C130.557 12.8917 130.764 12.952 131.003 12.9859C131.242 13.0197 131.502 13.0256 131.75 13.0027C131.985 12.9799 132.232 12.9822 132.463 13.0095C132.695 13.0367 132.902 13.0878 133.061 13.1571C133.717 13.454 135.714 13.5015 135.402 13.1571C135.402 13.0384 135.402 12.9671 136.058 12.9671C136.713 12.9671 136.869 12.9671 136.838 12.8128C136.807 12.6584 138.804 12.6584 139.522 12.8128C139.71 12.8128 139.959 12.8128 140.053 12.694C140.147 12.5753 140.365 12.5396 140.896 12.694C141.426 12.8484 141.676 12.8721 142.113 12.694C142.55 12.5159 144.236 12.4328 144.08 12.694C143.923 12.9552 146.608 12.9077 147.201 12.694C147.794 12.4803 149.23 12.4328 148.949 12.694C148.919 12.7177 148.907 12.7441 148.914 12.7703C148.921 12.7965 148.947 12.8214 148.989 12.8423C149.031 12.8632 149.087 12.8793 149.152 12.8887C149.216 12.8982 149.287 12.9007 149.355 12.8959C149.522 12.8947 149.686 12.8765 149.829 12.8431C149.971 12.8097 150.088 12.7623 150.166 12.7059C150.166 12.5634 150.447 12.5634 151.009 12.7059C151.571 12.8484 151.664 12.884 151.664 12.7059C151.664 12.5278 151.914 12.6228 152.226 12.8009C152.538 12.979 152.819 13.0146 152.85 12.9196C152.882 12.8246 153.319 12.7178 153.849 12.6821C154.38 12.6465 154.754 12.6821 154.63 12.7415C154.505 12.8009 155.16 12.8959 155.722 12.6703C156.284 12.4446 156.971 12.3615 157.345 12.5871C157.72 12.8127 157.688 12.7178 157.688 12.5871C157.688 12.4565 158.531 12.4328 159.998 12.4446C161.465 12.4565 162.526 12.4446 163.12 12.1953C163.713 11.9459 164.711 11.8865 164.462 12.1953C164.462 12.2784 164.212 12.3259 164.025 12.2903C163.837 12.2546 163.806 12.2903 164.025 12.409C164.243 12.5278 164.836 12.5278 165.773 12.409C166.804 12.3436 167.849 12.3157 168.894 12.3259C169.269 12.3458 169.652 12.3338 170.013 12.2907C170.375 12.2476 170.707 12.1744 170.985 12.0765C171.422 11.8628 171.485 11.8628 171.516 12.0765C171.537 12.145 171.62 12.2086 171.751 12.2562C171.882 12.3039 172.053 12.3327 172.234 12.3378C172.841 12.352 173.445 12.3798 174.044 12.4209C174.824 12.4209 175.168 12.4209 175.168 12.2903C175.168 12.2333 175.201 12.177 175.266 12.1256C175.331 12.0742 175.425 12.029 175.542 11.9934C175.761 11.9934 175.823 11.9934 175.73 12.1122C175.636 12.2309 175.979 12.3259 177.915 12.314C179.85 12.3021 180.443 12.2309 181.036 11.934C181.629 11.6372 181.941 11.6016 182.69 11.744C182.875 11.792 183.084 11.8252 183.304 11.8415C183.524 11.8579 183.751 11.857 183.97 11.839C184.188 11.839 184.376 11.839 184.376 11.839C185.615 11.9669 186.904 12.0111 188.184 11.9697C189.391 12.0185 190.612 11.974 191.773 11.839C191.773 11.7678 191.773 11.7203 191.992 11.7203C192.045 11.7187 192.099 11.7211 192.15 11.7274C192.2 11.7337 192.247 11.7437 192.288 11.757C192.329 11.7702 192.362 11.7864 192.386 11.8045C192.41 11.8227 192.425 11.8425 192.429 11.8628C192.429 12.0172 193.49 12.029 195.55 11.8628C196.923 11.7915 196.955 11.7797 195.987 11.6372C194.457 11.4234 195.706 11.2334 197.704 11.3759C199.701 11.5184 200.294 11.5422 199.733 11.3759C199.171 11.2097 199.42 11.2097 199.733 11.0672C200.045 10.9247 200.419 10.9247 201.012 11.1503C201.416 11.3082 201.963 11.4016 202.542 11.4116C203.509 11.4116 203.884 10.8772 202.916 10.8772C202.573 10.8772 202.386 10.9485 202.51 11.0197C202.635 11.0909 202.51 11.1741 202.51 11.1741C202.51 11.1741 201.605 10.9128 202.105 10.7941C202.543 10.7442 203.009 10.7442 203.447 10.7941C204.134 10.8653 204.321 10.9603 204.196 11.1859C204.071 11.4116 204.196 11.4947 205.382 11.4947C206.568 11.4947 206.88 11.4234 206.943 11.3403C207.005 11.2572 207.817 11.1622 208.691 11.1266C209.565 11.091 210.376 11.0553 210.439 11.0553C210.501 11.0553 210.439 10.9366 210.095 10.806C209.752 10.6753 209.721 10.5804 210.782 10.616C211.843 10.6516 211.968 10.7228 211.843 10.8416C211.718 10.9603 211.843 11.0435 212.093 11.0435C212.247 11.0394 212.395 11.0181 212.517 10.9822C212.639 10.9463 212.731 10.8973 212.78 10.8416C212.78 10.6991 213.716 10.6397 215.558 10.6516C216.603 10.6907 217.658 10.6626 218.679 10.5685C219.12 10.5011 219.612 10.5011 220.052 10.5685C220.807 10.677 221.639 10.677 222.393 10.5685C223.205 10.4854 223.891 10.4616 223.891 10.5685C224.716 10.6714 225.588 10.7078 226.451 10.6753C228.48 10.6753 228.979 10.6753 228.823 10.4497C228.667 10.2241 228.823 10.2716 229.447 10.4497C230.072 10.6278 230.29 10.5922 230.072 10.4497C229.853 10.3072 230.072 10.1647 230.883 10.4497C231.695 10.7347 231.695 10.6397 232.069 10.521C232.274 10.4695 232.507 10.4363 232.75 10.424C232.993 10.4116 233.241 10.4204 233.474 10.4497C234.192 10.521 234.348 10.4497 234.379 10.1766L234.379 9.82038L234.816 10.2004L235.222 10.5803L235.596 10.2241C235.909 9.93913 236.065 9.90351 236.502 10.0698C236.939 10.236 237.001 10.3429 236.907 10.426C236.814 10.5091 242.651 10.616 243.15 10.426C243.649 10.236 243.837 10.2954 244.43 10.426C246.462 10.6678 248.64 10.6678 250.672 10.426C250.849 10.3564 251.063 10.3022 251.3 10.2674C251.538 10.2325 251.792 10.2177 252.046 10.2241C252.608 10.2241 253.107 10.1529 253.107 10.0579C253.107 9.96288 253.294 9.98663 253.606 10.0579C253.919 10.1291 255.042 10.2954 257.414 10.3191C258.523 10.3762 259.65 10.3438 260.723 10.2241C260.723 10.1529 261.035 10.046 261.379 9.9985C261.722 9.951 261.972 9.99849 261.784 10.1172C261.597 10.236 261.94 10.3429 263.158 10.331C264.375 10.3191 264.749 10.331 264.749 10.2122C264.749 10.0935 265.592 10.1291 266.622 10.2122C267.652 10.2954 268.401 10.2122 268.277 10.1529C268.152 10.0935 268.838 10.0104 269.806 10.0104C270.774 10.0104 271.492 10.0104 271.429 10.0816C271.367 10.1529 273.333 10.1766 273.957 10.0816C274.582 9.98662 274.457 9.9985 274.27 10.0816C274.082 10.1647 274.55 10.2597 275.362 10.2954C277.807 10.3888 280.277 10.3245 282.666 10.1054C282.612 10.066 282.602 10.0201 282.637 9.9778C282.672 9.93549 282.75 9.90022 282.853 9.87975C282.957 9.85928 283.077 9.85528 283.188 9.86865C283.3 9.88201 283.392 9.91163 283.446 9.951C283.478 9.97095 283.499 9.99326 283.507 10.0165C283.515 10.0397 283.51 10.0633 283.492 10.0857C283.475 10.1081 283.445 10.1288 283.404 10.1466C283.364 10.1643 283.315 10.1786 283.259 10.1885C282.51 10.3666 282.853 10.5685 283.883 10.5685C284.414 10.5685 284.882 10.5091 284.882 10.4379C284.882 10.3666 285.194 10.2479 285.537 10.2004C285.881 10.1529 286.099 10.2004 285.943 10.3429C285.787 10.4853 287.067 10.6635 287.504 10.4141C287.941 10.1647 287.941 10.3072 288.378 10.4141C289.185 10.5484 290.075 10.5941 290.946 10.5458C291.818 10.4975 292.637 10.3573 293.31 10.141L294.277 9.78475L293.185 9.63039C292.623 9.54727 292.123 9.40477 292.123 9.33353C292.123 9.26228 291.53 9.10791 290.844 8.98917L289.564 8.7873L290.688 8.66856C291.178 8.61813 291.695 8.61813 292.186 8.66856C292.317 8.69362 292.461 8.70667 292.607 8.70667C292.754 8.70667 292.898 8.69362 293.029 8.66856C294.174 8.56547 295.347 8.51365 296.525 8.51419C297.595 8.53838 298.665 8.4651 299.646 8.30045C299.833 8.1817 299.989 8.19358 300.145 8.30045C300.301 8.40732 300.457 8.46669 300.801 8.30045C301.144 8.1342 301.238 8.09858 301.456 8.30045C301.675 8.50231 302.112 8.51419 303.079 8.46669C304.047 8.41919 304.484 8.34795 304.484 8.2767C304.484 8.20546 305.576 8.08671 305.764 8.2767C305.951 8.46669 307.262 8.44294 309.759 8.41919C312.244 8.45797 314.703 8.62986 317.063 8.92979C317.874 8.92979 318.499 8.92979 318.655 8.85855C318.811 8.7873 319.372 8.7398 320.153 8.85855C321.409 8.94234 322.687 8.97023 323.961 8.94167C325.012 8.89284 326.078 8.93339 327.082 9.06041C327.332 9.14353 327.582 9.16728 327.582 9.06041C327.582 8.95354 327.956 9.06041 328.393 9.06041C329.466 9.18728 330.579 9.25916 331.702 9.27415C332.958 9.29337 334.209 9.34495 335.447 9.42852C336.228 9.49977 336.446 9.42852 336.072 9.42852C335.697 9.42852 335.666 9.25041 336.072 9.17916C336.477 9.10791 336.633 9.17915 336.758 9.30977C336.827 9.37284 336.939 9.42794 337.081 9.4696C337.223 9.51126 337.392 9.53803 337.57 9.54727C337.633 9.54745 337.695 9.54158 337.75 9.53021C337.806 9.51883 337.853 9.50231 337.887 9.48218C337.921 9.46206 337.942 9.43897 337.946 9.41506C337.951 9.39115 337.939 9.3672 337.913 9.3454C337.663 9.10791 340.036 8.89417 340.41 9.11979C340.785 9.3454 342.221 9.19103 342.938 9.01291C343.188 9.01291 343.375 9.01291 343.375 9.07229C343.375 9.13166 343.126 9.2504 342.876 9.28603C342.626 9.32165 342.501 9.40478 342.658 9.47602C342.814 9.54727 343.781 9.47602 343.781 9.07229C343.781 8.66855 343.594 8.77543 342.938 8.8348C342.283 8.89417 342.189 8.8348 342.626 8.66856C343.063 8.50232 343.063 8.43106 342.626 8.51419C342.545 8.52983 342.456 8.53885 342.365 8.54068C342.274 8.54252 342.183 8.53711 342.098 8.52482C342.013 8.51253 341.935 8.49363 341.87 8.46931C341.806 8.44498 341.755 8.41578 341.721 8.38357C341.721 8.25295 341.721 8.19357 341.908 8.25295C342.096 8.31232 342.314 8.25295 342.314 8.01546C342.314 7.77797 342.314 7.70673 341.721 7.8611C341.128 8.01546 341.066 7.97984 340.91 7.8611C340.878 7.84321 340.858 7.82257 340.852 7.80104C340.846 7.77951 340.854 7.75776 340.876 7.73774C340.897 7.71772 340.932 7.70007 340.976 7.68637C341.02 7.67266 341.072 7.66333 341.128 7.65922C341.503 7.65922 341.503 7.50486 341.128 7.24362C340.753 6.98238 340.91 6.57865 341.471 6.92301C341.574 6.98146 341.727 7.02426 341.904 7.04382C342.081 7.06338 342.271 7.05844 342.439 7.02988C342.662 7.01132 342.893 7.01466 343.112 7.03959C343.33 7.06452 343.528 7.11023 343.688 7.17238C344.249 7.38612 344.281 7.37424 344.281 7.08925C344.281 6.80427 344.125 6.76864 343.906 6.76864C343.688 6.76864 343.375 6.6024 343.251 6.37679C343.126 6.15117 342.814 6.02055 342.564 6.0443C342.314 6.06805 341.659 5.77118 341.128 5.36745C340.824 5.08188 340.355 4.82614 339.755 4.61937C339.536 4.61937 339.474 4.71436 339.567 4.82123C339.661 4.9281 339.567 5.03497 339.13 5.04685C338.693 5.05872 338.475 4.91623 338.444 4.37C338.413 3.82378 338.444 3.7644 338.6 3.8594C338.616 3.87784 338.643 3.89467 338.678 3.90867C338.714 3.92266 338.757 3.93347 338.805 3.94029C338.853 3.94712 338.904 3.9498 338.955 3.94813C339.006 3.94646 339.055 3.94049 339.099 3.93064C339.318 3.93064 339.349 3.93065 339.099 4.08502C338.725 4.45313 339.942 4.22751 340.504 3.82378C341.066 3.42005 340.941 3.51504 340.847 3.9544C340.754 4.39375 340.847 4.4175 341.659 4.44125C342.47 4.465 342.501 4.44125 342.345 4.3225C342.319 4.30291 342.283 4.28551 342.239 4.2713C342.194 4.25709 342.143 4.24636 342.088 4.23974C342.033 4.23311 341.975 4.23071 341.917 4.23269C341.86 4.23467 341.803 4.24098 341.752 4.25126C341.534 4.25126 341.378 4.25125 341.378 4.18001C341.378 4.10876 341.628 4.01377 341.971 4.01377C342.314 4.01377 342.72 3.7644 341.971 3.64566C341.628 3.64566 341.471 3.4913 341.596 3.40817C341.721 3.32505 341.596 3.2538 341.003 3.2538C340.41 3.2538 340.285 3.18256 340.41 3.09944C340.535 3.01631 340.16 2.94507 339.474 2.94507C338.787 2.94507 338.163 3.02819 338.038 3.13506C337.913 3.24193 337.851 3.13506 338.038 2.94507C338.038 2.49384 338.756 2.26822 339.224 2.54134C339.692 2.81445 339.536 2.62445 339.536 2.44634C339.54 2.41202 339.527 2.37773 339.496 2.34542C339.465 2.31312 339.418 2.28343 339.357 2.25806C339.296 2.23269 339.223 2.21215 339.141 2.19759C339.059 2.18303 338.971 2.17475 338.881 2.17323C338.537 2.17323 338.381 2.09011 338.537 2.00699C338.693 1.92387 338.537 1.86449 337.882 1.93573C337.226 2.00698 337.07 1.99511 337.476 1.93573C337.882 1.87636 337.913 1.69825 337.695 1.50825C337.476 1.31826 337.351 1.27077 337.226 1.50825C337.102 1.74574 336.508 1.73387 334.885 1.73387C333.262 1.73387 332.701 1.73387 332.701 1.85261C332.701 1.97136 332.513 1.94761 332.295 1.85261C332.236 1.84385 332.184 1.83041 332.14 1.81321C332.097 1.796 332.063 1.77542 332.043 1.75289C332.022 1.73035 332.014 1.70639 332.02 1.68261C332.026 1.65884 332.045 1.63583 332.076 1.61513C332.232 1.53201 331.546 1.46076 330.609 1.46076C325.49 1.46076 320.215 1.10453 320.215 0.843288C320.215 0.772041 319.966 0.748293 319.622 0.843288C319.279 0.938284 319.123 0.997659 319.216 1.06891C319.31 1.14015 319.216 1.21139 318.842 1.21139C318.631 1.19854 318.431 1.16717 318.258 1.11976C318.084 1.07235 317.942 1.01021 317.843 0.938286C317.469 0.712671 317.344 0.700797 317.031 0.938286C316.719 1.17578 316.719 1.2114 316.844 1.28265C316.969 1.35389 316.438 1.44889 316.064 1.28265C315.689 1.1164 316.064 1.08078 316.251 0.973909C316.438 0.867038 316.251 0.760167 314.722 0.760167C313.86 0.737532 312.998 0.803139 312.225 0.950163C311.85 1.09266 311.569 1.09266 310.945 0.950163C310.321 0.80767 310.196 0.80767 310.383 0.950163C310.418 0.980404 310.436 1.01307 310.436 1.04609C310.435 1.0791 310.417 1.11173 310.382 1.1419C310.346 1.17207 310.295 1.19912 310.231 1.22131C310.167 1.24349 310.091 1.26034 310.009 1.27077C309.259 1.37764 306.138 1.05703 306.138 0.867043C306.138 0.677051 305.295 0.772048 304.265 0.867043C303.22 0.896128 302.169 0.868129 301.144 0.783914C300.02 0.665169 299.802 0.67705 299.989 0.855166C300.176 1.03328 299.989 1.08077 299.615 1.08077C299.24 1.08077 299.053 0.926411 299.053 0.760168C299.053 0.593926 298.865 0.451433 298.241 0.510806C297.617 0.570178 297.43 0.510806 297.43 0.510806C297.43 0.510806 296.649 0.392061 295.931 0.510806C295.582 0.565568 295.189 0.565568 294.839 0.510806C294.433 0.439559 294.215 0.510805 294.215 0.677048C294.215 0.843291 293.31 1.35389 292.841 1.35389C292.373 1.35389 292.841 1.24702 292.841 1.11641C292.841 0.985787 292.841 0.902665 292.217 0.985786C291.593 1.06891 291.343 0.985786 291.343 0.985786C291.343 0.985786 290.906 0.843294 290.376 0.867044C289.845 0.890792 289.377 0.867043 289.377 0.736424C289.377 0.605805 289.72 0.58205 290.157 0.58205C290.594 0.58205 290.937 0.510806 290.937 0.427685C290.937 0.344564 290.532 0.308938 290.032 0.332688C289.263 0.34818 288.492 0.34818 287.722 0.332688C286.848 0.332688 286.661 0.332685 287.254 0.403931C288.503 0.498928 288.378 0.7008 287.036 0.736424C284.57 0.807671 283.54 0.736424 283.196 0.522684C282.853 0.308943 281.324 0.225822 281.043 0.522684C280.88 0.664019 280.577 0.77506 280.2 0.831413C278.344 0.810869 276.523 0.63662 274.863 0.320811C274.703 0.272652 274.505 0.246451 274.301 0.246451C274.097 0.246451 273.899 0.272652 273.739 0.320811C273.364 0.439556 272.803 0.439556 271.648 0.320812C271.15 0.224941 270.59 0.186248 270.036 0.209443C269.482 0.232639 268.957 0.316718 268.526 0.451432C267.746 0.617673 267.184 0.688926 267.34 0.605805C267.496 0.522684 267.09 0.451436 266.248 0.475186C265.309 0.468821 264.384 0.387926 263.532 0.237691C262.627 0.071449 262.034 0.0358321 261.753 0.142702C261.472 0.249572 261.503 0.297067 261.753 0.297067C262.003 0.297067 262.128 0.368311 262.003 0.451432C261.878 0.534553 261.378 0.570176 260.879 0.534552L259.693 0.451432C259.693 0.451432 259.412 0.320811 259.412 0.190192C259.412 0.059573 259.412 -0.0235483 258.819 0.190192C258.647 0.237359 258.503 0.297605 258.395 0.367106C258.288 0.436607 258.22 0.51385 258.195 0.593928C258.195 0.700799 258.008 0.795792 257.789 0.795792C257.681 0.795792 257.578 0.779526 257.502 0.750576C257.426 0.721626 257.383 0.682368 257.383 0.641428C257.383 0.558307 256.353 0.487054 255.042 0.487054C254.123 0.51047 253.201 0.466126 252.327 0.356444C251.797 0.238763 251.215 0.158315 250.61 0.118949C249.611 0.0358279 249.33 0.118951 249.424 0.213947L249.081 0.142702ZM223.642 0.819547C223.642 0.819547 223.142 0.819547 222.549 0.819547C221.956 0.819547 221.582 0.819547 222.019 0.688928C222.456 0.558309 223.642 0.617678 223.642 0.760171L223.642 0.819547ZM226.014 1.10453C225.83 1.15751 225.605 1.18617 225.374 1.18617C225.143 1.18617 224.919 1.15751 224.734 1.10453C224.36 0.962038 224.422 0.914536 224.953 0.914536C225.483 0.914536 225.639 0.843293 225.639 0.760171C225.639 0.67705 225.889 0.67705 226.232 0.760171C226.576 0.843293 226.701 0.973913 226.014 1.10453ZM248.612 1.24703C248.612 1.24703 248.269 1.24703 247.894 1.24703C247.682 1.2242 247.495 1.17613 247.361 1.10988C247.226 1.04363 247.15 0.962677 247.145 0.878913C247.145 0.593927 247.145 0.593927 247.894 0.878913C248.175 0.988987 248.417 1.11278 248.612 1.24703ZM230.914 0.878914C230.914 0.919855 230.872 0.959123 230.796 0.988072C230.72 1.01702 230.616 1.03329 230.509 1.03329C230.401 1.03329 230.298 1.01702 230.222 0.988072C230.146 0.959123 230.103 0.919855 230.103 0.878914C230.098 0.858186 230.105 0.837315 230.124 0.817763C230.143 0.79821 230.173 0.780456 230.211 0.765743C230.25 0.75103 230.297 0.73972 230.348 0.732603C230.399 0.725487 230.454 0.722736 230.509 0.724549C230.616 0.724549 230.72 0.740816 230.796 0.769765C230.872 0.798715 230.914 0.837973 230.914 0.878914ZM263.47 1.18765C263.47 1.38952 263.283 1.44889 262.877 1.38951C262.711 1.36825 262.566 1.32861 262.461 1.27569C262.355 1.22278 262.293 1.15902 262.284 1.09265C262.284 1.06356 262.299 1.03476 262.329 1.00802C262.359 0.981282 262.404 0.957167 262.459 0.937156C262.515 0.917145 262.58 0.901657 262.652 0.891641C262.724 0.881626 262.8 0.877296 262.877 0.878913C263.22 0.878913 263.47 1.02141 263.47 1.18765ZM240.84 1.46077C240.466 1.46077 240.154 1.60326 240.154 1.69825C240.154 1.79325 239.997 1.79325 239.779 1.69825C239.671 1.63816 239.601 1.56943 239.574 1.49737C239.547 1.42531 239.564 1.35184 239.623 1.28265C239.779 1.11641 239.997 1.11641 240.684 1.28265C241.371 1.44889 241.464 1.47264 240.84 1.52014L240.84 1.46077ZM282.728 1.18765C282.728 1.27077 282.541 1.33015 281.979 1.33015C281.532 1.34001 281.09 1.28955 280.731 1.18765C280.575 1.09266 280.887 1.03329 281.48 1.03329C281.932 1.02231 282.379 1.07753 282.728 1.18765ZM203.228 1.41327C203.228 1.54389 203.072 1.63888 202.823 1.63888C202.573 1.63888 202.417 1.54389 202.417 1.41327C202.417 1.28265 202.604 1.18765 202.823 1.18765C203.041 1.18765 203.228 1.28265 203.228 1.41327ZM173.482 1.48452C173.482 1.57951 173.482 1.63888 173.295 1.63888C173.108 1.63888 173.014 1.63888 172.889 1.48452C172.764 1.33015 172.889 1.33015 173.045 1.33015C173.101 1.32851 173.157 1.33129 173.21 1.33831C173.263 1.34533 173.312 1.35644 173.353 1.37094C173.394 1.38544 173.426 1.40302 173.449 1.42257C173.471 1.44211 173.482 1.46321 173.482 1.48452ZM175.792 1.48452C175.705 1.54679 175.575 1.59866 175.415 1.63431C175.255 1.66996 175.072 1.68799 174.887 1.68638C174.702 1.68667 174.521 1.6681 174.362 1.63258C174.202 1.59707 174.071 1.54593 173.982 1.48452C173.982 1.3539 174.2 1.28265 174.887 1.28265C175.574 1.28265 175.917 1.3539 175.792 1.48452ZM178.32 1.48452C178.601 1.56764 178.757 1.67451 178.601 1.73388C178.445 1.79325 178.102 1.73388 177.79 1.73388C177.478 1.73388 177.103 1.60326 176.978 1.66264C176.853 1.72201 176.697 1.66264 176.697 1.57951C176.697 1.49639 177.478 1.34203 178.32 1.57951L178.32 1.48452ZM179.725 1.56764C179.725 1.69826 179.538 1.75763 179.319 1.71013C179.21 1.68436 179.117 1.6497 179.046 1.60865C178.976 1.5676 178.931 1.52115 178.913 1.47264C178.913 1.4317 178.956 1.39244 179.032 1.36349C179.108 1.33454 179.212 1.31827 179.319 1.31827C179.538 1.31827 179.725 1.43702 179.725 1.56764ZM303.173 1.41327C303.173 1.47264 302.673 1.47264 302.424 1.41327C302.174 1.3539 302.205 1.31827 302.674 1.31827C303.142 1.31827 303.329 1.31827 303.173 1.38951L303.173 1.41327ZM307.699 1.65075C307.699 1.69169 307.656 1.73096 307.58 1.75991C307.504 1.78886 307.401 1.80512 307.293 1.80512C307.185 1.80512 307.082 1.78886 307.006 1.75991C306.93 1.73096 306.887 1.69169 306.887 1.65075C306.887 1.60981 306.93 1.57054 307.006 1.54159C307.082 1.51264 307.185 1.49639 307.293 1.49639C307.401 1.49639 307.504 1.51264 307.58 1.54159C307.656 1.57054 307.699 1.60981 307.699 1.65075ZM159.749 1.9595C159.374 2.19699 158.781 2.13761 159.031 1.88824C159.28 1.63888 159.436 1.68638 159.624 1.73388C159.669 1.74719 159.706 1.76429 159.731 1.78384C159.756 1.8034 159.769 1.8249 159.769 1.84669C159.769 1.86848 159.756 1.88998 159.731 1.90953C159.706 1.92909 159.669 1.94618 159.624 1.9595L159.749 1.9595ZM183.97 1.9595C184.086 2.01147 184.171 2.0723 184.219 2.13786C184.268 2.20342 184.278 2.27218 184.251 2.33948C184.251 2.41072 183.876 2.33948 183.72 2.33948C183.521 2.26802 183.285 2.21315 183.027 2.17839C182.769 2.14363 182.495 2.12974 182.222 2.13761C181.473 2.13761 181.067 2.05449 181.192 1.94762C181.317 1.84075 183.439 1.73388 183.97 2.01886L183.97 1.9595ZM198.796 1.817C198.952 1.90012 198.796 1.97136 198.203 1.97136C197.61 1.97136 197.485 1.90012 197.61 1.817C197.676 1.77723 197.763 1.74301 197.865 1.71647C197.967 1.68992 198.082 1.6716 198.203 1.66263C198.327 1.6684 198.446 1.68543 198.549 1.7123C198.652 1.73916 198.737 1.77507 198.796 1.817ZM314.94 1.81699C314.94 1.85793 314.897 1.8972 314.821 1.92615C314.745 1.9551 314.642 1.97136 314.534 1.97136C314.285 1.97136 314.222 1.90011 314.347 1.81699C314.472 1.73387 314.659 1.66263 314.784 1.66263C314.909 1.66263 314.784 1.73387 314.784 1.81699L314.94 1.81699ZM206.756 2.11386C207.255 2.33947 207.286 2.43447 206.912 2.49384C206.579 2.5412 206.214 2.5412 205.882 2.49384C205.476 2.39885 205.507 2.35135 205.882 2.29198C206.256 2.23261 206.194 2.20885 205.694 2.19698C205.195 2.18511 205.101 2.11386 205.226 2.03074C205.351 1.94762 206.006 1.84075 206.724 2.16136L206.756 2.11386ZM210.283 2.11386C210.283 2.24448 210.283 2.33948 210.126 2.33948C209.97 2.33948 209.877 2.24448 209.752 2.11386C209.627 1.98324 209.752 1.88824 209.908 1.88824C210.064 1.88824 210.283 1.98324 210.283 2.11386ZM228.386 2.1851C228.917 2.31572 228.917 2.33948 228.386 2.33948C228.217 2.34326 228.047 2.33241 227.891 2.30773C227.734 2.28305 227.594 2.24519 227.481 2.19698C227.169 2.00699 227.668 1.99511 228.449 2.19698L228.386 2.1851ZM310.321 2.1851C310.321 2.26822 310.321 2.33947 310.165 2.33947C310.109 2.34111 310.053 2.33833 310 2.33131C309.947 2.32429 309.898 2.31318 309.857 2.29868C309.816 2.28418 309.784 2.2666 309.761 2.24706C309.739 2.22751 309.727 2.20641 309.728 2.1851C309.728 2.10198 309.728 2.03073 309.915 2.03073C310.102 2.03073 310.165 2.10198 310.321 2.1851ZM145.39 2.50572C145.016 2.64822 144.236 2.41072 144.517 2.24448C144.797 2.07824 144.922 2.12574 145.203 2.24448C145.484 2.36323 145.515 2.45822 145.39 2.50572ZM175.792 2.41072C176.416 2.52947 176.916 2.67196 176.916 2.75508C176.916 2.8382 176.572 2.90945 174.824 2.68384C173.763 2.54135 173.482 2.43448 173.826 2.30386C174.169 2.17324 174.356 2.13761 174.481 2.16136L175.792 2.41072ZM266.497 2.51759C266.092 2.67196 265.717 2.44634 266.06 2.24448C266.404 2.04261 266.404 2.09011 266.56 2.24448C266.609 2.28759 266.634 2.33406 266.634 2.38103C266.634 2.428 266.609 2.47448 266.56 2.51759L266.497 2.51759ZM157.969 2.38698C157.969 2.38698 158.344 2.51759 158.843 2.52947C160.342 2.52947 160.56 2.83821 159.187 2.94508C158.836 3.00364 158.444 3.01676 158.072 2.98243C157.7 2.94811 157.368 2.86823 157.127 2.75508C156.596 2.52947 156.534 2.4226 156.877 2.36322C157.22 2.30385 157.969 2.25635 157.969 2.36322L157.969 2.38698ZM168.863 3.04007C168.863 3.24193 168.395 3.21819 167.552 2.96882C167.34 2.91986 167.179 2.84502 167.094 2.75657C167.009 2.66812 167.005 2.57129 167.084 2.48197C167.333 2.2326 167.427 2.24448 168.114 2.56509C168.446 2.70228 168.701 2.86394 168.863 3.04007ZM181.348 2.41072C181.348 2.45166 181.305 2.49093 181.229 2.51988C181.153 2.54883 181.05 2.56509 180.942 2.56509C180.835 2.56509 180.731 2.54883 180.655 2.51988C180.579 2.49093 180.536 2.45166 180.536 2.41072C180.536 2.36978 180.579 2.33051 180.655 2.30156C180.731 2.27261 180.835 2.25636 180.942 2.25636C181.05 2.25636 181.153 2.27261 181.229 2.30156C181.305 2.33051 181.348 2.36978 181.348 2.41072ZM166.054 2.56509C166.058 2.58582 166.051 2.6067 166.032 2.62625C166.014 2.6458 165.984 2.66356 165.945 2.67827C165.907 2.69298 165.86 2.70429 165.809 2.71141C165.757 2.71852 165.702 2.72127 165.648 2.71946C165.519 2.71455 165.395 2.69798 165.286 2.67112C165.178 2.64426 165.088 2.6079 165.024 2.56509C165.024 2.48197 165.024 2.41072 165.429 2.41072C165.835 2.41072 166.054 2.48197 166.054 2.56509ZM170.236 2.56509C171.173 2.70758 171.016 3.0757 170.08 2.9807C169.612 2.9807 169.269 2.81445 169.269 2.69571C169.269 2.57696 169.269 2.44634 170.236 2.56509ZM145.11 2.9332C145.11 2.97414 145.067 3.0134 144.991 3.04235C144.915 3.0713 144.811 3.08757 144.704 3.08757C144.596 3.08757 144.493 3.0713 144.417 3.04235C144.341 3.0134 144.298 2.97414 144.298 2.9332C144.298 2.89226 144.341 2.853 144.417 2.82405C144.493 2.7951 144.596 2.77883 144.704 2.77883C144.811 2.77883 144.915 2.7951 144.991 2.82405C145.067 2.85299 145.11 2.89226 145.11 2.9332ZM164.649 2.9332C164.649 3.0282 164.649 3.05194 164.243 2.99257C163.837 2.9332 163.432 2.77883 164.025 2.77883C164.152 2.78548 164.274 2.80278 164.382 2.82946C164.49 2.85615 164.581 2.89157 164.649 2.9332ZM258.819 2.9332C258.819 3.01632 258.819 3.08756 258.663 3.08756C258.552 3.08767 258.446 3.0718 258.364 3.04314C258.283 3.01449 258.234 2.9752 258.226 2.9332C258.226 2.85008 258.226 2.77882 258.413 2.77882C258.6 2.77882 258.694 2.85008 258.819 2.9332ZM290.438 2.9332C290.43 2.9752 290.381 3.01449 290.299 3.04314C290.218 3.07179 290.112 3.08767 290.001 3.08756C289.782 3.08756 289.689 3.01632 289.814 2.9332C289.938 2.85008 290.126 2.77882 290.251 2.77882C290.376 2.77882 290.438 2.85008 290.438 2.9332ZM162.464 3.07569C162.468 3.09538 162.462 3.1152 162.445 3.13388C162.428 3.15256 162.401 3.16971 162.366 3.18422C162.331 3.19874 162.288 3.2103 162.24 3.2182C162.193 3.22609 162.141 3.23013 162.09 3.23006C161.959 3.22727 161.833 3.21155 161.723 3.18448C161.614 3.1574 161.525 3.11989 161.465 3.07569C161.309 2.99257 161.465 2.92133 161.84 2.92133C162.214 2.92132 162.464 2.99257 162.464 3.07569ZM336.945 3.07568C336.945 3.1588 336.945 3.23006 336.54 3.23006C336.134 3.23006 336.009 3.1588 336.134 3.07568C336.259 2.99256 336.446 2.92132 336.54 2.92132C336.633 2.92132 336.821 2.99256 336.945 3.07568ZM124.103 3.4913C124.103 3.59818 123.916 3.66942 123.51 3.65755C123.104 3.64567 122.761 3.55067 122.761 3.43193C122.761 3.31318 123.885 3.23006 124.103 3.43193L124.103 3.4913ZM125.945 3.4913C125.945 3.6338 125.945 3.6813 125.414 3.62192C124.883 3.56255 124.727 3.49131 124.852 3.40818C124.977 3.32506 125.695 3.24194 125.945 3.4913ZM109.214 3.76441C109.027 3.97815 107.31 4.13253 107.31 3.91879C107.31 3.70505 107.779 3.57443 108.621 3.57443C109.464 3.57443 109.308 3.65754 109.214 3.76441ZM189.026 3.76441C189.026 3.91878 188.277 3.99002 188.028 3.84753C187.778 3.70504 188.028 3.68129 188.402 3.68129C188.777 3.68129 189.026 3.68129 189.026 3.76441ZM100.787 4.08503C100.664 4.11213 100.524 4.12639 100.381 4.12639C100.239 4.12639 100.099 4.11213 99.9753 4.08503C99.6632 4.08503 99.7881 4.00191 100.225 4.00191C100.662 4.00191 100.912 4.00191 100.787 4.07315L100.787 4.08503ZM128.879 4.08503C128.879 4.08503 128.879 4.19189 128.504 4.23939C128.13 4.28689 128.098 4.23939 128.098 4.23939C128.094 4.21814 128.101 4.19679 128.12 4.17666C128.138 4.15654 128.167 4.1381 128.206 4.12248C128.244 4.10686 128.29 4.09441 128.341 4.08592C128.393 4.07744 128.448 4.07309 128.504 4.07315C128.723 4.07315 128.879 4.07315 128.879 4.14439L128.879 4.08503ZM301.581 4.16814C301.573 4.21014 301.524 4.24943 301.442 4.27809C301.361 4.30674 301.255 4.32261 301.144 4.32251C300.926 4.32251 300.832 4.25126 300.957 4.16814C301.082 4.08502 301.269 4.01377 301.394 4.01377C301.519 4.01377 301.581 4.08502 301.581 4.16814ZM224.079 4.78561C224.235 4.86873 224.079 4.93998 223.704 4.93998C223.33 4.93998 223.142 4.86873 223.298 4.78561C223.454 4.70249 223.611 4.63125 223.704 4.63125C223.798 4.63125 223.954 4.63124 224.079 4.78561ZM84.2439 4.92811C84.2439 4.96906 84.2012 5.00831 84.1251 5.03726C84.049 5.06621 83.9458 5.08248 83.8381 5.08248C83.7305 5.08248 83.6273 5.06621 83.5512 5.03726C83.4751 5.00831 83.4324 4.96906 83.4324 4.92811C83.4324 4.88717 83.4751 4.84791 83.5512 4.81896C83.6273 4.79001 83.7305 4.77374 83.8381 4.77374C83.9458 4.77374 84.049 4.79001 84.1251 4.81896C84.2012 4.84791 84.2439 4.88717 84.2439 4.92811ZM90.6738 5.09436C90.6738 5.31997 89.9559 5.27248 89.7062 5.02311C89.4565 4.77375 89.7062 4.83312 90.0808 4.88062C90.4553 4.92811 90.6738 5.02311 90.6738 5.09436ZM260.91 5.09435C260.911 5.1141 260.9 5.13366 260.879 5.15177C260.858 5.16988 260.828 5.18615 260.79 5.19955C260.752 5.21295 260.707 5.22318 260.657 5.2296C260.608 5.23602 260.556 5.23848 260.505 5.23684C260.453 5.23848 260.401 5.23602 260.352 5.2296C260.302 5.22318 260.257 5.21295 260.219 5.19955C260.181 5.18615 260.151 5.16988 260.13 5.15177C260.109 5.13366 260.099 5.1141 260.099 5.09435C260.099 5.05341 260.142 5.01414 260.218 4.98519C260.294 4.95624 260.397 4.93998 260.505 4.93998C260.559 4.93816 260.614 4.94091 260.665 4.94803C260.717 4.95515 260.763 4.96646 260.802 4.98117C260.841 4.99588 260.87 5.01364 260.889 5.0332C260.908 5.05275 260.915 5.07362 260.91 5.09435ZM84.6185 5.6762C84.6185 5.6762 84.2127 5.78307 83.7133 5.79495C83.1302 5.81434 82.5545 5.85814 81.9966 5.92557C81.5596 5.99681 81.7469 5.92556 82.4024 5.74745C83.0578 5.56933 84.6185 5.42684 84.6185 5.6762ZM81.1226 5.79495C80.8803 5.92382 80.5268 6.01627 80.1238 6.05618C79.5619 6.05618 79.4059 6.21055 79.5932 6.34117C79.7804 6.47179 79.7492 6.48367 79.5932 6.43617C79.3637 6.29615 79.2246 6.13745 79.1874 5.97306C79.1874 5.6762 79.1874 5.61684 80.1862 5.61684C81.185 5.61684 81.2475 5.68808 81.1538 5.79495L81.1226 5.79495ZM67.8882 5.79495C67.8882 5.86619 67.6385 5.9612 67.1079 5.99682C66.1091 6.06807 65.4848 5.99681 65.9842 5.74745C66.2611 5.67115 66.5943 5.63008 66.9363 5.63008C67.2782 5.63008 67.6113 5.67115 67.8882 5.74745L67.8882 5.79495ZM92.3906 6.10368C92.5778 6.10368 92.1721 6.1868 91.4854 6.10368C90.7987 6.02056 90.2369 5.97306 90.2369 5.88994C90.2369 5.80682 91.8287 5.88994 92.3906 6.05618L92.3906 6.10368ZM224.297 6.02056C224.297 6.02056 224.016 6.12742 223.673 6.17492C223.33 6.22242 223.142 6.17492 223.267 6.17492C223.392 6.17492 224.297 5.96119 224.297 6.07993L224.297 6.02056ZM339.786 6.02055C339.786 6.02055 339.599 6.1393 339.38 6.19867C339.162 6.25804 338.974 6.19867 338.974 6.11555C338.974 6.07344 339.016 6.03286 339.091 6.00201C339.166 5.97115 339.27 5.95232 339.38 5.94931C339.599 5.94931 339.786 5.94931 339.786 6.02055ZM66.7958 6.31742C67.4825 6.59054 65.6097 6.64991 64.1115 6.41242C63.2999 6.2818 62.6444 6.12744 62.6444 6.06806C64.0609 6.02244 65.4852 6.108 66.7958 6.31742ZM72.6951 6.18681C72.6951 6.26993 72.6951 6.34117 72.539 6.34117C72.3829 6.34117 72.2581 6.26993 72.102 6.18681C71.946 6.10368 72.102 6.03244 72.2893 6.03244C72.3969 6.03244 72.5001 6.0487 72.5762 6.07765C72.6523 6.1066 72.6951 6.14586 72.6951 6.18681ZM81.6844 6.31742C81.4347 6.56679 80.748 6.63804 80.748 6.41242C80.748 6.18681 81.029 6.21055 81.8717 6.10368C81.849 6.17911 81.7852 6.2519 81.6844 6.31742ZM87.3964 6.40054C87.081 6.49917 86.6807 6.54993 86.2728 6.54304C85.6485 6.54304 85.5236 6.54303 85.867 6.72115C86.2932 6.83754 86.8099 6.89609 87.334 6.8874C88.0831 6.8874 88.2392 6.8874 87.8647 7.07739C87.6871 7.13241 87.4824 7.17336 87.2626 7.19783C87.0428 7.22231 86.8124 7.22981 86.5849 7.21989C86.1483 7.21088 85.7106 7.21088 85.274 7.21989C84.3064 7.21989 84.7746 6.62616 85.8982 6.47179C87.0219 6.31742 87.6774 6.25805 87.3964 6.47179L87.3964 6.40054ZM84.2751 6.54304C84.2751 6.62616 84.2751 6.69741 83.8693 6.69741C83.4636 6.69741 83.3388 6.62616 83.4636 6.54304C83.5885 6.45992 83.7757 6.40054 83.8693 6.40054C83.963 6.40054 84.1191 6.45992 84.2751 6.54304ZM94.95 6.62616C94.95 6.75678 94.794 6.85177 94.5755 6.85177C94.357 6.85177 94.1385 6.75678 93.9824 6.62616C93.8264 6.49554 93.9824 6.40054 94.357 6.40054C94.436 6.39882 94.5152 6.40348 94.5892 6.41421C94.6632 6.42494 94.7304 6.4415 94.7864 6.4628C94.8424 6.48411 94.8859 6.50967 94.9141 6.53782C94.9423 6.56598 94.9546 6.59608 94.95 6.62616ZM159.343 6.6974C159.335 6.7394 159.285 6.7787 159.204 6.80735C159.123 6.836 159.016 6.85188 158.906 6.85177C158.687 6.85177 158.594 6.78052 158.718 6.6974C158.758 6.66126 158.817 6.62878 158.893 6.60214C158.968 6.57551 159.058 6.55535 159.155 6.54304C159.155 6.54304 159.343 6.54304 159.343 6.6974ZM78.4695 7.01801C79.0625 7.38612 78.8753 7.46925 77.7204 7.38613C76.5655 7.30301 76.6903 7.31488 77.3458 7.49299C80.2798 8.26483 80.4671 8.45483 78.6256 8.58545C77.7204 8.58545 77.6267 8.58545 77.8452 8.32421C78.0637 8.06297 77.8452 8.06297 77.8452 8.19359C77.65 8.2581 77.4213 8.30624 77.1739 8.33488C76.9265 8.36353 76.666 8.37202 76.4094 8.35983C75.8476 8.35983 75.4418 8.28858 75.5667 8.25296C75.6915 8.21733 75.317 8.07485 74.7864 7.93235L73.85 7.69487L74.6303 7.38613C75.0985 7.20801 75.3482 7.16051 75.1921 7.25551C75.036 7.3505 75.1921 7.46925 75.754 7.51675C76.3158 7.56424 76.9088 7.26738 76.1285 7.08927C76.0234 7.06285 75.9352 7.0278 75.8704 6.9867C75.8055 6.9456 75.7658 6.89949 75.754 6.85177C75.754 6.62616 78.1886 6.78052 78.5944 7.01801L78.4695 7.01801ZM167.24 6.7924C167.24 6.7924 166.74 6.7924 166.459 6.7924C166.178 6.7924 166.241 6.6974 166.709 6.6974C167.177 6.6974 167.365 6.6974 167.24 6.76865L167.24 6.7924ZM81.2787 7.80173C80.9354 7.94422 80.9354 8.03922 81.2787 8.19359C81.622 8.34796 81.622 8.38358 80.6856 8.19359C79.1562 7.93235 79.4059 7.64736 81.185 7.61174C81.622 7.61174 81.6532 7.61174 81.185 7.77799L81.2787 7.80173ZM83.963 7.87298C83.8279 7.93321 83.6503 7.97751 83.4513 8.00065C83.2522 8.02379 83.0399 8.02481 82.8394 8.00359C82.059 7.82548 82.3711 7.62361 83.4948 7.62361C84.6185 7.62361 84.5561 7.62361 83.963 7.87298ZM86.741 7.87298C86.6206 7.89691 86.4867 7.9094 86.3508 7.9094C86.215 7.9094 86.0811 7.89691 85.9607 7.87298C85.6485 7.87298 85.7421 7.78986 86.2103 7.77799C86.6785 7.76611 86.8659 7.77799 86.741 7.86111L86.741 7.87298ZM145.39 8.32421C145.273 8.34533 145.145 8.35629 145.016 8.35629C144.886 8.35629 144.758 8.34533 144.641 8.32421C144.329 8.32421 144.423 8.22921 144.891 8.22921C145.359 8.22921 145.547 8.22921 145.39 8.30045L145.39 8.32421ZM111.992 8.87043C111.992 8.98918 111.743 8.95355 111.743 8.77544C111.743 8.59732 111.743 8.52607 111.961 8.57357C112.017 8.62014 112.046 8.67077 112.046 8.722C112.046 8.77323 112.017 8.82386 111.961 8.87043L111.992 8.87043ZM89.5814 8.87043C89.5814 9.00105 89.3941 9.06042 89.1756 9.01292C89.0631 8.98853 88.9675 8.95425 88.8969 8.91293C88.8263 8.87162 88.7827 8.82447 88.7698 8.77544C88.8091 8.7454 88.8729 8.72105 88.9518 8.70605C89.0306 8.69105 89.1201 8.68623 89.2068 8.69232C89.4253 8.69232 89.6126 8.81106 89.6126 8.94168L89.5814 8.87043ZM84.556 9.1198C84.8057 9.21479 82.9017 9.38104 81.4347 9.38104C81.0295 9.36935 80.6226 9.36935 80.2174 9.38104C79.8741 9.38104 79.562 9.38104 79.4995 9.26229C79.4371 9.14355 83.8381 8.84668 84.4624 9.0723L84.556 9.1198ZM259.038 9.11979C259.038 9.16073 258.995 9.2 258.919 9.22895C258.843 9.2579 258.739 9.27415 258.632 9.27415C258.524 9.27415 258.421 9.2579 258.345 9.22895C258.269 9.2 258.226 9.16073 258.226 9.11979C258.226 9.07885 258.269 9.03958 258.345 9.01063C258.421 8.98168 258.524 8.96542 258.632 8.96542C258.739 8.96542 258.843 8.98168 258.919 9.01063C258.995 9.03958 259.038 9.07885 259.038 9.11979ZM63.2063 9.28604C63.2063 9.36916 63.2063 9.4404 63.0502 9.4404C62.9943 9.44204 62.9382 9.43927 62.8853 9.43225C62.8324 9.42523 62.7839 9.41412 62.7429 9.39962C62.7018 9.38512 62.6691 9.36754 62.6468 9.34799C62.6245 9.32844 62.613 9.30735 62.6132 9.28604C62.6132 9.19104 62.6132 9.13167 62.8005 9.13167C62.9878 9.13167 63.0814 9.13167 63.2063 9.28604ZM84.7434 9.64228C84.7434 9.64228 84.4936 9.74914 84.1503 9.79664C83.807 9.84414 83.5572 9.79664 83.5572 9.79664C83.5572 9.79664 83.807 9.64228 84.1503 9.64228C84.4936 9.64228 84.7434 9.64228 84.7434 9.64228ZM285.475 10.0222C285.475 10.1291 285.475 10.1647 285.007 10.1172C284.539 10.0697 284.383 9.951 284.383 9.86788C284.383 9.78475 285.288 9.78476 285.475 10.0222ZM248.956 10.2004C248.956 10.2413 248.913 10.2806 248.837 10.3095C248.761 10.3385 248.657 10.3547 248.55 10.3547C248.442 10.3547 248.339 10.3385 248.263 10.3095C248.187 10.2806 248.144 10.2413 248.144 10.2004C248.144 10.1594 248.187 10.1202 248.263 10.0912C248.339 10.0623 248.442 10.046 248.55 10.046C248.657 10.046 248.761 10.0623 248.837 10.0912C248.913 10.1202 248.956 10.1594 248.956 10.2004ZM133.03 10.8178C133.03 10.9128 133.03 10.9603 132.718 10.9603C132.406 10.9603 132.375 10.8653 132.375 10.7347C132.375 10.6041 132.375 10.5447 132.718 10.5922C132.812 10.618 132.89 10.6519 132.944 10.691C132.998 10.7302 133.028 10.7736 133.03 10.8178ZM190.306 10.8178C189.98 10.8535 189.634 10.8535 189.307 10.8178C188.995 10.8178 189.307 10.7466 189.807 10.7466C190.306 10.7466 190.587 10.7466 190.306 10.8178ZM194.208 10.8178C194.208 10.901 194.208 10.9603 194.208 10.9603C194.208 10.9603 193.927 10.901 193.771 10.8178C193.615 10.7347 193.771 10.6635 193.958 10.6635C194.066 10.6635 194.169 10.6797 194.245 10.7087C194.321 10.7376 194.364 10.7769 194.364 10.8178L194.208 10.8178ZM181.723 10.9603C181.723 11.0435 181.723 11.1147 181.535 11.1147C181.348 11.1147 181.254 11.0435 181.098 10.9603C180.942 10.8772 181.098 10.806 181.286 10.806C181.341 10.8043 181.398 10.8071 181.45 10.8141C181.503 10.8211 181.552 10.8323 181.593 10.8468C181.634 10.8613 181.667 10.8788 181.689 10.8984C181.711 10.9179 181.723 10.939 181.723 10.9603ZM177.103 11.6965C177.103 11.6965 176.635 11.6966 176.354 11.5897C176.073 11.4828 176.011 11.4234 176.604 11.5184C177.197 11.6134 177.228 11.6609 177.103 11.6965ZM137.025 11.8747C137.03 11.8954 137.023 11.9163 137.004 11.9358C136.985 11.9554 136.956 11.9731 136.917 11.9878C136.878 12.0026 136.832 12.0139 136.78 12.021C136.729 12.0281 136.674 12.0308 136.62 12.029C136.568 12.0291 136.516 12.0251 136.469 12.0172C136.421 12.0093 136.378 11.9977 136.343 11.9832C136.308 11.9687 136.281 11.9515 136.264 11.9328C136.247 11.9142 136.241 11.8944 136.245 11.8747C136.241 11.855 136.247 11.8352 136.264 11.8165C136.281 11.7978 136.308 11.7807 136.343 11.7661C136.378 11.7516 136.421 11.7401 136.469 11.7322C136.516 11.7243 136.568 11.7202 136.62 11.7203C136.727 11.7203 136.83 11.7366 136.906 11.7655C136.983 11.7945 137.025 11.8337 137.025 11.8747ZM115.176 12.0409C115.176 12.124 115.176 12.1953 114.989 12.1953C114.802 12.1953 114.708 12.124 114.583 12.0409C114.458 11.9578 114.583 11.8865 114.739 11.8865C114.795 11.8849 114.851 11.8877 114.904 11.8947C114.957 11.9017 115.005 11.9128 115.046 11.9273C115.088 11.9418 115.12 11.9594 115.143 11.979C115.165 11.9985 115.176 12.0196 115.176 12.0409ZM165.492 11.9459C165.492 11.9459 165.211 12.0409 164.867 12.1003C164.524 12.1597 164.337 12.1003 164.493 12.1003C164.649 12.1003 165.492 11.8747 165.492 12.0053L165.492 11.9459ZM180.38 12.1834C180.38 12.2665 180.38 12.3378 180.193 12.3378C180.006 12.3378 179.943 12.2665 179.787 12.1834C179.631 12.1003 179.787 12.029 179.975 12.029C180.082 12.029 180.185 12.0453 180.262 12.0742C180.338 12.1032 180.38 12.1425 180.38 12.1834ZM130.096 12.4446C130.096 12.5753 129.909 12.6346 129.659 12.5753C129.553 12.5527 129.474 12.5153 129.439 12.4709C129.404 12.4266 129.416 12.3789 129.472 12.3378C129.846 12.124 130.096 12.1597 130.096 12.4446ZM134.403 12.4446C134.283 12.4686 134.149 12.4811 134.013 12.4811C133.877 12.4811 133.744 12.4686 133.623 12.4446C133.311 12.4446 133.405 12.3615 133.873 12.3496C134.341 12.3378 134.528 12.3496 134.403 12.4328L134.403 12.4446ZM103.19 12.5753C103.19 12.5753 103.19 12.6821 102.785 12.7296C102.379 12.7771 102.379 12.7296 102.379 12.7296C102.378 12.6875 102.42 12.6469 102.496 12.6161C102.571 12.5852 102.674 12.5664 102.785 12.5634C103.034 12.5634 103.19 12.5634 103.19 12.6346L103.19 12.5753Z" fill="white"/>
<path d="M265.811 0.213517C265.934 0.240614 266.074 0.254883 266.217 0.254883C266.359 0.254883 266.499 0.240614 266.622 0.213517C266.622 0.213517 266.622 0.130395 266.06 0.130395C265.499 0.130395 265.499 0.130397 265.811 0.225394L265.811 0.213517Z" fill="white"/>
<path d="M167.24 1.34172C167.24 1.42484 167.24 1.49609 167.428 1.49609C167.535 1.49609 167.638 1.47983 167.714 1.45088C167.791 1.42193 167.833 1.38266 167.833 1.34172C167.833 1.2586 167.833 1.18735 167.833 1.18735C167.833 1.18735 167.552 1.2586 167.396 1.34172L167.24 1.34172Z" fill="white"/>
<path d="M117.299 2.36299C117.419 2.38692 117.553 2.39941 117.689 2.39941C117.825 2.39941 117.959 2.38692 118.079 2.36299C118.079 2.36299 118.079 2.268 117.549 2.27987C117.018 2.29174 116.987 2.27987 117.299 2.37486L117.299 2.36299Z" fill="white"/>
<path d="M136.183 2.36291C136.515 2.41028 136.881 2.41028 137.213 2.36291C137.494 2.36291 137.213 2.27979 136.682 2.27979C136.151 2.27979 135.902 2.27979 136.183 2.36291Z" fill="white"/>
<path d="M75.9102 4.83288C75.9102 4.90412 74.9738 4.93975 73.8189 4.90412C72.664 4.8685 71.8525 4.90412 72.3207 4.99912C73.3507 5.28411 77.3772 5.14162 76.8778 4.84476C76.3784 4.54789 75.9102 4.66664 75.9102 4.84476L75.9102 4.83288Z" fill="white"/>
<path d="M342.034 5.07025C342.034 5.33149 343.126 5.71148 343.469 5.58086C343.813 5.45024 343.469 5.3315 342.876 5.16525C342.283 4.99901 342.034 4.91588 342.034 5.07025Z" fill="white"/>
<path d="M61.1154 5.31976C61.2715 5.41475 61.4587 5.47412 61.5524 5.47412C61.646 5.47412 61.7397 5.41475 61.7397 5.31976C61.7317 5.27776 61.6823 5.23845 61.6012 5.2098C61.52 5.18115 61.4134 5.16528 61.3027 5.16538C61.2563 5.16592 61.2112 5.17136 61.1725 5.1811C61.1338 5.19084 61.1029 5.2045 61.0835 5.22053C61.064 5.23656 61.0568 5.25434 61.0624 5.27187C61.068 5.2894 61.0864 5.30598 61.1154 5.31976Z" fill="white"/>
<path d="M59.4298 5.78307C59.6795 5.96118 59.9292 6.0918 60.054 6.0918C60.1789 6.0918 60.054 5.96118 59.8043 5.78307C59.5546 5.60495 59.3049 5.47433 59.1801 5.47433C59.0552 5.47433 59.1801 5.60495 59.4298 5.78307Z" fill="white"/>
<path d="M57.0264 5.94931C57.0264 6.03243 57.3697 6.0918 57.8379 6.0918C58.3061 6.0918 58.6182 6.0918 58.6182 6.0918C58.6182 6.0918 58.2749 5.99681 57.8379 5.94931C57.4009 5.90181 57.0264 5.94931 57.0264 5.94931Z" fill="white"/>
<path d="M46.7883 6.31704C46.5386 6.57828 47.475 6.74452 48.3801 6.6139C49.2853 6.48329 48.9732 6.6139 48.7859 6.68515C48.5987 6.75639 48.7859 6.86327 49.5663 6.86327C50.3466 6.86327 50.6899 6.94639 50.8148 7.16013C50.9396 7.37387 51.1581 7.43324 51.7512 7.30263C52.489 7.20489 53.2919 7.20489 54.0297 7.30262C55.0285 7.37387 55.3407 7.44512 54.8413 7.48074C54.3419 7.51637 54.1858 7.63511 54.3419 7.77761C54.4616 7.87157 54.5456 7.97152 54.5916 8.07447C54.5916 8.25258 55.7465 8.07446 56.2459 7.88447C56.7453 7.69448 56.6829 7.62323 56.2459 7.57573C55.8089 7.52823 56.0586 7.40949 56.6517 7.20763L57.5568 6.91077L56.558 6.91077C55.9977 6.92315 55.4363 6.89495 54.9037 6.82764C54.6626 6.78742 54.4022 6.76666 54.139 6.76666C53.8757 6.76666 53.6153 6.78742 53.3743 6.82764C52.4691 7.01764 51.5639 6.92264 51.9697 6.67328C52.0632 6.64535 52.1786 6.63017 52.2974 6.63017C52.4163 6.63017 52.5317 6.64535 52.6251 6.67328C52.9061 6.74453 52.9685 6.67328 52.8124 6.67328C52.6563 6.67328 52.0945 6.54266 51.5015 6.57828C49.2853 6.73265 48.8795 6.68515 50.1281 6.41204C51.3766 6.13893 50.4715 6.1033 49.2854 6.41204C49.0563 6.46687 48.7912 6.49596 48.5206 6.49596C48.25 6.49596 47.9849 6.46687 47.7559 6.41204C47.1628 6.2933 46.9131 6.30517 46.757 6.41204L46.7883 6.31704ZM55.7776 7.78947C55.7776 7.87259 55.7776 7.94385 55.7776 7.94385C55.7776 7.94385 55.4967 7.87259 55.3407 7.78947C55.1846 7.70635 55.3407 7.63511 55.528 7.63511C55.6356 7.63511 55.7388 7.65137 55.8149 7.68032C55.891 7.70927 55.9337 7.74853 55.9337 7.78947L55.7776 7.78947Z" fill="white"/>
<path d="M55.4968 6.24602C55.7153 6.54289 57.6818 6.80412 58.1812 6.61413C58.6806 6.42414 58.1812 6.45976 57.3384 6.45976C56.7367 6.46406 56.1544 6.37885 55.7154 6.22227C55.4032 6.05603 55.372 6.05603 55.4968 6.22227L55.4968 6.24602Z" fill="white"/>
<path d="M42.7933 6.7568L41.6384 6.94678L42.7309 7.23177C43.8234 7.50488 43.8234 7.49301 43.6049 7.16052C43.3864 6.82804 43.6049 6.82804 44.2604 6.91116C46.6014 7.1724 47.3817 7.19615 47.3817 7.00616C47.3817 6.81617 47.1007 6.86366 46.7574 6.91116C46.414 6.95866 46.2268 6.91116 46.3828 6.91116C46.5389 6.91116 46.3829 6.7568 45.821 6.7568C45.3753 6.77779 44.9245 6.77779 44.4788 6.7568C43.9098 6.74199 43.3403 6.78287 42.8245 6.87554L42.7933 6.7568Z" fill="white"/>
<path d="M39.5159 7.10083C39.1101 7.50456 39.2349 7.70642 39.7656 7.50456C40.2962 7.30269 41.0765 7.24332 40.7332 7.50456C40.3898 7.76579 40.8892 7.69455 41.3886 7.7658C41.8524 7.81273 42.2736 7.90719 42.606 8.0389C42.7932 8.14577 42.9181 8.03891 42.9181 7.86079C42.9181 7.68268 42.9181 7.5283 42.0441 7.61142C41.1701 7.69454 41.2326 7.61143 41.4511 7.45706C41.6695 7.30269 41.4511 7.2077 41.2638 7.2077C41.0765 7.2077 40.9517 7.20769 41.0765 7.0652C41.2014 6.92271 41.0765 6.91083 40.5459 6.91083C40.3301 6.91164 40.1192 6.93543 39.9372 6.97951C39.7551 7.02358 39.6092 7.08617 39.5159 7.1602L39.5159 7.10083Z" fill="white"/>
<path d="M57.9937 7.16035C57.307 7.42159 57.3383 7.43346 58.5868 7.61157C59.8353 7.78969 59.8041 7.74219 59.4608 7.61157C59.3397 7.5633 59.251 7.50465 59.2021 7.44058C59.1532 7.3765 59.1456 7.3089 59.1798 7.24347C59.492 6.92286 58.7741 6.87536 57.9937 7.16035Z" fill="white"/>
<path d="M36.1449 7.31445C35.4117 7.36301 34.662 7.36301 33.9288 7.31445C32.8051 7.31445 32.7739 7.31446 33.7103 7.42132C34.1815 7.51318 34.7199 7.54244 35.2398 7.50445C35.5207 7.50445 35.7704 7.50445 35.7704 7.50445C35.7704 7.50445 35.4894 7.67069 35.1461 7.71819C34.8028 7.76568 34.7716 8.13379 35.6768 8.13379C36.5819 8.13379 36.2698 8.13379 35.8328 7.9913C35.3958 7.84881 35.6768 7.78943 36.6444 7.62319C37.612 7.45695 38.0177 7.40945 38.205 7.62319C38.3923 7.83693 38.4859 7.83693 38.6732 7.62319C38.8605 7.40945 37.4871 7.05322 36.1449 7.18384L36.1449 7.31445Z" fill="white"/>
<path d="M48.6303 7.38637C49.3794 7.65949 50.2534 7.70698 50.0037 7.38637C49.754 7.06576 49.4419 7.1845 48.9425 7.14888C48.4431 7.11326 48.0997 7.14888 48.6303 7.327L48.6303 7.38637Z" fill="white"/>
<path d="M31.3693 7.76571C31.3693 7.94383 30.9635 8.02695 30.7138 7.97945C30.4641 7.93195 30.4329 7.97945 30.7138 8.06257C30.79 8.13227 30.81 8.20902 30.771 8.28304C30.7321 8.35706 30.6361 8.42499 30.4953 8.47818C30.2144 8.6088 30.0896 8.72754 30.2144 8.77504C30.3393 8.82254 30.6514 8.66817 30.9323 8.4663C31.4941 8.06257 32.6178 7.80134 32.2744 8.15757C32.2744 8.30006 32.2745 8.38318 32.649 8.38318C33.6791 8.38318 33.8663 8.06257 32.9924 7.75383C32.1184 7.4451 31.7126 7.3976 31.4629 7.75383L31.3693 7.76571Z" fill="white"/>
<path d="M28.2787 7.73031C28.2063 7.75905 28.1658 7.79734 28.1658 7.83717C28.1658 7.87701 28.2063 7.91531 28.2787 7.94405C28.5597 8.12217 29.6833 8.12217 29.6833 7.94405C29.6833 7.76593 28.6221 7.59969 28.31 7.73031L28.2787 7.73031Z" fill="white"/>
<path d="M46.0079 7.93214C46.2493 8.03798 46.51 8.13718 46.7882 8.229C46.7882 8.229 46.7882 8.09838 46.7882 7.93214C46.7924 7.89217 46.7754 7.85228 46.738 7.81488C46.7007 7.77749 46.6439 7.74334 46.571 7.71451C46.4981 7.68567 46.4107 7.66274 46.3139 7.64708C46.2171 7.63143 46.1131 7.62337 46.0079 7.6234C45.29 7.6234 45.29 7.62341 46.0079 7.93214Z" fill="white"/>
<path d="M48.2554 8.03876C48.4097 8.09897 48.5942 8.14681 48.7979 8.17944C49.0016 8.21207 49.2205 8.22884 49.4415 8.22876C50.2843 8.22876 50.4403 8.47812 49.66 8.59686C48.8797 8.71561 49.4103 8.66811 49.66 8.67998C49.8414 8.67778 50.0207 8.69569 50.1758 8.73153C50.331 8.76737 50.4554 8.8196 50.534 8.88186C50.534 9.01247 50.8149 8.98872 51.0334 8.79873C51.564 8.3 50.7213 7.88439 49.1294 7.87252C47.5375 7.86065 47.756 7.87252 48.0994 8.03876L48.2554 8.03876Z" fill="white"/>
<path d="M51.7512 8.02706C52.1796 8.14182 52.6947 8.20019 53.2183 8.1933C53.8425 8.1933 54.0922 8.19329 53.8113 8.12205C53.5304 8.0508 53.4055 8.00331 53.4992 7.94394C53.5928 7.88456 53.187 7.82519 52.5316 7.83706C51.8761 7.84894 51.4703 7.90831 51.7512 8.02706Z" fill="white"/>
<path d="M23.6597 8.07464C23.6597 8.11558 23.7024 8.15484 23.7785 8.18379C23.8546 8.21274 23.9578 8.229 24.0655 8.229C24.3152 8.229 24.3776 8.15776 24.2527 8.07464C24.1279 7.99152 23.9406 7.93214 23.8157 7.93214C23.6909 7.93214 23.6597 7.93215 23.6597 8.07464Z" fill="white"/>
<path d="M26.2194 8.22907C25.5327 8.51406 25.5327 8.52593 26.2194 8.50218C26.906 8.47843 26.9684 8.43094 26.8748 8.37157C26.7812 8.3122 26.8748 8.22907 27.1557 8.19345C27.4366 8.15783 27.4991 8.09845 27.1557 8.02721C26.8124 7.95596 26.4066 8.02721 26.032 8.22907L26.2194 8.22907Z" fill="white"/>
<path d="M39.7032 8.20548C40.3587 8.32423 40.6396 8.84671 40.0466 8.84671C39.4535 8.84671 39.7032 8.90608 39.7032 9.00108C39.7032 9.09607 40.3899 9.00107 41.2951 8.84671C42.0074 8.69901 42.7763 8.59483 43.5737 8.53798C44.1355 8.53798 44.1668 8.53797 43.8234 8.35986C43.759 8.33002 43.678 8.30599 43.5862 8.28949C43.4945 8.27299 43.3942 8.26443 43.2927 8.26443C43.1913 8.26443 43.0911 8.27299 42.9993 8.28949C42.9076 8.30599 42.8265 8.33002 42.7621 8.35986C42.3876 8.4786 42.1067 8.49048 41.9194 8.35986C41.8655 8.31738 41.7695 8.28477 41.6524 8.26919C41.5354 8.25361 41.4069 8.25632 41.2951 8.27674C41.1078 8.27674 40.8582 8.27674 40.7021 8.19362C40.5876 8.14299 40.4427 8.1036 40.2797 8.0788C40.1167 8.05399 39.9404 8.0445 39.7657 8.05112C39.2038 8.05112 39.1726 8.05112 39.7657 8.16986L39.7032 8.20548Z" fill="white"/>
<path d="M60.6157 8.21706C60.6157 8.31206 61.3649 8.3833 62.3013 8.3833C64.2989 8.3833 64.1428 8.22893 62.0827 8.13394C61.2088 8.13394 60.6157 8.13394 60.6157 8.21706Z" fill="white"/>
<path d="M55.9962 8.38314C55.9962 8.46627 55.9962 8.53752 55.9962 8.53752C55.9962 8.53752 55.9962 8.68001 55.7777 8.83438C55.5592 8.98875 55.2471 9.11937 53.9674 8.9175C52.1882 8.63251 52.0946 8.73938 53.9674 9.07187C55.8401 9.40435 58.2123 9.23811 57.4632 8.89375C57.2135 8.775 57.1511 8.68001 57.4632 8.70376C58.1183 8.7165 58.7746 8.7165 59.4296 8.70376C60.7718 8.70376 60.8967 8.70376 60.3036 8.52564C59.7585 8.42793 59.1428 8.40284 58.5556 8.4544C58.2966 8.48399 58.0244 8.49293 57.7558 8.48067C57.4873 8.46841 57.2283 8.43521 56.995 8.38314C56.6204 8.2644 56.4019 8.2644 56.2147 8.38314L55.9962 8.38314Z" fill="white"/>
<path d="M37.2685 8.49065C37.2685 8.59752 36.8628 8.68064 36.3634 8.68064C35.8393 8.68572 35.3343 8.75671 34.9275 8.88251C34.5218 9.03688 34.272 9.01312 33.835 8.77564C33.3981 8.53815 33.242 8.49065 33.242 8.77564C33.242 9.06062 33.0547 9.0725 32.7114 9.025C32.6336 9.01367 32.5506 9.00838 32.4674 9.00944C32.3841 9.0105 32.3023 9.01789 32.2267 9.03117C32.151 9.04445 32.0832 9.06335 32.0271 9.08677C31.9709 9.11018 31.9277 9.13763 31.8999 9.16749C31.7126 9.35749 31.8998 9.36936 32.805 9.27436C33.5357 9.21573 34.2905 9.21573 35.0212 9.27436C35.7079 9.27436 36.0824 9.27436 36.0824 9.16749C36.0824 9.06062 36.3321 9.01312 36.6755 9.06062C37.0188 9.10812 37.2685 9.06062 37.2685 9.06062C37.2685 9.06062 37.6431 8.94188 38.0488 8.94188C38.4546 8.94188 38.8604 8.8825 38.8604 8.79938C38.8604 8.71626 38.6419 8.64502 38.3922 8.64502C38.2361 8.64216 38.0834 8.62696 37.9436 8.60038C37.8039 8.5738 37.6803 8.53643 37.5807 8.49065C37.3934 8.39566 37.2685 8.4194 37.2685 8.49065Z" fill="white"/>
<path d="M21.5056 8.69244C21.6699 8.73794 21.8588 8.769 22.0585 8.78337C22.2582 8.79775 22.4638 8.79508 22.6605 8.77556C23.1911 8.77556 23.0975 8.70431 22.2547 8.63306C21.412 8.56181 21.2559 8.63306 21.5056 8.63306L21.5056 8.69244Z" fill="white"/>
<path d="M24.4087 8.69227C24.4087 8.7754 24.4086 8.81102 24.8144 8.69227C25.2202 8.57353 25.189 8.57353 25.189 8.53791C25.189 8.50229 25.0329 8.46666 24.8144 8.46666C24.7584 8.46659 24.703 8.47095 24.6516 8.47944C24.6002 8.48793 24.554 8.50037 24.5159 8.51599C24.4778 8.5316 24.4486 8.55006 24.4301 8.57018C24.4117 8.5903 24.4044 8.61165 24.4087 8.6329L24.4087 8.69227Z" fill="white"/>
<path d="M25.5948 9.02475C25.2202 9.27411 25.2514 9.32161 25.5948 9.27411C25.7553 9.24335 25.8935 9.198 25.9969 9.14208C26.1004 9.08615 26.166 9.02138 26.1878 8.9535C26.3439 8.59727 26.1878 8.62102 25.5636 9.02475L25.5948 9.02475Z" fill="white"/>
<path d="M28.1852 8.96508C28.6222 9.1432 28.9343 9.16695 29.2464 9.0482C29.5586 8.92946 29.2465 8.87008 28.6222 8.81071C27.9979 8.75134 27.5922 8.81071 28.1852 8.96508Z" fill="white"/>
<path d="M49.6598 9.16671C49.9407 9.27358 50.2528 9.32108 50.3776 9.27358C50.5025 9.22608 50.3776 9.14296 49.8782 9.08359C49.3788 9.02422 49.254 9.01235 49.6598 9.16671Z" fill="white"/>
<path d="M22.13 9.38084C22.3573 9.47121 22.6207 9.54734 22.9104 9.60645C22.9104 9.60645 23.0664 9.51146 23.0664 9.38084C23.0664 9.25022 22.7231 9.15522 22.2861 9.15522C21.8491 9.15522 21.5682 9.15522 22.13 9.38084Z" fill="white"/>
<path d="M29.3719 9.44072C28.9349 9.71383 28.9661 9.72571 29.8401 9.63071C30.714 9.53572 31.2134 9.25072 30.3707 9.19135C30.0898 9.19135 29.6216 9.28635 29.3719 9.44072Z" fill="white"/>
<path d="M64.2364 9.63001C63.6433 9.7725 63.6746 9.78438 65.204 9.84375C65.8283 9.84375 66.3277 9.84375 66.3277 9.76063C66.3277 9.67751 64.8607 9.47564 64.2364 9.63001Z" fill="white"/>
<path d="M338.382 9.49931L339.349 9.77243C340.067 9.97429 340.098 9.97429 339.599 9.77243C339.361 9.64712 339.021 9.55527 338.631 9.51119C338.413 9.51119 338.288 9.51119 338.382 9.51119L338.382 9.49931Z" fill="white"/>
<path d="M37.2686 9.76064C36.7379 9.89126 36.7379 9.915 37.2686 9.915C37.4444 9.91581 37.6188 9.90249 37.7801 9.87589C37.9415 9.84928 38.0863 9.81001 38.205 9.76064C38.5171 9.57065 37.9865 9.57065 37.1749 9.76064L37.2686 9.76064Z" fill="white"/>
<path d="M61.7394 9.87966C61.1151 9.87966 60.7093 9.99841 60.803 10.0697C60.8966 10.1409 62.9879 10.0697 63.3 9.90341C63.6121 9.73716 63.3 9.78467 63.3 9.79654L61.7394 9.87966Z" fill="white"/>
<path d="M71.884 9.87952C70.4794 9.99827 70.6979 10.0458 72.8204 10.0933C73.5071 10.0933 73.9128 10.0933 73.9128 9.92702C73.9128 9.76078 73.9128 9.73703 73.6319 9.7489L71.884 9.87952Z" fill="white"/>
<path d="M55.9963 10.0699C55.9963 10.1411 55.9963 10.2242 55.4969 10.2598C54.9974 10.2955 54.9038 10.3311 55.4969 10.4023C55.7167 10.4265 55.9489 10.4294 56.1724 10.4107C56.3959 10.392 56.6036 10.3524 56.7766 10.2955C57.1512 10.1411 57.0888 10.0817 56.4957 10.0224C55.9026 9.96298 55.809 10.0224 55.9026 10.0224L55.9963 10.0699Z" fill="white"/>
<path d="M59.336 10.1765C59.4565 10.2004 59.5903 10.2129 59.7262 10.2129C59.8621 10.2129 59.9959 10.2004 60.1164 10.1765C60.1164 10.1765 60.1164 10.0933 59.5858 10.0933C59.0551 10.0933 59.0239 10.0933 59.336 10.1883L59.336 10.1765Z" fill="white"/>
<path d="M48.9421 10.3667C48.63 10.4499 48.4739 10.5449 48.5988 10.5923C48.7236 10.6398 49.1606 10.5923 49.5976 10.4617C50.0345 10.3311 49.8785 10.1411 48.9421 10.3667Z" fill="white"/>
<path d="M43.1367 10.9717C43.0824 11.0191 43.078 11.0726 43.1245 11.1213C43.1709 11.1699 43.2647 11.2098 43.3864 11.2329C43.6361 11.2329 43.7297 11.2329 43.5736 11.2329C43.4176 11.2329 43.5736 11.0429 43.8233 10.9954C44.0731 10.9479 44.1979 10.9123 43.8233 10.9004C43.6839 10.8957 43.5436 10.9053 43.4173 10.9283C43.291 10.9513 43.1833 10.9868 43.1054 11.031L43.1367 10.9717Z" fill="white"/>
<path d="M64.2367 10.9838C64.2367 11.0669 63.8934 11.0907 63.5188 10.9838C63.1443 10.8769 62.957 10.9838 63.1131 10.9838C63.5118 11.074 63.9611 11.1269 64.424 11.1382C65.2668 11.1382 65.3604 11.1382 64.9859 10.9601C64.6113 10.782 64.2367 10.6988 64.2367 10.9601L64.2367 10.9838Z" fill="white"/>
<path d="M39.266 11.4826C39.6094 11.6132 39.9527 11.6132 40.6394 11.4826C41.3261 11.352 41.4822 11.3045 40.1712 11.3045C38.8603 11.3045 38.9227 11.3045 39.266 11.4826Z" fill="white"/>
<path d="M60.3975 11.6013C60.1061 11.7755 60.5119 11.7755 61.6148 11.6013C62.3951 11.4707 62.3951 11.4707 61.6148 11.4588C61.4064 11.4473 61.1939 11.4542 60.9937 11.4789C60.7934 11.5036 60.6108 11.5455 60.4599 11.6013L60.3975 11.6013Z" fill="white"/>
<path d="M181.38 12.5156C181.38 12.5565 181.423 12.5958 181.499 12.6247C181.575 12.6537 181.678 12.6699 181.786 12.6699C182.035 12.6699 182.098 12.5987 181.973 12.5156C181.848 12.4324 181.63 12.3612 181.536 12.3612C181.442 12.3612 181.38 12.3612 181.38 12.5156Z" fill="white"/>
<path d="M138.305 13.5131C137.868 13.715 137.868 13.7269 138.461 13.6556C139.054 13.5844 139.117 13.5013 139.117 13.43C139.117 13.3588 138.898 13.2519 138.305 13.5131Z" fill="white"/>
</g>
<defs>
<clipPath id="clip0_200_56">
<rect width="14" height="344" fill="white" transform="translate(0 14) rotate(-90)"/>
</clipPath>
</defs>
</svg>
